/* XPM */
static char *coin[] = {
/* columns rows colors chars-per-pixel */
"64 64 6 1 ",
"  c None",
". c #25131A",
"X c #C09344",
"o c #FFF1CC",
"O c #FFD569",
"+ c white",
/* pixels */
"                                                                ",
"                                                                ",
"                                                                ",
"                                                                ",
"                                                                ",
"                                                                ",
"                                                                ",
"                                                                ",
"                                                                ",
"                                                                ",
"                                                                ",
"                                                                ",
"                                                                ",
"                                                                ",
"                                                                ",
"                                                                ",
"                        ................                        ",
"                        ................                        ",
"                        ................                        ",
"                        ................                        ",
"                    ....XXXXXXXXXXXXXXXX....                    ",
"                    ....XXXXXXXXXXXXXXXX....                    ",
"                    ....XXXXXXXXXXXXXXXX....                    ",
"                    ....XXXXXXXXXXXXXXXX....                    ",
"                ....XXXXooooooooooooOOOOXXXX....                ",
"                ....XXXXooooooooooooOOOOXXXX....                ",
"                ....XXXXooooooooooooOOOOXXXX....                ",
"                ....XXXXooooooooooooOOOOXXXX....                ",
"            ....XXXXooooooooXXXXXXXXOOOOooooXXXX....            ",
"            ....XXXXooooooooXXXXXXXXOOOOooooXXXX....            ",
"            ....XXXXooooooooXXXXXXXXOOOOooooXXXX....            ",
"            ....XXXXooooooooXXXXXXXXOOOOooooXXXX....            ",
"            ....XXXXooooXXXXooooOOOOXXXXOOOOXXXX....            ",
"            ....XXXXooooXXXXooooOOOOXXXXOOOOXXXX....            ",
"            ....XXXXooooXXXXooooOOOOXXXXOOOOXXXX....            ",
"            ....XXXXooooXXXXooooOOOOXXXXOOOOXXXX....            ",
"            ....XXXXOOOOXXXXOOOOOOOOXXXXOOOOXXXX....            ",
"            ....XXXXOOOOXXXXOOOOOOOOXXXXOOOOXXXX....            ",
"            ....XXXXOOOOXXXXOOOOOOOOXXXXOOOOXXXX....            ",
"            ....XXXXOOOOXXXXOOOOOOOOXXXXOOOOXXXX....            ",
"            ....XXXXooooOOOOXXXXXXXXOOOOOOOOXXXX....            ",
"            ....XXXXooooOOOOXXXXXXXXOOOOOOOOXXXX....            ",
"            ....XXXXooooOOOOXXXXXXXXOOOOOOOOXXXX....            ",
"            ....XXXXooooOOOOXXXXXXXXOOOOOOOOXXXX....            ",
"                ....XXXXOOOOOOOOOOOOOOOOXXXX....                ",
"                ....XXXXOOOOOOOOOOOOOOOOXXXX....                ",
"                ....XXXXOOOOOOOOOOOOOOOOXXXX....                ",
"                ....XXXXOOOOOOOOOOOOOOOOXXXX....                ",
"                    ....XXXXXXXXXXXXXXXX....                    ",
"                    ....XXXXXXXXXXXXXXXX....                    ",
"                    ....XXXXXXXXXXXXXXXX....                    ",
"                    ....XXXXXXXXXXXXXXXX....                    ",
"                        ................                        ",
"                        ................                        ",
"                        ................                        ",
"                        ................                        ",
"                                                                ",
"                                                                ",
"                                                                ",
"                                                                ",
"                                                                ",
"                                                                ",
"                                                                ",
"                                                                "
};
