/* XPM */
static char *f_b_1[] = {
/* columns rows colors chars-per-pixel */
"64 64 4 1 ",
"  c #3D253B",
". c #362030",
"X c #25131A",
"o c white",
/* pixels */
"                                        ........................",
"                                        ........................",
"                                        ........................",
"                                        ........................",
"                                                            ....",
"                                                            ....",
"                                                            ....",
"                                                            ....",
"                                                            ....",
"                                                            ....",
"                                                            ....",
"                                                            ....",
"                                                            ....",
"                                                            ....",
"                                                            ....",
"                                                            ....",
"                                                            ....",
"                                                            ....",
"                                                            ....",
"                                                            ....",
"                                                            ....",
"                                                            ....",
"                                                            ....",
"                                                            ....",
"................................................    ....        ",
"................................................    ....        ",
"................................................    ....        ",
"................................................    ....        ",
"                                                                ",
"                                                                ",
"                                                                ",
"                                                                ",
"                                                                ",
"                                                                ",
"                                                                ",
"                                                                ",
"                                                                ",
"                                                                ",
"                                                                ",
"                                                                ",
"                                                                ",
"                                                                ",
"                                                                ",
"                                                                ",
"                                                                ",
"                                                                ",
"                                                                ",
"                                                                ",
"                                                                ",
"                                                                ",
"                                                                ",
"                                                                ",
"                                                                ",
"                                                                ",
"                                                                ",
"                                                                ",
"................................................................",
"................................................................",
"................................................................",
"................................................................",
"XXXXXXXXXXXXXXXXXXXXXXXXXXXXXXXXXXXXXXXXXXXXXXXXXXXXXXXXXXXXXXXX",
"XXXXXXXXXXXXXXXXXXXXXXXXXXXXXXXXXXXXXXXXXXXXXXXXXXXXXXXXXXXXXXXX",
"XXXXXXXXXXXXXXXXXXXXXXXXXXXXXXXXXXXXXXXXXXXXXXXXXXXXXXXXXXXXXXXX",
"XXXXXXXXXXXXXXXXXXXXXXXXXXXXXXXXXXXXXXXXXXXXXXXXXXXXXXXXXXXXXXXX"
};
