/* XPM */
static char *f_br_1[] = {
/* columns rows colors chars-per-pixel */
"64 64 4 1 ",
"  c #3D253B",
". c #362030",
"X c #25131A",
"o c white",
/* pixels */
"                                                        ....XXXX",
"                                                        ....XXXX",
"                                                        ....XXXX",
"                                                        ....XXXX",
"                                                        ....XXXX",
"                                                        ....XXXX",
"                                                        ....XXXX",
"                                                        ....XXXX",
"                                                        ....XXXX",
"                                                        ....XXXX",
"                                                        ....XXXX",
"                                                        ....XXXX",
"                                                        ....XXXX",
"                                                        ....XXXX",
"                                                        ....XXXX",
"                                                        ....XXXX",
"                                                        ....XXXX",
"                                                        ....XXXX",
"                                                        ....XXXX",
"                                                        ....XXXX",
"                                                        ....XXXX",
"                                                        ....XXXX",
"                                                        ....XXXX",
"                                                        ....XXXX",
"                                                        ....XXXX",
"                                                        ....XXXX",
"                                                        ....XXXX",
"                                                        ....XXXX",
"                                                        ....XXXX",
"                                                        ....XXXX",
"                                                        ....XXXX",
"                                                        ....XXXX",
"                                                        ....XXXX",
"                                                        ....XXXX",
"                                                        ....XXXX",
"                                                        ....XXXX",
"                                                        ....XXXX",
"                                                        ....XXXX",
"                                                        ....XXXX",
"                                                        ....XXXX",
"                                                        ....XXXX",
"                                                        ....XXXX",
"                                                        ....XXXX",
"                                                        ....XXXX",
"................        ....    ....                    ....XXXX",
"................        ....    ....                    ....XXXX",
"................        ....    ....                    ....XXXX",
"................        ....    ....                    ....XXXX",
"                                ....                    ....XXXX",
"                                ....                    ....XXXX",
"                                ....                    ....XXXX",
"                                ....                    ....XXXX",
"                                ....                    ....XXXX",
"                                ....                    ....XXXX",
"                                ....                    ....XXXX",
"                                ....                    ....XXXX",
"............................................................XXXX",
"............................................................XXXX",
"............................................................XXXX",
"............................................................XXXX",
"XXXXXXXXXXXXXXXXXXXXXXXXXXXXXXXXXXXXXXXXXXXXXXXXXXXXXXXXXXXXXXXX",
"XXXXXXXXXXXXXXXXXXXXXXXXXXXXXXXXXXXXXXXXXXXXXXXXXXXXXXXXXXXXXXXX",
"XXXXXXXXXXXXXXXXXXXXXXXXXXXXXXXXXXXXXXXXXXXXXXXXXXXXXXXXXXXXXXXX",
"XXXXXXXXXXXXXXXXXXXXXXXXXXXXXXXXXXXXXXXXXXXXXXXXXXXXXXXXXXXXXXXX"
};
