/* XPM */
static char *key[] = {
/* columns rows colors chars-per-pixel */
"64 64 6 1 ",
"  c None",
". c #25131A",
"X c #FFF1CC",
"o c #C09344",
"O c #FFD569",
"+ c white",
/* pixels */
"                                                                ",
"                                                                ",
"                                                                ",
"                                                                ",
"                                                                ",
"                                                                ",
"                                                                ",
"                                                                ",
"                                                                ",
"                                                                ",
"                                                                ",
"                                                                ",
"                                                                ",
"                                                                ",
"                                                                ",
"                                                                ",
"                                                                ",
"                                                                ",
"                                                                ",
"                                                                ",
"                                        ........                ",
"                                        ........                ",
"                                        ........                ",
"                                        ........                ",
"                                    ....XXXXoooo....            ",
"                                    ....XXXXoooo....            ",
"                                    ....XXXXoooo....            ",
"                                    ....XXXXoooo....            ",
"            ........................oooo........oooo....        ",
"            ........................oooo........oooo....        ",
"            ........................oooo........oooo....        ",
"            ........................oooo........oooo....        ",
"            ....oooooooooooooooooooooooo    ....oooo....        ",
"            ....oooooooooooooooooooooooo    ....oooo....        ",
"            ....oooooooooooooooooooooooo    ....oooo....        ",
"            ....oooooooooooooooooooooooo    ....oooo....        ",
"            ....XXXXXXXXOOOO........XXXX    ....oooo....        ",
"            ....XXXXXXXXOOOO........XXXX    ....oooo....        ",
"            ....XXXXXXXXOOOO........XXXX    ....oooo....        ",
"            ....XXXXXXXXOOOO........XXXX    ....oooo....        ",
"            ....XXXX....OOOO    ....OOOO    ....OOOO....        ",
"            ....XXXX....OOOO    ....OOOO    ....OOOO....        ",
"            ....XXXX....OOOO    ....OOOO    ....OOOO....        ",
"            ....XXXX....OOOO    ....OOOO    ....OOOO....        ",
"            ....OOOO    ....        ....OOOOOOOO....            ",
"            ....OOOO    ....        ....OOOOOOOO....            ",
"            ....OOOO    ....        ....OOOOOOOO....            ",
"            ....OOOO    ....        ....OOOOOOOO....            ",
"                ....                    ........                ",
"                ....                    ........                ",
"                ....                    ........                ",
"                ....                    ........                ",
"                                                                ",
"                                                                ",
"                                                                ",
"                                                                ",
"                                                                ",
"                                                                ",
"                                                                ",
"                                                                ",
"                                                                ",
"                                                                ",
"                                                                ",
"                                                                "
};
