/* XPM */
static char *w_b_3[] = {
/* columns rows colors chars-per-pixel */
"64 64 6 1 ",
"  c #4C2F49",
". c #78514F",
"X c #6E4A48",
"o c #3D253B",
"O c #25131A",
"+ c white",
/* pixels */
"                                                                ",
"                                                                ",
"                                                                ",
"                                                                ",
"        ................                ................        ",
"        ................                ................        ",
"        ................                ................        ",
"        ................                ................        ",
"    ....XXXXXXXXXXXX........        XXXXXXXXXXXXXXXX........    ",
"    ....XXXXXXXXXXXX........        XXXXXXXXXXXXXXXX........    ",
"    ....XXXXXXXXXXXX........        XXXXXXXXXXXXXXXX........    ",
"    ....XXXXXXXXXXXX........        XXXXXXXXXXXXXXXX........    ",
"    ....XXXXXXXXXXXXXXXX....        XXXXXXXXXXXXXXXXXXXX....    ",
"    ....XXXXXXXXXXXXXXXX....        XXXXXXXXXXXXXXXXXXXX....    ",
"    ....XXXXXXXXXXXXXXXX....        XXXXXXXXXXXXXXXXXXXX....    ",
"    ....XXXXXXXXXXXXXXXX....        XXXXXXXXXXXXXXXXXXXX....    ",
"    XXXXXXXXXXXXXXXXXXXXXXXX        XXXXXXXXXXXXXXXXXXXXXXXX    ",
"    XXXXXXXXXXXXXXXXXXXXXXXX        XXXXXXXXXXXXXXXXXXXXXXXX    ",
"    XXXXXXXXXXXXXXXXXXXXXXXX        XXXXXXXXXXXXXXXXXXXXXXXX    ",
"    XXXXXXXXXXXXXXXXXXXXXXXX        XXXXXXXXXXXXXXXXXXXXXXXX    ",
"    XXXXXXXXXXXXXXXXXXXX....        XXXXXXXXXXXXXXXXXXXXXXXX    ",
"    XXXXXXXXXXXXXXXXXXXX....        XXXXXXXXXXXXXXXXXXXXXXXX    ",
"    XXXXXXXXXXXXXXXXXXXX....        XXXXXXXXXXXXXXXXXXXXXXXX    ",
"    XXXXXXXXXXXXXXXXXXXX....        XXXXXXXXXXXXXXXXXXXXXXXX    ",
"                                                                ",
"                                                                ",
"                                                                ",
"                                                                ",
"oooooooooooooooooooooooooooooooooooooooooooooooooooooooooooooooo",
"oooooooooooooooooooooooooooooooooooooooooooooooooooooooooooooooo",
"oooooooooooooooooooooooooooooooooooooooooooooooooooooooooooooooo",
"oooooooooooooooooooooooooooooooooooooooooooooooooooooooooooooooo",
"ooooooooOOOOOOOOOOOOOOOOOOOOOOOOOOOOOOOOOOOOOOOOOOOOOOOOoooooooo",
"ooooooooOOOOOOOOOOOOOOOOOOOOOOOOOOOOOOOOOOOOOOOOOOOOOOOOoooooooo",
"ooooooooOOOOOOOOOOOOOOOOOOOOOOOOOOOOOOOOOOOOOOOOOOOOOOOOoooooooo",
"ooooooooOOOOOOOOOOOOOOOOOOOOOOOOOOOOOOOOOOOOOOOOOOOOOOOOoooooooo",
"ooooOOOOOOOOOOOOOOOOOOOOooooOOOOOOOOOOOOOOOOOOOOOOOOOOOOOOOOoooo",
"ooooOOOOOOOOOOOOOOOOOOOOooooOOOOOOOOOOOOOOOOOOOOOOOOOOOOOOOOoooo",
"ooooOOOOOOOOOOOOOOOOOOOOooooOOOOOOOOOOOOOOOOOOOOOOOOOOOOOOOOoooo",
"ooooOOOOOOOOOOOOOOOOOOOOooooOOOOOOOOOOOOOOOOOOOOOOOOOOOOOOOOoooo",
"ooooOOOOOOOOOOOOOOOOOOOOooooOOOOOOOOOOOOOOOOOOOOOOOOOOOOOOOOOOOO",
"ooooOOOOOOOOOOOOOOOOOOOOooooOOOOOOOOOOOOOOOOOOOOOOOOOOOOOOOOOOOO",
"ooooOOOOOOOOOOOOOOOOOOOOooooOOOOOOOOOOOOOOOOOOOOOOOOOOOOOOOOOOOO",
"ooooOOOOOOOOOOOOOOOOOOOOooooOOOOOOOOOOOOOOOOOOOOOOOOOOOOOOOOOOOO",
"OOOOooooooooooooooooooooOOOOOOOOooooooooooooooooooooooooOOOOoooo",
"OOOOooooooooooooooooooooOOOOOOOOooooooooooooooooooooooooOOOOoooo",
"OOOOooooooooooooooooooooOOOOOOOOooooooooooooooooooooooooOOOOoooo",
"OOOOooooooooooooooooooooOOOOOOOOooooooooooooooooooooooooOOOOoooo",
"ooooOOOOOOOOOOOOOOOOOOOOOOOOOOOOOOOOOOOOOOOOOOOOOOOOOOOOOOOOOOOO",
"ooooOOOOOOOOOOOOOOOOOOOOOOOOOOOOOOOOOOOOOOOOOOOOOOOOOOOOOOOOOOOO",
"ooooOOOOOOOOOOOOOOOOOOOOOOOOOOOOOOOOOOOOOOOOOOOOOOOOOOOOOOOOOOOO",
"ooooOOOOOOOOOOOOOOOOOOOOOOOOOOOOOOOOOOOOOOOOOOOOOOOOOOOOOOOOOOOO",
"OOOOOOOOOOOOOOOOOOOOOOOOOOOOOOOOOOOOOOOOOOOOOOOOOOOOOOOOOOOOOOOO",
"OOOOOOOOOOOOOOOOOOOOOOOOOOOOOOOOOOOOOOOOOOOOOOOOOOOOOOOOOOOOOOOO",
"OOOOOOOOOOOOOOOOOOOOOOOOOOOOOOOOOOOOOOOOOOOOOOOOOOOOOOOOOOOOOOOO",
"OOOOOOOOOOOOOOOOOOOOOOOOOOOOOOOOOOOOOOOOOOOOOOOOOOOOOOOOOOOOOOOO",
"OOOOOOOOOOOOOOOOOOOOOOOOOOOOOOOOOOOOOOOOOOOOOOOOOOOOOOOOOOOOOOOO",
"OOOOOOOOOOOOOOOOOOOOOOOOOOOOOOOOOOOOOOOOOOOOOOOOOOOOOOOOOOOOOOOO",
"OOOOOOOOOOOOOOOOOOOOOOOOOOOOOOOOOOOOOOOOOOOOOOOOOOOOOOOOOOOOOOOO",
"OOOOOOOOOOOOOOOOOOOOOOOOOOOOOOOOOOOOOOOOOOOOOOOOOOOOOOOOOOOOOOOO",
"OOOOOOOOOOOOOOOOOOOOOOOOOOOOOOOOOOOOOOOOOOOOOOOOOOOOOOOOOOOOOOOO",
"OOOOOOOOOOOOOOOOOOOOOOOOOOOOOOOOOOOOOOOOOOOOOOOOOOOOOOOOOOOOOOOO",
"OOOOOOOOOOOOOOOOOOOOOOOOOOOOOOOOOOOOOOOOOOOOOOOOOOOOOOOOOOOOOOOO",
"OOOOOOOOOOOOOOOOOOOOOOOOOOOOOOOOOOOOOOOOOOOOOOOOOOOOOOOOOOOOOOOO"
};
