/* XPM */
static char *w_br_1[] = {
/* columns rows colors chars-per-pixel */
"64 64 6 1 ",
"  c #4C2F49",
". c #25131A",
"X c #6E4A48",
"o c #78514F",
"O c #3D253B",
"+ c white",
/* pixels */
"                            ....................................",
"                            ....................................",
"                            ....................................",
"                            ....................................",
"    XXXXooooooooooooXXXX    ....................................",
"    XXXXooooooooooooXXXX    ....................................",
"    XXXXooooooooooooXXXX    ....................................",
"    XXXXooooooooooooXXXX    ....................................",
"    XXXXooooXXXXXXXXoooo    ....................................",
"    XXXXooooXXXXXXXXoooo    ....................................",
"    XXXXooooXXXXXXXXoooo    ....................................",
"    XXXXooooXXXXXXXXoooo    ....................................",
"    ooooXXXXXXXXXXXXoooo    ....................................",
"    ooooXXXXXXXXXXXXoooo    ....................................",
"    ooooXXXXXXXXXXXXoooo    ....................................",
"    ooooXXXXXXXXXXXXoooo    ....................................",
"    XXXXXXXXXXXXXXXXXXXX    ....................................",
"    XXXXXXXXXXXXXXXXXXXX    ....................................",
"    XXXXXXXXXXXXXXXXXXXX    ....................................",
"    XXXXXXXXXXXXXXXXXXXX    ....................................",
"    XXXXXXXXXXXXXXXXXXXX    ....................................",
"    XXXXXXXXXXXXXXXXXXXX    ....................................",
"    XXXXXXXXXXXXXXXXXXXX    ....................................",
"    XXXXXXXXXXXXXXXXXXXX    ....................................",
"                        OOOO....................................",
"                        OOOO....................................",
"                        OOOO....................................",
"                        OOOO....................................",
"OOOOOOOOOOOOOOOOOOOOOOOO........................................",
"OOOOOOOOOOOOOOOOOOOOOOOO........................................",
"OOOOOOOOOOOOOOOOOOOOOOOO........................................",
"OOOOOOOOOOOOOOOOOOOOOOOO........................................",
"........................OOOO....................................",
"........................OOOO....................................",
"........................OOOO....................................",
"........................OOOO....................................",
"........................OOOO....................................",
"........................OOOO....................................",
"........................OOOO....................................",
"........................OOOO....................................",
"........................OOOO....................................",
"........................OOOO....................................",
"........................OOOO....................................",
"........................OOOO....................................",
"................................................................",
"................................................................",
"................................................................",
"................................................................",
"........................OOOO....................................",
"........................OOOO....................................",
"........................OOOO....................................",
"........................OOOO....................................",
"........................OOOO....................................",
"........................OOOO....................................",
"........................OOOO....................................",
"........................OOOO....................................",
"................................................................",
"................................................................",
"................................................................",
"................................................................",
"................................................................",
"................................................................",
"................................................................",
"................................................................"
};
