/* XPM */
static char *w_dec_1[] = {
/* columns rows colors chars-per-pixel */
"64 64 9 1 ",
"  c None",
". c #25131A",
"X c #90919E",
"o c #ADC1CF",
"O c #FFD569",
"+ c #CF686D",
"@ c #C09344",
"# c #BC4C51",
"$ c white",
/* pixels */
"                                                                ",
"                                                                ",
"                                                                ",
"                                                                ",
"                                                                ",
"                                                                ",
"                                                                ",
"                                                                ",
"                                                                ",
"                                                                ",
"                                                                ",
"                                                                ",
"                ................................                ",
"                ................................                ",
"                ................................                ",
"                ................................                ",
"    ............XXXXooooXXXXooooooooooooXXXXXXXX............    ",
"    ............XXXXooooXXXXooooooooooooXXXXXXXX............    ",
"    ............XXXXooooXXXXooooooooooooXXXXXXXX............    ",
"    ............XXXXooooXXXXooooooooooooXXXXXXXX............    ",
"    ....oooooooo................................oooooooo....    ",
"    ....oooooooo................................oooooooo....    ",
"    ....oooooooo................................oooooooo....    ",
"    ....oooooooo................................oooooooo....    ",
"    ....XXXXOOOOOOOO++++++++++++++++++++++++OOOOOOOOXXXX....    ",
"    ....XXXXOOOOOOOO++++++++++++++++++++++++OOOOOOOOXXXX....    ",
"    ....XXXXOOOOOOOO++++++++++++++++++++++++OOOOOOOOXXXX....    ",
"    ....XXXXOOOOOOOO++++++++++++++++++++++++OOOOOOOOXXXX....    ",
"    ....XXXXOOOOOOOO++++++++++++++++++++++++OOOOOOOOXXXX....    ",
"    ....XXXXOOOOOOOO++++++++++++++++++++++++OOOOOOOOXXXX....    ",
"    ....XXXXOOOOOOOO++++++++++++++++++++++++OOOOOOOOXXXX....    ",
"    ....XXXXOOOOOOOO++++++++++++++++++++++++OOOOOOOOXXXX....    ",
"        ....@@@@@@@@########################@@@@@@@@....        ",
"        ....@@@@@@@@########################@@@@@@@@....        ",
"        ....@@@@@@@@########################@@@@@@@@....        ",
"        ....@@@@@@@@########################@@@@@@@@....        ",
"        ....@@@@@@@@########################@@@@@@@@....        ",
"        ....@@@@@@@@########################@@@@@@@@....        ",
"        ....@@@@@@@@########################@@@@@@@@....        ",
"        ....@@@@@@@@########################@@@@@@@@....        ",
"        ....@@@@@@@@########################@@@@@@@@....        ",
"        ....@@@@@@@@########################@@@@@@@@....        ",
"        ....@@@@@@@@########################@@@@@@@@....        ",
"        ....@@@@@@@@########################@@@@@@@@....        ",
"        ....@@@@@@@@########################@@@@@@@@....        ",
"        ....@@@@@@@@########################@@@@@@@@....        ",
"        ....@@@@@@@@########################@@@@@@@@....        ",
"        ....@@@@@@@@########################@@@@@@@@....        ",
"        ....@@@@@@@@@@@@@@@@########@@@@@@@@@@@@@@@@....        ",
"        ....@@@@@@@@@@@@@@@@########@@@@@@@@@@@@@@@@....        ",
"        ....@@@@@@@@@@@@@@@@########@@@@@@@@@@@@@@@@....        ",
"        ....@@@@@@@@@@@@@@@@########@@@@@@@@@@@@@@@@....        ",
"            ........@@@@@@@@@@@@@@@@@@@@@@@@........            ",
"            ........@@@@@@@@@@@@@@@@@@@@@@@@........            ",
"            ........@@@@@@@@@@@@@@@@@@@@@@@@........            ",
"            ........@@@@@@@@@@@@@@@@@@@@@@@@........            ",
"                    ........@@@@@@@@........                    ",
"                    ........@@@@@@@@........                    ",
"                    ........@@@@@@@@........                    ",
"                    ........@@@@@@@@........                    ",
"                            ........                            ",
"                            ........                            ",
"                            ........                            ",
"                            ........                            "
};
