/* XPM */
static char *w_l_2[] = {
/* columns rows colors chars-per-pixel */
"64 64 5 1 ",
"  c #25131A",
". c #4C2F49",
"X c #6E4A48",
"o c #78514F",
"O c white",
/* pixels */
"                                    ............................",
"                                    ............................",
"                                    ............................",
"                                    ............................",
"                                    ....XXXXXXXXXXXXXXXXoooo....",
"                                    ....XXXXXXXXXXXXXXXXoooo....",
"                                    ....XXXXXXXXXXXXXXXXoooo....",
"                                    ....XXXXXXXXXXXXXXXXoooo....",
"                                    ....XXXXXXXXXXXXXXXXoooo....",
"                                    ....XXXXXXXXXXXXXXXXoooo....",
"                                    ....XXXXXXXXXXXXXXXXoooo....",
"                                    ....XXXXXXXXXXXXXXXXoooo....",
"                                    ....XXXXXXXXXXXXXXXXoooo....",
"                                    ....XXXXXXXXXXXXXXXXoooo....",
"                                    ....XXXXXXXXXXXXXXXXoooo....",
"                                    ....XXXXXXXXXXXXXXXXoooo....",
"                                    ....XXXXXXXXXXXXXXXXoooo....",
"                                    ....XXXXXXXXXXXXXXXXoooo....",
"                                    ....XXXXXXXXXXXXXXXXoooo....",
"                                    ....XXXXXXXXXXXXXXXXoooo....",
"                                    ....XXXXXXXXXXXXXXXXoooo....",
"                                    ....XXXXXXXXXXXXXXXXoooo....",
"                                    ....XXXXXXXXXXXXXXXXoooo....",
"                                    ....XXXXXXXXXXXXXXXXoooo....",
"                                    ....ooooXXXXoooooooooooo....",
"                                    ....ooooXXXXoooooooooooo....",
"                                    ....ooooXXXXoooooooooooo....",
"                                    ....ooooXXXXoooooooooooo....",
"                                    ............................",
"                                    ............................",
"                                    ............................",
"                                    ............................",
"                                    ............................",
"                                    ............................",
"                                    ............................",
"                                    ............................",
"                                    ....XXXXXXXXXXXXXXXXoooo....",
"                                    ....XXXXXXXXXXXXXXXXoooo....",
"                                    ....XXXXXXXXXXXXXXXXoooo....",
"                                    ....XXXXXXXXXXXXXXXXoooo....",
"                                    ....XXXXXXXXXXXXXXXXoooo....",
"                                    ....XXXXXXXXXXXXXXXXoooo....",
"                                    ....XXXXXXXXXXXXXXXXoooo....",
"                                    ....XXXXXXXXXXXXXXXXoooo....",
"                                    ....XXXXXXXXXXXXXXXXoooo....",
"                                    ....XXXXXXXXXXXXXXXXoooo....",
"                                    ....XXXXXXXXXXXXXXXXoooo....",
"                                    ....XXXXXXXXXXXXXXXXoooo....",
"                                    ....XXXXXXXXXXXXXXXXoooo....",
"                                    ....XXXXXXXXXXXXXXXXoooo....",
"                                    ....XXXXXXXXXXXXXXXXoooo....",
"                                    ....XXXXXXXXXXXXXXXXoooo....",
"                                    ....XXXXXXXXXXXXXXXXoooo....",
"                                    ....XXXXXXXXXXXXXXXXoooo....",
"                                    ....XXXXXXXXXXXXXXXXoooo....",
"                                    ....XXXXXXXXXXXXXXXXoooo....",
"                                    ....ooooXXXXoooooooooooo....",
"                                    ....ooooXXXXoooooooooooo....",
"                                    ....ooooXXXXoooooooooooo....",
"                                    ....ooooXXXXoooooooooooo....",
"                                    ............................",
"                                    ............................",
"                                    ............................",
"                                    ............................"
};
