/* XPM */
static char *w_r_1[] = {
/* columns rows colors chars-per-pixel */
"64 64 5 1 ",
"  c #4C2F49",
". c #25131A",
"X c #78514F",
"o c #6E4A48",
"O c white",
/* pixels */
"                            ....................................",
"                            ....................................",
"                            ....................................",
"                            ....................................",
"    XXXXoooooooooooooooo    ....................................",
"    XXXXoooooooooooooooo    ....................................",
"    XXXXoooooooooooooooo    ....................................",
"    XXXXoooooooooooooooo    ....................................",
"    XXXXoooooooooooooooo    ....................................",
"    XXXXoooooooooooooooo    ....................................",
"    XXXXoooooooooooooooo    ....................................",
"    XXXXoooooooooooooooo    ....................................",
"    XXXXoooooooooooooooo    ....................................",
"    XXXXoooooooooooooooo    ....................................",
"    XXXXoooooooooooooooo    ....................................",
"    XXXXoooooooooooooooo    ....................................",
"    XXXXoooooooooooooooo    ....................................",
"    XXXXoooooooooooooooo    ....................................",
"    XXXXoooooooooooooooo    ....................................",
"    XXXXoooooooooooooooo    ....................................",
"    XXXXoooooooooooooooo    ....................................",
"    XXXXoooooooooooooooo    ....................................",
"    XXXXoooooooooooooooo    ....................................",
"    XXXXoooooooooooooooo    ....................................",
"    XXXXoooooooooooooooo    ....................................",
"    XXXXoooooooooooooooo    ....................................",
"    XXXXoooooooooooooooo    ....................................",
"    XXXXoooooooooooooooo    ....................................",
"    XXXXoooooooooooooooo    ....................................",
"    XXXXoooooooooooooooo    ....................................",
"    XXXXoooooooooooooooo    ....................................",
"    XXXXoooooooooooooooo    ....................................",
"    XXXXoooooooooooooooo    ....................................",
"    XXXXoooooooooooooooo    ....................................",
"    XXXXoooooooooooooooo    ....................................",
"    XXXXoooooooooooooooo    ....................................",
"    XXXXoooooooooooooooo    ....................................",
"    XXXXoooooooooooooooo    ....................................",
"    XXXXoooooooooooooooo    ....................................",
"    XXXXoooooooooooooooo    ....................................",
"    XXXXoooooooooooooooo    ....................................",
"    XXXXoooooooooooooooo    ....................................",
"    XXXXoooooooooooooooo    ....................................",
"    XXXXoooooooooooooooo    ....................................",
"    XXXXoooooooooooooooo    ....................................",
"    XXXXoooooooooooooooo    ....................................",
"    XXXXoooooooooooooooo    ....................................",
"    XXXXoooooooooooooooo    ....................................",
"    XXXXoooooooooooooooo    ....................................",
"    XXXXoooooooooooooooo    ....................................",
"    XXXXoooooooooooooooo    ....................................",
"    XXXXoooooooooooooooo    ....................................",
"    XXXXoooooooooooooooo    ....................................",
"    XXXXoooooooooooooooo    ....................................",
"    XXXXoooooooooooooooo    ....................................",
"    XXXXoooooooooooooooo    ....................................",
"    XXXXXXXXXXXXooooXXXX    ....................................",
"    XXXXXXXXXXXXooooXXXX    ....................................",
"    XXXXXXXXXXXXooooXXXX    ....................................",
"    XXXXXXXXXXXXooooXXXX    ....................................",
"                            ....................................",
"                            ....................................",
"                            ....................................",
"                            ...................................."
};
