/* XPM */
static char *w_t_2[] = {
/* columns rows colors chars-per-pixel */
"64 64 11 1 ",
"  c #4C2F49",
". c #593756",
"X c #6E4A48",
"o c #78514F",
"O c #3D253B",
"+ c #543740",
"@ c #483040",
"# c #25131A",
"$ c #422C3B",
"% c #4F3740",
"& c white",
/* pixels */
"                    ....        ....................            ",
"                    ....        ....................            ",
"                    ....        ....................            ",
"                    ....        ....................            ",
"    XXXXXXXXXXXXXXXXXXXXXXXXXXXXXXXXXXXXXXXXXXXXXXXXXXXXXXXX    ",
"    XXXXXXXXXXXXXXXXXXXXXXXXXXXXXXXXXXXXXXXXXXXXXXXXXXXXXXXX    ",
"    XXXXXXXXXXXXXXXXXXXXXXXXXXXXXXXXXXXXXXXXXXXXXXXXXXXXXXXX    ",
"    XXXXXXXXXXXXXXXXXXXXXXXXXXXXXXXXXXXXXXXXXXXXXXXXXXXXXXXX    ",
"    XXXXXXXXXXXXXXXXXXXXXXXXXXXXXXXXXXXXXXXXXXXXXXXXXXXXXXXX    ",
"    XXXXXXXXXXXXXXXXXXXXXXXXXXXXXXXXXXXXXXXXXXXXXXXXXXXXXXXX    ",
"    XXXXXXXXXXXXXXXXXXXXXXXXXXXXXXXXXXXXXXXXXXXXXXXXXXXXXXXX    ",
"    XXXXXXXXXXXXXXXXXXXXXXXXXXXXXXXXXXXXXXXXXXXXXXXXXXXXXXXX    ",
"    oooooooooooooooooooooooooooooooooooooooooooooooooooooooo    ",
"    oooooooooooooooooooooooooooooooooooooooooooooooooooooooo    ",
"    oooooooooooooooooooooooooooooooooooooooooooooooooooooooo    ",
"    oooooooooooooooooooooooooooooooooooooooooooooooooooooooo    ",
"OOOO++++++++++++++++++++++++++++++++++++++++++++++++++++++++OOOO",
"OOOO++++++++++++++++++++++++++++++++++++++++++++++++++++++++OOOO",
"OOOO++++++++++++++++++++++++++++++++++++++++++++++++++++++++OOOO",
"OOOO++++++++++++++++++++++++++++++++++++++++++++++++++++++++OOOO",
"OOOO++++++++++++++++++++++++++++++++++++++++++++++++++++++++    ",
"OOOO++++++++++++++++++++++++++++++++++++++++++++++++++++++++    ",
"OOOO++++++++++++++++++++++++++++++++++++++++++++++++++++++++    ",
"OOOO++++++++++++++++++++++++++++++++++++++++++++++++++++++++    ",
"OOOO@@@@++++++++++++++++++++++++++++++++++++++++++++++++@@@@OOOO",
"OOOO@@@@++++++++++++++++++++++++++++++++++++++++++++++++@@@@OOOO",
"OOOO@@@@++++++++++++++++++++++++++++++++++++++++++++++++@@@@OOOO",
"OOOO@@@@++++++++++++++++++++++++++++++++++++++++++++++++@@@@OOOO",
"####OOOOOOOOOOOOOOOOOOOOOOOOOOOOOOOOOOOOOOOOOOOOOOOOOOOOOOOOOOOO",
"####OOOOOOOOOOOOOOOOOOOOOOOOOOOOOOOOOOOOOOOOOOOOOOOOOOOOOOOOOOOO",
"####OOOOOOOOOOOOOOOOOOOOOOOOOOOOOOOOOOOOOOOOOOOOOOOOOOOOOOOOOOOO",
"####OOOOOOOOOOOOOOOOOOOOOOOOOOOOOOOOOOOOOOOOOOOOOOOOOOOOOOOOOOOO",
"OOOO@@@@++++++++++++++++++++++++++++++++++++++++++++++++@@@@OOOO",
"OOOO@@@@++++++++++++++++++++++++++++++++++++++++++++++++@@@@OOOO",
"OOOO@@@@++++++++++++++++++++++++++++++++++++++++++++++++@@@@OOOO",
"OOOO@@@@++++++++++++++++++++++++++++++++++++++++++++++++@@@@OOOO",
"OOOO++++++++++++++++++++++++++++++++++++++++++++++++++++++++####",
"OOOO++++++++++++++++++++++++++++++++++++++++++++++++++++++++####",
"OOOO++++++++++++++++++++++++++++++++++++++++++++++++++++++++####",
"OOOO++++++++++++++++++++++++++++++++++++++++++++++++++++++++####",
"####@@@@++++++++++++++++++++++++++++++++++++++++++++++++@@@@OOOO",
"####@@@@++++++++++++++++++++++++++++++++++++++++++++++++@@@@OOOO",
"####@@@@++++++++++++++++++++++++++++++++++++++++++++++++@@@@OOOO",
"####@@@@++++++++++++++++++++++++++++++++++++++++++++++++@@@@OOOO",
"OOOOOOOOOOOO########################################OOOOOOOO####",
"OOOOOOOOOOOO########################################OOOOOOOO####",
"OOOOOOOOOOOO########################################OOOOOOOO####",
"OOOOOOOOOOOO########################################OOOOOOOO####",
"####$$$$%%%%%%%%%%%%%%%%$$$$####$$$$%%%%%%%%%%%%%%%%%%%%$$$$OOOO",
"####$$$$%%%%%%%%%%%%%%%%$$$$####$$$$%%%%%%%%%%%%%%%%%%%%$$$$OOOO",
"####$$$$%%%%%%%%%%%%%%%%$$$$####$$$$%%%%%%%%%%%%%%%%%%%%$$$$OOOO",
"####$$$$%%%%%%%%%%%%%%%%$$$$####$$$$%%%%%%%%%%%%%%%%%%%%$$$$OOOO",
"####%%%%%%%%%%%%%%%%%%%%%%%%####%%%%%%%%%%%%%%%%%%%%%%%%%%%%####",
"####%%%%%%%%%%%%%%%%%%%%%%%%####%%%%%%%%%%%%%%%%%%%%%%%%%%%%####",
"####%%%%%%%%%%%%%%%%%%%%%%%%####%%%%%%%%%%%%%%%%%%%%%%%%%%%%####",
"####%%%%%%%%%%%%%%%%%%%%%%%%####%%%%%%%%%%%%%%%%%%%%%%%%%%%%####",
"####$$$$$$$$$$$$$$$$$$$$$$$$####$$$$$$$$$$$$$$$$$$$$$$$$$$$$####",
"####$$$$$$$$$$$$$$$$$$$$$$$$####$$$$$$$$$$$$$$$$$$$$$$$$$$$$####",
"####$$$$$$$$$$$$$$$$$$$$$$$$####$$$$$$$$$$$$$$$$$$$$$$$$$$$$####",
"####$$$$$$$$$$$$$$$$$$$$$$$$####$$$$$$$$$$$$$$$$$$$$$$$$$$$$####",
"################################################################",
"################################################################",
"################################################################",
"################################################################"
};
