/* XPM */
static char *w_tlo_1[] = {
/* columns rows colors chars-per-pixel */
"64 64 6 1 ",
"  c #4C2F49",
". c #78514F",
"X c #6E4A48",
"o c #3D253B",
"O c #25131A",
"+ c white",
/* pixels */
"                                                                ",
"                                                                ",
"                                                                ",
"                                                                ",
"        ................                ................        ",
"        ................                ................        ",
"        ................                ................        ",
"        ................                ................        ",
"    ....XXXXXXXXXXXX........        XXXXXXXXXXXXXXXX........    ",
"    ....XXXXXXXXXXXX........        XXXXXXXXXXXXXXXX........    ",
"    ....XXXXXXXXXXXX........        XXXXXXXXXXXXXXXX........    ",
"    ....XXXXXXXXXXXX........        XXXXXXXXXXXXXXXX........    ",
"    ....XXXXXXXXXXXXXXXX....        XXXXXXXXXXXXXXXXXXXX....    ",
"    ....XXXXXXXXXXXXXXXX....        XXXXXXXXXXXXXXXXXXXX....    ",
"    ....XXXXXXXXXXXXXXXX....        XXXXXXXXXXXXXXXXXXXX....    ",
"    ....XXXXXXXXXXXXXXXX....        XXXXXXXXXXXXXXXXXXXX....    ",
"    XXXXXXXXXXXXXXXXXXXXXXXX        XXXXXXXXXXXXXXXXXXXXXXXX    ",
"    XXXXXXXXXXXXXXXXXXXXXXXX        XXXXXXXXXXXXXXXXXXXXXXXX    ",
"    XXXXXXXXXXXXXXXXXXXXXXXX        XXXXXXXXXXXXXXXXXXXXXXXX    ",
"    XXXXXXXXXXXXXXXXXXXXXXXX        XXXXXXXXXXXXXXXXXXXXXXXX    ",
"    XXXXXXXXXXXXXXXXXXXX....        XXXXXXXXXXXXXXXXXXXXXXXX    ",
"    XXXXXXXXXXXXXXXXXXXX....        XXXXXXXXXXXXXXXXXXXXXXXX    ",
"    XXXXXXXXXXXXXXXXXXXX....        XXXXXXXXXXXXXXXXXXXXXXXX    ",
"    XXXXXXXXXXXXXXXXXXXX....        XXXXXXXXXXXXXXXXXXXXXXXX    ",
"    XXXXXXXXXXXXXXXXXXXXXXXX                                    ",
"    XXXXXXXXXXXXXXXXXXXXXXXX                                    ",
"    XXXXXXXXXXXXXXXXXXXXXXXX                                    ",
"    XXXXXXXXXXXXXXXXXXXXXXXX                                    ",
"    XXXXXXXXXXXXXXXXXXXXXXXXoooooooooooooooooooooooooooooooooooo",
"    XXXXXXXXXXXXXXXXXXXXXXXXoooooooooooooooooooooooooooooooooooo",
"    XXXXXXXXXXXXXXXXXXXXXXXXoooooooooooooooooooooooooooooooooooo",
"    XXXXXXXXXXXXXXXXXXXXXXXXoooooooooooooooooooooooooooooooooooo",
"    XXXXXXXXXXXXXXXXXXXXXXXXOOOOOOOOOOOOOOOOOOOOOOOOOOOOoooooooo",
"    XXXXXXXXXXXXXXXXXXXXXXXXOOOOOOOOOOOOOOOOOOOOOOOOOOOOoooooooo",
"    XXXXXXXXXXXXXXXXXXXXXXXXOOOOOOOOOOOOOOOOOOOOOOOOOOOOoooooooo",
"    XXXXXXXXXXXXXXXXXXXXXXXXOOOOOOOOOOOOOOOOOOOOOOOOOOOOoooooooo",
"    XXXXXXXXXXXXXXXXXXXXXXXXOOOOOOOOOOOOOOOOOOOOOOOOOOOOOOOOoooo",
"    XXXXXXXXXXXXXXXXXXXXXXXXOOOOOOOOOOOOOOOOOOOOOOOOOOOOOOOOoooo",
"    XXXXXXXXXXXXXXXXXXXXXXXXOOOOOOOOOOOOOOOOOOOOOOOOOOOOOOOOoooo",
"    XXXXXXXXXXXXXXXXXXXXXXXXOOOOOOOOOOOOOOOOOOOOOOOOOOOOOOOOoooo",
"    XXXXXXXXXXXXXXXXXXXXXXXXOOOOOOOOOOOOOOOOOOOOOOOOOOOOOOOOOOOO",
"    XXXXXXXXXXXXXXXXXXXXXXXXOOOOOOOOOOOOOOOOOOOOOOOOOOOOOOOOOOOO",
"    XXXXXXXXXXXXXXXXXXXXXXXXOOOOOOOOOOOOOOOOOOOOOOOOOOOOOOOOOOOO",
"    XXXXXXXXXXXXXXXXXXXXXXXXOOOOOOOOOOOOOOOOOOOOOOOOOOOOOOOOOOOO",
"    XXXXXXXXXXXXXXXXXXXXXXXXOOOOooooooooooooooooooooooooOOOOoooo",
"    XXXXXXXXXXXXXXXXXXXXXXXXOOOOooooooooooooooooooooooooOOOOoooo",
"    XXXXXXXXXXXXXXXXXXXXXXXXOOOOooooooooooooooooooooooooOOOOoooo",
"    XXXXXXXXXXXXXXXXXXXXXXXXOOOOooooooooooooooooooooooooOOOOoooo",
"    XXXXXXXXXXXXXXXXXXXXXXXXOOOOOOOOOOOOOOOOOOOOOOOOOOOOOOOOOOOO",
"    XXXXXXXXXXXXXXXXXXXXXXXXOOOOOOOOOOOOOOOOOOOOOOOOOOOOOOOOOOOO",
"    XXXXXXXXXXXXXXXXXXXXXXXXOOOOOOOOOOOOOOOOOOOOOOOOOOOOOOOOOOOO",
"    XXXXXXXXXXXXXXXXXXXXXXXXOOOOOOOOOOOOOOOOOOOOOOOOOOOOOOOOOOOO",
"    XXXXXXXXXXXXXXXXXXXXXXXXOOOOOOOOOOOOOOOOOOOOOOOOOOOOOOOOOOOO",
"    XXXXXXXXXXXXXXXXXXXXXXXXOOOOOOOOOOOOOOOOOOOOOOOOOOOOOOOOOOOO",
"    XXXXXXXXXXXXXXXXXXXXXXXXOOOOOOOOOOOOOOOOOOOOOOOOOOOOOOOOOOOO",
"    XXXXXXXXXXXXXXXXXXXXXXXXOOOOOOOOOOOOOOOOOOOOOOOOOOOOOOOOOOOO",
"        XXXXXXXXXXXXXXXX    OOOOOOOOOOOOOOOOOOOOOOOOOOOOOOOOOOOO",
"        XXXXXXXXXXXXXXXX    OOOOOOOOOOOOOOOOOOOOOOOOOOOOOOOOOOOO",
"        XXXXXXXXXXXXXXXX    OOOOOOOOOOOOOOOOOOOOOOOOOOOOOOOOOOOO",
"        XXXXXXXXXXXXXXXX    OOOOOOOOOOOOOOOOOOOOOOOOOOOOOOOOOOOO",
"                            OOOOOOOOOOOOOOOOOOOOOOOOOOOOOOOOOOOO",
"                            OOOOOOOOOOOOOOOOOOOOOOOOOOOOOOOOOOOO",
"                            OOOOOOOOOOOOOOOOOOOOOOOOOOOOOOOOOOOO",
"                            OOOOOOOOOOOOOOOOOOOOOOOOOOOOOOOOOOOO"
};
