/* XPM */
static char *w_tl_1[] = {
/* columns rows colors chars-per-pixel */
"64 64 6 1 ",
"  c #4C2F49",
". c #78514F",
"X c #6E4A48",
"o c #3D253B",
"O c #25131A",
"+ c white",
/* pixels */
"                                                                ",
"                                                                ",
"                                                                ",
"                                                                ",
"    ....................        ............................    ",
"    ....................        ............................    ",
"    ....................        ............................    ",
"    ....................        ............................    ",
"    ....XXXXXXXXXXXXXXXX        ....XXXXXXXXXXXXXXXXXXXX....    ",
"    ....XXXXXXXXXXXXXXXX        ....XXXXXXXXXXXXXXXXXXXX....    ",
"    ....XXXXXXXXXXXXXXXX        ....XXXXXXXXXXXXXXXXXXXX....    ",
"    ....XXXXXXXXXXXXXXXX        ....XXXXXXXXXXXXXXXXXXXX....    ",
"    ....XXXXXXXXXXXXXXXX        XXXXXXXXXXXXXXXXXXXXXXXXXXXX    ",
"    ....XXXXXXXXXXXXXXXX        XXXXXXXXXXXXXXXXXXXXXXXXXXXX    ",
"    ....XXXXXXXXXXXXXXXX        XXXXXXXXXXXXXXXXXXXXXXXXXXXX    ",
"    ....XXXXXXXXXXXXXXXX        XXXXXXXXXXXXXXXXXXXXXXXXXXXX    ",
"    ....XXXXXXXXXXXXXXXX        XXXXXXXXXXXXXXXXXXXXXXXXXXXX    ",
"    ....XXXXXXXXXXXXXXXX        XXXXXXXXXXXXXXXXXXXXXXXXXXXX    ",
"    ....XXXXXXXXXXXXXXXX        XXXXXXXXXXXXXXXXXXXXXXXXXXXX    ",
"    ....XXXXXXXXXXXXXXXX        XXXXXXXXXXXXXXXXXXXXXXXXXXXX    ",
"    ....XXXXXXXXXXXXXXXX        XXXXXXXXXXXXXXXXXXXXXXXXXXXX    ",
"    ....XXXXXXXXXXXXXXXX        XXXXXXXXXXXXXXXXXXXXXXXXXXXX    ",
"    ....XXXXXXXXXXXXXXXX        XXXXXXXXXXXXXXXXXXXXXXXXXXXX    ",
"    ....XXXXXXXXXXXXXXXX        XXXXXXXXXXXXXXXXXXXXXXXXXXXX    ",
"    ....XXXXXXXXXXXXXXXX                                        ",
"    ....XXXXXXXXXXXXXXXX                                        ",
"    ....XXXXXXXXXXXXXXXX                                        ",
"    ....XXXXXXXXXXXXXXXX                                        ",
"    ....XXXXXXXXXXXXXXXX    oooooooooooooooooooooooooooooooooooo",
"    ....XXXXXXXXXXXXXXXX    oooooooooooooooooooooooooooooooooooo",
"    ....XXXXXXXXXXXXXXXX    oooooooooooooooooooooooooooooooooooo",
"    ....XXXXXXXXXXXXXXXX    oooooooooooooooooooooooooooooooooooo",
"    ....XXXXXXXXXXXXXXXX    ooooOOOOOOOOOOOOOOOOOOOOOOOOOOOOoooo",
"    ....XXXXXXXXXXXXXXXX    ooooOOOOOOOOOOOOOOOOOOOOOOOOOOOOoooo",
"    ....XXXXXXXXXXXXXXXX    ooooOOOOOOOOOOOOOOOOOOOOOOOOOOOOoooo",
"    ....XXXXXXXXXXXXXXXX    ooooOOOOOOOOOOOOOOOOOOOOOOOOOOOOoooo",
"    ....XXXXXXXXXXXXXXXX    ooooOOOOOOOOOOOOOOOOOOOOOOOOOOOOOOOO",
"    ....XXXXXXXXXXXXXXXX    ooooOOOOOOOOOOOOOOOOOOOOOOOOOOOOOOOO",
"    ....XXXXXXXXXXXXXXXX    ooooOOOOOOOOOOOOOOOOOOOOOOOOOOOOOOOO",
"    ....XXXXXXXXXXXXXXXX    ooooOOOOOOOOOOOOOOOOOOOOOOOOOOOOOOOO",
"    ....XXXXXXXXXXXXXXXX    OOOOOOOOOOOOOOOOOOOOOOOOOOOOOOOOoooo",
"    ....XXXXXXXXXXXXXXXX    OOOOOOOOOOOOOOOOOOOOOOOOOOOOOOOOoooo",
"    ....XXXXXXXXXXXXXXXX    OOOOOOOOOOOOOOOOOOOOOOOOOOOOOOOOoooo",
"    ....XXXXXXXXXXXXXXXX    OOOOOOOOOOOOOOOOOOOOOOOOOOOOOOOOoooo",
"    ....XXXXXXXXXXXXXXXX    ooooOOOOOOOOOOOOOOOOOOOOOOOOOOOOOOOO",
"    ....XXXXXXXXXXXXXXXX    ooooOOOOOOOOOOOOOOOOOOOOOOOOOOOOOOOO",
"    ....XXXXXXXXXXXXXXXX    ooooOOOOOOOOOOOOOOOOOOOOOOOOOOOOOOOO",
"    ....XXXXXXXXXXXXXXXX    ooooOOOOOOOOOOOOOOOOOOOOOOOOOOOOOOOO",
"    ....XXXXXXXXXXXXXXXX    OOOOOOOOOOOOOOOOOOOOOOOOOOOOOOOOoooo",
"    ....XXXXXXXXXXXXXXXX    OOOOOOOOOOOOOOOOOOOOOOOOOOOOOOOOoooo",
"    ....XXXXXXXXXXXXXXXX    OOOOOOOOOOOOOOOOOOOOOOOOOOOOOOOOoooo",
"    ....XXXXXXXXXXXXXXXX    OOOOOOOOOOOOOOOOOOOOOOOOOOOOOOOOoooo",
"    ....XXXXXXXXXXXXXXXX    OOOOOOOOOOOOOOOOOOOOOOOOOOOOOOOOoooo",
"    ....XXXXXXXXXXXXXXXX    OOOOOOOOOOOOOOOOOOOOOOOOOOOOOOOOoooo",
"    ....XXXXXXXXXXXXXXXX    OOOOOOOOOOOOOOOOOOOOOOOOOOOOOOOOoooo",
"    ....XXXXXXXXXXXXXXXX    OOOOOOOOOOOOOOOOOOOOOOOOOOOOOOOOoooo",
"    ............XXXX....    OOOOOOOOOOOOOOOOOOOOOOOOOOOOOOOOoooo",
"    ............XXXX....    OOOOOOOOOOOOOOOOOOOOOOOOOOOOOOOOoooo",
"    ............XXXX....    OOOOOOOOOOOOOOOOOOOOOOOOOOOOOOOOoooo",
"    ............XXXX....    OOOOOOOOOOOOOOOOOOOOOOOOOOOOOOOOoooo",
"                            OOOOOOOOOOOOOOOOOOOOOOOOOOOOOOOOoooo",
"                            OOOOOOOOOOOOOOOOOOOOOOOOOOOOOOOOoooo",
"                            OOOOOOOOOOOOOOOOOOOOOOOOOOOOOOOOoooo",
"                            OOOOOOOOOOOOOOOOOOOOOOOOOOOOOOOOoooo"
};
