/* XPM */
static char *out_01[] = {
/* columns rows colors chars-per-pixel */
"64 64 16 1 ",
"  c None",
". c #382828",
"X c #A03808",
"o c #E04838",
"O c #F88078",
"+ c #E09080",
"@ c #F8F8F8",
"# c #F8D0C0",
"$ c #385890",
"% c #7090E0",
"& c #B0D0F8",
"* c #683828",
"= c #905838",
"- c #D08018",
"; c #C09070",
": c #7799EE",
/* pixels */
"                ..XXooOOOOooXXXX......                          ",
"                ..XXooOOOOooXXXX......                          ",
"                  ..XXooooOOooooooooXX....                      ",
"                  ..XXooooOOooooooooXX....                      ",
"                    ..XXooooooooooooooXXXX..                    ",
"                    ..XXooooooooooooooXXXX..                    ",
"              XXXXXXooOOooooooooooooooOOXXXX..                  ",
"              XXXXXXooOOooooooooooooooOOXXXX..                  ",
"          ..XXooooOOOOOOOOooOOOOooOOOOOOXXXX..                  ",
"          ..XXooooOOOOOOOOooOOOOooOOOOOOXXXX..                  ",
"              ..XXXXooOOOOXXOOOOXXOOOOoo..XXXX..                ",
"              ..XXXXooOOOOXXOOOOXXOOOOoo..XXXX..                ",
"                ..ooOOooXXooXXoo..XXoooo..XXXX..                ",
"                ..ooOOooXXooXXoo..XXoooo..XXXX..                ",
"                XXooXXooXX++..XXoo..XXooXX..XX..                ",
"                XXooXXooXX++..XXoo..XXooXX..XX..                ",
"              XXooXX..XX........XX......XX..XX..                ",
"              XXooXX..XX........XX......XX..XX..                ",
"              XXXX..++XX..@@oo++..oo@@..XX....                  ",
"              XXXX..++XX..@@oo++..oo@@..XX....                  ",
"              ..  ....##++@@XX##++XX@@++..XX..                  ",
"              ..  ....##++@@XX##++XX@@++..XX..                  ",
"                    ..++##@@..@@##..@@##++..                    ",
"                    ..++##@@..@@##..@@##++..                    ",
"                      ..++############++..                      ",
"                      ..++############++..                      ",
"                    ..$$....++++++++....$$..                    ",
"                    ..$$....++++++++....$$..                    ",
"                  ....%%$$&&........&&$$%%....                  ",
"                  ....%%$$&&........&&$$%%....                  ",
"                  $$%%&&$$@@@@ooXX@@@@$$&&%%$$                  ",
"                  $$%%&&$$@@@@ooXX@@@@$$&&%%$$                  ",
"                ....%%$$..$$$$@@@@@@....$$%%....                ",
"                ....%%$$..$$$$@@@@@@....$$%%....                ",
"              ..**$$$$....%%@@&&..$$$$....$$$$**..              ",
"              ..**$$$$....%%@@&&..$$$$....$$$$**..              ",
"              **====..  ..$$..$$$$%%$$..  ..====**              ",
"              **====..  ..$$..$$$$%%$$..  ..====**              ",
"            ..******==......--@@@@--......==******..            ",
"            ..******==......--@@@@--......==******..            ",
"            ..**==;;==..$$%%..$$%%&&&&$$..==;;==**..            ",
"            ..**==;;==..$$%%..$$%%&&&&$$..==;;==**..            ",
"              **==;;....$$%%$$..$$$$%%$$....;;==**              ",
"              **==;;....$$%%$$..$$$$%%$$....;;==**              ",
"              ......  ..==;;==....==;;==..  ......              ",
"              ......  ..==;;==....==;;==..  ......              ",
"                    ......;;==....==;;......                    ",
"                    ......;;==....==;;......                    ",
"                ........$$%%$$....$$%%$$........                ",
"                ........$$%%$$....$$%%$$........                ",
"                ........%%%%$$....$$%%%%........                ",
"                ........%%%%$$....$$%%%%........                ",
"              ........**====**....**====**........              ",
"              ........**====**....**====**........              ",
"              ......**;;==;;==....==;;==;;**......              ",
"              ......**;;==;;==....==;;==;;**......              ",
"                ......==;;==**....**==;;==......                ",
"                ......==;;==**....**==;;==......                ",
"                ......**==**........**==**......                ",
"                ......**==**........**==**......                ",
"                    ........................                    ",
"                    ........................                    ",
"                          ............                          ",
"                          ............                          "
};
