/* XPM */
static char *b[] = {
/* columns rows colors chars-per-pixel */
"64 64 4 1 ",
"  c #B55945",
". c #D07753",
"X c #A6B04F",
"o c #EB9661",
/* pixels */
"  oooooooooooooooooooooooooooooooo  ..oooooooooo..      ..      ",
"  oooooooooooooooooooooooooooooooo  ..oooooooooo..      ..      ",
"..oooooooooooooooooooooooooooooooo..oooooooooooooooo  oooooo..  ",
"..oooooooooooooooooooooooooooooooo..oooooooooooooooo  oooooo..  ",
"..oooooooooooooooooooooooooooooooo  oooooooooooooooo..oooooooo..",
"..oooooooooooooooooooooooooooooooo  oooooooooooooooo..oooooooo..",
"..oooooooooooooooooooooooooooooooo  oooooooooooooooo  oooooooo..",
"..oooooooooooooooooooooooooooooooo  oooooooooooooooo  oooooooo..",
"  oooooooooooooooooooooooooooooooo  oooooooooooooooooooooooooooo",
"  oooooooooooooooooooooooooooooooo  oooooooooooooooooooooooooooo",
"  oooooooooooooooooooooooooooooooo..oooooooooooooooo..oooooooo..",
"  oooooooooooooooooooooooooooooooo..oooooooooooooooo..oooooooo..",
"..oooooooooooooooooooooooooooooooo..oooooooooooooooo....oooo..  ",
"..oooooooooooooooooooooooooooooooo..oooooooooooooooo....oooo..  ",
"oo..oooooooooooooooooooooooooooo..oooooooooooooooooooo....oooooo",
"oo..oooooooooooooooooooooooooooo..oooooooooooooooooooo....oooooo",
"oo..oooooooooooooooooooooooooooo..oooooooooooooooooooooooooooooo",
"oo..oooooooooooooooooooooooooooo..oooooooooooooooooooooooooooooo",
"oo..oooooooooooooooooooooooooo....oooooooooooooooooooo..oooooooo",
"oo..oooooooooooooooooooooooooo....oooooooooooooooooooo..oooooooo",
"oo....oooooooooooooooooooooooo..  oooooooooooooooooooo..oooooooo",
"oo....oooooooooooooooooooooooo..  oooooooooooooooooooo..oooooooo",
"oooo..oooooooooooooooooooooooo    ..oooooooooooooooooo  ..oooooo",
"oooo..oooooooooooooooooooooooo    ..oooooooooooooooooo  ..oooooo",
"oo....oooooooooooooooooooooo..oooo  ..oooooooooooooo      ..oooo",
"oo....oooooooooooooooooooooo..oooo  ..oooooooooooooo      ..oooo",
"..  ....oooooooooooooooooooo..oooooo  oooooooooo......  ........",
"..  ....oooooooooooooooooooo..oooooo  oooooooooo......  ........",
"....oooooooooooooooooooooo..  ..oooo..          ..oooooooooooooo",
"....oooooooooooooooooooooo..  ..oooo..          ..oooooooooooooo",
"oo..oooooooooooooooooooo....oooooo......    ..oooooooooooooooooo",
"oo..oooooooooooooooooooo....oooooo......    ..oooooooooooooooooo",
"oo    oooo..oooooooooo    oooooooooooo..  ..oooooooooooooooooooo",
"oo    oooo..oooooooooo    oooooooooooo..  ..oooooooooooooooooooo",
"oooo    ......      ....oooooooooooooooo  oooooooooooooooooooooo",
"oooo    ......      ....oooooooooooooooo  oooooooooooooooooooooo",
"oooo  ..oooooo..  ..oooooooooooooooooooo..oooooooooooooooooooooo",
"oooo  ..oooooo..  ..oooooooooooooooooooo..oooooooooooooooooooooo",
"oooo..oooooooo....oooooooooooooooooooooo..oooooooooooooooooooooo",
"oooo..oooooooo....oooooooooooooooooooooo..oooooooooooooooooooooo",
"oooooooooooooooo..oooooooooooooooooooooo..oooooooooooooooooooooo",
"oooooooooooooooo..oooooooooooooooooooooo..oooooooooooooooooooooo",
"oooooo..oooooooooooooooooooooooooooooooo  oooooooooooooooooooooo",
"oooooo..oooooooooooooooooooooooooooooooo  oooooooooooooooooooooo",
"oooooo..oooooooooooooooooooooooooooooooo  oooooooooooooooooooooo",
"oooooo..oooooooooooooooooooooooooooooooo  oooooooooooooooooooooo",
"oooooo......oooooooooooooooooooooooooo....oooooooooooooooooooooo",
"oooooo......oooooooooooooooooooooooooo....oooooooooooooooooooooo",
"oooooo  ..oooooooooooooooooooooooooooo..oooooooooooooooooooooooo",
"oooooo  ..oooooooooooooooooooooooooooo..oooooooooooooooooooooooo",
"oooooo..oooooooooooooooooooooooooooooo  ooooooooXXXXXXoooooooooo",
"oooooo..oooooooooooooooooooooooooooooo  ooooooooXXXXXXoooooooooo",
"oooo  ..oooooooooooooooooooooooooooooo  ooooooXXXXXXXXXXoooooooo",
"oooo  ..oooooooooooooooooooooooooooooo  ooooooXXXXXXXXXXoooooooo",
"oooo  XXXX..ooooooooooooooXXXXooooooXXXXooooooXXXXXXXXXXoooooooo",
"oooo  XXXX..ooooooooooooooXXXXooooooXXXXooooooXXXXXXXXXXoooooooo",
"oo..XXXXXXXX......XXXXooooXXXXXXooooXXXXooooooXXXXXXXXXXoooooooo",
"oo..XXXXXXXX......XXXXooooXXXXXXooooXXXXooooooXXXXXXXXXXoooooooo",
"ooXXXXXXXXXXXXXXXXXXXXXXooooXXXXoo..XXXX..ooooooXXXXXXooooooXXXX",
"ooXXXXXXXXXXXXXXXXXXXXXXooooXXXXoo..XXXX..ooooooXXXXXXooooooXXXX",
"XXXXXXXXXXXXXXXXXXXXXXXXXXooooooooXXXXXXXX..oooooooooooo..XXXXXX",
"XXXXXXXXXXXXXXXXXXXXXXXXXXooooooooXXXXXXXX..oooooooooooo..XXXXXX",
"XXXXXXXXXXXXXXXXXXXXXXXXXXXX....XXXXXXXXXXXXXX..oooooo..XXXXXXXX",
"XXXXXXXXXXXXXXXXXXXXXXXXXXXX....XXXXXXXXXXXXXX..oooooo..XXXXXXXX"
};
