/* XPM */
static char *bl[] = {
/* columns rows colors chars-per-pixel */
"64 64 4 1 ",
"  c #B55945",
". c #D07753",
"X c #A6B04F",
"o c #EB9661",
/* pixels */
"    ..XXXXXXXXXXoooooooooooooooooo  ..oooooooooo....    ..      ",
"    ..XXXXXXXXXXoooooooooooooooooo  ..oooooooooo....    ..      ",
"XXooooXXXXXXXXXXoooooooooooooooooo..oooooooooooooooooo........  ",
"XXooooXXXXXXXXXXoooooooooooooooooo..oooooooooooooooooo........  ",
"XXoooo..XXXXXXoooooooooooooooooooo..oooooooooooooooooooo..oooo..",
"XXoooo..XXXXXXoooooooooooooooooooo..oooooooooooooooooooo..oooo..",
"XXXXoooooooooooooooooooooooooooooooooooooooooooooooooooooooooooo",
"XXXXoooooooooooooooooooooooooooooooooooooooooooooooooooooooooooo",
"XXXXXXoooooooooooooooooooooooooo..oooooooooooooooooooooooooooooo",
"XXXXXXoooooooooooooooooooooooooo..oooooooooooooooooooooooooooooo",
"XXXXXXoooooooooooooooooooooooooo..oooooooooooooooooooooooo..oooo",
"XXXXXXoooooooooooooooooooooooooo..oooooooooooooooooooooooo..oooo",
"XXXXXXoooooooooooooooooooooooo..  oooooooooooooooooooooooo..  ..",
"XXXXXXoooooooooooooooooooooooo..  oooooooooooooooooooooooo..  ..",
"XXXXXXoooooooooooooooooooooo..    ..oooooooooooooooooooo  ..oooo",
"XXXXXXoooooooooooooooooooooo..    ..oooooooooooooooooooo  ..oooo",
"XX....  oooooooooooooo..oooooooo  ..oooooooooooooooooooo..oooooo",
"XX....  oooooooooooooo..oooooooo  ..oooooooooooooooooooo..oooooo",
"..oooo..  XXXX....oooooooooooooooo....oooooooooooooooooooooooooo",
"..oooo..  XXXX....oooooooooooooooo....oooooooooooooooooooooooooo",
"ooooooooXXXXXXoooooooooooooooooooooo..oooooooooooooooo..oooooooo",
"ooooooooXXXXXXoooooooooooooooooooooo..oooooooooooooooo..oooooooo",
"ooooooooXXXXoooooooooooooooooooooooooo..oooooooooooooo..oooooooo",
"ooooooooXXXXoooooooooooooooooooooooooo..oooooooooooooo..oooooooo",
"oooooooo..oooooooooooooooooooooooooooo  ..oooooooooo..  ..oooooo",
"oooooooo..oooooooooooooooooooooooooooo  ..oooooooooo..  ..oooooo",
"XXoooo..oooooooooooooooooooooooooooooo        ......        ....",
"XXoooo..oooooooooooooooooooooooooooooo        ......        ....",
"XXXXXX..oooooooooooooooooooooooooooooo    ..oooooooooooooooooooo",
"XXXXXX..oooooooooooooooooooooooooooooo    ..oooooooooooooooooooo",
"XXXX..  oooooooooooooooooooooooooooo  ..oooooooooooooooooooooooo",
"XXXX..  oooooooooooooooooooooooooooo  ..oooooooooooooooooooooooo",
"XXoooo..oooooooooooooooooooooooooo....oooooooooooooooooooooooooo",
"XXoooo..oooooooooooooooooooooooooo....oooooooooooooooooooooooooo",
"XXoooooo..oooooooooooooooooooooo..  oooooooooooooooooooooooooooo",
"XXoooooo..oooooooooooooooooooooo..  oooooooooooooooooooooooooooo",
"XXoooooooooooooooooooooooooo......oooooooooooooooooooooooooooooo",
"XXoooooooooooooooooooooooooo......oooooooooooooooooooooooooooooo",
"XXoooooooo..oooooooooo..oooooo..oooooooooooooooooooooooooooooooo",
"XXoooooooo..oooooooooo..oooooo..oooooooooooooooooooooooooooooooo",
"XXXXoooooo....oooooooooooooooo..oooooooooooooooooooooooooooooooo",
"XXXXoooooo....oooooooooooooooo..oooooooooooooooooooooooooooooooo",
"XXXXXXoooo..  ..XXXX..oooooooooooooooooooooooooooooooooooooooooo",
"XXXXXXoooo..  ..XXXX..oooooooooooooooooooooooooooooooooooooooooo",
"XXXXXXXX        XXXX..oooooo..oooooooooooooooooooooooooooooooooo",
"XXXXXXXX        XXXX..oooooo..oooooooooooooooooooooooooooooooooo",
"XXXXXXXXXX  oooooooooo..XXXX  oooooooooooooooooooooooooooooooooo",
"XXXXXXXXXX  oooooooooo..XXXX  oooooooooooooooooooooooooooooooooo",
"XXXXXXXXXXooooooooooooooXXXXXXoooooooooooooooooooooooooooooooooo",
"XXXXXXXXXXooooooooooooooXXXXXXoooooooooooooooooooooooooooooooooo",
"XXXXXXXXXXooooooooooooooooXXXXoooooooooooooooooooooooooooooooooo",
"XXXXXXXXXXooooooooooooooooXXXXoooooooooooooooooooooooooooooooooo",
"XXXXXXXX..oooooooooooooooooo....ooooooooooooooooXXXXXXXXoooooooo",
"XXXXXXXX..oooooooooooooooooo....ooooooooooooooooXXXXXXXXoooooooo",
"XXXXXXXXXXXXoooooooooooooooooo..ooooooooooooooXXXXXXXXXXXXXXoooo",
"XXXXXXXXXXXXoooooooooooooooooo..ooooooooooooooXXXXXXXXXXXXXXoooo",
"XXXXXXXXXXXXXXooooXXXXXXXXooooooXXooooooooooooXXXXXXXXXXXXXXoooo",
"XXXXXXXXXXXXXXooooXXXXXXXXooooooXXooooooooooooXXXXXXXXXXXXXXoooo",
"XXXXXXXXXXXXXX..ooXXXXXXXXXXooooXXXX..ooooooooXXXXXXXXXXXXXXoooo",
"XXXXXXXXXXXXXX..ooXXXXXXXXXXooooXXXX..ooooooooXXXXXXXXXXXXXXoooo",
"XXXXXXXXXXXXXXXX....XXXXXXXXoo..XXXXXXXXooooooooooXXXXXXXXoooo..",
"XXXXXXXXXXXXXXXX....XXXXXXXXoo..XXXXXXXXooooooooooXXXXXXXXoooo..",
"XXXXXXXXXXXXXXXXXX....oooooo..XXXXXXXXXXXXXXoooooooooooooooo..XX",
"XXXXXXXXXXXXXXXXXX....oooooo..XXXXXXXXXXXXXXoooooooooooooooo..XX"
};
