/* XPM */
static char *blr[] = {
/* columns rows colors chars-per-pixel */
"64 64 4 1 ",
"  c #B55945",
". c #D07753",
"X c #A6B04F",
"o c #EB9661",
/* pixels */
"  ooooXXXXXXXXXXoooooooooooooooooo  ..oooooooooo..  XXXX..XXXXXX",
"  ooooXXXXXXXXXXoooooooooooooooooo  ..oooooooooo..  XXXX..XXXXXX",
"..ooooXXXXXXXXXXoooooooooooooooooo..oooooooooooooooo  XXXX..XXXX",
"..ooooXXXXXXXXXXoooooooooooooooooo..oooooooooooooooo  XXXX..XXXX",
"..ooooooXXXXXXoooooooooooooooooooo  oooooooooooooooo....oooo..XX",
"..ooooooXXXXXXoooooooooooooooooooo  oooooooooooooooo....oooo..XX",
"XXoooooooooooooooooooooooooooooooo  oooooooooooooooo  oooooooo..",
"XXoooooooooooooooooooooooooooooooo  oooooooooooooooo  oooooooo..",
"XXoooooooooooooooooooooooooooooooo  oooooooooooooooooooooooooo..",
"XXoooooooooooooooooooooooooooooooo  oooooooooooooooooooooooooo..",
"XX..oooooooooooooooooooooooooooooo..oooooooooooooooo..ooooooooXX",
"XX..oooooooooooooooooooooooooooooo..oooooooooooooooo..ooooooooXX",
"XX  oooooooooooooooooooooooooo..oo..oooooooooooooooo....ooooXXXX",
"XX  oooooooooooooooooooooooooo..oo..oooooooooooooooo....ooooXXXX",
"XXXX..oooooooooooooooooooooo..  ..oooooooooooooooooooo....XXXXXX",
"XXXX..oooooooooooooooooooooo..  ..oooooooooooooooooooo....XXXXXX",
"XXXXXX  oooooooooooooo..oooooooo..oooooooooooooooooooo..XXXXXXXX",
"XXXXXX  oooooooooooooo..oooooooo..oooooooooooooooooooo..XXXXXXXX",
"XXXXXXXX      ....oooooooooooooo..oooooooooooooooooooo..XXXXXXXX",
"XXXXXXXX      ....oooooooooooooo..oooooooooooooooooooo..XXXXXXXX",
"XXXXXXXXXX....oooooooooooooooooo  oooooooooooooooooooo..XXXXXXXX",
"XXXXXXXXXX....oooooooooooooooooo  oooooooooooooooooooo..XXXXXXXX",
"XXXXXXXXXX..oooooooooooooooooooo  ..oooooooooooooooooo  ..XXXXXX",
"XXXXXXXXXX..oooooooooooooooooooo  ..oooooooooooooooooo  ..XXXXXX",
"XXXXXXXXXXoooooooooooooooooooooooo  ..oooooooooooooo      ..XXXX",
"XXXXXXXXXXoooooooooooooooooooooooo  ..oooooooooooooo      ..XXXX",
"XXXXXXXXoooooooooooooooooooooooooooo  oooooooooo......  ......XX",
"XXXXXXXXoooooooooooooooooooooooooooo  oooooooooo......  ......XX",
"XXXXXX..oooooooooooooooooooooooooooo..  XXXXXX  ..oooooooooooo..",
"XXXXXX..oooooooooooooooooooooooooooo..  XXXXXX  ..oooooooooooo..",
"  ..    oooooooooooooooooooooooooo....XXXXXXXXoooooooooooooooooo",
"  ..    oooooooooooooooooooooooooo....XXXXXXXXoooooooooooooooooo",
"..oooo..ooooooooooooooooooooooooooooooXXXXXXoooooooooooooooooooo",
"..oooo..ooooooooooooooooooooooooooooooXXXXXXoooooooooooooooooooo",
"oooooooo..oooooooooooooooooooo..oooooooo  ooooooooooooooooooooXX",
"oooooooo..oooooooooooooooooooo..oooooooo  ooooooooooooooooooooXX",
"oooooooooooooooooooooooooooo..  oooooooo..ooooooooooooooooooXXXX",
"oooooooooooooooooooooooooooo..  oooooooo..ooooooooooooooooooXXXX",
"..oooooooo..oooooooooo..oooooo  oooooooo..ooooooooooooooooXXXXXX",
"..oooooooo..oooooooooo..oooooo  oooooooo..ooooooooooooooooXXXXXX",
"XX..oooooo....oooooooooooooooo..oooooooo..ooooooooooooooooXXXXXX",
"XX..oooooo....oooooooooooooooo..oooooooo..ooooooooooooooooXXXXXX",
"XXXXoooooo  XXXX......oooooooooooooooooo  ooooooooooooooooXXXXXX",
"XXXXoooooo  XXXX......oooooooooooooooooo  ooooooooooooooooXXXXXX",
"XXXXXX....XXXXXX  ....oooooo..oooooooooo  ooooXXXXoooooooo..XXXX",
"XXXXXX....XXXXXX  ....oooooo..oooooooooo  ooooXXXXoooooooo..XXXX",
"XXXXXXXXXXXXXXoooooooo..XXXX  oooooooo....ooXXXXXXooooXXXXXXXXXX",
"XXXXXXXXXXXXXXoooooooo..XXXX  oooooooo....ooXXXXXXooooXXXXXXXXXX",
"XXXXXXXXXX..ooooooooooooXXXXXXoooooooo..ooooXXXXooooXXXXXXXXXXXX",
"XXXXXXXXXX..ooooooooooooXXXXXXoooooooo..ooooXXXXooooXXXXXXXXXXXX",
"XXXXXXXXXXooooooooooooooooXXXXoooooooo  ooooooooooXXXXXXXXXXXXXX",
"XXXXXXXXXXooooooooooooooooXXXXoooooooo  ooooooooooXXXXXXXXXXXXXX",
"XXXXXXXX..oooooooooooooooooo....oooooo  ooooooooXXXXXXXXXXXXXXXX",
"XXXXXXXX..oooooooooooooooooo....oooooo  ooooooooXXXXXXXXXXXXXXXX",
"XXXXXXXXXXXXoooooooooooooooooo..oooo..  ooooooXXXXXXXXXXXXXXXXXX",
"XXXXXXXXXXXXoooooooooooooooooo..oooo..  ooooooXXXXXXXXXXXXXXXXXX",
"XXXXXXXXXXXXXXooooXXXXXXXXooooooXXoo....ooooooXXXXXXXXXXXXXXXXXX",
"XXXXXXXXXXXXXXooooXXXXXXXXooooooXXoo....ooooooXXXXXXXXXXXXXXXXXX",
"XXXXXXXXXXXXXXooooXXXXXXXXXXooooXXXX  ooooooooXXXXXXXXXXXXXXXXXX",
"XXXXXXXXXXXXXXooooXXXXXXXXXXooooXXXX  ooooooooXXXXXXXXXXXXXXXXXX",
"XXXXXXXXXXXXXXXXooooXXXXXXXXooooXXXXXXXXoooooo....XXXXXXXXXXXXXX",
"XXXXXXXXXXXXXXXXooooXXXXXXXXooooXXXXXXXXoooooo....XXXXXXXXXXXXXX",
"XXXXXXXXXXXXXXXXXXooooooooooooXXXXXXXXXXXXXXXXXXXXXXXXXXXXXXXXXX",
"XXXXXXXXXXXXXXXXXXooooooooooooXXXXXXXXXXXXXXXXXXXXXXXXXXXXXXXXXX"
};
