/* XPM */
static char *br[] = {
/* columns rows colors chars-per-pixel */
"64 64 4 1 ",
"  c #B55945",
". c #D07753",
"X c #A6B04F",
"o c #EB9661",
/* pixels */
"  oooooooooooooooooooooooooooooooo  ..oooooooooo....XXXX..XXXXXX",
"  oooooooooooooooooooooooooooooooo  ..oooooooooo....XXXX..XXXXXX",
"..oooooooooooooooooooooooooooooooo..ooooooooooooooooooXXXX..XXXX",
"..oooooooooooooooooooooooooooooooo..ooooooooooooooooooXXXX..XXXX",
"..oooooooooooooooooooooooooooooooooooooooooooooooooooooooooooo..",
"..oooooooooooooooooooooooooooooooooooooooooooooooooooooooooooo..",
"..oooooooooooooooooooooooooooooooooooooooooooooooooooooooooooooo",
"..oooooooooooooooooooooooooooooooooooooooooooooooooooooooooooooo",
"  oooooooooooooooooooooooooooo..oooooooooooooooooooooooooooooooo",
"  oooooooooooooooooooooooooooo..oooooooooooooooooooooooooooooooo",
"  ..oooooooooooooooooooooooooo..oooooooooooooooooooooooooooooo..",
"  ..oooooooooooooooooooooooooo..oooooooooooooooooooooooooooooo..",
"..  oooooooooooooooooooooooooo..oooooooooooooooooooooooooooo  ..",
"..  oooooooooooooooooooooooooo..oooooooooooooooooooooooooooo  ..",
"oo......oooooooooooooooooooooo  oooooooooooooooooooooooooo..XXXX",
"oo......oooooooooooooooooooooo  oooooooooooooooooooooooooo..XXXX",
"oooo..........oooooooooooo....  ooooooooooooooooooooooooooXXXXXX",
"oooo..........oooooooooooo....  ooooooooooooooooooooooooooXXXXXX",
"oooo..oooooo  ......oooooooooo....oooooooooooooooooooooo..XXXXXX",
"oooo..oooooo  ......oooooooooo....oooooooooooooooooooooo..XXXXXX",
"oooooooooooo....oooooooooooooooo  oooooooooooooooooooooo..XXXXXX",
"oooooooooooo....oooooooooooooooo  oooooooooooooooooooooo..XXXXXX",
"oooooooooooooo..oooooooooooooooo  ..oooooooooooooooooooo..XXXXXX",
"oooooooooooooo..oooooooooooooooo  ..oooooooooooooooooooo..XXXXXX",
"oooooooooooooo  ..oooooooooo..      ..oooooooooooooooooo  XXXXXX",
"oooooooooooooo  ..oooooooooo..      ..oooooooooooooooooo  XXXXXX",
"oo..oooooooooo    ....oooooooooo..    ..oooooooooooooooo    XXXX",
"oo..oooooooooo    ....oooooooooo..    ..oooooooooooooooo    XXXX",
"..  oooooooooo....oooooooooooooooooooo....oooooooooooooo..oooooo",
"..  oooooooooo....oooooooooooooooooooo....oooooooooooooo..oooooo",
"oo..  oooooo  ..oooooooooooooooooooooooooo..  ooooooooXXXXXXoooo",
"oo..  oooooo  ..oooooooooooooooooooooooooo..  ooooooooXXXXXXoooo",
"oooo..    XXXXoooooooooooooooooooooooooooooo..    ..XXXXXXXX..oo",
"oooo..    XXXXoooooooooooooooooooooooooooooo..    ..XXXXXXXX..oo",
"oooooo..XXXX..oooooooooooooooooooooooooooooooo  ooooXXXXXXXXXXoo",
"oooooo..XXXX..oooooooooooooooooooooooooooooooo  ooooXXXXXXXXXXoo",
"ooooooooXXXXoooooooooooooooooooooooooooooooooo..ooooXXXXXXXXXXoo",
"ooooooooXXXXoooooooooooooooooooooooooooooooooo..ooooXXXXXXXXXXoo",
"oooooooo....oooooooooooooooooooooooooooooooooo..oooo..XXXXXXXXoo",
"oooooooo....oooooooooooooooooooooooooooooooooo..oooo..XXXXXXXXoo",
"oooooooo....oooooooooooooooooooooooooooooooooo..ooooooXXXXXXoooo",
"oooooooo....oooooooooooooooooooooooooooooooooo..ooooooXXXXXXoooo",
"oooooooo..oooooooooooooooooooooooooooooooooo..XXXXoooooooooooooo",
"oooooooo..oooooooooooooooooooooooooooooooooo..XXXXoooooooooooooo",
"oooooooo  ooooooooooooooooooooooooooooooooooXXXXXXoooooooooooo..",
"oooooooo  ooooooooooooooooooooooooooooooooooXXXXXXoooooooooooo..",
"oooooo..  ..ooooooooooooooooooooooooooooooooXXXXXXooooXXXXXXXXXX",
"oooooo..  ..ooooooooooooooooooooooooooooooooXXXXXXooooXXXXXXXXXX",
"oooooo  ....oooooooooooooooooooooooooooooo..XXXX..ooXXXXXXXXXXXX",
"oooooo  ....oooooooooooooooooooooooooooooo..XXXX..ooXXXXXXXXXXXX",
"oooooo..XXXX..oooooooooooooooooooooooooooo  ooooooXXXXXXXXXXXXXX",
"oooooo..XXXX..oooooooooooooooooooooooooooo  ooooooXXXXXXXXXXXXXX",
"oooo....XXXX  ..oooooooooooooooooooooooo..  ooooooXXXXXXXXXXXXXX",
"oooo....XXXX  ..oooooooooooooooooooooooo..  ooooooXXXXXXXXXXXXXX",
"oooo..XXXXXXXX  ..oooooooooooooooooooo..    ooooooXXXXXXXXXXXXXX",
"oooo..XXXXXXXX  ..oooooooooooooooooooo..    ooooooXXXXXXXXXXXXXX",
"oo..XXXXXXXXXXXXXX    ..oooooooooo..XXXX..  ooooooXXXXXXXXXXXXXX",
"oo..XXXXXXXXXXXXXX    ..oooooooooo..XXXX..  ooooooXXXXXXXXXXXXXX",
"ooXXXXXXXXXXXXXXXXXXXXXXXX  ........XXXXXX..ooooooXXXXXXXXXXXXXX",
"ooXXXXXXXXXXXXXXXXXXXXXXXX  ........XXXXXX..ooooooXXXXXXXXXXXXXX",
"XXXXXXXXXXXXXXXXXXXXXXXXXXXXXXXXXX    XXXX  ..oooo..XXXXXXXXXXXX",
"XXXXXXXXXXXXXXXXXXXXXXXXXXXXXXXXXX    XXXX  ..oooo..XXXXXXXXXXXX",
"XXXXXXXXXXXXXXXXXXXXXXXXXXXXXXXXXXXX        XXXXXXXXXXXXXXXXXXXX",
"XXXXXXXXXXXXXXXXXXXXXXXXXXXXXXXXXXXX        XXXXXXXXXXXXXXXXXXXX"
};
