/* XPM */
static char *l[] = {
/* columns rows colors chars-per-pixel */
"64 64 4 1 ",
"  c #B55945",
". c #D07753",
"X c #A6B04F",
"o c #EB9661",
/* pixels */
"  ooooXXXXXXXXXXoooooooooooooooooo  ..oooooooooo....    ..      ",
"  ooooXXXXXXXXXXoooooooooooooooooo  ..oooooooooo....    ..      ",
"..ooooXXXXXXXXXXoooooooooooooooooo..oooooooooooooooooo........  ",
"..ooooXXXXXXXXXXoooooooooooooooooo..oooooooooooooooooo........  ",
"XXooooooXXXXXXoooooooooooooooooooooooooooooooooooooooooooooooo..",
"XXooooooXXXXXXoooooooooooooooooooooooooooooooooooooooooooooooo..",
"XXoooooooooooooooooooooooooooooooooooooooooooooooooooooooooooooo",
"XXoooooooooooooooooooooooooooooooooooooooooooooooooooooooooooooo",
"XXoooooooooooooooooooooooooooo..oooooooooooooooooooooooooooooooo",
"XXoooooooooooooooooooooooooooo..oooooooooooooooooooooooooooooooo",
"  ..oooooooooooooooooooooooooo..oooooooooooooooooooooooooooooo..",
"  ..oooooooooooooooooooooooooo..oooooooooooooooooooooooooooooo..",
"..XXoooooooooooooooooooooooooo..oooooooooooooooooooooooooooo  ..",
"..XXoooooooooooooooooooooooooo..oooooooooooooooooooooooooooo  ..",
"ooXXXXXXoooooooooooooooooooooo  oooooooooooooooooooooooooo..oooo",
"ooXXXXXXoooooooooooooooooooooo  oooooooooooooooooooooooooo..oooo",
"ooooXXXX......oooooooooooo....  oooooooooooooooooooooooooooooooo",
"ooooXXXX......oooooooooooo....  oooooooooooooooooooooooooooooooo",
"oooo..oooooo  ......oooooooooo....oooooooooooooooooooooo..oooooo",
"oooo..oooooo  ......oooooooooo....oooooooooooooooooooooo..oooooo",
"oooooooooooo....oooooooooooooooo  oooooooooooooooooooooo..oooooo",
"oooooooooooo....oooooooooooooooo  oooooooooooooooooooooo..oooooo",
"oooooooooooooo..oooooooooooooooo  ..oooooooooooooooooooo..oooooo",
"oooooooooooooo..oooooooooooooooo  ..oooooooooooooooooooo..oooooo",
"oooooooooooooo  ..oooooooooo..      ..oooooooooooooooooo  ..oooo",
"oooooooooooooo  ..oooooooooo..      ..oooooooooooooooooo  ..oooo",
"XXXXoooooooooo    ....oooooooooo..    ..oooooooooooooooo    ....",
"XXXXoooooooooo    ....oooooooooo..    ..oooooooooooooooo    ....",
"XXXXXXoooooooo....oooooooooooooooooooo....oooooooooooooo..oooooo",
"XXXXXXoooooooo....oooooooooooooooooooo....oooooooooooooo..oooooo",
"..XXXXoooooo  ..oooooooooooooooooooooooooo..  oooooooo..oooooooo",
"..XXXXoooooo  ..oooooooooooooooooooooooooo..  oooooooo..oooooooo",
"oooo..      ..oooooooooooooooooooooooooooooo..    ..oooooooooooo",
"oooo..      ..oooooooooooooooooooooooooooooo..    ..oooooooooooo",
"oooooo..  XXXXoooooooooooooooooooooooooooooooo  oooooooooooooooo",
"oooooo..  XXXXoooooooooooooooooooooooooooooooo  oooooooooooooooo",
"..ooooooXXXX..oooooooooooooooooooooooooooooooo..oooooooooooooooo",
"..ooooooXXXX..oooooooooooooooooooooooooooooooo..oooooooooooooooo",
"XXXX..ooXXXXoooooooooooooooooooooooooooooooooo..oooooooooooooooo",
"XXXX..ooXXXXoooooooooooooooooooooooooooooooooo..oooooooooooooooo",
"XXXXXX......oooooooooooooooooooooooooooooooooo..oooooooooooooooo",
"XXXXXX......oooooooooooooooooooooooooooooooooo..oooooooooooooooo",
"XXXXXXXX..oooooooooooooooooooooooooooooooooo....oooooooooooooooo",
"XXXXXXXX..oooooooooooooooooooooooooooooooooo....oooooooooooooooo",
"XXXXXXXX  oooooooooooooooooooooooooooooooooo..oooooooooooooooooo",
"XXXXXXXX  oooooooooooooooooooooooooooooooooo..oooooooooooooooooo",
"XXXXXXXX  ..oooooooooooooooooooooooooooooooo..oooooooooooooooooo",
"XXXXXXXX  ..oooooooooooooooooooooooooooooooo..oooooooooooooooooo",
"XXXXXXXX....oooooooooooooooooooooooooooooo..oooooooooooooooooooo",
"XXXXXXXX....oooooooooooooooooooooooooooooo..oooooooooooooooooooo",
"XXXXXX..oooo..oooooooooooooooooooooooooooo  oooooooooooooooooooo",
"XXXXXX..oooo..oooooooooooooooooooooooooooo  oooooooooooooooooooo",
"XXXXXX..oooo  ..oooooooooooooooooooooooo..  oooooooooooooooooooo",
"XXXXXX..oooo  ..oooooooooooooooooooooooo..  oooooooooooooooooooo",
"XXXXXXoooo....  ..oooooooooooooooooooo..    oooooooooooooooooooo",
"XXXXXXoooo....  ..oooooooooooooooooooo..    oooooooooooooooooooo",
"XXXX..oooooooooo..    ..oooooooooo..oooo..  oooooooooooooooooooo",
"XXXX..oooooooooo..    ..oooooooooo..oooo..  oooooooooooooooooooo",
"XXXX..oooooooooooooooo..    ........oooooo..oooooooooooooooooooo",
"XXXX..oooooooooooooooo..    ........oooooo..oooooooooooooooooooo",
"XXXXooooXXXXXXoooooooooooooooooooo    oooo  ..oooooooooooooooooo",
"XXXXooooXXXXXXoooooooooooooooooooo    oooo  ..oooooooooooooooooo",
"XX..ooXXXXXXXXXXoooooooooooooooooo            ..oooooooooooooo..",
"XX..ooXXXXXXXXXXoooooooooooooooooo            ..oooooooooooooo.."
};
