/* XPM */
static char *lr[] = {
/* columns rows colors chars-per-pixel */
"64 64 4 1 ",
"  c #B55945",
". c #D07753",
"X c #A6B04F",
"o c #EB9661",
/* pixels */
"  ooooXXXXXXXXXXoooooooooooooooooo  ..oooooooooo..  XXXX..XXXXXX",
"  ooooXXXXXXXXXXoooooooooooooooooo  ..oooooooooo..  XXXX..XXXXXX",
"..ooooXXXXXXXXXXoooooooooooooooooo..oooooooooooooooo  XXXX..XXXX",
"..ooooXXXXXXXXXXoooooooooooooooooo..oooooooooooooooo  XXXX..XXXX",
"..ooooooXXXXXXoooooooooooooooooooo  oooooooooooooooo....oooo..XX",
"..ooooooXXXXXXoooooooooooooooooooo  oooooooooooooooo....oooo..XX",
"XXoooooooooooooooooooooooooooooooo  oooooooooooooooo  oooooooo..",
"XXoooooooooooooooooooooooooooooooo  oooooooooooooooo  oooooooo..",
"XXoooooooooooooooooooooooooooooooo  oooooooooooooooooooooooooo..",
"XXoooooooooooooooooooooooooooooooo  oooooooooooooooooooooooooo..",
"XX..oooooooooooooooooooooooooooooo..oooooooooooooooo..ooooooooXX",
"XX..oooooooooooooooooooooooooooooo..oooooooooooooooo..ooooooooXX",
"XX  oooooooooooooooooooooooooo..oo..oooooooooooooooo....ooooXXXX",
"XX  oooooooooooooooooooooooooo..oo..oooooooooooooooo....ooooXXXX",
"XXXX..oooooooooooooooooooooo..  ..oooooooooooooooooooo....XXXXXX",
"XXXX..oooooooooooooooooooooo..  ..oooooooooooooooooooo....XXXXXX",
"XXXXXX  oooooooooooooo..oooooooo..oooooooooooooooooooo..XXXXXXXX",
"XXXXXX  oooooooooooooo..oooooooo..oooooooooooooooooooo..XXXXXXXX",
"XXXXXXXX      ....oooooooooooooo..oooooooooooooooooooo..XXXXXXXX",
"XXXXXXXX      ....oooooooooooooo..oooooooooooooooooooo..XXXXXXXX",
"XXXXXXXXXX....oooooooooooooooooo  oooooooooooooooooooo..XXXXXXXX",
"XXXXXXXXXX....oooooooooooooooooo  oooooooooooooooooooo..XXXXXXXX",
"XXXXXXXXXX..oooooooooooooooooooo  ..oooooooooooooooooo  ..XXXXXX",
"XXXXXXXXXX..oooooooooooooooooooo  ..oooooooooooooooooo  ..XXXXXX",
"XXXXXXXXXXoooooooooooooooooooooooo  ..oooooooooooooo      ..XXXX",
"XXXXXXXXXXoooooooooooooooooooooooo  ..oooooooooooooo      ..XXXX",
"XXXXXXXXoooooooooooooooooooooooooooo  oooooooooo......  ......XX",
"XXXXXXXXoooooooooooooooooooooooooooo  oooooooooo......  ......XX",
"XXXXXX..oooooooooooooooooooooooooooo..  XXXXXX  ..oooooooooooo..",
"XXXXXX..oooooooooooooooooooooooooooo..  XXXXXX  ..oooooooooooo..",
"  ..    oooooooooooooooooooooooooo....XXXXXXXXoooooooooooooooooo",
"  ..    oooooooooooooooooooooooooo....XXXXXXXXoooooooooooooooooo",
"..oooo..ooooooooooooooooooooooooooooooXXXXXXoooooooooooooooooooo",
"..oooo..ooooooooooooooooooooooooooooooXXXXXXoooooooooooooooooooo",
"oooooooo..oooooooooooooooooooo..oooooooo  ooooooooooooooooooooXX",
"oooooooo..oooooooooooooooooooo..oooooooo  ooooooooooooooooooooXX",
"oooooooooooooooooooooooooooo..  oooooooo..ooooooooooooooooooXXXX",
"oooooooooooooooooooooooooooo..  oooooooo..ooooooooooooooooooXXXX",
"..oooooooo..oooooooooo..oooooo  oooooooo..ooooooooooooooooXXXXXX",
"..oooooooo..oooooooooo..oooooo  oooooooo..ooooooooooooooooXXXXXX",
"XX..oooooo....oooooooooooooooo..oooooooo..ooooooooooooooooXXXXXX",
"XX..oooooo....oooooooooooooooo..oooooooo..ooooooooooooooooXXXXXX",
"XXXXoooooo  XXXX......oooooooooooooooooo  ooooooooooooooooXXXXXX",
"XXXXoooooo  XXXX......oooooooooooooooooo  ooooooooooooooooXXXXXX",
"XXXXXXooooXXXXXX  ....oooooo..oooooooooo  ooooooooooooooooXXXXXX",
"XXXXXXooooXXXXXX  ....oooooo..oooooooooo  ooooooooooooooooXXXXXX",
"XXXXXXXX..XXXXoooooooo..  ..  oooooooo....ooooooooooooooXXXXXXXX",
"XXXXXXXX..XXXXoooooooo..  ..  oooooooo....ooooooooooooooXXXXXXXX",
"XXXXXXXX..oooooooooooooo..    oooooooo..ooooooooooooooooXXXXXXXX",
"XXXXXXXX..oooooooooooooo..    oooooooo..ooooooooooooooooXXXXXXXX",
"XXXXXXXXoooooooooooooooooo..  oooooooo  ooooooooooooooooXXXXXXXX",
"XXXXXXXXoooooooooooooooooo..  oooooooo  ooooooooooooooooXXXXXXXX",
"XXXXXX..oooooooooooooooooooo....oooooo  ooooooooooooooooXXXXXXXX",
"XXXXXX..oooooooooooooooooooo....oooooo  ooooooooooooooooXXXXXXXX",
"XXXXXX..oooooooooooooooooooooo..oooo..  ooooooooooooooooooXXXXXX",
"XXXXXX..oooooooooooooooooooooo..oooo..  ooooooooooooooooooXXXXXX",
"XXXXXXoooooooooooooooooooooooooooooo....ooooooooooooooooooooXXXX",
"XXXXXXoooooooooooooooooooooooooooooo....ooooooooooooooooooooXXXX",
"XXXXXXooooooooooooooooooooooooooooXX  ooooooooooooooooooooooooXX",
"XXXXXXooooooooooooooooooooooooooooXX  ooooooooooooooooooooooooXX",
"XXXXooooXXXXXXooooooooooooooooooooXXXXXXooooooooooooooooooooooXX",
"XXXXooooXXXXXXooooooooooooooooooooXXXXXXooooooooooooooooooooooXX",
"XX..ooXXXXXXXXXXoooooooooooooooooo  XXXX      ..ooooooooooooXXXX",
"XX..ooXXXXXXXXXXoooooooooooooooooo  XXXX      ..ooooooooooooXXXX"
};
