/* XPM */
static char *m[] = {
/* columns rows colors chars-per-pixel */
"64 64 3 1 ",
"  c #B55945",
". c #D07753",
"X c #EB9661",
/* pixels */
"  XXXXXXXXXXXXXXXXXXXXXXXXXXXXXXXX  ..XXXXXXXXXX....    ..      ",
"  XXXXXXXXXXXXXXXXXXXXXXXXXXXXXXXX  ..XXXXXXXXXX....    ..      ",
"..XXXXXXXXXXXXXXXXXXXXXXXXXXXXXXXX..XXXXXXXXXXXXXXXXXX........  ",
"..XXXXXXXXXXXXXXXXXXXXXXXXXXXXXXXX..XXXXXXXXXXXXXXXXXX........  ",
"..XXXXXXXXXXXXXXXXXXXXXXXXXXXXXXXX..XXXXXXXXXXXXXXXXXXXX..XXXX..",
"..XXXXXXXXXXXXXXXXXXXXXXXXXXXXXXXX..XXXXXXXXXXXXXXXXXXXX..XXXX..",
"..XXXXXXXXXXXXXXXXXXXXXXXXXXXXXXXXXXXXXXXXXXXXXXXXXXXXXXXXXXXXXX",
"..XXXXXXXXXXXXXXXXXXXXXXXXXXXXXXXXXXXXXXXXXXXXXXXXXXXXXXXXXXXXXX",
"  XXXXXXXXXXXXXXXXXXXXXXXXXXXXXX..XXXXXXXXXXXXXXXXXXXXXXXXXXXXXX",
"  XXXXXXXXXXXXXXXXXXXXXXXXXXXXXX..XXXXXXXXXXXXXXXXXXXXXXXXXXXXXX",
"  ..XXXXXXXXXXXXXXXXXXXXXXXXXXXX..XXXXXXXXXXXXXXXXXXXXXXXX..XXXX",
"  ..XXXXXXXXXXXXXXXXXXXXXXXXXXXX..XXXXXXXXXXXXXXXXXXXXXXXX..XXXX",
"..  XXXXXXXXXXXXXXXXXXXXXXXXXX..  XXXXXXXXXXXXXXXXXXXXXXXX..  ..",
"..  XXXXXXXXXXXXXXXXXXXXXXXXXX..  XXXXXXXXXXXXXXXXXXXXXXXX..  ..",
"XX....XXXXXXXXXXXXXXXXXXXXXX..    ..XXXXXXXXXXXXXXXXXXXX  ..XXXX",
"XX....XXXXXXXXXXXXXXXXXXXXXX..    ..XXXXXXXXXXXXXXXXXXXX  ..XXXX",
"XXXX..  XXXXXXXXXXXXXX..XXXXXXXX  ..XXXXXXXXXXXXXXXXXXXX..XXXXXX",
"XXXX..  XXXXXXXXXXXXXX..XXXXXXXX  ..XXXXXXXXXXXXXXXXXXXX..XXXXXX",
"XXXXXXXX      ....XXXXXXXXXXXXXXXX....XXXXXXXXXXXXXXXXXXXXXXXXXX",
"XXXXXXXX      ....XXXXXXXXXXXXXXXX....XXXXXXXXXXXXXXXXXXXXXXXXXX",
"XXXXXXXX  ....XXXXXXXXXXXXXXXXXXXXXX..XXXXXXXXXXXXXXXX..XXXXXXXX",
"XXXXXXXX  ....XXXXXXXXXXXXXXXXXXXXXX..XXXXXXXXXXXXXXXX..XXXXXXXX",
"XXXXXXXX....XXXXXXXXXXXXXXXXXXXXXXXXXX..XXXXXXXXXXXXXX..XXXXXXXX",
"XXXXXXXX....XXXXXXXXXXXXXXXXXXXXXXXXXX..XXXXXXXXXXXXXX..XXXXXXXX",
"XXXXXXXX..XXXXXXXXXXXXXXXXXXXXXXXXXXXX  ..XXXXXXXXXX..  ..XXXXXX",
"XXXXXXXX..XXXXXXXXXXXXXXXXXXXXXXXXXXXX  ..XXXXXXXXXX..  ..XXXXXX",
"XXXXXX..XXXXXXXXXXXXXXXXXXXXXXXXXXXXXX        ......        ....",
"XXXXXX..XXXXXXXXXXXXXXXXXXXXXXXXXXXXXX        ......        ....",
"..    ..XXXXXXXXXXXXXXXXXXXXXXXXXXXXXX    ..XXXXXXXXXXXXXXXXXXXX",
"..    ..XXXXXXXXXXXXXXXXXXXXXXXXXXXXXX    ..XXXXXXXXXXXXXXXXXXXX",
"XXXX..  XXXXXXXXXXXXXXXXXXXXXXXXXXXX  ..XXXXXXXXXXXXXXXXXXXXXXXX",
"XXXX..  XXXXXXXXXXXXXXXXXXXXXXXXXXXX  ..XXXXXXXXXXXXXXXXXXXXXXXX",
"XXXXXX..XXXXXXXXXXXXXXXXXXXXXXXXXX....XXXXXXXXXXXXXXXXXXXXXXXXXX",
"XXXXXX..XXXXXXXXXXXXXXXXXXXXXXXXXX....XXXXXXXXXXXXXXXXXXXXXXXXXX",
"XXXXXXXX..XXXXXXXXXXXXXXXXXXXXXX..  XXXXXXXXXXXXXXXXXXXXXXXXXXXX",
"XXXXXXXX..XXXXXXXXXXXXXXXXXXXXXX..  XXXXXXXXXXXXXXXXXXXXXXXXXXXX",
"XXXXXXXXXXXXXXXXXXXXXXXXXXXX......XXXXXXXXXXXXXXXXXXXXXXXXXXXXXX",
"XXXXXXXXXXXXXXXXXXXXXXXXXXXX......XXXXXXXXXXXXXXXXXXXXXXXXXXXXXX",
"XXXXXXXXXX..XXXXXXXXXX..XXXXXX..XXXXXXXXXXXXXXXXXXXXXXXXXXXXXXXX",
"XXXXXXXXXX..XXXXXXXXXX..XXXXXX..XXXXXXXXXXXXXXXXXXXXXXXXXXXXXXXX",
"XXXXXXXXXX....XXXXXXXXXXXXXXXX..XXXXXXXXXXXXXXXXXXXXXXXXXXXXXXXX",
"XXXXXXXXXX....XXXXXXXXXXXXXXXX..XXXXXXXXXXXXXXXXXXXXXXXXXXXXXXXX",
"XXXXXXXXXX..  ........XXXXXXXXXXXXXXXXXXXXXXXXXXXXXXXXXXXXXXXXXX",
"XXXXXXXXXX..  ........XXXXXXXXXXXXXXXXXXXXXXXXXXXXXXXXXXXXXXXXXX",
"XXXXXXXXXX..      ....XXXXXX..XXXXXXXXXXXXXXXXXXXXXXXXXXXXXXXXXX",
"XXXXXXXXXX..      ....XXXXXX..XXXXXXXXXXXXXXXXXXXXXXXXXXXXXXXXXX",
"XXXXXXXX..  XXXXXXXXXX..  ..  XXXXXXXXXXXXXXXXXXXXXXXXXXXXXXXXXX",
"XXXXXXXX..  XXXXXXXXXX..  ..  XXXXXXXXXXXXXXXXXXXXXXXXXXXXXXXXXX",
"XXXXXXXX..XXXXXXXXXXXXXX..    XXXXXXXXXXXXXXXXXXXXXXXXXXXXXXXXXX",
"XXXXXXXX..XXXXXXXXXXXXXX..    XXXXXXXXXXXXXXXXXXXXXXXXXXXXXXXXXX",
"XXXXXXXXXXXXXXXXXXXXXXXXXX..  XXXXXXXXXXXXXXXXXXXXXXXXXXXXXXXXXX",
"XXXXXXXXXXXXXXXXXXXXXXXXXX..  XXXXXXXXXXXXXXXXXXXXXXXXXXXXXXXXXX",
"XXXXXX..XXXXXXXXXXXXXXXXXXXX....XXXXXXXXXXXXXXXXXXXXXXXXXXXXXXXX",
"XXXXXX..XXXXXXXXXXXXXXXXXXXX....XXXXXXXXXXXXXXXXXXXXXXXXXXXXXXXX",
"XXXXXXXXXXXXXXXXXXXXXXXXXXXXXX..XXXXXXXXXXXXXXXXXXXXXXXXXXXXXXXX",
"XXXXXXXXXXXXXXXXXXXXXXXXXXXXXX..XXXXXXXXXXXXXXXXXXXXXXXXXXXXXXXX",
"XXXX..XXXXXXXXXXXXXXXXXXXXXXXXXX..XXXXXXXXXXXXXXXXXXXXXXXXXXXXXX",
"XXXX..XXXXXXXXXXXXXXXXXXXXXXXXXX..XXXXXXXXXXXXXXXXXXXXXXXXXXXXXX",
"XX....XXXXXXXXXXXXXXXXXXXXXXXXXX..  XXXXXXXXXXXXXXXXXXXXXXXXXXXX",
"XX....XXXXXXXXXXXXXXXXXXXXXXXXXX..  XXXXXXXXXXXXXXXXXXXXXXXXXXXX",
"..  XXXXXXXXXXXXXXXXXXXXXXXXXXXXXX    ..XXXXXXXXXXXXXXXXXXXXXXXX",
"..  XXXXXXXXXXXXXXXXXXXXXXXXXXXXXX    ..XXXXXXXXXXXXXXXXXXXXXXXX",
"  ..XXXXXXXXXXXXXXXXXXXXXXXXXXXXXX        ..XXXXXXXXXXXXXXXXXX..",
"  ..XXXXXXXXXXXXXXXXXXXXXXXXXXXXXX        ..XXXXXXXXXXXXXXXXXX.."
};
