/* XPM */
static char *r[] = {
/* columns rows colors chars-per-pixel */
"64 64 4 1 ",
"  c #B55945",
". c #D07753",
"X c #A6B04F",
"o c #EB9661",
/* pixels */
"  oooooooooooooooooooooooooooooooo  ..oooooooooo....XXXX..XXXXXX",
"  oooooooooooooooooooooooooooooooo  ..oooooooooo....XXXX..XXXXXX",
"..oooooooooooooooooooooooooooooooo..ooooooooooooooooooXXXX..XXXX",
"..oooooooooooooooooooooooooooooooo..ooooooooooooooooooXXXX..XXXX",
"..oooooooooooooooooooooooooooooooo..oooooooooooooooooooo..ooooXX",
"..oooooooooooooooooooooooooooooooo..oooooooooooooooooooo..ooooXX",
"..oooooooooooooooooooooooooooooooooooooooooooooooooooooooooooooo",
"..oooooooooooooooooooooooooooooooooooooooooooooooooooooooooooooo",
"  oooooooooooooooooooooooooooooo..oooooooooooooooooooooooooooooo",
"  oooooooooooooooooooooooooooooo..oooooooooooooooooooooooooooooo",
"  ..oooooooooooooooooooooooooooo..oooooooooooooooooooooooo..oooo",
"  ..oooooooooooooooooooooooooooo..oooooooooooooooooooooooo..oooo",
"..  oooooooooooooooooooooooooo..  oooooooooooooooooooooooo..XXXX",
"..  oooooooooooooooooooooooooo..  oooooooooooooooooooooooo..XXXX",
"oo....oooooooooooooooooooooo..    ..oooooooooooooooooooo  XXXXXX",
"oo....oooooooooooooooooooooo..    ..oooooooooooooooooooo  XXXXXX",
"oooo..  oooooooooooooo..oooooooo  ..ooooooooooooooooooooXXXXXXXX",
"oooo..  oooooooooooooo..oooooooo  ..ooooooooooooooooooooXXXXXXXX",
"oooooooo      ....oooooooooooooooo....ooooooooooooooooooXXXXXXXX",
"oooooooo      ....oooooooooooooooo....ooooooooooooooooooXXXXXXXX",
"oooooooo  ....oooooooooooooooooooooo..oooooooooooooooo..XXXXXXXX",
"oooooooo  ....oooooooooooooooooooooo..oooooooooooooooo..XXXXXXXX",
"oooooooo....oooooooooooooooooooooooooo..oooooooooooooo..XXXXXXXX",
"oooooooo....oooooooooooooooooooooooooo..oooooooooooooo..XXXXXXXX",
"oooooooo..ooooooooooooooooooooooooooooXXXXoooooooooo..  ..XXXXXX",
"oooooooo..ooooooooooooooooooooooooooooXXXXoooooooooo..  ..XXXXXX",
"oooooo..ooooooooooooooooooooooooooooooXXXXXX  ......        XXXX",
"oooooo..ooooooooooooooooooooooooooooooXXXXXX  ......        XXXX",
"..    ..oooooooooooooooooooooooooooooo  XXXXoooooooooooooooo..XX",
"..    ..oooooooooooooooooooooooooooooo  XXXXoooooooooooooooo..XX",
"oooo..  oooooooooooooooooooooooooooo  ..ooooooooooooooooXXXXoooo",
"oooo..  oooooooooooooooooooooooooooo  ..ooooooooooooooooXXXXoooo",
"oooooo..oooooooooooooooooooooooooo....ooooooooooooooooooXXXXoooo",
"oooooo..oooooooooooooooooooooooooo....ooooooooooooooooooXXXXoooo",
"oooooooo..oooooooooooooooooooooo..  oooooooooooooooooooooooo..XX",
"oooooooo..oooooooooooooooooooooo..  oooooooooooooooooooooooo..XX",
"oooooooooooooooooooooooooooo......ooooooooooooooooooooooooXXXXXX",
"oooooooooooooooooooooooooooo......ooooooooooooooooooooooooXXXXXX",
"oooooooooo..oooooooooo..oooooo..ooooooooooooooooooooooooooXXXXXX",
"oooooooooo..oooooooooo..oooooo..ooooooooooooooooooooooooooXXXXXX",
"oooooooooo....oooooooooooooooo..ooooooooooooooooooooooooooXXXXXX",
"oooooooooo....oooooooooooooooo..ooooooooooooooooooooooooooXXXXXX",
"oooooooooo..  ........ooooooooooooooooooooooooooooooooooooooXXXX",
"oooooooooo..  ........ooooooooooooooooooooooooooooooooooooooXXXX",
"oooooooooo..      ....oooooo..oooooooooooooooooooooooooooooooo..",
"oooooooooo..      ....oooooo..oooooooooooooooooooooooooooooooo..",
"oooooooo..  oooooooooo..  ..  ooooooooooooooooooooooooXXXXXXoooo",
"oooooooo..  oooooooooo..  ..  ooooooooooooooooooooooooXXXXXXoooo",
"oooooooo..oooooooooooooo..    ooooooooooooooooooooooooXXXXXXXXoo",
"oooooooo..oooooooooooooo..    ooooooooooooooooooooooooXXXXXXXXoo",
"oooooooooooooooooooooooooo..  ooooooooooooooooooooooXXXXXXXXXXoo",
"oooooooooooooooooooooooooo..  ooooooooooooooooooooooXXXXXXXXXXoo",
"oooooo..oooooooooooooooooooo....ooooooooooooooooooooXXXXXXXXXXoo",
"oooooo..oooooooooooooooooooo....ooooooooooooooooooooXXXXXXXXXXoo",
"oooooooooooooooooooooooooooooo..ooooooooooooooooooooXXXXXXXXXXoo",
"oooooooooooooooooooooooooooooo..ooooooooooooooooooooXXXXXXXXXXoo",
"oooo..oooooooooooooooooooooooooo..ooooooooooooooooooXXXXXXXXoooo",
"oooo..oooooooooooooooooooooooooo..ooooooooooooooooooXXXXXXXXoooo",
"oo....oooooooooooooooooooooooooo..XX..ooooooooooooooooXXXXXXoooo",
"oo....oooooooooooooooooooooooooo..XX..ooooooooooooooooXXXXXXoooo",
"..  ooooooooooooooooooooooooooooooXXXXXXooooooooooooooooooooooXX",
"..  ooooooooooooooooooooooooooooooXXXXXXooooooooooooooooooooooXX",
"  ..oooooooooooooooooooooooooooooo  XXXX  ..ooooooooooooooooXXXX",
"  ..oooooooooooooooooooooooooooooo  XXXX  ..ooooooooooooooooXXXX"
};
