/* XPM */
static char *t[] = {
/* columns rows colors chars-per-pixel */
"64 64 4 1 ",
"  c #B55945",
". c #D07753",
"X c #A6B04F",
"o c #EB9661",
/* pixels */
"XXXXoooo..XXXXXXXXXXXXXXXXXXoooo..XXXXXXoooooooo..XXXXXXXXXXXXXX",
"XXXXoooo..XXXXXXXXXXXXXXXXXXoooo..XXXXXXoooooooo..XXXXXXXXXXXXXX",
"XX..ooooooXXXXXXXXXXXXXXXXooooooooXXXXooooooXXXXooooXXXXXXXXXXXX",
"XX..ooooooXXXXXXXXXXXXXXXXooooooooXXXXooooooXXXXooooXXXXXXXXXXXX",
"XXooooooooooXXXXXXXXXXXXoooooooooo..ooooXXXXXXXXXXooooXXXXXXXXXX",
"XXooooooooooXXXXXXXXXXXXoooooooooo..ooooXXXXXXXXXXooooXXXXXXXXXX",
"..ooooooooooooXXXXXXXXooooooooooooooooooXXXXXXXXXXoooooo..  ....",
"..ooooooooooooXXXXXXXXooooooooooooooooooXXXXXXXXXXoooooo..  ....",
"  oooooooooooooooooooooooooooooo..ooooooooXXXXoooooooooooooooooo",
"  oooooooooooooooooooooooooooooo..ooooooooXXXXoooooooooooooooooo",
"XXXXoooooooooooooooooooooooooooo..oooooooooooooooooooooooo..oooo",
"XXXXoooooooooooooooooooooooooooo..oooooooooooooooooooooooo..oooo",
"XXXX..ooooooooooooooooooooooooXXXXoooooooooooooooooooooooo..  ..",
"XXXX..ooooooooooooooooooooooooXXXXoooooooooooooooooooooooo..  ..",
"ooXXXXoooooooooooooooooooooo..XXXX..oooooooooooooooooooo  ..oooo",
"ooXXXXoooooooooooooooooooooo..XXXX..oooooooooooooooooooo  ..oooo",
"oooo..  oooooooooooooo..oooooooo  ..oooooooooooooooooooo..oooooo",
"oooo..  oooooooooooooo..oooooooo  ..oooooooooooooooooooo..oooooo",
"oooooooo      ....oooooooooooooooo....oooooooooooooooooooooooooo",
"oooooooo      ....oooooooooooooooo....oooooooooooooooooooooooooo",
"oooooooo  ....oooooooooooooooooooooo..oooooooooooooooo..oooooooo",
"oooooooo  ....oooooooooooooooooooooo..oooooooooooooooo..oooooooo",
"oooooooo....oooooooooooooooooooooooooo..oooooooooooooo..oooooooo",
"oooooooo....oooooooooooooooooooooooooo..oooooooooooooo..oooooooo",
"oooooooo..oooooooooooooooooooooooooooo  ..oooooooooo..  ..oooooo",
"oooooooo..oooooooooooooooooooooooooooo  ..oooooooooo..  ..oooooo",
"oooooo..oooooooooooooooooooooooooooooo        ......        ....",
"oooooo..oooooooooooooooooooooooooooooo        ......        ....",
"..    ..oooooooooooooooooooooooooooooo    ..oooooooooooooooooooo",
"..    ..oooooooooooooooooooooooooooooo    ..oooooooooooooooooooo",
"oooo..  oooooooooooooooooooooooooooo  ..oooooooooooooooooooooooo",
"oooo..  oooooooooooooooooooooooooooo  ..oooooooooooooooooooooooo",
"oooooo..oooooooooooooooooooooooooo....oooooooooooooooooooooooooo",
"oooooo..oooooooooooooooooooooooooo....oooooooooooooooooooooooooo",
"oooooooo..oooooooooooooooooooooo..  oooooooooooooooooooooooooooo",
"oooooooo..oooooooooooooooooooooo..  oooooooooooooooooooooooooooo",
"oooooooooooooooooooooooooooo......oooooooooooooooooooooooooooooo",
"oooooooooooooooooooooooooooo......oooooooooooooooooooooooooooooo",
"oooooooooo..oooooooooo..oooooo..oooooooooooooooooooooooooooooooo",
"oooooooooo..oooooooooo..oooooo..oooooooooooooooooooooooooooooooo",
"oooooooooo....oooooooooooooooo..oooooooooooooooooooooooooooooooo",
"oooooooooo....oooooooooooooooo..oooooooooooooooooooooooooooooooo",
"oooooooooo..  ........oooooooooooooooooooooooooooooooooooooooooo",
"oooooooooo..  ........oooooooooooooooooooooooooooooooooooooooooo",
"oooooooooo..      ....oooooo..oooooooooooooooooooooooooooooooooo",
"oooooooooo..      ....oooooo..oooooooooooooooooooooooooooooooooo",
"oooooooo..  oooooooooo..  ..  oooooooooooooooooooooooooooooooooo",
"oooooooo..  oooooooooo..  ..  oooooooooooooooooooooooooooooooooo",
"oooooooo..oooooooooooooo..    oooooooooooooooooooooooooooooooooo",
"oooooooo..oooooooooooooo..    oooooooooooooooooooooooooooooooooo",
"oooooooooooooooooooooooooo..  oooooooooooooooooooooooooooooooooo",
"oooooooooooooooooooooooooo..  oooooooooooooooooooooooooooooooooo",
"oooooo..oooooooooooooooooooo....oooooooooooooooooooooooooooooooo",
"oooooo..oooooooooooooooooooo....oooooooooooooooooooooooooooooooo",
"oooooooooooooooooooooooooooooo..oooooooooooooooooooooooooooooooo",
"oooooooooooooooooooooooooooooo..oooooooooooooooooooooooooooooooo",
"oooo..oooooooooooooooooooooooooo..oooooooooooooooooooooooooooooo",
"oooo..oooooooooooooooooooooooooo..oooooooooooooooooooooooooooooo",
"oo....oooooooooooooooooooooooooo..  oooooooooooooooooooooooooooo",
"oo....oooooooooooooooooooooooooo..  oooooooooooooooooooooooooooo",
"..  oooooooooooooooooooooooooooooo    ..oooooooooooooooooooooooo",
"..  oooooooooooooooooooooooooooooo    ..oooooooooooooooooooooooo",
"  ..oooooooooooooooooooooooooooooo        ..oooooooooooooooooo..",
"  ..oooooooooooooooooooooooooooooo        ..oooooooooooooooooo.."
};
