/* XPM */
static char *tbl[] = {
/* columns rows colors chars-per-pixel */
"64 64 4 1 ",
"  c #B55945",
". c #D07753",
"X c #A6B04F",
"o c #EB9661",
/* pixels */
"XXXX..XXXXXXXXXXXXXXXXXXXXXXXX....  XXXXXXXXXXXXXXXXXX  ..  XXXX",
"XXXX..XXXXXXXXXXXXXXXXXXXXXXXX....  XXXXXXXXXXXXXXXXXX  ..  XXXX",
"XX....XXXXXXXXXXXXXXXXXXXXXX..oooo....XXXXXXXXXXXXXXXX..ooooXXXX",
"XX....XXXXXXXXXXXXXXXXXXXXXX..oooo....XXXXXXXXXXXXXXXX..ooooXXXX",
"XXoooo..XXXXXXXXXXXXXXXXXX..oooooo  oo..XXXXXXXXXXXX..ooooooXXXX",
"XXoooo..XXXXXXXXXXXXXXXXXX..oooooo  oo..XXXXXXXXXXXX..ooooooXXXX",
"XXoooooo..XXXXXXXXXXXXXXoooooooooo  ooooooXXXXXXXX..  oooooooo..",
"XXoooooo..XXXXXXXXXXXXXXoooooooooo  ooooooXXXXXXXX..  oooooooo..",
"XXoooooooooooooooooooooooooooooooo  oooooooooooooooooooooooooooo",
"XXoooooooooooooooooooooooooooooooo  oooooooooooooooooooooooooooo",
"XXXXoooooooooooooooooooooooooooooo..oooooooooooooooo..oooooooo..",
"XXXXoooooooooooooooooooooooooooooo..oooooooooooooooo..oooooooo..",
"XXXX..oooooooooooooooooooooooooooo..oooooooooooooooo....oooo..  ",
"XXXX..oooooooooooooooooooooooooooo..oooooooooooooooo....oooo..  ",
"..XXXXXXoooooooooooooooooooooo..XXXXoooooooooooooooooo....oooooo",
"..XXXXXXoooooooooooooooooooooo..XXXXoooooooooooooooooo....oooooo",
"oo  XXXXooooooooooooooooooooooXXXX..oooooooooooooooooooooooooooo",
"oo  XXXXooooooooooooooooooooooXXXX..oooooooooooooooooooooooooooo",
"oo..ooooooooooooooooooooooooooXXXX..oooooooooooooooooo..oooooooo",
"oo..ooooooooooooooooooooooooooXXXX..oooooooooooooooooo..oooooooo",
"oooooooooooooooooooooooooooooo..  oooooooooooooooooooo..oooooooo",
"oooooooooooooooooooooooooooooo..  oooooooooooooooooooo..oooooooo",
"oooooooooooooooooooooooooooooo    ..oooooooooooooooooo  ..oooooo",
"oooooooooooooooooooooooooooooo    ..oooooooooooooooooo  ..oooooo",
"oo..oooooooooooooooooooooooo..oooo  ..oooooooooooooo      ..oooo",
"oo..oooooooooooooooooooooooo..oooo  ..oooooooooooooo      ..oooo",
"XXXX..oooooooooooooooooooooo..oooooo  oooooooooo......  ........",
"XXXX..oooooooooooooooooooooo..oooooo  oooooooooo......  ........",
"XXXXXXoooooooooooooooooooo..  ..oooo..          ..oooooooooooooo",
"XXXXXXoooooooooooooooooooo..  ..oooo..          ..oooooooooooooo",
"..XXXXoooooooooooooooooo....oooooo......    ..oooooooooooooooooo",
"..XXXXoooooooooooooooooo....oooooo......    ..oooooooooooooooooo",
"oo    oooo..oooooooooo    oooooooooooo..  ..oooooooooooooooooooo",
"oo    oooo..oooooooooo    oooooooooooo..  ..oooooooooooooooooooo",
"oooo    ..XXXX      ....oooooooooooooooo  oooooooooooooooooooooo",
"oooo    ..XXXX      ....oooooooooooooooo  oooooooooooooooooooooo",
"oooo  ..XXXXoo..  ..oooooooooooooooooooo..oooooooooooooooooooooo",
"oooo  ..XXXXoo..  ..oooooooooooooooooooo..oooooooooooooooooooooo",
"XXXX..ooXXXXoo....oooooooooooooooooooooo..oooooooooooooooooooooo",
"XXXX..ooXXXXoo....oooooooooooooooooooooo..oooooooooooooooooooooo",
"XXXXXXoooooooooo..oooooooooooooooooooooo..oooooooooooooooooooooo",
"XXXXXXoooooooooo..oooooooooooooooooooooo..oooooooooooooooooooooo",
"XXXXXXXXoooooooooooooooooooooooooooooooo  oooooooooooooooooooooo",
"XXXXXXXXoooooooooooooooooooooooooooooooo  oooooooooooooooooooooo",
"XXXXXXXXoooooooooooooooooooooooooooooooo  oooooooooooooooooooooo",
"XXXXXXXXoooooooooooooooooooooooooooooooo  oooooooooooooooooooooo",
"XXXXXXXX....oooooooooooooooooooooooooo....oooooooooooooooooooooo",
"XXXXXXXX....oooooooooooooooooooooooooo....oooooooooooooooooooooo",
"XXXXXXXX..oooooooooooooooooooooooooooo..oooooooooooooooooooooooo",
"XXXXXXXX..oooooooooooooooooooooooooooo..oooooooooooooooooooooooo",
"XXXXXX..oooooooooooooooooooooooooooooo  ooooooooXXXXXXoooooooooo",
"XXXXXX..oooooooooooooooooooooooooooooo  ooooooooXXXXXXoooooooooo",
"XXXXXX..oooooooooooooooooooooooooooooo  ooooooXXXXXXXXXXoooooooo",
"XXXXXX..oooooooooooooooooooooooooooooo  ooooooXXXXXXXXXXoooooooo",
"XXXXXXXXXX..ooooooooooooooXXXXooooooXXXXooooooXXXXXXXXXXoooooooo",
"XXXXXXXXXX..ooooooooooooooXXXXooooooXXXXooooooXXXXXXXXXXoooooooo",
"XXXXXXXXXXXX......XXXXooooXXXXXXooooXXXXooooooXXXXXXXXXXoooooooo",
"XXXXXXXXXXXX......XXXXooooXXXXXXooooXXXXooooooXXXXXXXXXXoooooooo",
"XXXXXXXXXXXXXXXXXXXXXXXXooooXXXXoo..XXXX..ooooooXXXXXXooooooXXXX",
"XXXXXXXXXXXXXXXXXXXXXXXXooooXXXXoo..XXXX..ooooooXXXXXXooooooXXXX",
"XXXXXXXXXXXXXXXXXXXXXXXXXXooooooooXXXXXXXX..oooooooooooo..XXXXXX",
"XXXXXXXXXXXXXXXXXXXXXXXXXXooooooooXXXXXXXX..oooooooooooo..XXXXXX",
"XXXXXXXXXXXXXXXXXXXXXXXXXXXX....XXXXXXXXXXXXXX..oooooo..XXXXXXXX",
"XXXXXXXXXXXXXXXXXXXXXXXXXXXX....XXXXXXXXXXXXXX..oooooo..XXXXXXXX"
};
