/* XPM */
static char *tblr[] = {
/* columns rows colors chars-per-pixel */
"64 64 4 1 ",
"  c #B55945",
". c #D07753",
"X c #A6B04F",
"o c #EB9661",
/* pixels */
"XXXXXXXXXXXXXXXXXXXXXXXXXXXXXXXXXXXXXXXXXXXXXXXXXXXXXXXXXXXXXXXX",
"XXXXXXXXXXXXXXXXXXXXXXXXXXXXXXXXXXXXXXXXXXXXXXXXXXXXXXXXXXXXXXXX",
"XXXXXXXXXXXXXXXXXXXXXXXXXXXXXXXXXXXXXXXXXX....XXXXXXXXXXXX..XXXX",
"XXXXXXXXXXXXXXXXXXXXXXXXXXXXXXXXXXXXXXXXXX....XXXXXXXXXXXX..XXXX",
"XXXXXXXXXXXXXXXXXXXXXXXXXXXXXXXXXXXXXX  ooooooooXXXXXXXX..ooXXXX",
"XXXXXXXXXXXXXXXXXXXXXXXXXXXXXXXXXXXXXX  ooooooooXXXXXXXX..ooXXXX",
"XXXX..  ..XXXXXXXXXXXXXXXXXXXXXXXXXX  ooXXXXXXooooXXXXXXoooooooo",
"XXXX..  ..XXXXXXXXXXXXXXXXXXXXXXXXXX  ooXXXXXXooooXXXXXXoooooooo",
"XXXXXX..ooooXXXXXXXXXXXXXXXXXXXXXX..ooXXXXXXXXXXooXXXXooooXXXXoo",
"XXXXXX..ooooXXXXXXXXXXXXXXXXXXXXXX..ooXXXXXXXXXXooXXXXooooXXXXoo",
"XXXXXXXXooooooXXXXXXXXXXXXXXXXXX..ooooXXXXXXXXXXooooooooooXXXX..",
"XXXXXXXXooooooXXXXXXXXXXXXXXXXXX..ooooXXXXXXXXXXooooooooooXXXX..",
"XXXXXXXXooooooooXXXXXXXXXXXXXX..  ooooXXXXXXXXXXoooooooooooo  ..",
"XXXXXXXXooooooooXXXXXXXXXXXXXX..  ooooXXXXXXXXXXoooooooooooo  ..",
"XXXXXXXXoooooooooooooooooooo..    ..ooooXXXXXXoooooooooooo..XXXX",
"XXXXXXXXoooooooooooooooooooo..    ..ooooXXXXXXoooooooooooo..XXXX",
"XX  ....oooooooooooooo..oooooooo  ..oooooooooooooooooooo..XXXXXX",
"XX  ....oooooooooooooo..oooooooo  ..oooooooooooooooooooo..XXXXXX",
"..oooo..  XXXX....oooooooooooooooo....oooooooooooooooooo..XXXXXX",
"..oooo..  XXXX....oooooooooooooooo....oooooooooooooooooo..XXXXXX",
"ooooooooXXXXXXoooooooooooooooooooooo..oooooooooooooooooo..XXXXXX",
"ooooooooXXXXXXoooooooooooooooooooooo..oooooooooooooooooo..XXXXXX",
"ooooooooXXXXoooooooooooooooooooooooooo..oooooooooooooooo..XXXXXX",
"ooooooooXXXXoooooooooooooooooooooooooo..oooooooooooooooo..XXXXXX",
"oooooooo..oooooooooooooooooooooooooooo  ..oooooooooooo..  XXXXXX",
"oooooooo..oooooooooooooooooooooooooooo  ..oooooooooooo..  XXXXXX",
"XXoooo..oooooooooooooooooooooooooooooo        ......        XXXX",
"XXoooo..oooooooooooooooooooooooooooooo        ......        XXXX",
"XXXXXX..oooooooooooooooooooooooooooooo    ..oooooooooooooooooooo",
"XXXXXX..oooooooooooooooooooooooooooooo    ..oooooooooooooooooooo",
"XXXX..  oooooooooooooooooooooooooooo  ..ooooooooooooooXXXXXXoooo",
"XXXX..  oooooooooooooooooooooooooooo  ..ooooooooooooooXXXXXXoooo",
"XXoooo..oooooooooooooooooooooooooo....ooooooooooooooXXXXXXXX..oo",
"XXoooo..oooooooooooooooooooooooooo....ooooooooooooooXXXXXXXX..oo",
"XXoooooo..oooooooooooooooooooooo..  ooooooooooooooooXXXXXXXXXXoo",
"XXoooooo..oooooooooooooooooooooo..  ooooooooooooooooXXXXXXXXXXoo",
"XXoooooooooooooooooooooooooo......ooooooooooooooooooXXXXXXXXXXoo",
"XXoooooooooooooooooooooooooo......ooooooooooooooooooXXXXXXXXXXoo",
"XXoooooooo..oooooooooo..oooooo..oooooooooooooooooooo..XXXXXXXXoo",
"XXoooooooo..oooooooooo..oooooo..oooooooooooooooooooo..XXXXXXXXoo",
"XXXXoooooo....oooooooooooooooo..ooooooooooooooooooooooXXXXXXoooo",
"XXXXoooooo....oooooooooooooooo..ooooooooooooooooooooooXXXXXXoooo",
"XXXXXXoooo..  ..XXXX..oooooooooooooooooooooo..XXXXoooooooooooooo",
"XXXXXXoooo..  ..XXXX..oooooooooooooooooooooo..XXXXoooooooooooooo",
"XXXXXXXX        XXXX..oooooo..ooooooooooooooXXXXXXoooooooooooo..",
"XXXXXXXX        XXXX..oooooo..ooooooooooooooXXXXXXoooooooooooo..",
"XXXXXXXXXX  oooooooooo..XXXX  ooooooooooooooXXXXXXooooXXXXXXXXXX",
"XXXXXXXXXX  oooooooooo..XXXX  ooooooooooooooXXXXXXooooXXXXXXXXXX",
"XXXXXXXXXXooooooooooooooXXXXXXooooooooooooooXXXX..ooXXXXXXXXXXXX",
"XXXXXXXXXXooooooooooooooXXXXXXooooooooooooooXXXX..ooXXXXXXXXXXXX",
"XXXXXXXXXXooooooooooooooooXXXXooooooooooooooooooooXXXXXXXXXXXXXX",
"XXXXXXXXXXooooooooooooooooXXXXooooooooooooooooooooXXXXXXXXXXXXXX",
"XXXXXXXX..oooooooooooooooooo....ooooooooooooooooXXXXXXXXXXXXXXXX",
"XXXXXXXX..oooooooooooooooooo....ooooooooooooooooXXXXXXXXXXXXXXXX",
"XXXXXXXXXXXXoooooooooooooooooo..ooooooooooooooXXXXXXXXXXXXXXXXXX",
"XXXXXXXXXXXXoooooooooooooooooo..ooooooooooooooXXXXXXXXXXXXXXXXXX",
"XXXXXXXXXXXXXXooooXXXXXXXXooooooXXooooooooooooXXXXXXXXXXXXXXXXXX",
"XXXXXXXXXXXXXXooooXXXXXXXXooooooXXooooooooooooXXXXXXXXXXXXXXXXXX",
"XXXXXXXXXXXXXX..ooXXXXXXXXXXooooXXXX..ooooooooXXXXXXXXXXXXXXXXXX",
"XXXXXXXXXXXXXX..ooXXXXXXXXXXooooXXXX..ooooooooXXXXXXXXXXXXXXXXXX",
"XXXXXXXXXXXXXXXX....XXXXXXXXoo..XXXXXXXXoooooooo..XXXXXXXXXXXXXX",
"XXXXXXXXXXXXXXXX....XXXXXXXXoo..XXXXXXXXoooooooo..XXXXXXXXXXXXXX",
"XXXXXXXXXXXXXXXXXX....oooooo..XXXXXXXXXXXXXXXXXXXXXXXXXXXXXXXXXX",
"XXXXXXXXXXXXXXXXXX....oooooo..XXXXXXXXXXXXXXXXXXXXXXXXXXXXXXXXXX"
};
