/* XPM */
static char *tbr[] = {
/* columns rows colors chars-per-pixel */
"64 64 4 1 ",
"  c #B55945",
". c #D07753",
"X c #A6B04F",
"o c #EB9661",
/* pixels */
"XXXX..oooooo....XXXXXXXXXXXXXXXXXXXXXX..XXXXXXXXXXXXXXXXXXXXXXXX",
"XXXX..oooooo....XXXXXXXXXXXXXXXXXXXXXX..XXXXXXXXXXXXXXXXXXXXXXXX",
"XX......XXXXXX....XXXXXXXXXXXXXXXX..oooo..XXXXXXXXXXXXXXXXXXXXXX",
"XX......XXXXXX....XXXXXXXXXXXXXXXX..oooo..XXXXXXXXXXXXXXXXXXXXXX",
"XXoooo..XXXXXXXXoo..XXXXXXXXXXXX..ooooooooXXXXXXXXXXXXXXXXXXXXXX",
"XXoooo..XXXXXXXXoo..XXXXXXXXXXXX..ooooooooXXXXXXXXXXXXXXXXXXXXXX",
"..oooooo  XXXXXXooooooXXXXXXXX..ooooooooooXXXXXXXXXXXXXXXXXXXX..",
"..oooooo  XXXXXXooooooXXXXXXXX..ooooooooooXXXXXXXXXXXXXXXXXXXX..",
"  ..oooo..oooooooooo....      ooooooooooooXXXXXXXXXXXXXXXXXX..oo",
"  ..oooo..oooooooooo....      ooooooooooooXXXXXXXXXXXXXXXXXX..oo",
"XXXX....oooooooooooooooooo..  oooooooooooo..XXXXXXXXXXXXXXoooooo",
"XXXX....oooooooooooooooooo..  oooooooooooo..XXXXXXXXXXXXXXoooooo",
"XXXX..oooooooooooooooooooooo..oooooooooooooo..XXXXXXXXXXooooooXX",
"XXXX..oooooooooooooooooooooo..oooooooooooooo..XXXXXXXXXXooooooXX",
"ooXXXXoooooooooooooooooooooo..ooooooooooooooooooooooooooooooXXXX",
"ooXXXXoooooooooooooooooooooo..ooooooooooooooooooooooooooooooXXXX",
"oooooooooooooooooooooooooooo..ooooooooooooooooooooooooooooXXXXXX",
"oooooooooooooooooooooooooooo..ooooooooooooooooooooooooooooXXXXXX",
"oooooooooooooooooooooooooooo..ooooooooooooooooooooooooooXXXXXXXX",
"oooooooooooooooooooooooooooo..ooooooooooooooooooooooooooXXXXXXXX",
"ooooooooooooooooooooooooooooXXXXooooooooooooooooooooooooXXXXXXXX",
"ooooooooooooooooooooooooooooXXXXooooooooooooooooooooooooXXXXXXXX",
"ooooooooooooooooooooooooooooXXXX..ooooooooooooooooooooooXXXXXXXX",
"ooooooooooooooooooooooooooooXXXX..ooooooooooooooooooooooXXXXXXXX",
"oooooooooooooooooooooooooo..  XXXX..ooooooooooooooooooooooXXXXXX",
"oooooooooooooooooooooooooo..  XXXX..ooooooooooooooooooooooXXXXXX",
"oooooooooooooooooooooooo..  ..XXXX  ..oooooooooooooooooo..  XXXX",
"oooooooooooooooooooooooo..  ..XXXX  ..oooooooooooooooooo..  XXXX",
"..  ..oooooooooooo....oooooooooooo..    ......oooo..    ......  ",
"..  ..oooooooooooo....oooooooooooo..    ......oooo..    ......  ",
"oo..      ......oooooooooooooooooooo  oooo....    ..oooooooo..XX",
"oo..      ......oooooooooooooooooooo  oooo....    ..oooooooo..XX",
"oooo..      ..oooooooooooooooooooooooooooooo..    ..ooooooooXXXX",
"oooo..      ..oooooooooooooooooooooooooooooo..    ..ooooooooXXXX",
"oooooo..  ..oooooooooooooooooooooooooooooooooo  ooooooooooXXXXXX",
"oooooo..  ..oooooooooooooooooooooooooooooooooo  ooooooooooXXXXXX",
"oooooooo  ..oooooooooooooooooooooooooooooooooo..ooooooooXXXXXXXX",
"oooooooo  ..oooooooooooooooooooooooooooooooooo..ooooooooXXXXXXXX",
"oooooooo....oooooooooooooooooooooooooooooooooo..ooooooXXXXXXXXXX",
"oooooooo....oooooooooooooooooooooooooooooooooo..ooooooXXXXXXXXXX",
"oooooooo....oooooooooooooooooooooooooooooooooo..ooooooXXXXXXXXXX",
"oooooooo....oooooooooooooooooooooooooooooooooo..ooooooXXXXXXXXXX",
"oooooooo..oooooooooooooooooooooooooooooooooo....ooooooXXXXXXXXXX",
"oooooooo..oooooooooooooooooooooooooooooooooo....ooooooXXXXXXXXXX",
"oooooooo  oooooooooooooooooooooooooooooooooo..XXXXooooXXXXXXXXXX",
"oooooooo  oooooooooooooooooooooooooooooooooo..XXXXooooXXXXXXXXXX",
"oooooo..  ..ooooooooooooooooooooooooooooooooXXXXXXooooXXXXXXXXXX",
"oooooo..  ..ooooooooooooooooooooooooooooooooXXXXXXooooXXXXXXXXXX",
"oooooo  ....oooooooooooooooooooooooooooooo..XXXXooooooooXXXXXXXX",
"oooooo  ....oooooooooooooooooooooooooooooo..XXXXooooooooXXXXXXXX",
"oooo..XXoooo..oooooooooooooooooooooooooooo  oooooooooooooo..XXXX",
"oooo..XXoooo..oooooooooooooooooooooooooooo  oooooooooooooo..XXXX",
"ooooXXXXoooo  ..ooooooooooooooooooooooooXXXXooooooooXXXXXXoo..XX",
"ooooXXXXoooo  ..ooooooooooooooooooooooooXXXXooooooooXXXXXXoo..XX",
"ooooXXXXoo....  ..XXXXXXXXooooooooooooXXXXXXooooooXXXXXXXXXXoo..",
"ooooXXXXoo....  ..XXXXXXXXooooooooooooXXXXXXooooooXXXXXXXXXXoo..",
"ooooXX..ooooooooXXXXXXXXXXXXXXooooXXXXXXXXXX..ooooXXXXXXXXXXoooo",
"ooooXX..ooooooooXXXXXXXXXXXXXXooooXXXXXXXXXX..ooooXXXXXXXXXXoooo",
"ooXXXXXXXX..ooooXXXXXXXXXXXXXX....XXXXXXXXXX..ooooXXXXXXXXXXoooo",
"ooXXXXXXXX..ooooXXXXXXXXXXXXXX....XXXXXXXXXX..ooooXXXXXXXXXXoooo",
"XXXXXXXXXXXXoooooo..XXXXXXXXoooo..XXXXXXXXXXXX..ooooXXXXXXooooXX",
"XXXXXXXXXXXXoooooo..XXXXXXXXoooo..XXXXXXXXXXXX..ooooXXXXXXooooXX",
"XXXXXXXXXXXXoooooooooooooooooooo  XXXXXXXXXXXXXXooooooooooooXXXX",
"XXXXXXXXXXXXoooooooooooooooooooo  XXXXXXXXXXXXXXooooooooooooXXXX"
};
