/* XPM */
static char *tl[] = {
/* columns rows colors chars-per-pixel */
"64 64 4 1 ",
"  c #B55945",
". c #D07753",
"X c #A6B04F",
"o c #EB9661",
/* pixels */
"XXXXXXXXXXXXXXXXXXXXXXXXXXXXXXXXXXXXXXXXXXXXXXXXXXXXXXXXXXXXXXXX",
"XXXXXXXXXXXXXXXXXXXXXXXXXXXXXXXXXXXXXXXXXXXXXXXXXXXXXXXXXXXXXXXX",
"XXXXXXXXXXXXXXXXXXXXXXXXXXXXXXXXXXXXXXXXXX....XXXXXXXXooooooXXXX",
"XXXXXXXXXXXXXXXXXXXXXXXXXXXXXXXXXXXXXXXXXX....XXXXXXXXooooooXXXX",
"XXXXXXXXXXXXXXXXXXXXXXXXXXXXXXXXXXXXXX..oooooo..XXXXXXXXooooXXXX",
"XXXXXXXXXXXXXXXXXXXXXXXXXXXXXXXXXXXXXX..oooooo..XXXXXXXXooooXXXX",
"XXXX..ooooXXXXXXXXXXXXXXXXXXXXXXXXXX..ooXXXXXXoo..XXXXXXoooooo..",
"XXXX..ooooXXXXXXXXXXXXXXXXXXXXXXXXXX..ooXXXXXXoo..XXXXXXoooooo..",
"XX..ooooooooXXXXXXXXXXXXXXXXXXXXXX  ooXXXXXXXXXXooXXXXoooooooooo",
"XX..ooooooooXXXXXXXXXXXXXXXXXXXXXX  ooXXXXXXXXXXooXXXXoooooooooo",
"XX..XXXXXXooooXXXXXXXXXXXXXXXXXX....ooXXXXXXXXXXoooo..oooooooo..",
"XX..XXXXXXooooXXXXXXXXXXXXXXXXXX....ooXXXXXXXXXXoooo..oooooooo..",
"XX..XXXXXXXXooooXXXXXXXXXXXXXX......ooXXXXXXXXXXoooo....oooo..  ",
"XX..XXXXXXXXooooXXXXXXXXXXXXXX......ooXXXXXXXXXXoooo....oooo..  ",
"XX..ooXXXXXXoooooo........oooooo..ooooooXXXXXXoooooooo....oooooo",
"XX..ooXXXXXXoooooo........oooooo..ooooooXXXXXXoooooooo....oooooo",
"XXXXoooooooooooooooooooooooooooo..oooooooooooooooooooooooooooooo",
"XXXXoooooooooooooooooooooooooooo..oooooooooooooooooooooooooooooo",
"XXXXoooooooooooooooooooooooooo....oooooooooooooooooooo..oooooooo",
"XXXXoooooooooooooooooooooooooo....oooooooooooooooooooo..oooooooo",
"XXXXXXoooooooooooooooooooooooo..  oooooooooooooooooooo..oooooooo",
"XXXXXXoooooooooooooooooooooooo..  oooooooooooooooooooo..oooooooo",
"XXXXXXXXoooooooooooooooooooooo    ..oooooooooooooooooo  ..oooooo",
"XXXXXXXXoooooooooooooooooooooo    ..oooooooooooooooooo  ..oooooo",
"XXXXXXXXoooooooooooooooooooo..oooo  ..oooooooooooooo      ..oooo",
"XXXXXXXXoooooooooooooooooooo..oooo  ..oooooooooooooo      ..oooo",
"XXXXXX..oooooooooooooooooooo..oooooo  oooooooooo......  ........",
"XXXXXX..oooooooooooooooooooo..oooooo  oooooooooo......  ........",
"XX..oooooooooooooooooooooo..  ..oooo..          ..oooooooooooooo",
"XX..oooooooooooooooooooooo..  ..oooo..          ..oooooooooooooo",
"XX..oooooooooooooooooooo....oooooo......    ..oooooooooooooooooo",
"XX..oooooooooooooooooooo....oooooo......    ..oooooooooooooooooo",
"XX    oooo..oooooooooo    oooooooooooo..  ..oooooooooooooooooooo",
"XX    oooo..oooooooooo    oooooooooooo..  ..oooooooooooooooooooo",
"XXXX    ......      ....oooooooooooooooo  oooooooooooooooooooooo",
"XXXX    ......      ....oooooooooooooooo  oooooooooooooooooooooo",
"XXXX  XXXXoooo..  ..oooooooooooooooooooo..oooooooooooooooooooooo",
"XXXX  XXXXoooo..  ..oooooooooooooooooooo..oooooooooooooooooooooo",
"XXXX..XXXXXXoo....oooooooooooooooooooooo..oooooooooooooooooooooo",
"XXXX..XXXXXXoo....oooooooooooooooooooooo..oooooooooooooooooooooo",
"XXXX..XXXXXXoooo..oooooooooooooooooooooo..oooooooooooooooooooooo",
"XXXX..XXXXXXoooo..oooooooooooooooooooooo..oooooooooooooooooooooo",
"XXXXXX..XXXXoooooooooooooooooooooooooooo  oooooooooooooooooooooo",
"XXXXXX..XXXXoooooooooooooooooooooooooooo  oooooooooooooooooooooo",
"XXXXXXXXoooooooooooooooooooooooooooooooo  oooooooooooooooooooooo",
"XXXXXXXXoooooooooooooooooooooooooooooooo  oooooooooooooooooooooo",
"XXXXXXXX....oooooooooooooooooooooooooo....oooooooooooooooooooooo",
"XXXXXXXX....oooooooooooooooooooooooooo....oooooooooooooooooooooo",
"XXXXXXXX..oooooooooooooooooooooooooooo..oooooooooooooooooooooooo",
"XXXXXXXX..oooooooooooooooooooooooooooo..oooooooooooooooooooooooo",
"XXXXXXXXoooooooooooooooooooooooooooooo  oooooooooooooooooooooooo",
"XXXXXXXXoooooooooooooooooooooooooooooo  oooooooooooooooooooooooo",
"XXXXXX..oooooooooooooooooooooooooooooo  oooooooooooooooooooooooo",
"XXXXXX..oooooooooooooooooooooooooooooo  oooooooooooooooooooooooo",
"XXXXXX..oooooooooooooooooooooooooooo..  oooooooooooooooooooooooo",
"XXXXXX..oooooooooooooooooooooooooooo..  oooooooooooooooooooooooo",
"XXXXXXoooooooooooooooooooooooooooooo....oooooooooooooooooooooooo",
"XXXXXXoooooooooooooooooooooooooooooo....oooooooooooooooooooooooo",
"XXXXXXoooooooooooooooooooooooooooooo  oooooooooooooooooooooooooo",
"XXXXXXoooooooooooooooooooooooooooooo  oooooooooooooooooooooooooo",
"XXXX....XXXXXXoooooooooooooooooooo..  oooooooooooooooooooooooooo",
"XXXX....XXXXXXoooooooooooooooooooo..  oooooooooooooooooooooooooo",
"XX....XXXXXXXXXXoooooooooooooooooo            ..oooooooooooooo..",
"XX....XXXXXXXXXXoooooooooooooooooo            ..oooooooooooooo.."
};
