/* XPM */
static char *tlr[] = {
/* columns rows colors chars-per-pixel */
"64 64 4 1 ",
"  c #B55945",
". c #D07753",
"X c #A6B04F",
"o c #EB9661",
/* pixels */
"XXXX..XXXXXXXXXXXXXXXXXXXXXXXX      XXXXXXXXXXXXXXXXXXXX..XXXXXX",
"XXXX..XXXXXXXXXXXXXXXXXXXXXXXX      XXXXXXXXXXXXXXXXXXXX..XXXXXX",
"XXooooXXXXXXXXXXXXXXXXXXXXXX  oooo  ..XXXXXXXXXXXXXXXXXXXX..XXXX",
"XXooooXXXXXXXXXXXXXXXXXXXXXX  oooo  ..XXXXXXXXXXXXXXXXXXXX..XXXX",
"XXooooooXXXXXXXXXXXXXXXXXX..oooooo..ooooXXXXXXXXXXXXooooooooXXXX",
"XXooooooXXXXXXXXXXXXXXXXXX..oooooo..ooooXXXXXXXXXXXXooooooooXXXX",
"XXoooooooo....XXXXXXXXXXooooooooooooooooooXXXXXXXXoooooooooooooo",
"XXoooooooo....XXXXXXXXXXooooooooooooooooooXXXXXXXXoooooooooooooo",
"XXoooooooooooooooooooooooooooo..oooooooooooooooooooooooooooooooo",
"XXoooooooooooooooooooooooooooo..oooooooooooooooooooooooooooooooo",
"XXXXXX..oooooooooooooooooooooo..oooooooooooooooooooooooooooooo..",
"XXXXXX..oooooooooooooooooooooo..oooooooooooooooooooooooooooooo..",
"XXXXXXXXoooooooooooooooooooooo..oooooooooooooooooooooooooooo  XX",
"XXXXXXXXoooooooooooooooooooooo..oooooooooooooooooooooooooooo  XX",
"XXXXXXXXoooooooooooooooooooooo  XXXXoooooooooooooooooooooo..XXXX",
"XXXXXXXXoooooooooooooooooooooo  XXXXoooooooooooooooooooooo..XXXX",
"..XXXXXX......oooooooooooo....XXXXooooooooooooooooooooooooXXXXXX",
"..XXXXXX......oooooooooooo....XXXXooooooooooooooooooooooooXXXXXX",
"oooo..oooooo  ......ooooooooooXXXXooooooooooooooooooooooXXXXXXXX",
"oooo..oooooo  ......ooooooooooXXXXooooooooooooooooooooooXXXXXXXX",
"oooooooooooo....oooooooooooooooo  ooooooooooooooooooooooXXXXXXXX",
"oooooooooooo....oooooooooooooooo  ooooooooooooooooooooooXXXXXXXX",
"oooooooooooooo..oooooooooooooooo  ..ooooooooooooooooooooXXXXXXXX",
"oooooooooooooo..oooooooooooooooo  ..ooooooooooooooooooooXXXXXXXX",
"oooooooooooooo  ..oooooooooo..      ..oooooooooooooooooo  XXXXXX",
"oooooooooooooo  ..oooooooooo..      ..oooooooooooooooooo  XXXXXX",
"XXXXoooooooooo    ....oooooooooo..    ..oooooooooooooooo    XXXX",
"XXXXoooooooooo    ....oooooooooo..    ..oooooooooooooooo    XXXX",
"XXXXXXoooooooo....oooooooooooooooooooo....oooooooooooooo..oo..  ",
"XXXXXXoooooooo....oooooooooooooooooooo....oooooooooooooo..oo..  ",
"..XXXXoooooo  ..oooooooooooooooooooooooooo..  oooooooo..oooo..XX",
"..XXXXoooooo  ..oooooooooooooooooooooooooo..  oooooooo..oooo..XX",
"oooo..      ..oooooooooooooooooooooooooooooo..    ..ooooooooXXXX",
"oooo..      ..oooooooooooooooooooooooooooooo..    ..ooooooooXXXX",
"oooooo..  XXXXoooooooooooooooooooooooooooooooo  ooooooooooXXXXXX",
"oooooo..  XXXXoooooooooooooooooooooooooooooooo  ooooooooooXXXXXX",
"..ooooooXXXX..oooooooooooooooooooooooooooooooo..ooooooooXXXXXXXX",
"..ooooooXXXX..oooooooooooooooooooooooooooooooo..ooooooooXXXXXXXX",
"XXXX..ooXXXXoooooooooooooooooooooooooooooooooo..ooooooXXXXXXXXXX",
"XXXX..ooXXXXoooooooooooooooooooooooooooooooooo..ooooooXXXXXXXXXX",
"XXXXXX......oooooooooooooooooooooooooooooooooo..ooooooXXXXXXXXXX",
"XXXXXX......oooooooooooooooooooooooooooooooooo..ooooooXXXXXXXXXX",
"XXXXXXXX..oooooooooooooooooooooooooooooooooo....ooooooXXXXXXXXXX",
"XXXXXXXX..oooooooooooooooooooooooooooooooooo....ooooooXXXXXXXXXX",
"XXXXXXXX  oooooooooooooooooooooooooooooooooo..XXXXooooXXXXXXXXXX",
"XXXXXXXX  oooooooooooooooooooooooooooooooooo..XXXXooooXXXXXXXXXX",
"XXXXXXXX  ..oooooooooooooooooooooooooooooooo..XXXXooooXXXXXXXXXX",
"XXXXXXXX  ..oooooooooooooooooooooooooooooooo..XXXXooooXXXXXXXXXX",
"XXXXXXXX....oooooooooooooooooooooooooooooo..XXXXXXooooooXXXXXXXX",
"XXXXXXXX....oooooooooooooooooooooooooooooo..XXXXXXooooooXXXXXXXX",
"XXXXXX..oooo..oooooooooooooooooooooooooooo  XXXX..oooooooo..XXXX",
"XXXXXX..oooo..oooooooooooooooooooooooooooo  XXXX..oooooooo..XXXX",
"XXXXXX..oooo  ..oooooooooooooooooooooooo..  XXXXoooooooooooo..XX",
"XXXXXX..oooo  ..oooooooooooooooooooooooo..  XXXXoooooooooooo..XX",
"XXXXXXoooo....  ..oooooooooooooooooooo..    oooooooooooooooooo..",
"XXXXXXoooo....  ..oooooooooooooooooooo..    oooooooooooooooooo..",
"XXXX..oooooooooo..    ..oooooooooo..oooo..  ooooooooooooXXXXoo..",
"XXXX..oooooooooo..    ..oooooooooo..oooo..  ooooooooooooXXXXoo..",
"XXXX..oooooooooooooooo..    ........oooooo..ooooooooooooXXXXoo..",
"XXXX..oooooooooooooooo..    ........oooooo..ooooooooooooXXXXoo..",
"XXXXooooXXXXXXooooooooooooooooooooXXXXXXoo  ..ooooooooooooooooXX",
"XXXXooooXXXXXXooooooooooooooooooooXXXXXXoo  ..ooooooooooooooooXX",
"XX..ooXXXXXXXXXXoooooooooooooooooo  XXXX      ..ooooooooooooXXXX",
"XX..ooXXXXXXXXXXoooooooooooooooooo  XXXX      ..ooooooooooooXXXX"
};
