/* XPM */
static char *tr[] = {
/* columns rows colors chars-per-pixel */
"64 64 4 1 ",
"  c #B55945",
". c #D07753",
"X c #A6B04F",
"o c #EB9661",
/* pixels */
"XXXXXXXXXXXXXXXXXXXXXXXXXXXXXXXXXXXXXXXXXXXXXXXXXXXXXXXXXXXXXXXX",
"XXXXXXXXXXXXXXXXXXXXXXXXXXXXXXXXXXXXXXXXXXXXXXXXXXXXXXXXXXXXXXXX",
"XX....XXXXXXXXXXXXXXXXXXXXXXXXXXXXXXXXXXXXXXXXXXXXXXXXooooooXXXX",
"XX....XXXXXXXXXXXXXXXXXXXXXXXXXXXXXXXXXXXXXXXXXXXXXXXXooooooXXXX",
"XXoooo..XXXXXXXXXXXXXXXXXXXXXXXXXXXXXXXXXXXXXXXXXXXXooooooooooXX",
"XXoooo..XXXXXXXXXXXXXXXXXXXXXXXXXXXXXXXXXXXXXXXXXXXXooooooooooXX",
"..oooooo  ......XXXXXXXXXX..  XXXXXXXXXXXXXXXXXXXXooooXXXXooooXX",
"..oooooo  ......XXXXXXXXXX..  XXXXXXXXXXXXXXXXXXXXooooXXXXooooXX",
"  ..oooo..ooooXXXXXX....      ..XXXXXXXXXXXXXX..oooo..XXXXXXooXX",
"  ..oooo..ooooXXXXXX....      ..XXXXXXXXXXXXXX..oooo..XXXXXXooXX",
"XXXX....ooooXXXXXXXXXXXXoo..  oooo........ooooooooooXXXXXXXXooXX",
"XXXX....ooooXXXXXXXXXXXXoo..  oooo........ooooooooooXXXXXXXXooXX",
"XXXXooooooooXXXXXXXXXXXXoooo..ooooooooooooooooooooooXXXXXX..ooXX",
"XXXXooooooooXXXXXXXXXXXXoooo..ooooooooooooooooooooooXXXXXX..ooXX",
"ooXXXXooooooooooXXXXXXoooooo..ooooooooooooooooooooooooXXXXoo..XX",
"ooXXXXooooooooooXXXXXXoooooo..ooooooooooooooooooooooooXXXXoo..XX",
"oooooooooooooooooooooooooooo..ooooooooooooooooooooooooooooooXXXX",
"oooooooooooooooooooooooooooo..ooooooooooooooooooooooooooooooXXXX",
"oooooooooooooooooooooooooooo..ooooooooooooooooooooooooooooXXXXXX",
"oooooooooooooooooooooooooooo..ooooooooooooooooooooooooooooXXXXXX",
"oooooooooooooooooooooooooooo  ..ooooooooooooooooooooooooooXXXXXX",
"oooooooooooooooooooooooooooo  ..ooooooooooooooooooooooooooXXXXXX",
"oooooooooooooooooooooooooooo  ..ooooooooooooooooooooooooooXXXXXX",
"oooooooooooooooooooooooooooo  ..ooooooooooooooooooooooooooXXXXXX",
"oooooooooooooooooooooooooo..    ....oooooooooooooooooooooo..XXXX",
"oooooooooooooooooooooooooo..    ....oooooooooooooooooooooo..XXXX",
"oooooooooooooooooooooooo..  ......  ..oooooooooooooooooo..    XX",
"oooooooooooooooooooooooo..  ......  ..oooooooooooooooooo..    XX",
"..  ..oooooooooooo....oooooooooooo..    ..XXXX  ....    ..oooooo",
"..  ..oooooooooooo....oooooooooooo..    ..XXXX  ....    ..oooooo",
"oo..      ......oooooooooooooooooooo  ooooXXXXXXXX..oooooooooooo",
"oo..      ......oooooooooooooooooooo  ooooXXXXXXXX..oooooooooooo",
"oooo..  oooooooooooooooooooooooooooo..oooooo  XXXXooooooooooooXX",
"oooo..  oooooooooooooooooooooooooooo..oooooo  XXXXooooooooooooXX",
"oooooo  oooooooooooooooooooooooooooo..oooooo..ooooooooooooooooXX",
"oooooo  oooooooooooooooooooooooooooo..oooooo..ooooooooooooooooXX",
"oooooo..oooooooooooooooooooooooooooooo..oooooooooooooooooooo..XX",
"oooooo..oooooooooooooooooooooooooooooo..oooooooooooooooooooo..XX",
"oooooo....oooooooooooooooooooooooooooo....oooooooooooooooo..XXXX",
"oooooo....oooooooooooooooooooooooooooo....oooooooooooooooo..XXXX",
"oooooooo  oooooooooooooooooooooooooooo  ..ooooooooooooXXXXXXXXXX",
"oooooooo  oooooooooooooooooooooooooooo  ..ooooooooooooXXXXXXXXXX",
"oooooooo  oooooooooooooooooooooooooooo  ooooooooooooXXXXXXXXXXXX",
"oooooooo  oooooooooooooooooooooooooooo  ooooooooooooXXXXXXXXXXXX",
"oooooooo..oooooooooooooooooooooooooooo..ooooooooooooXXXXXXXXXXXX",
"oooooooo..oooooooooooooooooooooooooooo..ooooooooooooXXXXXXXXXXXX",
"oooooooo..oooooooooooooooooooooooooooo..ooooooooooooXXXXXXXXXXXX",
"oooooooo..oooooooooooooooooooooooooooo..ooooooooooooXXXXXXXXXXXX",
"oooooooo  oooooooooooooooooooooooooooo  ooooooooooooXXXXXXXXXXXX",
"oooooooo  oooooooooooooooooooooooooooo  ooooooooooooXXXXXXXXXXXX",
"oooooooo  ..oooooooooooooooooooooooo..  ooooooooooooXXXXXXXXXXXX",
"oooooooo  ..oooooooooooooooooooooooo..  ooooooooooooXXXXXXXXXXXX",
"oooooooo      ..........oooooooooo..    ooooooooooooXXXXXXXXXXXX",
"oooooooo      ..........oooooooooo..    ooooooooooooXXXXXXXXXXXX",
"oooooo..  ....oooooooooo........      ..oooooooooooo..XXXXXXXXXX",
"oooooo..  ....oooooooooo........      ..oooooooooooo..XXXXXXXXXX",
"oooo......oooooooooooooooooooo....oooooo..oooooooooooo..XXXXXXXX",
"oooo......oooooooooooooooooooo....oooooo..oooooooooooo..XXXXXXXX",
"oo....oooooooooooooooooooooooooo..oooooooooooooooooooooooooooo..",
"oo....oooooooooooooooooooooooooo..oooooooooooooooooooooooooooo..",
"..  ooooooooooooooooooooooooooooooXXXXXXoo..ooooooooooooooooooXX",
"..  ooooooooooooooooooooooooooooooXXXXXXoo..ooooooooooooooooooXX",
"  ..oooooooooooooooooooooooooooooo  XXXX  ..ooooooooooooooooXXXX",
"  ..oooooooooooooooooooooooooooooo  XXXX  ..ooooooooooooooooXXXX"
};
