/* XPM */
static char *output_03[] = {
/* columns rows colors chars-per-pixel */
"64 64 20 1 ",
"  c None",
". c black",
"X c #3C295E",
"o c #2C1D48",
"O c #1D1133",
"+ c #9C8C9C",
"@ c #66334B",
"# c #C16A7D",
"$ c #F2E9F2",
"% c #3E7D8D",
"& c #E5959F",
"* c #771212",
"= c #32417F",
"- c #43153B",
"; c #22306A",
": c #3C548F",
"> c gray35",
", c gray45",
"< c gray25",
"1 c #771313",
/* pixels */
"                                                                ",
"                                                                ",
"                                                                ",
"                                                                ",
"                                                                ",
"                                ....                            ",
"                                ....                            ",
"                             ...XX....                          ",
"                             ...XX....                          ",
"                         ....ooOOOoooo..                        ",
"                         ....ooOOOoooo..                        ",
"                       ..ooooXXoOOXXooXX....                    ",
"                       ..ooooXXoOOXXooXX....                    ",
"                     ..ooXXXXooXXXooXXooXX..                    ",
"                     ..ooXXXXooXXXooXXooXX..                    ",
"                     ..ooXXXXXXXXXXXXXXXoo..                    ",
"                     ..ooXXXXXXXXXXXXXXXoo..                    ",
"                     ..ooXXXXXXXXXXXXXXXoo..                    ",
"                     ..ooXXXXXXXXXXXXXXXoo..                    ",
"                     ..ooXXXXooXXXXXXXXXoo..                    ",
"                     ..ooXXXXooXXXXXXXXXoo..                    ",
"                     ..ooooXXooXXXooXXoooo..                    ",
"                     ..OOooooOOoooOOooooOO..                    ",
"                     ..OOooooOOoooOOooooOO..                    ",
"                     ..OOOO++@@###@@++OOOO..                    ",
"                     ..OOOO++@@###@@++OOOO..                    ",
"                       ..OO$$%%&&&%%$$OO..                      ",
"                       ..OO$$%%&&&%%$$OO..                      ",
"                       ..OO##&&&&&&&##OO..                      ",
"                       ..OO##&&&&&&&##OO..                      ",
"                       ..OO***********OO..                      ",
"                       ..OO***********OO..                      ",
"                       ..OO==--===--==OO..                      ",
"                       ..OO==--===--==OO..                      ",
"                       ..;;==--:::--==##..                      ",
"                       ..;;==--:::--==##..                      ",
"                     ..####==--:::--==####..                    ",
"                     ..####==--:::--==####..                    ",
"                     ..&&&&--==:::==--####..                    ",
"                     ..&&&&--==:::==--####..                    ",
"                       &&&&==:::::::==....                      ",
"                       &&&&==:::::::==....                      ",
"                         ..>>,,,,,,,>>..                        ",
"                         ..>>,,...>>>>..                        ",
"                         ..>>,,...>>>>..                        ",
"                         ..>>,,...>>>>..                        ",
"                         ..>>,,...>>>>..                        ",
"                         ..<<<<.1111..                          ",
"                         ..<<<<.1111..                          ",
"                           .....,,,,..                          ",
"                           .....,,,,..                          ",
"                                                                ",
"                                                                ",
"                                                                ",
"                                                                ",
"                                                                ",
"                                                                ",
"                                                                ",
"                                                                ",
"                                                                ",
"                                                                ",
"                                                                ",
"                                                                ",
"                                                                "
};
