/* XPM */
static char *enemy00[] = {
/* columns rows colors chars-per-pixel */
"256 64 27 1 ",
"  c None",
". c #212C36",
"X c #6A1C13",
"o c #4A3121",
"O c #4A3F2C",
"+ c #6D5B33",
"@ c #7F603F",
"# c #2B3D48",
"$ c #364F5B",
"% c #426771",
"& c #903D2D",
"* c #A6543B",
"= c #C67648",
"- c #9D814C",
"; c #B19C55",
": c #918568",
"> c #A99F79",
", c #E79A56",
"< c #CCC060",
"1 c #4D8487",
"2 c #57A9A1",
"3 c #C3BD8F",
"4 c #D8D698",
"5 c #F8DD8A",
"6 c #F2F3C7",
"7 c #EFEEE0",
"8 c #FBFAEF",
/* pixels */
"                                                                                                                                                                                                                                                                ",
"                                                                                                                                                                                                                                                                ",
"                                                                                                                                                                                                                                                                ",
"                                                                                                                                                                                                                                                                ",
"                                                                                                                                                                                                                                                                ",
"                                                                                                                                                                                                                                                                ",
"                                                                                                                                                                                                                                                                ",
"                                                                                                                                                                                                                                                                ",
"                                                                                                                                                                                                                                                                ",
"                                                                                                                                                                                                                                                                ",
"                                                                                                                                                                                                                                                                ",
"                                                                                               X                                                               X                                                                                                ",
"                               X                                                              X,X                                                             X,X                                                              X                                ",
"                              X,X                                                           .X=,=X.                                                         .X=,=X.                                                           X,X                               ",
"                            .X=,=X.                                                        .%1*=*1%.                                                       .%1*=*1%.                                                        .X=,=X.                             ",
"                           .%1*=*1%.                                                      .%111*111%.                                                     .%111*111%.                                                      .%1*=*1%.                            ",
"                          .%111*111%.                                                    .%1121*1211%.                                                   .%1121*1211%.                                                    .%111*111%.                           ",
"                         .%1121*1211%.                                               ... .%122212221%. ...                                           ... .%122212221%. ...                                               .%1121*1211%.                          ",
"                     ... .%122212221%. ...                                           .21..%112222211%..12.                                           .21..%112222211%..12.                                           ... .%122212221%. ...                      ",
"                     .21..%112222211%..12.                                            .%1.$%11%1%11%$.1%.                                             .%1.$%11%1%11%$.1%.                                            .21..%112222211%..12.                      ",
"                      .%1.$%11%1%11%$.1%.                                              .%&$#.%$1$%.#$&%.                                               .%&$#.%$1$%.#$&%.                                              .%1.$%11%1%11%$.1%.                       ",
"                       .%&$#.%$1$%.#$&%.                                               .$&$%5.121.5%$&$.                                               .$&$%5.121.5%$&$.                                               .%&$#.%$1$%.#$&%.                        ",
"                       .$&$%5.121.5%$&$.                                                .*&%1%222%1%&*.                                                 .*&%1%222%1%&*.                                                .$&$%5.121.5%$&$.                        ",
"                        .*&%1%222%1%&*.                                                 X=*&1$.2.$1&*=X                                                 X=*&1$.2.$1&*=X                                                 .*&%1%222%1%&*.                         ",
"                        X=*&1$.2.$1&*=X                                                X,=$%8%$.$%8%$=,X  ++                                           X,=$%8%$.$%8%$=,X   ++                                           X=*&1$.2.$1&*=X                         ",
"                       X,=$%8%$.$%8%$=,X  ++                                          ..X,*%.......%*,Xoo+8+                                          .1X,*%.......%*,Xooo+8+                                          X,=$%8%$.$%8%$=,X   ++                   ",
"                      .$X,*%.......%*,Xoo+8+                                         .21%X=*%12221%*=X@-+7+                                          .21%X=*%12221%*=Xo@-+7+                                          ..X,*%.......%*,Xooo+8+                   ",
"                     .%%$X=*%12221%*=X@-+7+                                         .21%%X,=*%$=$%*=,X-;<+o                                        ..21%$X,=*%$=$%*=,Xo-;<+o                                         .21%X=*%12221%*=Xo@-+7+                    ",
"                    .21%%X,=*%$=$%*=,X-;<+o                                        .%1%%.$X,===,===,X1o-;<<++                                     .111%$.$X,===,===,X1%o-;<<++                                      .21%%X,=*%$=$%*=,Xo-;<+o                    ",
"                   .21%%.$X,===,===,X1o-;<<++                                     .11%#. .$X,X,,,X,X$o@o-;+78+                                   .2221#. .$X,X,,,X,X$#o@o-;+78+                                    .%1%%.$X,===,===,X11o-;<<++                  ",
"                   .1%#. .$X,X,,,X,X$o@o-;+78+                                   .2221%. .%1X$X,X$X1%oo%o-;++                                    .2..21. .%1X$X,X$X1%.oo$o-;++                                    .11%#. .$X,X,,,X,X$#o@o-;+78+                 ",
"                  .2221. .%1X$X,X$X1%oo1o-;++                                    .2..2.   .%11$X$11%.  .$oo.                                      .@.2.   .%11$X$11%.   .$oo                                     .2221%. .%1X$X,X$X1%.oo1o-;++                  ",
"                  .2..2.  .%11$X$11%. .$%oo                                       .@o.    .#$$###$$#.   .$1.                                     O:oo.    .#$$###$$#.    .11.                                    .2..2.   .%11$X$11%.  .$%oo                    ",
"                  ..@o.   .#$$###$$#.  .$1.                                      O:o       oo#$#$#oo     .12.                                  OO:3O       oo#$#$#oo    .112.                                    O.@o.    .#$$###$$#.   .$1.                    ",
"                 O:-o      oo#$#$#oo    .12.                                    O:3O       o@ooooo@o    .122.                                 O::3O        o@ooooo@o     .22.                                   O:3O       oo#$#$#oo     .12.                   ",
"                O::3O      o@ooooo@o   .122.                                  OO:3O       .$o@-;---o.    .2.                                OO>34O        .$o@-;---o.     ..                                  OO:3O        o@ooooo@o    .122.                   ",
"               O::3O      .$o@-;---o.   .2.                                  O:>3O        .%$o;;;o;o.     .                                O>34OO         .%$o;;;o;o.                                        O:>3O        .$o@-;---o.    .2.                    ",
"              O:>3O       .%$o;;;o;o.    .                                  O>34O         .%%.o<o.o%.                                    OO>34O           .%%.o<o.o%.                                       O>34O         .%$o;;;o;o.     .                     ",
"             O>>4O        .%%.o<o.o%.                                     OO334O          .1%. o .$1.                                   O>346O            .1%. o .$1.                                     OO334O          .%%.o<o.o%.                           ",
"            O>34O         .1%. o .$1.                                    O>336O           .11.   .11.                                  OOOOOO             .11.   .11.                                    O>336O           .1%. o .$1.                           ",
"           O>36O         .221.   .122.                                  OOOOOO           .221.   .122.                                                   .221.   .122.                                  OOOOOO           .221.   .122.                          ",
"          OOOOO           ...     ...                                                     ...     ...                                                     ...     ...                                                     ...     ...                           ",
"                                                                                                                                                                                                                                                                ",
"                                                                                                                                                                                                                                                                ",
"                                                                                                                                                                                                                                                                ",
"                                                                                                                                                                                                                                                                ",
"                                                                                                                                                                                                                                                                ",
"                                                                                                                                                                                                                                                                ",
"                                                                                                                                                                                                                                                                ",
"                                                                                                                                                                                                                                                                ",
"                                                                                                                                                                                                                                                                ",
"                                                                                                                                                                                                                                                                ",
"                                                                                                                                                                                                                                                                ",
"                                                                                                                                                                                                                                                                ",
"                                                                                                                                                                                                                                                                ",
"                                                                                                                                                                                                                                                                ",
"                                                                                                                                                                                                                                                                ",
"                                                                                                                                                                                                                                                                ",
"                                                                                                                                                                                                                                                                ",
"                                                                                                                                                                                                                                                                ",
"                                                                                                                                                                                                                                                                ",
"                                                                                                                                                                                                                                                                ",
"                                                                                                                                                                                                                                                                ",
"                                                                                                                                                                                                                                                                "
};
