/* XPM */
static char *xpm__tbl[] = {
/* columns rows colors chars-per-pixel */
"32 32 4 1 ",
"  c #B55945",
". c #D07753",
"X c #A6B04F",
"o c #EB9661",
/* pixels */
"XX.XXXXXXXXXXXX.. XXXXXXXXX . XX",
"X..XXXXXXXXXXX.oo..XXXXXXXX.ooXX",
"Xoo.XXXXXXXXX.ooo o.XXXXXX.oooXX",
"Xooo.XXXXXXXooooo oooXXXX. oooo.",
"Xoooooooooooooooo oooooooooooooo",
"XXooooooooooooooo.oooooooo.oooo.",
"XX.oooooooooooooo.oooooooo..oo. ",
".XXXooooooooooo.XXooooooooo..ooo",
"o XXoooooooooooXX.oooooooooooooo",
"o.oooooooooooooXX.ooooooooo.oooo",
"ooooooooooooooo. oooooooooo.oooo",
"ooooooooooooooo  .ooooooooo .ooo",
"o.oooooooooooo.oo .ooooooo   .oo",
"XX.ooooooooooo.ooo ooooo... ....",
"XXXoooooooooo. .oo.     .ooooooo",
".XXooooooooo..ooo...  .ooooooooo",
"o  oo.ooooo  oooooo. .oooooooooo",
"oo  .XX   ..oooooooo ooooooooooo",
"oo .XXo. .oooooooooo.ooooooooooo",
"XX.oXXo..ooooooooooo.ooooooooooo",
"XXXooooo.ooooooooooo.ooooooooooo",
"XXXXoooooooooooooooo ooooooooooo",
"XXXXoooooooooooooooo ooooooooooo",
"XXXX..ooooooooooooo..ooooooooooo",
"XXXX.oooooooooooooo.oooooooooooo",
"XXX.ooooooooooooooo ooooXXXooooo",
"XXX.ooooooooooooooo oooXXXXXoooo",
"XXXXX.oooooooXXoooXXoooXXXXXoooo",
"XXXXXX...XXooXXXooXXoooXXXXXoooo",
"XXXXXXXXXXXXooXXo.XX.oooXXXoooXX",
"XXXXXXXXXXXXXooooXXXX.oooooo.XXX",
"XXXXXXXXXXXXXX..XXXXXXX.ooo.XXXX"
};
