/* XPM */
static char *t[] = {
/* columns rows colors chars-per-pixel */
"32 32 4 1 ",
"  c #B55945",
". c #D07753",
"X c #A6B04F",
"o c #EB9661",
/* pixels */
"XXoo.XXXXXXXXXoo.XXXoooo.XXXXXXX",
"X.oooXXXXXXXXooooXXoooXXooXXXXXX",
"XoooooXXXXXXooooo.ooXXXXXooXXXXX",
".ooooooXXXXoooooooooXXXXXooo. ..",
" ooooooooooooooo.ooooXXooooooooo",
"XXoooooooooooooo.oooooooooooo.oo",
"XX.ooooooooooooXXoooooooooooo. .",
"oXXooooooooooo.XX.oooooooooo .oo",
"oo. ooooooo.oooo .oooooooooo.ooo",
"oooo   ..oooooooo..ooooooooooooo",
"oooo ..ooooooooooo.oooooooo.oooo",
"oooo..ooooooooooooo.ooooooo.oooo",
"oooo.oooooooooooooo .ooooo. .ooo",
"ooo.ooooooooooooooo    ...    ..",
".  .ooooooooooooooo  .oooooooooo",
"oo. oooooooooooooo .oooooooooooo",
"ooo.ooooooooooooo..ooooooooooooo",
"oooo.ooooooooooo. oooooooooooooo",
"oooooooooooooo...ooooooooooooooo",
"ooooo.ooooo.ooo.oooooooooooooooo",
"ooooo..oooooooo.oooooooooooooooo",
"ooooo. ....ooooooooooooooooooooo",
"ooooo.   ..ooo.ooooooooooooooooo",
"oooo. ooooo. . ooooooooooooooooo",
"oooo.ooooooo.  ooooooooooooooooo",
"ooooooooooooo. ooooooooooooooooo",
"ooo.oooooooooo..oooooooooooooooo",
"ooooooooooooooo.oooooooooooooooo",
"oo.ooooooooooooo.ooooooooooooooo",
"o..ooooooooooooo. oooooooooooooo",
". ooooooooooooooo  .oooooooooooo",
" .ooooooooooooooo    .ooooooooo."
};
