/* XPM */
static char *out_00_png[] = {
/* columns rows colors chars-per-pixel */
"64 64 16 1 ",
"  c None",
". c #382828",
"X c #A03808",
"o c #E04838",
"O c #F88078",
"+ c #E09080",
"@ c #F8F8F8",
"# c #F8D0C0",
"$ c #385890",
"% c #7090E0",
"& c #B0D0F8",
"* c #683828",
"= c #905838",
"- c #C09070",
"; c #D08018",
": c black",
/* pixels */
"                                                                ",
"                                                                ",
"                                                                ",
"                                                                ",
"                                                                ",
"                                                                ",
"                                                                ",
"                                                                ",
"                   .XXooOOOoXXX.....                            ",
"                    ..XXoooOoooooooX...                         ",
"                    ..XXoooOoooooooX...                         ",
"                      ..XoooooooooooXXX..                       ",
"                 XXXXXooOoooooooooooOOXXX..                     ",
"                 XXXXXooOoooooooooooOOXXX..                     ",
"              ..XoooOOOOOOOoOOOooOOOOOXXX..                     ",
"              ..XoooOOOOOOOoOOOooOOOOOXXX..                     ",
"                 ..XXXooOOOXOOOXXOOOoo.XXXX.                    ",
"                   .ooOOoXXoXXo..XXooo.XXXX.                    ",
"                   .ooOOoXXoXXo..XXooo.XXXX.                    ",
"                   XooXXoXX+..Xoo..XooX..XX.                    ",
"                 XXoXX..X......XX.....X..XX.                    ",
"                 XXoXX..X......XX.....X..XX.                    ",
"                 XXX..++X..@oo+..oo@..X....                     ",
"                 XXX..++X..@oo+..oo@..X....                     ",
"                 .. ....#++@XX#++XX@++.XX..                     ",
"                      ..+##@..@##..@##+..                       ",
"                      ..+##@..@##..@##+..                       ",
"                        .++#########++...                       ",
"                      ..$...+++++++...$$$..                     ",
"                      ..$...+++++++...$$$..                     ",
"                    $$%%&&&%.......&$$%%%...                    ",
"                    ....%&&$@@oXX@@@%%$%%$$*..                  ",
"                    ....%&&$@@oXX@@@%%$%%$$*..                  ",
"                    ..$$$..$$$@@@@@...$$$$$=..                  ",
"                    ..$$$..$$$@@@@@...$$$$$=..                  ",
"                   ******..***&..$$$...*****..                  ",
"                   *====*---**$$$%%$.. ..===..                  ",
"                   *====*---**$$$%%$.. ..===..                  ",
"                   ...**=--=..@@@;;......***..                  ",
"                      ..*==*..$%%&&&$$.  ...                    ",
"                      ..*==*..$%%&&&$$.  ...                    ",
"                      ......$$.==--=$$.                         ",
"                      ......$$.==--=$$.                         ",
"                      ...$$===.==---**...                       ",
"                   ........$$$.**--===......                    ",
"                   ........$$$.**--===......                    ",
"                   ......*****.$$%%$........                    ",
"                 ........**===.%%&&&$$........                  ",
"                 ........**===.%%&&&$$........                  ",
"                 ..........*...====*..........                  ",
"                 ..........*...====*..........                  ",
"                   ...........=----=**......                    ",
"                   ...........*****===......                    ",
"                   ...........*****===......                    ",
"                      ........******.....                       ",
"                           .........                            ",
"                           .........                            ",
"                                                                ",
"                                                                ",
"                                                                ",
"                                                                ",
"                                                                ",
"                                                                ",
"                                                                "
};
