/* XPM */
static char *xpm__blr[] = {
/* columns rows colors chars-per-pixel */
"32 32 4 1 ",
"  c #B55945",
". c #D07753",
"X c #A6B04F",
"o c #EB9661",
/* pixels */
" ooXXXXXooooooooo .ooooo. XX.XXX",
".ooXXXXXooooooooo.oooooooo XX.XX",
".oooXXXoooooooooo oooooooo..oo.X",
"Xoooooooooooooooo oooooooo oooo.",
"Xoooooooooooooooo ooooooooooooo.",
"X.ooooooooooooooo.oooooooo.ooooX",
"X ooooooooooooo.o.oooooooo..ooXX",
"XX.ooooooooooo. .oooooooooo..XXX",
"XXX ooooooo.oooo.oooooooooo.XXXX",
"XXXX   ..ooooooo.oooooooooo.XXXX",
"XXXXX..ooooooooo oooooooooo.XXXX",
"XXXXX.oooooooooo .ooooooooo .XXX",
"XXXXXoooooooooooo .ooooooo   .XX",
"XXXXoooooooooooooo ooooo... ...X",
"XXX.oooooooooooooo. XXX .oooooo.",
" .  ooooooooooooo..XXXXooooooooo",
".oo.oooooooooooooooXXXoooooooooo",
"oooo.oooooooooo.oooo ooooooooooX",
"oooooooooooooo. oooo.oooooooooXX",
".oooo.ooooo.ooo oooo.ooooooooXXX",
"X.ooo..oooooooo.oooo.ooooooooXXX",
"XXooo XX...ooooooooo ooooooooXXX",
"XXX..XXX ..ooo.ooooo ooXXoooo.XX",
"XXXXXXXoooo.XX oooo..oXXXooXXXXX",
"XXXXX.ooooooXXXoooo.ooXXooXXXXXX",
"XXXXXooooooooXXoooo oooooXXXXXXX",
"XXXX.ooooooooo..ooo ooooXXXXXXXX",
"XXXXXXooooooooo.oo. oooXXXXXXXXX",
"XXXXXXXooXXXXoooXo..oooXXXXXXXXX",
"XXXXXXXooXXXXXooXX ooooXXXXXXXXX",
"XXXXXXXXooXXXXooXXXXooo..XXXXXXX",
"XXXXXXXXXooooooXXXXXXXXXXXXXXXXX"
};
