/* XPM */
static char *xpm__tb[] = {
/* columns rows colors chars-per-pixel */
"32 32 4 1 ",
"  c #B55945",
". c #D07753",
"X c #A6B04F",
"o c #EB9661",
/* pixels */
"XXooXXXXXXXXXXX.. XXXXXXXXX . XX",
"X.ooo.XXXXXXXX.oo..XXXXXXXX.ooXX",
"Xooooo.XXXXXX.ooo o.XXXXXX.oooXX",
".ooooooXXXXXooooo oooXXXX. oooo.",
" oooooooooooooooo oooooooooooooo",
"XXooooooooooooooo.oooooooo.oooo.",
"XX.oooooooooooooo.oooooooo..oo. ",
"oXXoooooooooooo.XXooooooooo..ooo",
"o.oooooooooooooXX.oooooooooooooo",
"o.oooooooooooooXX.ooooooooo.oooo",
"o..oooooooooooo. oooooooooo.oooo",
"oo.oooooooooooo  .ooooooooo .ooo",
"o..ooooooooooo.oo .ooooooo   .oo",
". ..oooooooooo.ooo ooooo... ....",
"..ooooooooooo. .oo.     .ooooooo",
"o.oooooooooo..ooo...  .ooooooooo",
"o  oo.ooooo  oooooo. .oooooooooo",
"oo  ...   ..oooooooo ooooooooooo",
"oo .ooo. .oooooooooo.ooooooooooo",
"oo.oooo..ooooooooooo.ooooooooooo",
"oooooooo.ooooooooooo.ooooooooooo",
"ooo.oooooooooooooooo ooooooooooo",
"ooo.oooooooooooooooo ooooooooooo",
"ooo...ooooooooooooo..ooooooooooo",
"ooo .oooooooooooooo.oooooooooooo",
"ooo.ooooooooooooooo ooooXXXooooo",
"oo .ooooooooooooooo oooXXXXXoooo",
"oo XX.oooooooXXoooXXoooXXXXXoooo",
"o.XXXX...XXooXXXooXXoooXXXXXoooo",
"oXXXXXXXXXXXooXXo.XX.oooXXXoooXX",
"XXXXXXXXXXXXXooooXXXX.oooooo.XXX",
"XXXXXXXXXXXXXX..XXXXXXX.ooo.XXXX"
};
