/* XPM */
static char *xpm__tblr[] = {
/* columns rows colors chars-per-pixel */
"32 32 4 1 ",
"  c #B55945",
". c #D07753",
"X c #A6B04F",
"o c #EB9661",
/* pixels */
"XXXXXXXXXXXXXXXXXXXXXXXXXXXXXXXX",
"XXXXXXXXXXXXXXXXXXXXX..XXXXXX.XX",
"XXXXXXXXXXXXXXXXXXX ooooXXXX.oXX",
"XX. .XXXXXXXXXXXXX oXXXooXXXoooo",
"XXX.ooXXXXXXXXXXX.oXXXXXoXXooXXo",
"XXXXoooXXXXXXXXX.ooXXXXXoooooXX.",
"XXXXooooXXXXXXX. ooXXXXXoooooo .",
"XXXXoooooooooo.  .ooXXXoooooo.XX",
"X ..ooooooo.oooo .oooooooooo.XXX",
".oo. XX..oooooooo..ooooooooo.XXX",
"ooooXXXooooooooooo.ooooooooo.XXX",
"ooooXXooooooooooooo.oooooooo.XXX",
"oooo.oooooooooooooo .oooooo. XXX",
"Xoo.ooooooooooooooo    ...    XX",
"XXX.ooooooooooooooo  .oooooooooo",
"XX. oooooooooooooo .oooooooXXXoo",
"Xoo.ooooooooooooo..oooooooXXXX.o",
"Xooo.ooooooooooo. ooooooooXXXXXo",
"Xooooooooooooo...oooooooooXXXXXo",
"Xoooo.ooooo.ooo.oooooooooo.XXXXo",
"XXooo..oooooooo.oooooooooooXXXoo",
"XXXoo. .XX.ooooooooooo.XXooooooo",
"XXXX    XX.ooo.oooooooXXXoooooo.",
"XXXXX ooooo.XX oooooooXXXooXXXXX",
"XXXXXoooooooXXXoooooooXX.oXXXXXX",
"XXXXXooooooooXXooooooooooXXXXXXX",
"XXXX.ooooooooo..ooooooooXXXXXXXX",
"XXXXXXooooooooo.oooooooXXXXXXXXX",
"XXXXXXXooXXXXoooXooooooXXXXXXXXX",
"XXXXXXX.oXXXXXooXX.ooooXXXXXXXXX",
"XXXXXXXX..XXXXo.XXXXoooo.XXXXXXX",
"XXXXXXXXX..ooo.XXXXXXXXXXXXXXXXX"
};
