/* XPM */
static char *xpm__tlr[] = {
/* columns rows colors chars-per-pixel */
"32 32 4 1 ",
"  c #B55945",
". c #D07753",
"X c #A6B04F",
"o c #EB9661",
/* pixels */
"XX.XXXXXXXXXXXX   XXXXXXXXXX.XXX",
"XooXXXXXXXXXXX oo .XXXXXXXXXX.XX",
"XoooXXXXXXXXX.ooo.ooXXXXXXooooXX",
"Xoooo..XXXXXoooooooooXXXXooooooo",
"Xoooooooooooooo.oooooooooooooooo",
"XXX.ooooooooooo.ooooooooooooooo.",
"XXXXooooooooooo.oooooooooooooo X",
"XXXXooooooooooo XXooooooooooo.XX",
".XXX...oooooo..XXooooooooooooXXX",
"oo.ooo ...oooooXXoooooooooooXXXX",
"oooooo..oooooooo oooooooooooXXXX",
"ooooooo.oooooooo .ooooooooooXXXX",
"ooooooo .ooooo.   .ooooooooo XXX",
"XXooooo  ..ooooo.  .oooooooo  XX",
"XXXoooo..oooooooooo..ooooooo.o. ",
".XXooo .ooooooooooooo. oooo.oo.X",
"oo.   .ooooooooooooooo.  .ooooXX",
"ooo. XXoooooooooooooooo oooooXXX",
".oooXX.oooooooooooooooo.ooooXXXX",
"XX.oXXooooooooooooooooo.oooXXXXX",
"XXX...ooooooooooooooooo.oooXXXXX",
"XXXX.ooooooooooooooooo..oooXXXXX",
"XXXX ooooooooooooooooo.XXooXXXXX",
"XXXX .oooooooooooooooo.XXooXXXXX",
"XXXX..ooooooooooooooo.XXXoooXXXX",
"XXX.oo.oooooooooooooo XX.oooo.XX",
"XXX.oo .oooooooooooo. XXoooooo.X",
"XXXoo.. .oooooooooo.  ooooooooo.",
"XX.ooooo.  .ooooo.oo. ooooooXXo.",
"XX.oooooooo.  ....ooo.ooooooXXo.",
"XXooXXXooooooooooXXXo .ooooooooX",
"X.oXXXXXooooooooo XX   .ooooooXX"
};
