/* XPM */
static char *br[] = {
/* columns rows colors chars-per-pixel */
"32 32 4 1 ",
"  c #B55945",
". c #D07753",
"X c #A6B04F",
"o c #EB9661",
/* pixels */
" oooooooooooooooo .ooooo..XX.XXX",
".oooooooooooooooo.oooooooooXX.XX",
".oooooooooooooooooooooooooooooo.",
".ooooooooooooooooooooooooooooooo",
" oooooooooooooo.oooooooooooooooo",
" .ooooooooooooo.ooooooooooooooo.",
". ooooooooooooo.oooooooooooooo .",
"o...ooooooooooo ooooooooooooo.XX",
"oo.....oooooo.. oooooooooooooXXX",
"oo.ooo ...ooooo..ooooooooooo.XXX",
"oooooo..oooooooo ooooooooooo.XXX",
"ooooooo.oooooooo .oooooooooo.XXX",
"ooooooo .ooooo.   .ooooooooo XXX",
"o.ooooo  ..ooooo.  .oooooooo  XX",
". ooooo..oooooooooo..ooooooo.ooo",
"o. ooo .ooooooooooooo. ooooXXXoo",
"oo.  XXooooooooooooooo.  .XXXX.o",
"ooo.XX.oooooooooooooooo ooXXXXXo",
"ooooXXooooooooooooooooo.ooXXXXXo",
"oooo..ooooooooooooooooo.oo.XXXXo",
"oooo..ooooooooooooooooo.oooXXXoo",
"oooo.ooooooooooooooooo.XXooooooo",
"oooo oooooooooooooooooXXXoooooo.",
"ooo. .ooooooooooooooooXXXooXXXXX",
"ooo ..ooooooooooooooo.XX.oXXXXXX",
"ooo.XX.oooooooooooooo oooXXXXXXX",
"oo..XX .oooooooooooo. oooXXXXXXX",
"oo.XXXX .oooooooooo.  oooXXXXXXX",
"o.XXXXXXX  .ooooo.XX. oooXXXXXXX",
"oXXXXXXXXXXXX ....XXX.oooXXXXXXX",
"XXXXXXXXXXXXXXXXX  XX .oo.XXXXXX",
"XXXXXXXXXXXXXXXXXX    XXXXXXXXXX"
};
