/* XPM */
static char *l[] = {
/* columns rows colors chars-per-pixel */
"32 32 4 1 ",
"  c #B55945",
". c #D07753",
"X c #A6B04F",
"o c #EB9661",
/* pixels */
" ooXXXXXooooooooo .ooooo..  .   ",
".ooXXXXXooooooooo.ooooooooo.... ",
"XoooXXXoooooooooooooooooooooooo.",
"Xooooooooooooooooooooooooooooooo",
"Xoooooooooooooo.oooooooooooooooo",
" .ooooooooooooo.ooooooooooooooo.",
".Xooooooooooooo.oooooooooooooo .",
"oXXXooooooooooo ooooooooooooo.oo",
"ooXX...oooooo.. oooooooooooooooo",
"oo.ooo ...ooooo..ooooooooooo.ooo",
"oooooo..oooooooo ooooooooooo.ooo",
"ooooooo.oooooooo .oooooooooo.ooo",
"ooooooo .ooooo.   .ooooooooo .oo",
"XXooooo  ..ooooo.  .oooooooo  ..",
"XXXoooo..oooooooooo..ooooooo.ooo",
".XXooo .ooooooooooooo. oooo.oooo",
"oo.   .ooooooooooooooo.  .oooooo",
"ooo. XXoooooooooooooooo oooooooo",
".oooXX.oooooooooooooooo.oooooooo",
"XX.oXXooooooooooooooooo.oooooooo",
"XXX...ooooooooooooooooo.oooooooo",
"XXXX.ooooooooooooooooo..oooooooo",
"XXXX ooooooooooooooooo.ooooooooo",
"XXXX .oooooooooooooooo.ooooooooo",
"XXXX..ooooooooooooooo.oooooooooo",
"XXX.oo.oooooooooooooo oooooooooo",
"XXX.oo .oooooooooooo. oooooooooo",
"XXXoo.. .oooooooooo.  oooooooooo",
"XX.ooooo.  .ooooo.oo. oooooooooo",
"XX.oooooooo.  ....ooo.oooooooooo",
"XXooXXXoooooooooo  oo .ooooooooo",
"X.oXXXXXooooooooo      .ooooooo."
};
