/* XPM */
static char *r[] = {
/* columns rows colors chars-per-pixel */
"32 32 4 1 ",
"  c #B55945",
". c #D07753",
"X c #A6B04F",
"o c #EB9661",
/* pixels */
" oooooooooooooooo .ooooo..XX.XXX",
".oooooooooooooooo.oooooooooXX.XX",
".oooooooooooooooo.oooooooooo.ooX",
".ooooooooooooooooooooooooooooooo",
" ooooooooooooooo.ooooooooooooooo",
" .oooooooooooooo.oooooooooooo.oo",
". ooooooooooooo. oooooooooooo.XX",
"o..ooooooooooo.  .oooooooooo XXX",
"oo. ooooooo.oooo .ooooooooooXXXX",
"oooo   ..oooooooo..oooooooooXXXX",
"oooo ..ooooooooooo.oooooooo.XXXX",
"oooo..ooooooooooooo.ooooooo.XXXX",
"oooo.ooooooooooooooXXooooo. .XXX",
"ooo.oooooooooooooooXXX ...    XX",
".  .ooooooooooooooo XXoooooooo.X",
"oo. oooooooooooooo .ooooooooXXoo",
"ooo.ooooooooooooo..oooooooooXXoo",
"oooo.ooooooooooo. oooooooooooo.X",
"oooooooooooooo...ooooooooooooXXX",
"ooooo.ooooo.ooo.oooooooooooooXXX",
"ooooo..oooooooo.oooooooooooooXXX",
"ooooo. ....oooooooooooooooooooXX",
"ooooo.   ..ooo.oooooooooooooooo.",
"oooo. ooooo. . ooooooooooooXXXoo",
"oooo.ooooooo.  ooooooooooooXXXXo",
"ooooooooooooo. oooooooooooXXXXXo",
"ooo.oooooooooo..ooooooooooXXXXXo",
"ooooooooooooooo.ooooooooooXXXXXo",
"oo.ooooooooooooo.oooooooooXXXXoo",
"o..ooooooooooooo.X.ooooooooXXXoo",
". oooooooooooooooXXXoooooooooooX",
" .ooooooooooooooo XX .ooooooooXX"
};
