/* XPM */
static char *tl[] = {
/* columns rows colors chars-per-pixel */
"32 32 4 1 ",
"  c #B55945",
". c #D07753",
"X c #A6B04F",
"o c #EB9661",
/* pixels */
"XXXXXXXXXXXXXXXXXXXXXXXXXXXXXXXX",
"XXXXXXXXXXXXXXXXXXXXX..XXXXoooXX",
"XXXXXXXXXXXXXXXXXXX.ooo.XXXXooXX",
"XX.ooXXXXXXXXXXXXX.oXXXo.XXXooo.",
"X.ooooXXXXXXXXXXX oXXXXXoXXooooo",
"X.XXXooXXXXXXXXX..oXXXXXoo.oooo.",
"X.XXXXooXXXXXXX...oXXXXXoo..oo. ",
"X.oXXXooo....ooo.oooXXXoooo..ooo",
"XXoooooooooooooo.ooooooooooooooo",
"XXooooooooooooo..oooooooooo.oooo",
"XXXoooooooooooo. oooooooooo.oooo",
"XXXXooooooooooo  .ooooooooo .ooo",
"XXXXoooooooooo.oo .ooooooo   .oo",
"XXX.oooooooooo.ooo ooooo... ....",
"X.ooooooooooo. .oo.     .ooooooo",
"X.oooooooooo..ooo...  .ooooooooo",
"X  oo.ooooo  oooooo. .oooooooooo",
"XX  ...   ..oooooooo ooooooooooo",
"XX XXoo. .oooooooooo.ooooooooooo",
"XX.XXXo..ooooooooooo.ooooooooooo",
"XX.XXXoo.ooooooooooo.ooooooooooo",
"XXX.XXoooooooooooooo ooooooooooo",
"XXXXoooooooooooooooo ooooooooooo",
"XXXX..ooooooooooooo..ooooooooooo",
"XXXX.oooooooooooooo.oooooooooooo",
"XXXXooooooooooooooo oooooooooooo",
"XXX.ooooooooooooooo oooooooooooo",
"XXX.oooooooooooooo. oooooooooooo",
"XXXooooooooooooooo..oooooooooooo",
"XXXooooooooooooooo ooooooooooooo",
"XX..XXXoooooooooo. ooooooooooooo",
"X..XXXXXooooooooo      .ooooooo."
};
