/* XPM */
static char *exit[] = {
/* columns rows colors chars-per-pixel */
"64 64 8 1 ",
"  c None",
". c #BF704D",
"X c #895A45",
"o c #25131A",
"O c #90919E",
"+ c #ADC1CF",
"@ c #523B40",
"# c white",
/* pixels */
"            ........                        ........            ",
"            ........                        ........            ",
"            ........                        ........            ",
"            ........                        ........            ",
"            XXXXXXXX                        XXXXXXXX            ",
"            XXXXXXXX                        XXXXXXXX            ",
"            XXXXXXXX                        XXXXXXXX            ",
"            XXXXXXXX                        XXXXXXXX            ",
"            XXXXXXXX                        XXXXXXXX            ",
"            XXXXXXXX                        XXXXXXXX            ",
"            XXXXXXXX                        XXXXXXXX            ",
"            XXXXXXXX                        XXXXXXXX            ",
"oooooooo....OOOO++++........................++++OOOO....oooooooo",
"oooooooo....OOOO++++........................++++OOOO....oooooooo",
"oooooooo....OOOO++++........................++++OOOO....oooooooo",
"oooooooo....OOOO++++........................++++OOOO....oooooooo",
"ooooooooXXXXXXXXXXXXXXXXXXXXXXXXXXXXXXXXXXXXXXXXXXXXXXXXoooooooo",
"ooooooooXXXXXXXXXXXXXXXXXXXXXXXXXXXXXXXXXXXXXXXXXXXXXXXXoooooooo",
"ooooooooXXXXXXXXXXXXXXXXXXXXXXXXXXXXXXXXXXXXXXXXXXXXXXXXoooooooo",
"ooooooooXXXXXXXXXXXXXXXXXXXXXXXXXXXXXXXXXXXXXXXXXXXXXXXXoooooooo",
"oooooooooooo@@@@@@@@oooooooooooooooooooooooo@@@@@@@@oooooooooooo",
"oooooooooooo@@@@@@@@oooooooooooooooooooooooo@@@@@@@@oooooooooooo",
"oooooooooooo@@@@@@@@oooooooooooooooooooooooo@@@@@@@@oooooooooooo",
"oooooooooooo@@@@@@@@oooooooooooooooooooooooo@@@@@@@@oooooooooooo",
"ooooooooooooXXXXXXXXooooooooooooooooooooooooXXXXXXXXoooooooooooo",
"ooooooooooooXXXXXXXXooooooooooooooooooooooooXXXXXXXXoooooooooooo",
"ooooooooooooXXXXXXXXooooooooooooooooooooooooXXXXXXXXoooooooooooo",
"ooooooooooooXXXXXXXXooooooooooooooooooooooooXXXXXXXXoooooooooooo",
"ooooooooooooXXXXXXXXooooooooooooooooooooooooXXXXXXXXoooooooooooo",
"ooooooooooooXXXXXXXXooooooooooooooooooooooooXXXXXXXXoooooooooooo",
"ooooooooooooXXXXXXXXooooooooooooooooooooooooXXXXXXXXoooooooooooo",
"ooooooooooooXXXXXXXXooooooooooooooooooooooooXXXXXXXXoooooooooooo",
"ooooooooooooXXXXXXXXooooooooooooooooooooooooXXXXXXXXoooooooooooo",
"ooooooooooooXXXXXXXXooooooooooooooooooooooooXXXXXXXXoooooooooooo",
"ooooooooooooXXXXXXXXooooooooooooooooooooooooXXXXXXXXoooooooooooo",
"ooooooooooooXXXXXXXXooooooooooooooooooooooooXXXXXXXXoooooooooooo",
"ooooooooooooXXXXXXXXooooooooooooooooooooooooXXXXXXXXoooooooooooo",
"ooooooooooooXXXXXXXXooooooooooooooooooooooooXXXXXXXXoooooooooooo",
"ooooooooooooXXXXXXXXooooooooooooooooooooooooXXXXXXXXoooooooooooo",
"ooooooooooooXXXXXXXXooooooooooooooooooooooooXXXXXXXXoooooooooooo",
"ooooooooooooXXXXXXXXooooooooooooooooooooooooXXXXXXXXoooooooooooo",
"ooooooooooooXXXXXXXXooooooooooooooooooooooooXXXXXXXXoooooooooooo",
"ooooooooooooXXXXXXXXooooooooooooooooooooooooXXXXXXXXoooooooooooo",
"ooooooooooooXXXXXXXXooooooooooooooooooooooooXXXXXXXXoooooooooooo",
"oooooooo....OOOO++++........................++++OOOO....oooooooo",
"oooooooo....OOOO++++........................++++OOOO....oooooooo",
"oooooooo....OOOO++++........................++++OOOO....oooooooo",
"oooooooo....OOOO++++........................++++OOOO....oooooooo",
"ooooooooXXXXXXXXXXXXXXXXXXXXXXXXXXXXXXXXXXXXXXXXXXXXXXXXoooooooo",
"ooooooooXXXXXXXXXXXXXXXXXXXXXXXXXXXXXXXXXXXXXXXXXXXXXXXXoooooooo",
"ooooooooXXXXXXXXXXXXXXXXXXXXXXXXXXXXXXXXXXXXXXXXXXXXXXXXoooooooo",
"ooooooooXXXXXXXXXXXXXXXXXXXXXXXXXXXXXXXXXXXXXXXXXXXXXXXXoooooooo",
"oooooooooooo@@@@@@@@oooooooooooooooooooooooo@@@@@@@@oooooooooooo",
"oooooooooooo@@@@@@@@oooooooooooooooooooooooo@@@@@@@@oooooooooooo",
"oooooooooooo@@@@@@@@oooooooooooooooooooooooo@@@@@@@@oooooooooooo",
"oooooooooooo@@@@@@@@oooooooooooooooooooooooo@@@@@@@@oooooooooooo",
"ooooooooooooXXXXXXXXooooooooooooooooooooooooXXXXXXXXoooooooooooo",
"ooooooooooooXXXXXXXXooooooooooooooooooooooooXXXXXXXXoooooooooooo",
"ooooooooooooXXXXXXXXooooooooooooooooooooooooXXXXXXXXoooooooooooo",
"ooooooooooooXXXXXXXXooooooooooooooooooooooooXXXXXXXXoooooooooooo",
"ooooooooooooXXXXXXXXooooooooooooooooooooooooXXXXXXXXoooooooooooo",
"ooooooooooooXXXXXXXXooooooooooooooooooooooooXXXXXXXXoooooooooooo",
"ooooooooooooXXXXXXXXooooooooooooooooooooooooXXXXXXXXoooooooooooo",
"ooooooooooooXXXXXXXXooooooooooooooooooooooooXXXXXXXXoooooooooooo"
};
