/* XPM */
static char *exit_door[] = {
/* columns rows colors chars-per-pixel */
"64 64 7 1 ",
"  c None",
". c #25131A",
"X c #90919E",
"o c #ADC1CF",
"O c #523B40",
"+ c #895A45",
"@ c white",
/* pixels */
"    ........................................................    ",
"    ........................................................    ",
"    ........................................................    ",
"    ........................................................    ",
"........XXXXXXXXXXXXXXXXXXXXXXXXXXXXXXXXXXXXXXXXXXXXXXXX........",
"........XXXXXXXXXXXXXXXXXXXXXXXXXXXXXXXXXXXXXXXXXXXXXXXX........",
"........XXXXXXXXXXXXXXXXXXXXXXXXXXXXXXXXXXXXXXXXXXXXXXXX........",
"........XXXXXXXXXXXXXXXXXXXXXXXXXXXXXXXXXXXXXXXXXXXXXXXX........",
"....XXXXoooo....XXXXoooo................ooooXXXX....ooooXXXX....",
"....XXXXoooo....XXXXoooo................ooooXXXX....ooooXXXX....",
"....XXXXoooo....XXXXoooo................ooooXXXX....ooooXXXX....",
"....XXXXoooo....XXXXoooo................ooooXXXX....ooooXXXX....",
"....XXXX........XXXXooooOOOO++++++++OOOOooooXXXX........XXXX....",
"....XXXX........XXXXooooOOOO++++++++OOOOooooXXXX........XXXX....",
"....XXXX........XXXXooooOOOO++++++++OOOOooooXXXX........XXXX....",
"....XXXX........XXXXooooOOOO++++++++OOOOooooXXXX........XXXX....",
"....oooo....OOOOXXXXooooooooooooooooooooooooXXXXOOOO....oooo....",
"....oooo....OOOOXXXXooooooooooooooooooooooooXXXXOOOO....oooo....",
"....oooo....OOOOXXXXooooooooooooooooooooooooXXXXOOOO....oooo....",
"....oooo....OOOOXXXXooooooooooooooooooooooooXXXXOOOO....oooo....",
"....oooo....++++oooooooo................oooooooo++++....oooo....",
"....oooo....++++oooooooo................oooooooo++++....oooo....",
"....oooo....++++oooooooo................oooooooo++++....oooo....",
"....oooo....++++oooooooo................oooooooo++++....oooo....",
"....oooo....++++........OOOO++++++++OOOO........++++....oooo....",
"....oooo....++++........OOOO++++++++OOOO........++++....oooo....",
"....oooo....++++........OOOO++++++++OOOO........++++....oooo....",
"....oooo....++++........OOOO++++++++OOOO........++++....oooo....",
"....oooo....++++OOOO++++OOOO++++++++OOOO++++OOOO++++....oooo....",
"....oooo....++++OOOO++++OOOO++++++++OOOO++++OOOO++++....oooo....",
"....oooo....++++OOOO++++OOOO++++++++OOOO++++OOOO++++....oooo....",
"....oooo....++++OOOO++++OOOO++++++++OOOO++++OOOO++++....oooo....",
"....oooo....++++OOOO++++OOOO++++++++OOOO++++OOOO++++....oooo....",
"....oooo....++++OOOO++++OOOO++++++++OOOO++++OOOO++++....oooo....",
"....oooo....++++OOOO++++OOOO++++++++OOOO++++OOOO++++....oooo....",
"....oooo....++++OOOO++++OOOO++++++++OOOO++++OOOO++++....oooo....",
"....oooo....++++OOOO++++OOOO++++++++OOOO++++OOOO++++....oooo....",
"....oooo....++++OOOO++++OOOO++++++++OOOO++++OOOO++++....oooo....",
"....oooo....++++OOOO++++OOOO++++++++OOOO++++OOOO++++....oooo....",
"....oooo....++++OOOO++++OOOO++++++++OOOO++++OOOO++++....oooo....",
"....XXXX....++++OOOO++++OOOO++++++++OOOO++++OOOO++++....XXXX....",
"....XXXX....++++OOOO++++OOOO++++++++OOOO++++OOOO++++....XXXX....",
"....XXXX....++++OOOO++++OOOO++++++++OOOO++++OOOO++++....XXXX....",
"....XXXX....++++OOOO++++OOOO++++++++OOOO++++OOOO++++....XXXX....",
"....oooo....++++OOOO++++OOOO++++++++OOOO++++OOOO++++....oooo....",
"....oooo....++++OOOO++++OOOO++++++++OOOO++++OOOO++++....oooo....",
"....oooo....++++OOOO++++OOOO++++++++OOOO++++OOOO++++....oooo....",
"....oooo....++++OOOO++++OOOO++++++++OOOO++++OOOO++++....oooo....",
"....XXXX....OOOOOOOOOOOOOOOOOOOOOOOOOOOOOOOOOOOOOOOO....XXXX....",
"....XXXX....OOOOOOOOOOOOOOOOOOOOOOOOOOOOOOOOOOOOOOOO....XXXX....",
"....XXXX....OOOOOOOOOOOOOOOOOOOOOOOOOOOOOOOOOOOOOOOO....XXXX....",
"....XXXX....OOOOOOOOOOOOOOOOOOOOOOOOOOOOOOOOOOOOOOOO....XXXX....",
"....XXXXoooo........................................ooooXXXX....",
"....XXXXoooo........................................ooooXXXX....",
"....XXXXoooo........................................ooooXXXX....",
"....XXXXoooo........................................ooooXXXX....",
"........XXXXXXXXXXXXXXXXXXXXXXXXXXXXXXXXXXXXXXXXXXXXXXXX........",
"........XXXXXXXXXXXXXXXXXXXXXXXXXXXXXXXXXXXXXXXXXXXXXXXX........",
"........XXXXXXXXXXXXXXXXXXXXXXXXXXXXXXXXXXXXXXXXXXXXXXXX........",
"........XXXXXXXXXXXXXXXXXXXXXXXXXXXXXXXXXXXXXXXXXXXXXXXX........",
"    ........................................................    ",
"    ........................................................    ",
"    ........................................................    ",
"    ........................................................    "
};
