/* XPM */
static char *f_5[] = {
/* columns rows colors chars-per-pixel */
"64 64 3 1 ",
"  c #3D253B",
". c #362030",
"X c white",
/* pixels */
"                                                            ....",
"                                                            ....",
"                                                            ....",
"                                                            ....",
"                                                            ....",
"                                                            ....",
"                                                            ....",
"                                                            ....",
"                                                            ....",
"                                                            ....",
"                                                            ....",
"                                                            ....",
"                                                            ....",
"                                                            ....",
"                                                            ....",
"                                                            ....",
"                                                            ....",
"                                                            ....",
"                                                            ....",
"                                                            ....",
"                                                                ",
"                                                                ",
"                                                                ",
"                                                                ",
"                                                            ....",
"                                                            ....",
"                                                            ....",
"                                                            ....",
"                                                                ",
"                                                                ",
"                                                                ",
"                                                                ",
"                                                                ",
"                                                                ",
"                                                                ",
"                                                                ",
"                                                                ",
"                                                                ",
"                                                                ",
"                                                                ",
"                                                                ",
"                                                                ",
"                                                                ",
"                                                                ",
"                                                                ",
"                                                                ",
"                                                                ",
"                                                                ",
"                                                            ....",
"                                                            ....",
"                                                            ....",
"                                                            ....",
"                                                            ....",
"                                                            ....",
"                                                            ....",
"                                                            ....",
"                                                            ....",
"                                                            ....",
"                                                            ....",
"                                                            ....",
"                            ....................................",
"                            ....................................",
"                            ....................................",
"                            ...................................."
};
