/* XPM */
static char *f_b_2[] = {
/* columns rows colors chars-per-pixel */
"64 64 4 1 ",
"  c #362030",
". c #3D253B",
"X c #25131A",
"o c white",
/* pixels */
"                                            ....    ............",
"                                            ....    ............",
"                                            ....    ............",
"                                            ....    ............",
"............................    ................................",
"............................    ................................",
"............................    ................................",
"............................    ................................",
"............................    ................................",
"............................    ................................",
"............................    ................................",
"............................    ................................",
"............................    ................................",
"............................    ................................",
"............................    ................................",
"............................    ................................",
"................................................................",
"................................................................",
"................................................................",
"................................................................",
"................................................................",
"................................................................",
"................................................................",
"................................................................",
"............................................................    ",
"............................................................    ",
"............................................................    ",
"............................................................    ",
"................................................................",
"................................................................",
"................................................................",
"................................................................",
"............................................................    ",
"............................................................    ",
"............................................................    ",
"............................................................    ",
"............................................................    ",
"............................................................    ",
"............................................................    ",
"............................................................    ",
"............................................................    ",
"............................................................    ",
"............................................................    ",
"............................................................    ",
"    ........................................................    ",
"    ........................................................    ",
"    ........................................................    ",
"    ........................................................    ",
"    ........................................................    ",
"    ........................................................    ",
"    ........................................................    ",
"    ........................................................    ",
"    ........................................................    ",
"    ........................................................    ",
"    ........................................................    ",
"    ........................................................    ",
"                                                                ",
"                                                                ",
"                                                                ",
"                                                                ",
"XXXXXXXXXXXXXXXXXXXXXXXXXXXXXXXXXXXXXXXXXXXXXXXXXXXXXXXXXXXXXXXX",
"XXXXXXXXXXXXXXXXXXXXXXXXXXXXXXXXXXXXXXXXXXXXXXXXXXXXXXXXXXXXXXXX",
"XXXXXXXXXXXXXXXXXXXXXXXXXXXXXXXXXXXXXXXXXXXXXXXXXXXXXXXXXXXXXXXX",
"XXXXXXXXXXXXXXXXXXXXXXXXXXXXXXXXXXXXXXXXXXXXXXXXXXXXXXXXXXXXXXXX"
};
