/* XPM */
static char *w_dec_2[] = {
/* columns rows colors chars-per-pixel */
"64 64 5 1 ",
"  c None",
". c #25131A",
"X c #ADC1CF",
"o c #90919E",
"O c white",
/* pixels */
"                                                                ",
"                                                                ",
"                                                                ",
"                                                                ",
"                                                                ",
"                                                                ",
"                                                                ",
"                                                                ",
"                                                                ",
"                                                                ",
"                                                                ",
"                                                                ",
"                                                                ",
"                                                                ",
"                                                                ",
"                                                                ",
"                        ....XXXXXXXXoooo....                    ",
"                        ....XXXXXXXXoooo....                    ",
"                        ....XXXXXXXXoooo....                    ",
"                        ....XXXXXXXXoooo....                    ",
"                    ....XXXX        ....oooo....                ",
"                    ....XXXX        ....oooo....                ",
"                    ....XXXX        ....oooo....                ",
"                    ....XXXX        ....oooo....                ",
"                    ....XXXX        ....oooo....                ",
"                    ....XXXX        ....oooo....                ",
"                    ....XXXX        ....oooo....                ",
"                    ....XXXX        ....oooo....                ",
"                        ....ooooooooXXXX....                    ",
"                        ....ooooooooXXXX....                    ",
"                        ....ooooooooXXXX....                    ",
"                        ....ooooooooXXXX....                    ",
"                            ....XXXX....                        ",
"                            ....XXXX....                        ",
"                            ....XXXX....                        ",
"                            ....XXXX....                        ",
"                        ....oooo    XXXX....                    ",
"                        ....oooo    XXXX....                    ",
"                        ....oooo    XXXX....                    ",
"                        ....oooo    XXXX....                    ",
"                        ....oooo    oooo....                    ",
"                        ....oooo    oooo....                    ",
"                        ....oooo    oooo....                    ",
"                        ....oooo    oooo....                    ",
"                            ....oooo....                        ",
"                            ....oooo....                        ",
"                            ....oooo....                        ",
"                            ....oooo....                        ",
"                                ....                            ",
"                                ....                            ",
"                                ....                            ",
"                                ....                            ",
"                                                                ",
"                                                                ",
"                                                                ",
"                                                                ",
"                                                                ",
"                                                                ",
"                                                                ",
"                                                                ",
"                                                                ",
"                                                                ",
"                                                                ",
"                                                                "
};
