/* XPM */
static char *w_l_1[] = {
/* columns rows colors chars-per-pixel */
"64 64 5 1 ",
"  c #25131A",
". c #4C2F49",
"X c #78514F",
"o c #6E4A48",
"O c white",
/* pixels */
"                                        ........................",
"                                        ........................",
"                                        ........................",
"                                        ........................",
"                                    ....XXXXooooXXXXXXXXXXXX....",
"                                    ....XXXXooooXXXXXXXXXXXX....",
"                                    ....XXXXooooXXXXXXXXXXXX....",
"                                    ....XXXXooooXXXXXXXXXXXX....",
"                                    ....ooooooooooooooooXXXX....",
"                                    ....ooooooooooooooooXXXX....",
"                                    ....ooooooooooooooooXXXX....",
"                                    ....ooooooooooooooooXXXX....",
"                                    ....ooooooooooooooooXXXX....",
"                                    ....ooooooooooooooooXXXX....",
"                                    ....ooooooooooooooooXXXX....",
"                                    ....ooooooooooooooooXXXX....",
"                                    ....ooooooooooooooooXXXX....",
"                                    ....ooooooooooooooooXXXX....",
"                                    ....ooooooooooooooooXXXX....",
"                                    ....ooooooooooooooooXXXX....",
"                                    ....ooooooooooooooooXXXX....",
"                                    ....ooooooooooooooooXXXX....",
"                                    ....ooooooooooooooooXXXX....",
"                                    ....ooooooooooooooooXXXX....",
"                                    ....ooooooooooooooooXXXX....",
"                                    ....ooooooooooooooooXXXX....",
"                                    ....ooooooooooooooooXXXX....",
"                                    ....ooooooooooooooooXXXX....",
"                                    ............................",
"                                    ............................",
"                                    ............................",
"                                    ............................",
"                                    ............................",
"                                    ............................",
"                                    ............................",
"                                    ............................",
"                                    ....XXXXooooXXXXXXXXXXXX....",
"                                    ....XXXXooooXXXXXXXXXXXX....",
"                                    ....XXXXooooXXXXXXXXXXXX....",
"                                    ....XXXXooooXXXXXXXXXXXX....",
"                                    ....ooooooooooooooooXXXX....",
"                                    ....ooooooooooooooooXXXX....",
"                                    ....ooooooooooooooooXXXX....",
"                                    ....ooooooooooooooooXXXX....",
"                                    ....ooooooooooooooooXXXX....",
"                                    ....ooooooooooooooooXXXX....",
"                                    ....ooooooooooooooooXXXX....",
"                                    ....ooooooooooooooooXXXX....",
"                                    ....ooooooooooooooooXXXX....",
"                                    ....ooooooooooooooooXXXX....",
"                                    ....ooooooooooooooooXXXX....",
"                                    ....ooooooooooooooooXXXX....",
"                                    ....ooooooooooooooooXXXX....",
"                                    ....ooooooooooooooooXXXX....",
"                                    ....ooooooooooooooooXXXX....",
"                                    ....ooooooooooooooooXXXX....",
"                                    ....XXXXooooXXXXXXXXXXXX....",
"                                    ....XXXXooooXXXXXXXXXXXX....",
"                                    ....XXXXooooXXXXXXXXXXXX....",
"                                    ....XXXXooooXXXXXXXXXXXX....",
"                                    ............................",
"                                    ............................",
"                                    ............................",
"                                    ............................"
};
