/* XPM */
static char *w_tro_2[] = {
/* columns rows colors chars-per-pixel */
"64 64 6 1 ",
"  c #4C2F49",
". c #78514F",
"X c #6E4A48",
"o c #3D253B",
"O c #25131A",
"+ c white",
/* pixels */
"                                                                ",
"                                                                ",
"                                                                ",
"                                                                ",
"        ................                ................        ",
"        ................                ................        ",
"        ................                ................        ",
"        ................                ................        ",
"    ........XXXXXXXXXXXXXXXX        ........XXXXXXXXXXXX....    ",
"    ........XXXXXXXXXXXXXXXX        ........XXXXXXXXXXXX....    ",
"    ........XXXXXXXXXXXXXXXX        ........XXXXXXXXXXXX....    ",
"    ........XXXXXXXXXXXXXXXX        ........XXXXXXXXXXXX....    ",
"    ....XXXXXXXXXXXXXXXXXXXX        ....XXXXXXXXXXXXXXXX....    ",
"    ....XXXXXXXXXXXXXXXXXXXX        ....XXXXXXXXXXXXXXXX....    ",
"    ....XXXXXXXXXXXXXXXXXXXX        ....XXXXXXXXXXXXXXXX....    ",
"    ....XXXXXXXXXXXXXXXXXXXX        ....XXXXXXXXXXXXXXXX....    ",
"    XXXXXXXXXXXXXXXXXXXXXXXX        XXXXXXXXXXXXXXXXXXXXXXXX    ",
"    XXXXXXXXXXXXXXXXXXXXXXXX        XXXXXXXXXXXXXXXXXXXXXXXX    ",
"    XXXXXXXXXXXXXXXXXXXXXXXX        XXXXXXXXXXXXXXXXXXXXXXXX    ",
"    XXXXXXXXXXXXXXXXXXXXXXXX        XXXXXXXXXXXXXXXXXXXXXXXX    ",
"    XXXXXXXXXXXXXXXXXXXXXXXX        ....XXXXXXXXXXXXXXXXXXXX    ",
"    XXXXXXXXXXXXXXXXXXXXXXXX        ....XXXXXXXXXXXXXXXXXXXX    ",
"    XXXXXXXXXXXXXXXXXXXXXXXX        ....XXXXXXXXXXXXXXXXXXXX    ",
"    XXXXXXXXXXXXXXXXXXXXXXXX        ....XXXXXXXXXXXXXXXXXXXX    ",
"                                    XXXXXXXXXXXXXXXXXXXXXXXX    ",
"                                    XXXXXXXXXXXXXXXXXXXXXXXX    ",
"                                    XXXXXXXXXXXXXXXXXXXXXXXX    ",
"                                    XXXXXXXXXXXXXXXXXXXXXXXX    ",
"ooooooooooooooooooooooooooooooooooooXXXXXXXXXXXXXXXXXXXXXXXX    ",
"ooooooooooooooooooooooooooooooooooooXXXXXXXXXXXXXXXXXXXXXXXX    ",
"ooooooooooooooooooooooooooooooooooooXXXXXXXXXXXXXXXXXXXXXXXX    ",
"ooooooooooooooooooooooooooooooooooooXXXXXXXXXXXXXXXXXXXXXXXX    ",
"ooooooooOOOOOOOOOOOOOOOOOOOOOOOOOOOOXXXXXXXXXXXXXXXXXXXXXXXX    ",
"ooooooooOOOOOOOOOOOOOOOOOOOOOOOOOOOOXXXXXXXXXXXXXXXXXXXXXXXX    ",
"ooooooooOOOOOOOOOOOOOOOOOOOOOOOOOOOOXXXXXXXXXXXXXXXXXXXXXXXX    ",
"ooooooooOOOOOOOOOOOOOOOOOOOOOOOOOOOOXXXXXXXXXXXXXXXXXXXXXXXX    ",
"ooooOOOOOOOOOOOOOOOOOOOOOOOOOOOOOOOOXXXXXXXXXXXXXXXXXXXXXXXX    ",
"ooooOOOOOOOOOOOOOOOOOOOOOOOOOOOOOOOOXXXXXXXXXXXXXXXXXXXXXXXX    ",
"ooooOOOOOOOOOOOOOOOOOOOOOOOOOOOOOOOOXXXXXXXXXXXXXXXXXXXXXXXX    ",
"ooooOOOOOOOOOOOOOOOOOOOOOOOOOOOOOOOOXXXXXXXXXXXXXXXXXXXXXXXX    ",
"OOOOOOOOOOOOOOOOOOOOOOOOOOOOOOOOOOOOXXXXXXXXXXXXXXXXXXXXXXXX    ",
"OOOOOOOOOOOOOOOOOOOOOOOOOOOOOOOOOOOOXXXXXXXXXXXXXXXXXXXXXXXX    ",
"OOOOOOOOOOOOOOOOOOOOOOOOOOOOOOOOOOOOXXXXXXXXXXXXXXXXXXXXXXXX    ",
"OOOOOOOOOOOOOOOOOOOOOOOOOOOOOOOOOOOOXXXXXXXXXXXXXXXXXXXXXXXX    ",
"ooooOOOOooooooooooooooooooooooooOOOOXXXXXXXXXXXXXXXXXXXXXXXX    ",
"ooooOOOOooooooooooooooooooooooooOOOOXXXXXXXXXXXXXXXXXXXXXXXX    ",
"ooooOOOOooooooooooooooooooooooooOOOOXXXXXXXXXXXXXXXXXXXXXXXX    ",
"ooooOOOOooooooooooooooooooooooooOOOOXXXXXXXXXXXXXXXXXXXXXXXX    ",
"OOOOOOOOOOOOOOOOOOOOOOOOOOOOOOOOOOOOXXXXXXXXXXXXXXXXXXXXXXXX    ",
"OOOOOOOOOOOOOOOOOOOOOOOOOOOOOOOOOOOOXXXXXXXXXXXXXXXXXXXXXXXX    ",
"OOOOOOOOOOOOOOOOOOOOOOOOOOOOOOOOOOOOXXXXXXXXXXXXXXXXXXXXXXXX    ",
"OOOOOOOOOOOOOOOOOOOOOOOOOOOOOOOOOOOOXXXXXXXXXXXXXXXXXXXXXXXX    ",
"OOOOOOOOOOOOOOOOOOOOOOOOOOOOOOOOOOOOXXXXXXXXXXXXXXXXXXXXXXXX    ",
"OOOOOOOOOOOOOOOOOOOOOOOOOOOOOOOOOOOOXXXXXXXXXXXXXXXXXXXXXXXX    ",
"OOOOOOOOOOOOOOOOOOOOOOOOOOOOOOOOOOOOXXXXXXXXXXXXXXXXXXXXXXXX    ",
"OOOOOOOOOOOOOOOOOOOOOOOOOOOOOOOOOOOOXXXXXXXXXXXXXXXXXXXXXXXX    ",
"OOOOOOOOOOOOOOOOOOOOOOOOOOOOOOOOOOOO    XXXXXXXXXXXXXXXX        ",
"OOOOOOOOOOOOOOOOOOOOOOOOOOOOOOOOOOOO    XXXXXXXXXXXXXXXX        ",
"OOOOOOOOOOOOOOOOOOOOOOOOOOOOOOOOOOOO    XXXXXXXXXXXXXXXX        ",
"OOOOOOOOOOOOOOOOOOOOOOOOOOOOOOOOOOOO    XXXXXXXXXXXXXXXX        ",
"OOOOOOOOOOOOOOOOOOOOOOOOOOOOOOOOOOOO                            ",
"OOOOOOOOOOOOOOOOOOOOOOOOOOOOOOOOOOOO                            ",
"OOOOOOOOOOOOOOOOOOOOOOOOOOOOOOOOOOOO                            ",
"OOOOOOOOOOOOOOOOOOOOOOOOOOOOOOOOOOOO                            "
};
