/* XPM */
static char *exit[] = {
/* columns rows colors chars-per-pixel */
"64 64 96 2 ",
"   c #3D253B",
".  c #3E263B",
"X  c #5D383F",
"o  c #8A5146",
"O  c #B56A4C",
"+  c #BF704D",
"@  c #895146",
"#  c #5D373F",
"$  c #3E253B",
"%  c #362030",
"&  c #603940",
"*  c #9A5B48",
"=  c #3B2439",
"-  c #392236",
";  c #382134",
":  c #341E2E",
">  c #311C2B",
",  c #301B29",
"<  c #2F1A27",
"1  c #2F1A28",
"2  c #2F1B28",
"3  c #331E2E",
"4  c #372032",
"5  c #3A2336",
"6  c #3C243A",
"7  c #5E3840",
"8  c #BE704D",
"9  c #3A2236",
"0  c #27141C",
"q  c #25131A",
"w  c #28151E",
"e  c #392235",
"r  c #885045",
"t  c #361F31",
"y  c #28151D",
"u  c #26141C",
"i  c #2B1722",
"p  c #895A45",
"a  c #7F5344",
"s  c #382133",
"d  c #2C1823",
"f  c #351F2F",
"g  c #3D253A",
"h  c #331D2D",
"j  c #25131B",
"k  c #90919E",
"l  c #ADC1CF",
"z  c #3A2235",
"x  c #372133",
"c  c #351F30",
"v  c #26131B",
"b  c #3A2437",
"n  c #2F1B29",
"m  c #2F1B27",
"M  c #2C1924",
"N  c #29161F",
"B  c #372134",
"V  c #351F2E",
"C  c #2D1925",
"Z  c #26141B",
"A  c #523B40",
"S  c #341E2F",
"D  c #351F31",
"F  c #27151D",
"G  c #382235",
"H  c #352031",
"J  c #28161E",
"K  c #27141D",
"L  c #28151F",
"P  c #331E2D",
"I  c #2C1824",
"U  c #2E1A26",
"Y  c #3C2439",
"T  c #3B2438",
"R  c #2A1721",
"E  c #3A2337",
"W  c #3B2338",
"Q  c #291620",
"!  c #311C2A",
"~  c #47303D",
"^  c #4F323D",
"/  c #805444",
"(  c #40273B",
")  c #694441",
"_  c #4E313D",
"`  c #734B42",
"'  c #744B42",
"]  c #4A2E3C",
"[  c #694440",
"{  c #835644",
"}  c #4A2E3D",
"|  c #35202F",
" . c #362032",
".. c #311C28",
"X. c #2B1822",
"o. c #321D2C",
/* pixels */
"                          . X X o O + +                                                 + + @ @ # $                     % % % % ",
"                        & * * + + + + +             = - ; : > , < 1 2 3 4 5 6           + + + + + * 7                   % % % % ",
"                          8 + + + + + +     6 9 > 0 q q q q q q q q q q q q q w , e 6   + + + + + + 8 r                 % % % % ",
"                        @ 8 + + + + + + t y q q q q q q q q q q q q q q q q q q q q u i + + + + + + + +                 % % % % ",
"                        p p p p p p p p q q q q q q q q q q q q q q q q q q q q q q q q p p p p p p p a                 % % % % ",
"                        p p p p p p p p q q q q q q q q q q q q q q q q q q q q q q q q p p p p p p p p                 % % % % ",
"                        p p p p p p p p q q q q q q q q q q q q q q q q q q q q q q q q p p p p p p p p                 % % % % ",
"                      > p p p p p p p p q q q q q q q q q q q q q q q q q q q q q q q q p p p p p p p p s               % % % % ",
"                = = d q p p p p p p p p q q q q q q q q q q q q q q q q q q q q q q q q p p p p p p p p q f             % % % % ",
"                = = d q p p p p p p p p q q q q q q q q q q q q q q q q q q q q q q q q p p p p p p p p q d = g         % % % % ",
"              - w w q q p p p p p p p p q q q q q q q q q q q q q q q q q q q q q q q q p p p p p p p p q q w 2         % % % % ",
"          e e 0 q q q q p p p p p p p p q q q q q q q q q q q q q q q q q q q q q q q q p p p p p p p p q q q q e       % % % % ",
"        6 h j q + + + + k k k k l l l l + + + + + + + + + + + + + + + + + + + + + + + + l l l l k k k k + + + + q z     % % % % ",
"        : q q q + + + + k k k k l l l l + + + + + + + + + + + + + + + + + + + + + + + + l l l l k k k k + + + + q q x   % % % % ",
"      c q q q q + + + + k k k k l l l l + + + + + + + + + + + + + + + + + + + + + + + + l l l l k k k k + + + + q q v b % % % % ",
"      n q q q q + + + + k k k k l l l l + + + + + + + + + + + + + + + + + + + + + + + + l l l l k k k k + + + + q q q w f % % % ",
"    e q q q q q p p p p p p p p p p p p p p p p p p p p p p p p p p p p p p p p p p p p p p p p p p p p p p p p q q q q m % % % ",
"    M q q q q q p p p p p p p p p p p p p p p p p p p p p p p p p p p p p p p p p p p p p p p p p p p p p p p p q q q q N % % % ",
"  B q q q q q q p p p p p p p p p p p p p p p p p p p p p p p p p p p p p p p p p p p p p p p p p p p p p p p p q q q q q V % % ",
"  C q q q q q q p p p p p p p p p p p p p p p p p p p p p p p p p p p p p p p p p p p p p p p p p p p p p p p p q q q q q d % % ",
"g Z q q q q q q q q q q A A A A A A A A q q q q q q q q q q q q q q q q q q q q q q q q A A A A A A A A q q q q q q q q q Z S   ",
"D q q q q q q q q q q q A A A A A A A A q q q q q q q q q q q q q q q q q q q q q q q q A A A A A A A A q q q q q q q q q q y   ",
"M q q q q q q q q q q q A A A A A A A A q q q q q q q q q q q q q q q q q q q q q q q q A A A A A A A A q q q q q q q q q q u   ",
"F q q q q q q q q q q q A A A A A A A A q q q q q q q q q q q q q q q q q q q q q q q q A A A A A A A A q q q q q q q q q q q G ",
"q q q q q q q q q q q q p p p p p p p p q q q q q q q q q q q q q q q q q q q q q q q q p p p p p p p p q q q q q q q q q q q H ",
"q q q q q q q q q q q q p p p p p p p p q q q q q q q q q q q q q q q q q q q q q q q q p p p p p p p p q q q q q q q q q q q d ",
"q q q q q q q q q q q q p p p p p p p p q q q q q q q q q q q q q q q q q q q q q q q q p p p p p p p p q q q q q q q q q q q J ",
"q q q q q q q q q q q q p p p p p p p p q q q q q q q q q q q q q q q q q q q q q q q q p p p p p p p p q q q q q q q q q q q F ",
"q q q q q q q q q q q q p p p p p p p p q q q q q q q q q q q q q q q q q q q q q q q q p p p p p p p p q q q q q q q q q q q q ",
"q q q q q q q q q q q q p p p p p p p p q q q q q q q q q q q q q q q q q q q q q q q q p p p p p p p p q q q q q q q q q q q q ",
"q q q q q q q q q q q q p p p p p p p p q q q q q q q q q q q q q q q q q q q q q q q q p p p p p p p p q q q q q q q q q q q q ",
"q q q q q q q q q q q q p p p p p p p p q q q q q q q q q q q q q q q q q q q q q q q q p p p p p p p p q q q q q q q q q q q q ",
"q q q q q q q q q q q q p p p p p p p p q q q q q q q q q q q q q q q q q q q q q q q q p p p p p p p p q q q q q q q q q q q j ",
"q q q q q q q q q q q q p p p p p p p p q q q q q q q q q q q q q q q q q q q q q q q q p p p p p p p p q q q q q q q q q q q K ",
"q q q q q q q q q q q q p p p p p p p p q q q q q q q q q q q q q q q q q q q q q q q q p p p p p p p p q q q q q q q q q q q L ",
"q q q q q q q q q q q q p p p p p p p p q q q q q q q q q q q q q q q q q q q q q q q q p p p p p p p p q q q q q q q q q q q d ",
"q q q q q q q q q q q q p p p p p p p p q q q q q q q q q q q q q q q q q q q q q q q q p p p p p p p p q q q q q q q q q q q 2 ",
"q q q q q q q q q q q q p p p p p p p p q q q q q q q q q q q q q q q q q q q q q q q q p p p p p p p p q q q q q q q q q q q P ",
"q q q q q q q q q q q q p p p p p p p p q q q q q q q q q q q q q q q q q q q q q q q q p p p p p p p p q q q q q q q q q q q G ",
"u q q q q q q q q q q q p p p p p p p p q q q q q q q q q q q q q q q q q q q q q q q q p p p p p p p p q q q q q q q q q q w   ",
"I q q q q q q q q q q q p p p p p p p p q q q q q q q q q q q q q q q q q q q q q q q q p p p p p p p p q q q q q q q q q q U   ",
"D q q q q q q q q q q q p p p p p p p p q q q q q q q q q q q q q q q q q q q q q q q q p p p p p p p p q q q q q q q q q q D   ",
"g Z q q q q q q q q q q p p p p p p p p q q q q q q q q q q q q q q q q q q q q q q q q p p p p p p p p q q q q q q q q q u g   ",
"  U q q q q q q q q q q p p p p p p p p q q q q q q q q q q q q q q q q q q q q q q q q p p p p p p p p q q q q q q q q q <     ",
"  - q q q q q q + + + + k k k k l l l l + + + + + + + + + + + + + + + + + + + + + + + + l l l l k k k k + + + + q q q q q 9     ",
"    M q q q q q + + + + k k k k l l l l + + + + + + + + + + + + + + + + + + + + + + + + l l l l k k k k + + + + q q q q M       ",
"    e q q q q q + + + + k k k k l l l l + + + + + + + + + + + + + + + + + + + + + + + + l l l l k k k k + + + + q q q q e       ",
"      2 q q q q + + + + k k k k l l l l + + + + + + + + + + + + + + + + + + + + + + + + l l l l k k k k + + + + q q q 2         ",
"      Y w q q q p p p p p p p p p p p p p p p p p p p p p p p p p p p p p p p p p p p p p p p p p p p p p p p p q q F Y         ",
"        t q q q p p p p p p p p p p p p p p p p p p p p p p p p p p p p p p p p p p p p p p p p p p p p p p p p q q 4           ",
"        T N q q p p p p p p p p p p p p p p p p p p p p p p p p p p p p p p p p p p p p p p p p p p p p p p p p q ,             ",
"          e R q p p p p p p p p p p p p p p p p p p p p p p p p p p p p p p p p p p p p p p p p p p p p p p p p R               ",
"          e E E w q q q A A A A A A A A q q q q q q q q q q q q q q q q q q q q q q q q A A A A A A A A q q Z W                 ",
"                E Q q q A A A A A A A A q q q q q q q q q q q q q q q q q q q q q q q q A A A A A A A A q F E                   ",
"                  Y i q A A A A A A A A q q q q q q q q q q q q q q q q q q q q q q q q A A A A A A A A R Y                     ",
"                      ! A A A A A A A A q q q q q q q q q q q q q q q q q q q q q q q q A A A A A A A ~                         ",
"                        ^ / p p p p p p q q q q q q q q q q q q q q q q q q q q q q q q p p p p p / ^                           ",
"                          ( ) p p p p p q q q q q q q q q q q q q q q q q q q q q q q q p p p p ) (                             ",
"                              _ ` p p p q q q q q q q q q q q q q q q q q q q q q q q q p p ' _                                 ",
"                                  ] [ { q q q q q q q q q q q q q q q q q q q q q q q 0 ) }                                     ",
"% % % % % % % % % % % % % % % % % % | | D U K q q q q q q q q q q q q q q q q q N 1  .                                          ",
"% % % % % % % % % % % % % % % % % % % %       E ..U X.N N 0 q q q 0 N i U o.t T                                                 ",
"% % % % % % % % % % % % % % % % % % % %         % % % %                                                                         ",
"% % % % % % % % % % % % % % % % % % % %         % % % %                                                                         "
};
