/* XPM */
static char *output_12[] = {
/* columns rows colors chars-per-pixel */
"64 64 208 2 ",
"   c None",
".  c #3A2F2B",
"X  c #212C36",
"o  c #232C39",
"O  c #2C2F35",
"+  c #372E33",
"@  c #2D3133",
"#  c #24323C",
"$  c #2E3A3F",
"%  c #323A3F",
"&  c #373634",
"*  c #6A1C13",
"=  c #52271E",
"-  c #732519",
";  c #76281B",
":  c #7A2C1E",
">  c #702117",
",  c #7E301F",
"<  c #67291A",
"1  c #5B2B27",
"2  c #443025",
"3  c #4A3221",
"4  c #443B2E",
"5  c #4A3E2B",
"6  c #4B3728",
"7  c #573926",
"8  c #483D3A",
"9  c #523332",
"0  c #563C3B",
"q  c #462624",
"w  c #632A25",
"e  c #7F2F21",
"r  c #723A2B",
"t  c #4D422E",
"y  c #5B432A",
"u  c #48473D",
"i  c #5D533B",
"p  c #504631",
"a  c #60482D",
"s  c #7B4539",
"d  c #6D5B33",
"f  c #695537",
"g  c #7B5E3C",
"h  c #604338",
"j  c #77623B",
"k  c #273640",
"l  c #293B45",
"z  c #2B3D48",
"x  c #283742",
"c  c #353C42",
"v  c #2D424C",
"b  c #38454B",
"n  c #2F4A51",
"m  c #304551",
"M  c #334A55",
"N  c #364F5B",
"B  c #3B4E58",
"V  c #325156",
"C  c #36535B",
"Z  c #39535E",
"A  c #3A5659",
"S  c #395560",
"D  c #3B5A64",
"F  c #3E5E68",
"G  c #375E61",
"H  c #3E646B",
"J  c #3E686C",
"K  c #3F7171",
"L  c #464847",
"P  c #564849",
"I  c #57564B",
"U  c #484D53",
"Y  c #465354",
"T  c #485858",
"R  c #525355",
"E  c #6D4540",
"W  c #6A4844",
"Q  c #734B44",
"!  c #695E45",
"~  c #6C5E54",
"^  c #73554E",
"/  c #6F654A",
"(  c #746A4E",
")  c #72674C",
"_  c #7C7556",
"`  c #746950",
"'  c #485C61",
"]  c #40646E",
"[  c #42696D",
"{  c #436166",
"}  c #426771",
"|  c #436C74",
" . c #486C75",
".. c #46737A",
"X. c #48767C",
"o. c #49787E",
"O. c #447779",
"+. c #5B656B",
"@. c #796B60",
"#. c #6A7C74",
"$. c #7A7F6F",
"%. c #843324",
"&. c #8C3B2A",
"*. c #893B27",
"=. c #903D2D",
"-. c #873F31",
";. c #8A432C",
":. c #92412E",
">. c #9B4D2E",
",. c #914529",
"<. c #894234",
"1. c #854336",
"2. c #954431",
"3. c #9C4B33",
"4. c #994C37",
"5. c #98513C",
"6. c #A04F37",
"7. c #A5533A",
"8. c #A75737",
"9. c #B05F3F",
"0. c #856B3F",
"q. c #B4673B",
"w. c #AF603B",
"e. c #865846",
"r. c #995941",
"t. c #A15E41",
"y. c #896D42",
"u. c #8C7643",
"i. c #967A49",
"p. c #896857",
"a. c #867856",
"s. c #A46A4A",
"d. c #B46341",
"f. c #BB6B43",
"g. c #B86742",
"h. c #BA774B",
"j. c #A9754E",
"k. c #847D61",
"l. c #C87B45",
"z. c #C67648",
"x. c #CB7D4B",
"c. c #C47645",
"v. c #728473",
"b. c #9B814B",
"n. c #948445",
"m. c #8D825F",
"M. c #988754",
"N. c #A28A4E",
"B. c #A2934C",
"V. c #A58C50",
"C. c #AD9B54",
"Z. c #AB9452",
"A. c #B19D55",
"S. c #B5A456",
"D. c #B9AA58",
"F. c #928A66",
"G. c #918568",
"H. c #948865",
"J. c #9A9469",
"K. c #A59A7C",
"L. c #A39976",
"P. c #A5996C",
"I. c #ACA57B",
"U. c #B5B07D",
"Y. c #B0A87D",
"T. c #D2844C",
"R. c #D78A4E",
"E. c #C88752",
"W. c #DB8E50",
"Q. c #D78D53",
"!. c #D6884E",
"~. c #E19453",
"^. c #E79A56",
"/. c #C5B75D",
"(. c #CCC060",
"). c #4A7D82",
"_. c #4D8386",
"`. c #4D8688",
"'. c #4F8B8C",
"]. c #4A8A86",
"[. c #548183",
"{. c #508F8F",
"}. c #50908F",
"|. c #529593",
" X c #529996",
".X c #549F9A",
"XX c #4F9390",
"oX c #689697",
"OX c #56A59E",
"+X c #57A9A1",
"@X c #808687",
"#X c #A99E82",
"$X c #B0A980",
"%X c #BAB583",
"&X c #BAB199",
"*X c #A5AFAE",
"=X c #C3BD8F",
"-X c #C7C38F",
";X c #CBC795",
":X c #D8D698",
">X c #D0CD93",
",X c #EBD285",
"<X c #E2E1AA",
"1X c #D8D2C0",
"2X c #E8E5D6",
"3X c #F2F3C7",
"4X c #F7F5E9",
"5X c #EFEEE0",
/* pixels */
"                                                                                                                                ",
"                                                                                                                                ",
"                                                                                                                                ",
"                                                                                                                                ",
"                                                                                                                                ",
"                                                                            *                                                   ",
"                                                                            %.:                                                 ",
"                                                        * * * * * * * * * , z.*.*                                               ",
"                                                * * * * &.:.%.%.%.%.%.%.:.3.9.f.f.*                                             ",
"                                              ; ; - > > 2.3.-.<.<.<.<.<.r.r.r.x.W.- -                                           ",
"                                        * * * w.^.z.f.7.2.s N F } } .._._._._.p.7.z.3.*                                         ",
"                                          * * >.f.d.9.3.E P D ] } X.)._._.`.|.#.@.d.:.*                                         ",
"                                      *     * e =.7.3.=.U Z } } } _._._._.'.+X|.[.7.&.*                                         ",
"                                        * : W.f.7.:.s B N Z } } } _._._..XOX+XOXOX[.@.6.- *                                     ",
"                                        ;.>.j.r.s r 0 M N Z F ] } ).)._. XOX+X+X+X}.#.p.1 =                                     ",
"                                      * l.E.X X X X # z M N N F } } .._._.'.+X+X+X+X X_.x X                                     ",
"                                  * ,.c.f.t.X G ].| C # # l N Z S } | | _.`.{.{.{.+X X_.x X                                     ",
"                                  * ,.R.d.5.O [  X_.J k k l N N N ] ] } )._._._.`.OX|._.x X                                     ",
"                                  * * * 2.7.=.9 X _._._._.X.z M N N D } } } } o._._._._.x X                                     ",
"                                *   * * 2.7.=.9 X _.).X.X...H R W N Z D D D D D D C [ _.x X                                     ",
"                              * *     * 2.7.=.9 X _.o.} } | _.^ =.N N N N N N v z X C _.x X                                     ",
"                                      * %.=.=.0 z # V _.D S } Q =.z m N N S } ] [ ,XF.# ..} X                                   ",
"                                    ; e &.=.=.0 x # v J D D F Q =.8 L N S F ......%Xv.v _.X.X                                   ",
"                                  * e 7.2.=.=.9 X z k X D ] N h =.=.E N ] | _._._.} } } .X].X                                   ",
"                                  * : 2.=.&.- 1   # # x l c s -.=.6.5.e.s ^ | )._.)...} `.'.].V X                               ",
"                                  > : ;.;.*.*     X # l o + =.=.:.7.5.5.1.Q } X._.oX[.] o._.XXV X                               ",
"                              * * &.;.d d d       X X X X + =.3.7.7.Q z N S } }  .4X*XN N m X X X                               ",
"                              * * : r d #X&Xd y 3 . . . q 1 3.7.7.g.s.e.Y S } G Z @X+.l l l                                     ",
"                              * * * < d 1X2Xd y 3 3 3 3 * ; 7.7.7.z.z.z.R S } M z X X X X X                                     ",
"                              * *       j a.2XK.d i.u.g 7 7 7.f.z.z.T.^.x.s.C F } _.|.OXz X                                     ",
"                                *       a d &XP.n.N.i.y.7 7 &.3.8.f.z.W.T.h.~ ' F $.v.}.I h                                     ",
"                                        3 6 d B.(.A.Z.b.y = * * * 7.d.z.~.~.z.~ Z z.p.} j.w.*                                   ",
"                                  d d d B.S.D.S.S.N.y.y Y T L U T ; : , 8.f.~.h.s.~.E.j.W.c.*                                   ",
"                                  a.a.a.C.D./.D.Z.u.g 7 Y ' Z H | w w w 2.7.T.x.x.T.T.x.~.l.*                                   ",
"                              d d 5X4X5Xm.j A.V.b.3 y j 7 4 } o._.} } } w * * q.~.* 6.^.^.l.*                                   ",
"                                  K.K.L.M.b.V.0.f Y P a 3 4 D } ..o.o.o.R P 8 s >.  *.>.W.l.*                                   ",
"                                  d d d N.C.b.f 3 ] Y 3 3 4 N F } _._._.| H N 9 *     * T.l.*                                   ",
"                                      X 2 3 3 & z X # z z v N N N } .._._.).} v X       * *                                     ",
"                                      X & 8 L B G X # z z z M N N F H J J H N z X       *                                       ",
"                                      X m Z } o._.o # z z z z M N N M z z l X                                                   ",
"                                        # z )._._.X.G o l z z z v v m M M m X                                                   ",
"                                        X x _._._.'.J X l c c c % % b b b b X                                                   ",
"                                        X x _._._.+XO.X 4 5 3 3 3 3 3 3 3 2                                                     ",
"                                          k M O. XA T / ( / 6 6 6 6 f u.n.u.2 +                                                 ",
"                                            X K OX# u i.H.a.t t t t j C./.C.3 .                                                 ",
"                                              o X X @ 5 I.-X:XI.G.G.( 5 5 5 3 .                                                 ",
"                                              o o o @ & _ F.J.L.K.Y.F.! ) ! 6 4 &                                               ",
"                                                    o X 4 5 5 F.=X:X%XG.L.F.5 5 5                                               ",
"                                                    o X A { { I i f m.;X>X-X$X$XI.5 5 5                                         ",
"                                                  o z n ] | } L 4 4 ) U.U.%X;X;X-X! ! ! 8                                       ",
"                                                  X C +X'.).} v X X @ 5 5 ) 3X<X:X=X=X=Xi 4                                     ",
"                                                  o v C M n v x o o O @ @ u k._ _ ( ( ( p 4                                     ",
"                                                    o X X X X o     o X X @ 5 5 5 5 5 5 5 4                                     ",
"                                                                                                                                ",
"                                                                                                                                ",
"                                                                                                                                ",
"                                                                                                                                ",
"                                                                                                                                ",
"                                                                                                                                ",
"                                                                                                                                ",
"                                                                                                                                ",
"                                                                                                                                ",
"                                                                                                                                ",
"                                                                                                                                "
};
