/* XPM */
static char *output_10[] = {
/* columns rows colors chars-per-pixel */
"64 64 191 2 ",
"   c None",
".  c #3C2E2C",
"X  c #382A2B",
"o  c #212C36",
"O  c #2A2C33",
"+  c #242C39",
"@  c #352E33",
"#  c #25333D",
"$  c #2E343B",
"%  c #3D3831",
"&  c #353536",
"*  c #3C322B",
"=  c #6A1C13",
"-  c #74251A",
";  c #7B2C1E",
":  c #762819",
">  c #7E301D",
",  c #562F2D",
"<  c #4A3122",
"1  c #453429",
"2  c #463C2E",
"3  c #4A3E2C",
"4  c #443125",
"5  c #563B28",
"6  c #402E30",
"7  c #523432",
"8  c #5B3836",
"9  c #583A39",
"0  c #433A30",
"q  c #612924",
"w  c #7F2F21",
"e  c #6A322A",
"r  c #713830",
"t  c #4D422E",
"y  c #5C412B",
"u  c #4D4737",
"i  c #584D39",
"p  c #5C513A",
"a  c #624A2D",
"s  c #6C4938",
"d  c #7A433A",
"f  c #6A563A",
"g  c #785A3B",
"h  c #7F603F",
"j  c #75613F",
"k  c #273640",
"l  c #293A44",
"z  c #2B3D48",
"x  c #283643",
"c  c #3E3A40",
"v  c #2D424C",
"b  c #2C444B",
"n  c #2F4550",
"m  c #2F4A50",
"M  c #314652",
"N  c #324B55",
"B  c #394B55",
"V  c #364F5B",
"C  c #35545B",
"Z  c #39535E",
"A  c #34565B",
"S  c #34444C",
"D  c #395560",
"F  c #3A5A64",
"G  c #3D5E68",
"H  c #365D60",
"J  c #3E626A",
"K  c #386063",
"L  c #3F7272",
"P  c #494648",
"I  c #55494B",
"U  c #444C54",
"Y  c #4B575C",
"T  c #4A5157",
"R  c #5A5B5C",
"E  c #585455",
"W  c #674542",
"Q  c #704E49",
"!  c #635943",
"~  c #6D5E54",
"^  c #74574F",
"/  c #6C6148",
"(  c #71684D",
")  c #7B7154",
"_  c #6F6355",
"`  c #40646E",
"'  c #47666A",
"]  c #5B6162",
"[  c #426771",
"{  c #446C74",
"}  c #4B6D72",
"|  c #46747A",
" . c #48767C",
".. c #497A7F",
"X. c #437175",
"o. c #766D63",
"O. c #68756F",
"+. c #6A7360",
"@. c #626E6B",
"#. c #802F22",
"$. c #843424",
"%. c #853822",
"&. c #8B3C26",
"*. c #8C3B2B",
"=. c #84392B",
"-. c #903D2D",
";. c #93432C",
":. c #9A4B2E",
">. c #97492B",
",. c #824A3D",
"<. c #8C4435",
"1. c #964430",
"2. c #994633",
"3. c #9C4A34",
"4. c #914E3A",
"5. c #9E5035",
"6. c #A04F37",
"7. c #A25333",
"8. c #AB5D36",
"9. c #A5533A",
"0. c #AB5B3A",
"q. c #B15F3F",
"w. c #AF653C",
"e. c #805345",
"r. c #9F5942",
"t. c #8D7144",
"y. c #947848",
"u. c #806A5D",
"i. c #976D52",
"p. c #87745C",
"a. c #B56541",
"s. c #BB6A43",
"d. c #B86742",
"f. c #AD724E",
"g. c #BA7345",
"h. c #A87351",
"j. c #8A7F60",
"k. c #C27345",
"l. c #C87B45",
"z. c #C57648",
"x. c #CB7C4A",
"c. c #9C834B",
"v. c #88815B",
"b. c #A38D4E",
"n. c #A79050",
"m. c #B19C55",
"M. c #B1A054",
"N. c #8C8163",
"B. c #948965",
"V. c #918568",
"C. c #968B6C",
"Z. c #9A9267",
"A. c #9C9171",
"S. c #A99F79",
"D. c #A39974",
"F. c #A8A17B",
"G. c #CE804B",
"H. c #C1804C",
"J. c #D2844C",
"K. c #C48050",
"L. c #DA8C50",
"P. c #DE9152",
"I. c #E29454",
"U. c #E79A56",
"Y. c #C7B95E",
"T. c #4A7E82",
"R. c #4D8387",
"E. c #4E8688",
"W. c #4E8B8B",
"Q. c #498986",
"!. c #538182",
"~. c #508E8E",
"^. c #4F9590",
"/. c #529492",
"(. c #539A96",
"). c #549D99",
"_. c #56A49E",
"`. c #57A9A1",
"'. c #57A9A1",
"]. c #909B9B",
"[. c #B4AC81",
"{. c #BDB68A",
"}. c #8EA1A2",
"|. c #C2BC8D",
" X c #CCC799",
".X c #D6D496",
"XX c #C6C18C",
"oX c #F8DD8A",
"OX c #D8D7AF",
"+X c #E6E6B9",
"@X c #D4DBD4",
/* pixels */
"                                                                                                                                ",
"                                                                                                                                ",
"                                                                                                                                ",
"                                                                                                                                ",
"                                                      =                                                                         ",
"                                                  = &.s.; = = = = = = = = =                                                     ",
"                                                  &.5.s.&.; - - - - - - ; ;                                                     ",
"                                              = = I.G.9.9.9.-.-.-.-.-.-.9.3.= = = = =                                           ",
"                                            = ;.8.s.i.O.O.O.@.] R R E I <.2.;.7.8.k.7.= = =                                     ",
"                                            = 3.k.r.u.E.E.R.R.| [ [ G Z d <.9.a.z.P.8.= = =                                     ",
"                                            = *.9.!./.`.~.R.R.R.R.[ [ [ Z U -.3.9.-.w =     =                                   ",
"                                          - &.e.o./.).`.(./.R.R.R.[ [ [ Z U W ,.3.3.7.8.;                                       ",
"                                        = - 9.o.R.`.`.`.`._.R.R.R.[ [ [ Z V V s -.9.k.U.> =                                     ",
"                                        O $ !./._.`.`.`.~.E.R.| [ [ G Z V N z $ O O $ & H.k.=                                   ",
"                                        o l R.(.`.).).).E.R.T.{ [ J F V M v l b m C b o g.k.;.$.                                ",
"                                        o l R.(.`.E.R.R.R.T.[ [ [ V V V # o o J E.`.L o 4.a.U.>.=                               ",
"                                        o l R.E.~.R.T.{ { { [ G D V N v J [ [ ..R.N P r 5.6.&.: =                               ",
"                                        o l R.T.....| ` ` ` ` H V U B n | R.R.R.R.o 7 -.9.2.= = =                               ",
"                                        o l R.C o z b V V V V V V -.^ R.{ [ [ ..R.o 7 -.9.2.=     = =                           ",
"                                      o A H C +.B.Z D G Z V V N M -.^ | G J  .J A # 9 -.2.*.=                                   ",
"                                      o { | o Z.oX} [ [ D V V M z -.Q [ Z F R.N o z 9 -.-.$.=                                   ",
"                                      o Q.).` } } R.R.R.{ J V W *.-.W Z J F # l z o 7 -.-.1.9.w =                               ",
"                                    b A E./.[ { | R.R...] E E ,.2.-.d I Z N # k x o , $.*.;.3.; =                               ",
"                                  o A `.W.R.[  .R.R...[ d 1.9.9.9.-.-.-.@ # z # o     = *.-.-.: =                               ",
"                                  o # m H F D }.@X| { [ T P P ,.9.6.2.-.@ o # + o       - - - #.$.=                             ",
"                                  o o o v N N ].@X` ` [ D B P e.0.9.3.;.6 O k k #       = = = $.=.= =                           ",
"                                        o o o o o z N [ D E z.z.z.9.9.9.- q [ [ ` o o   = =   = = = =                           ",
"                                        o # X.J F Z D F _ i.L.x.z.d.q.9.;.=.9 '  .N v o           = =                           ",
"                                        o b `./.R.[ G V h.x.U.J.z.z.s.9.9.3.= R R.[ N o           = =                           ",
"                                      = 0.f.[ p.z.Z ~ z.P.I.z.a.9.= = = = e R.(._.R. .` # o                                     ",
"                                      = w.K.o.h.J.~ i.J.J.z.7.:.*.8 8 8 8 I R./.(.R...[ # o                                     ",
"                                      = l.I.z.L.U.z.J.U.a.3.= = = [ [ [ [ { R.R.R.R...[ # o                                     ",
"                                      = l.U.I.8.%.L.g.%.; e Y Y Y T.| [ b l z [ R.{ { [ V v o                                   ",
"                                      = l.I.J.:.= G.0.q q 8 { { { T.| ` l + + H | [ ` ` Z M o                                   ",
"                                      = l.J.=     = , V J { R.R.R.[ G V b z z # + [ G V V M o                                   ",
"                                        >.:.      X c G | T.R...| F D V b z z # o b N V V N v k o                               ",
"                                        = =       o v [ T.R.R.| [ V V V v z z # o o l V V V V l o                               ",
"                                                  3 % o l z z M V V M z z z z # o     o G J V l o                               ",
"                                                  ! u o z n n M M M v z z z k # o   v N { { F l o                               ",
"                                              3 3 N._ o M V V n z z z z z l o     o C R.R.T.[ b o                               ",
"                                            3 / p.V.A.F.p 1 1 1 1 1 1 1 1 * o     o K _.E.R.T.m o                               ",
"                                            i ) C.A.D.S.j a a a a y 5 5 5 3 O     o H W.W.R.X.m o                               ",
"                                        3 i V.A.S.|.B.< M.Y.m.m.m.c.t.h h g < .       o ^.Q.o                                   ",
"                                      3 ) j.D.[.XX) f < b.M.y.c.b.s a y y y .         + A A                                     ",
"                                      t B.F.F.|..Xt 3 < c.n.g t.y.< < < < 4             o o                                     ",
"                                  3 / S.{.XX.Xv.3   . < t.t.< @ o V V V V M o +                                                 ",
"                                  ( N.[. X XZ.( 0   @ . f f % $ # b M V H C o +                                                 ",
"                              3 3 D.[.|.+XOX3 %     + o 4 1 z z z o l V ` F o +                                                 ",
"                            3 3 3 i p p ! !         + o S B V v z o v ` [ F o +                                                 ",
"                            3 3 3 2 2 2 2 2       + z m H F D b l o b [ { ` m z +                                               ",
"                                                  o A `.W.T.[ b o o b [ T.W.`.A o                                               ",
"                                                  + b A N m b x + + x b m N A b +                                               ",
"                                                    + o o o o +     + o o o o +                                                 ",
"                                                                                                                                ",
"                                                                                                                                ",
"                                                                                                                                ",
"                                                                                                                                ",
"                                                                                                                                ",
"                                                                                                                                ",
"                                                                                                                                ",
"                                                                                                                                ",
"                                                                                                                                ",
"                                                                                                                                ",
"                                                                                                                                "
};
