/* XPM */
static char *output_04[] = {
/* columns rows colors chars-per-pixel */
"64 64 191 2 ",
"   c None",
".  c #2F292F",
"X  c #3B2F2A",
"o  c #332F2E",
"O  c #35302E",
"+  c #212C36",
"@  c #2B2C33",
"#  c #232C39",
"$  c #312F35",
"%  c #25333D",
"&  c #2E363E",
"*  c #383837",
"=  c #3B3B3B",
"-  c #33393F",
";  c #6A1C13",
":  c #5C211C",
">  c #76271A",
",  c #67261E",
"<  c #4E2423",
"1  c #542926",
"2  c #4A3221",
"3  c #43342A",
"4  c #45382E",
"5  c #4A3F2C",
"6  c #453327",
"7  c #543A26",
"8  c #553B28",
"9  c #5E302D",
"0  c #4E3436",
"q  c #793526",
"w  c #4C412E",
"e  c #5D432C",
"r  c #54402F",
"t  c #48433B",
"y  c #544A34",
"u  c #574836",
"i  c #5F553C",
"p  c #61482D",
"a  c #694C32",
"s  c #7E4136",
"d  c #6E5435",
"f  c #6D5B33",
"g  c #61563F",
"h  c #735639",
"j  c #765B3B",
"k  c #7D5F3E",
"l  c #74633A",
"z  c #7E613E",
"x  c #766337",
"c  c #273640",
"v  c #273942",
"b  c #293B45",
"n  c #2B3D48",
"m  c #283542",
"M  c #333D43",
"N  c #2E434D",
"B  c #2C444B",
"V  c #3E4344",
"C  c #38454A",
"Z  c #2F4450",
"A  c #2E4B51",
"S  c #304651",
"D  c #334B55",
"F  c #364F5B",
"G  c #3B4850",
"H  c #35535B",
"J  c #38535E",
"K  c #34585C",
"L  c #3A5560",
"P  c #3B5A64",
"I  c #3E5F69",
"U  c #3E626B",
"Y  c #3D6D6E",
"T  c #3F7272",
"R  c #454749",
"E  c #55484A",
"W  c #474C52",
"Q  c #514F52",
"!  c #495558",
"~  c #58575A",
"^  c #4B534A",
"/  c #6B4440",
"(  c #704E49",
")  c #645A42",
"_  c #685D5A",
"`  c #4C625E",
"'  c #6A6146",
"]  c #6D6249",
"[  c #76694A",
"{  c #766D52",
"}  c #776453",
"|  c #7E735A",
" . c #68615E",
".. c #405F65",
"X. c #525E63",
"o. c #41646E",
"O. c #4B6269",
"+. c #5E6262",
"@. c #426771",
"#. c #436B74",
"$. c #566F70",
"%. c #417575",
"&. c #46737A",
"*. c #48767C",
"=. c #457C7C",
"-. c #49797F",
";. c #4C7372",
":. c #597777",
">. c #6E726B",
",. c #813023",
"<. c #8A3D24",
"1. c #903D2D",
"2. c #8A3E30",
"3. c #94432D",
"4. c #874033",
"5. c #954230",
"6. c #9D4B36",
"7. c #9A4733",
"8. c #A6543B",
"9. c #AD5B3E",
"0. c #A65837",
"q. c #82673E",
"w. c #B4673B",
"e. c #9A5642",
"r. c #846641",
"t. c #8A7244",
"y. c #907446",
"u. c #967E48",
"i. c #956751",
"p. c #877A59",
"a. c #936853",
"s. c #B26140",
"d. c #BA6943",
"f. c #B16E4B",
"g. c #877E62",
"h. c #957C62",
"j. c #C67648",
"k. c #C17348",
"l. c #45807E",
"z. c #63827C",
"x. c #9D824C",
"c. c #958348",
"v. c #A38A4F",
"b. c #A1874E",
"n. c #A68D50",
"m. c #A68F56",
"M. c #AF9A54",
"N. c #B19B55",
"B. c #B3A455",
"V. c #B9AB57",
"C. c #928568",
"Z. c #978A6A",
"A. c #9C906F",
"S. c #9E9574",
"D. c #8E8664",
"F. c #A69B7C",
"G. c #A99F79",
"H. c #A49875",
"J. c #ACA579",
"K. c #B5B07D",
"L. c #CE804A",
"P. c #D3844E",
"I. c #DA8B50",
"U. c #E79A56",
"Y. c #C4B75D",
"T. c #4B7E82",
"R. c #4C8386",
"E. c #4E8C8C",
"W. c #4A8786",
"Q. c #518E8E",
"!. c #4E928E",
"~. c #519392",
"^. c #529A96",
"/. c #539C98",
"(. c #66978C",
"). c #6C9F90",
"_. c #619E94",
"`. c #668B82",
"'. c #55A39D",
"]. c #57A9A1",
"[. c #B2AA81",
"{. c #B1A78D",
"}. c #BCB588",
"|. c #BEB69E",
" X c #C3BD8E",
".X c #CBC699",
"XX c #D1CD93",
"oX c #CECA92",
"OX c #DFDCCA",
"+X c #EEEED1",
"@X c #F8F7EB",
/* pixels */
"                                                                                                                                ",
"                                                                                                                                ",
"                                                                                                                                ",
"                                                                                                                                ",
"                                                                                                                                ",
"                                                ; ;                                                                             ",
"                                                <.<.                                                                            ",
"                                              ; w.U.; ;                                                                         ",
"                                        + : > 0.L.U.0.3.; . +                                                                   ",
"                                        % 1 q j.I.U.j.0., $ %                                                                   ",
"                                    + N @.T.z.j.I.U.j.h.R.#.P +                                                                 ",
"                                    D P *.Q.`.j.L.I.j.C.~.T.#.D b                                                               ",
"                                + + o.&.R.'.).j.j.j.j.Z.].E.T.@.N +                                                             ",
"                              + D U R.Q.'.a.s.j.j.j.j.j.f.z.R.R.#.U + +                                                         ",
"                              + D @.R.~.].i.9.j.j.j.d.k.j.`.Q.R.&.o.+ +                                                         ",
"                + + + + +     + D @.R.~.].i.9.j.j.j.8.s.j.).'.R.&.o.+ +   + + + + +                                             ",
"                + + l.=.@.B + + D @.R.~.].i.9.j.d.9.+.} 9.(.'.R.&.o.+ + + U %.W.A +                                             ",
"                  + !.!.R.D % + D @.R.Q._.i.9.k.s.8.O._ e.(.'.R.&.o.+ % m *.R.^.K +                                             ",
"                    + B @.T.*.+ D @.R.>.8.8.8.8.8.8.1.( @./.'.R.&.o.+ H R.#.P +                                                 ",
"                      b D @.#.n L @.R.>.8.6.6.8.8.8.1.( @.E.~.R.&.@.n L *.D N                                                   ",
"                        + P o.D I @.R.>.8.5.5.8.8.8.1.( @.T.R.R.&.@.D P @.% +                                                   ",
"                        + P @.@.@.@.@. .8.Q Q 8.8.8.8.6.4.:.T.@.@.@.@.I H % +                                                   ",
"                        + D H H I @.@._ 6.! ! 6.8.8.8.6.1.$.*.@.@.@.H D N %                                                     ",
"                          + + + D @.@.~ 1.X.X.1.6.8.8.6.1.X.@.@.@.o.+ + +                                                       ",
"                              + N L @.O.X...! 1.6.8.5.5.1.X.@.@.I J + +                                                         ",
"                              + n D o.o.o.L W 1.6.8.1.2.4.~ O.o.L D + +                                                         ",
"          f f f           + + + m n D D D D W 1.6.8.1./ D s s D N b + + +                                                       ",
"          f [ |.S.f 2 2 2 X O m m % S D D D W 1.5.7.1./ D E E S b % D P %.b                                                     ",
"          f [ @X{.f 2 2 2 2 6 n % + n N D D W 1.1.1.1./ D D D n % + @.R.].B +                                                   ",
"              l {.+Xl z u.r.h 2 * n + + + + . ; ,.1.; < + + + + H @.R.~.].'.W.+                                                 ",
"              p C.|.c.c.n.y.q.2 = N b m % % $ ; ,.1.; < % % % b H I -.E.^.^.E.K N                                               ",
"              2 e f Y.Y.N.b.y.2 V D D D n n - ; ,.1.; 1 n n N F D H @.*.R.R.E.].K +                                             ",
"        f f x B.B.V.B.M.b.d u ;...D U P D D D R 9 > R G D D H o.L D L I #.#.*.E.E.W.+                                           ",
"        p.p.p.V.Y.Y.M.b.t.p r ;...D @.U J J J D 0 : F H J J P @.P D D H I I @.T.~.^.+ +                                         ",
"    f A.@X@XOXf u.N.x.q.2 h h 2 V D @.@.@.@.o.F S n F P @.@.@.@.P D + + + b D @.-.R.n m +                                       ",
"      p.F.F.H.c.x.v.d ) ` u e 2 = S P I @.I L D D D F J P o.o.P D N + +   % N -.E.^.=.=.%.v                                     ",
"        f f x N.n.x.2 ^ R.t 2 2 * n D P @.L D D D D F H H o.o.D Z n + +   + B R./.].].].].b +                                   ",
"              2 2 2 o.I D % +   + + n Z H D D D Z n F F F F D n % +       + A ].K + + U ].b +                                   ",
"              X t ^ I J N % +   + + n N D D D D D S D D H D S n % +       + N %.C o t ! %.% +                                   ",
"              + P R.J N +       + + n n n D D D D D D D H N n n % +           + X 2 z u + + +                                   ",
"          + v !.E.R.v %             3 6 6 M N D S B D D N 4 6 6                     7 d t.| { 5                                 ",
"          + b ].^.E.N b             2 2 8 * M G C - G C M 5 7 2                     2 j m.C.p.u                                 ",
"          + b ].].].R.U +           2 e z 8 2 2 2 2 2 2 2 h h 2 X                   5 p. XZ.C.C.g 5                             ",
"              K W.].H S         # # V t e a d z q.t.z h a p r V & #                   ' { J.G.C.| [ 5                           ",
"              + Y '.% +         + + D V 2 h r.x.n.M.x.y.k 8 4 H b +                     5 [.[.C.C.g.w w                         ",
"                + +             # + o.I D 4 7 z z z z a 2 G L @.N +                       5 ]  X[.G.C.] 5                       ",
"                  +             # + o.U P * 4 a a a a 8 X J I @.N +                         ) D.J.}.A.p.[                       ",
"                                # + o.@.@.v @ 2 2 2 2 X + I @.@.N +                           5 J.XXG.G.G.y 5                   ",
"                                # + T.*.@.v +         @ + I #.T.D +                             i ' XXoX}.A.p.5                 ",
"                              # B A E.R.#.b +         # + U *.E.U A #                           5 y K. X.X[.Z.g                 ",
"                              + T ].].^.R.n +         # + &.E.].].'.+ #                             5 S.+X.X}.G.) 5             ",
"                              # A K K H D m #           # N D K K K #                                 { g.{ [ ' y 5 5           ",
"                                # + + + +                 + + + + +                                     w 5 5 5 5 5 5           ",
"                                                                                                                                ",
"                                                                                                                                ",
"                                                                                                                                ",
"                                                                                                                                ",
"                                                                                                                                ",
"                                                                                                                                ",
"                                                                                                                                ",
"                                                                                                                                ",
"                                                                                                                                ",
"                                                                                                                                ",
"                                                                                                                                "
};
