/* XPM */
static char *output_03[] = {
/* columns rows colors chars-per-pixel */
"64 64 203 2 ",
"   c None",
".  c #322D2E",
"X  c #3A2F2A",
"o  c #212C36",
"O  c #232B39",
"+  c #292C34",
"@  c #25323C",
"#  c #2F373B",
"$  c #353738",
"%  c #343032",
"&  c #6A1C13",
"*  c #5A221B",
"=  c #56291C",
"-  c #4F2E1F",
";  c #6A251A",
":  c #7B2D1D",
">  c #7E301D",
",  c #402A28",
"<  c #582925",
"1  c #4A3121",
"2  c #45352A",
"3  c #4A3F2C",
"4  c #453529",
"5  c #553B27",
"6  c #473937",
"7  c #5A3734",
"8  c #632821",
"9  c #6C372D",
"0  c #5D442B",
"q  c #54432E",
"w  c #494438",
"e  c #564936",
"r  c #4D422E",
"t  c #614A2D",
"y  c #6A4638",
"u  c #7D473B",
"i  c #6D5B33",
"p  c #695437",
"a  c #745639",
"s  c #78593B",
"d  c #75623A",
"f  c #7E633C",
"g  c #766337",
"h  c #273741",
"j  c #293B45",
"k  c #2B3E48",
"l  c #283742",
"z  c #333E43",
"x  c #4A3C40",
"c  c #2D424C",
"v  c #2F484F",
"b  c #394549",
"n  c #2F4B51",
"m  c #2F4550",
"M  c #324B55",
"N  c #364F5B",
"B  c #354B56",
"V  c #325357",
"C  c #35535B",
"Z  c #39535D",
"A  c #37595B",
"S  c #395661",
"D  c #3B5A64",
"F  c #3D5E69",
"G  c #3E636B",
"H  c #3D6E6E",
"J  c #3B6066",
"K  c #3F7272",
"L  c #42444B",
"P  c #494B44",
"I  c #5A4849",
"U  c #4A524A",
"Y  c #49575A",
"T  c #585B59",
"R  c #535152",
"E  c #454D55",
"W  c #6B4A46",
"Q  c #724A43",
"!  c #655B43",
"~  c #755449",
"^  c #665C59",
"/  c #7E5B50",
"(  c #4C625E",
")  c #6C6148",
"_  c #776845",
"`  c #786456",
"'  c #7D7355",
"]  c #7C7358",
"[  c #68605D",
"{  c #485B62",
"}  c #41656E",
"|  c #4E6066",
" . c #546869",
".. c #426771",
"X. c #436C74",
"o. c #4A6B70",
"O. c #427375",
"+. c #46737A",
"@. c #48767B",
"#. c #49797F",
"$. c #4A7676",
"%. c #587678",
"&. c #7A6C61",
"*. c #6B726F",
"=. c #853923",
"-. c #883A23",
";. c #903D2D",
":. c #9C4E2E",
">. c #95462C",
",. c #894836",
"<. c #984632",
"1. c #924C36",
"2. c #9E5234",
"3. c #8B4D33",
"4. c #A14F38",
"5. c #A5543B",
"6. c #A85937",
"7. c #83693E",
"8. c #B3653B",
"9. c #955542",
"0. c #815B4F",
"q. c #846641",
"w. c #9A644D",
"e. c #8C7243",
"r. c #877140",
"t. c #957A48",
"y. c #82685A",
"u. c #8B6551",
"i. c #887B58",
"p. c #A66A4A",
"a. c #BB6B44",
"s. c #B46341",
"d. c #AB714E",
"f. c #A97251",
"g. c #C27346",
"h. c #C67648",
"j. c #CC7D4A",
"k. c #C97C46",
"l. c #45807E",
"z. c #70887A",
"x. c #9D834C",
"c. c #978548",
"v. c #A3894E",
"b. c #A68D50",
"n. c #AC9553",
"m. c #B19C55",
"M. c #A6924F",
"N. c #B7A856",
"B. c #8D8565",
"V. c #948969",
"C. c #9A926C",
"Z. c #9D9472",
"A. c #808D77",
"S. c #A49A77",
"D. c #A6A37C",
"F. c #CE804A",
"G. c #D2844C",
"H. c #D7884F",
"J. c #DB8C51",
"K. c #C98350",
"L. c #E29454",
"P. c #E79A56",
"I. c #C4B75D",
"U. c #C5B477",
"Y. c #CCC060",
"T. c #4A7E82",
"R. c #737F82",
"E. c #4D8386",
"W. c #4D8688",
"Q. c #4E8B8B",
"!. c #478481",
"~. c #508E8E",
"^. c #5A8586",
"/. c #4E918E",
"(. c #50908F",
"). c #519492",
"_. c #529A96",
"`. c #549E9A",
"'. c #4F9590",
"]. c #6C8687",
"[. c #69938D",
"{. c #55A49D",
"}. c #57A9A1",
"|. c #818E83",
" X c #A8AA83",
".X c #B3AB82",
"XX c #B1A78D",
"oX c #BEBA8B",
"OX c #BBB488",
"+X c #BEB69E",
"@X c #879EA0",
"#X c #C3BD8E",
"$X c #C5BA80",
"%X c #C5BF90",
"&X c #C9C58E",
"*X c #D3CF98",
"=X c #EBD285",
"-X c #C8C6A0",
";X c #EBEBBE",
":X c #D5DCD5",
">X c #DFDCCA",
",X c #EBE9DB",
"<X c #F9F8EC",
/* pixels */
"                                                                                                                                ",
"                                                                                                                                ",
"                                                                                                                                ",
"                                                                                                                                ",
"                                                                                                                                ",
"                                                                          & &                                                   ",
"                                                                          =.>.                                                  ",
"                                                                        & 8.P.& &                                               ",
"                                                                  o * : 6.F.P.6.>.& . o                                         ",
"                                                                  @ < > g.H.L.g.2.; % @                                         ",
"                                                              o c ..T.%.5.a.h.5.y.E.X.D o                                       ",
"                                                              M S @.E.^.&.w.s.&.*.E.#.X.M j                                     ",
"                                                          o o } +.E.E.E.E.y.5.E.E.E.E.T...c o                                   ",
"                                                        o M G E.E.E.`.`.E.y.5.E.).{.Q.E.E.X.G o o                               ",
"                                                        o B ..E.W.(.{.{.(.*.u.(._.}.).Q.E.+.} o o                               ",
"                                          o o o o o     o B ..E.).}.}.}.}.).E.}.}.}.}.{.E.+.} o o   o o o o o                   ",
"                                          o o l.#...c o o B ..E.W.~.{.}.}.{.`.}.}.}.).Q.E.+.} o o o G O.!.n o                   ",
"                                            o /./.E.M @ o M } T.E.E.`.{.{.{.{.{.{.{.W.E.E.X.} o @ h @.W._.C o                   ",
"                                              o c ..T.@.o c N ..+.E.E.T...#.E...+.E.E.T...S N o C E.X.S o                       ",
"                                                j M ..o.7 L N C C C X.+.D +.E.D } @.S C C C N 7 R @.N v                         ",
"                                                  o S | ;.I N k h o D } N X.E.N D ..h @ k M N ;.W ..@ o                         ",
"                                                  o M E ;.I N } A.=XU k E.).}.E.J @ U.$X} S N ;.W C @ o                         ",
"                                                  o k b <.Q I } z.oXY B ).`.}.).O.c D. X..Y I <.y c @                           ",
"                                                    o $ 5.<.;.} +.E.X.+.}.}.}.}.Q...T.T...Q ;.5.y o                             ",
"                                                    * 8 a.6.4.u ^ E.F C n !.}.n N S T.%.u 1.4.a.1.*                             ",
"                                                    > -.h.s.9.,.` [.} N @ H '.@ k Z ^.].,.1.9.h.6.>                             ",
"                                                  & k.L.h.` N ..@X<X].} N j o N D ..:X:X..S Z h.H.P.> &           i i i         ",
"                                              o . , 3.6.J.p.~ ..%.|.Y c j @ o j c m *.R...^ ~ J.g.4.; = 1 1 1 i Z.+X_ i         ",
"                                              o o o * > P.g.5.} C o o o o o o o o o o j ..0.5.P.8.& - 1 1 1 1 i XX<X_ i         ",
"                                          o o `._.E.X.{ ; 2.h.5./ } #.W.{.{.{.{.).E.X.| 5.a.g.; * 1 a q.t.f d ,XXXd             ",
"                                          B A ).Q.#.X.{ & 6.G.s.w.[ $.T.W.[.|.W.E.#.[ ` s.h.F.& * 1 7.e.b.c.c.+XB.t             ",
"                                        o H }.W.#.....{ & 8.P.h.a.5. .} N u.h.N D ..9.6.h.J.L.& * 1 e.v.m.I.I.i 0 1             ",
"                                    o @ D @.Q.X.X...v j L 9 =.J.G.a.d.f.p.K.L.p.d.f.a.h.L.6.=. . .$.e p v.m.N.N.N.N.g i i       ",
"                                    j c X.@.T.G F D j @ M 6 8 j.F.j.a.a.j.J.P.j.g.8.h.j.G.3.< @.$.$.q t e.v.m.I.I.N.i.i.i.      ",
"                                  o ..E.E.@...c l o     o c N & :.P.=.=.P.P.P.P.8.& G.j.& x N k $ 1 s a 1 7.x.m.t.i >X<X<XC.i   ",
"                              o n O./._._.W.#.S M o     o M F T ~ :.7 7 :.k.P.:.u 6 3.1.T { D @ % 1 0 e ( ! p b.x.c.S.S.S.i.    ",
"                              o V }.}.}.}.).E...C o     o B ..E.T & L L & 8.P.& 7 N 8 9 E.+.} o . 1 1 w E.P 1 x.b.m.g i i       ",
"                              o V }.B o o H }.@ o         o o } +.E.E.#.N 7 & N G E.E.T...c o       o h N F } 1 1 1             ",
"                              % b O.U 6 . A O.@           o o Z F X.X...M 6 < M S X.X...S j o       o @ c Z D U w X             ",
"                              3 $ o p s 1 . o             o o j v N C N k k k k m N N B k @ o           o c C E.S O             ",
"                            3 ] B.D.! q                       4 2 2 z c N c k B M c 6 2 4                 @ l E.W./.j o         ",
"                          e e V.S.D.) 3                       1 1 5 $ z b b z b b z 3 5 1                 j v Q._.}.j o         ",
"                    3 3 3 ) B.oXZ.3                           1 0 f 5 1 1 1 1 1 1 1 a a 1 X             o G W.}.}.}.j o         ",
"                  3 ) ' i.C..X' )                         O O b w 0 y p f 7.e.f f f e.7.1 . O             v C }.!.A             ",
"                  r ' V.D..X#Xe 3                         O o N b 1 a q.x.M.m.x.x.t.x.e.1 . o             o @ {.H o             ",
"              3 ! S.OX%X*XV.3                             O o } F N 2 0 m.m.m.m.r.1 x.c.1 . o                 o o               ",
"              ' B..X#X&XC.' 3                             O o } } D $ 2 7.M.N.7.p X d _ P # o                 o                 ",
"        3 3 3 .X#X#X*X&X3                                 O o } ....j + 1 c.Y.1 X o 4 6 ..c o                                   ",
"    3 r C.S..X#X*X;XB.p                                   O o T.@...j o   q 0   + o m Z E.M o                                   ",
"    3 r V.C.S.S..X-X] 3                                 O c n Q.E.X.j o   , 1   O o C } ~.J n O                                 ",
"  3 3 3 3 3 3 3 3 3                                     o K }.}._.E.c o         O o @.Q.}.}.{.o O                               ",
"                                                        O n A A V M l O           O v B A A C O                                 ",
"                                                          O o o o o                 o o o o o                                   ",
"                                                                                                                                ",
"                                                                                                                                ",
"                                                                                                                                ",
"                                                                                                                                ",
"                                                                                                                                ",
"                                                                                                                                ",
"                                                                                                                                ",
"                                                                                                                                ",
"                                                                                                                                ",
"                                                                                                                                ",
"                                                                                                                                "
};
