/* XPM */
static char *output_09[] = {
/* columns rows colors chars-per-pixel */
"64 64 188 2 ",
"   c None",
".  c #382C2C",
"X  c #3D332C",
"o  c #212C36",
"O  c #2B2C33",
"+  c #242C39",
"@  c #362F34",
"#  c #25333D",
"$  c #2E343B",
"%  c #3C3634",
"&  c #323438",
"*  c #363631",
"=  c #6A1C13",
"-  c #74251A",
";  c #7A2B1E",
":  c #762819",
">  c #7E301D",
",  c #562F2D",
"<  c #443125",
"1  c #4A3122",
"2  c #453429",
"3  c #4A3E2C",
"4  c #463D2E",
"5  c #563B28",
"6  c #402E30",
"7  c #523432",
"8  c #5B3634",
"9  c #583B3A",
"0  c #473E33",
"q  c #612924",
"w  c #7F2F21",
"e  c #6A322A",
"r  c #713830",
"t  c #4E432F",
"y  c #5C412B",
"u  c #554A38",
"i  c #624A2D",
"p  c #6C4938",
"a  c #7A433A",
"s  c #60563E",
"d  c #6C5637",
"f  c #785A3B",
"g  c #7F603F",
"h  c #273640",
"j  c #293A44",
"k  c #2B3D48",
"l  c #283643",
"z  c #3E3A40",
"x  c #2D424D",
"c  c #294047",
"v  c #2F4550",
"b  c #2F4A50",
"n  c #314652",
"m  c #324B55",
"M  c #394B55",
"N  c #364F5B",
"B  c #35535C",
"V  c #39535E",
"C  c #365A5E",
"Z  c #325357",
"A  c #34444C",
"S  c #395560",
"D  c #3B5A64",
"F  c #3D5E68",
"G  c #3E636B",
"H  c #386264",
"J  c #3F7272",
"K  c #494648",
"L  c #55494B",
"P  c #444C54",
"I  c #4B575C",
"U  c #4A5157",
"Y  c #545557",
"T  c #5A5B5C",
"R  c #5D5454",
"E  c #674542",
"W  c #704E49",
"Q  c #6D5E54",
"!  c #74574F",
"~  c #74674E",
"^  c #766753",
"/  c #736A53",
"(  c #40646E",
")  c #4E6165",
"_  c #5B6162",
"`  c #426771",
"'  c #446C74",
"]  c #4B6D72",
"[  c #46737A",
"{  c #48767C",
"}  c #497A7F",
"|  c #45787A",
" . c #626E6B",
".. c #766D63",
"X. c #68756F",
"o. c #6A7360",
"O. c #802F22",
"+. c #843324",
"@. c #863822",
"#. c #8B3D26",
"$. c #883628",
"%. c #8C3B2B",
"&. c #813C2E",
"*. c #903D2D",
"=. c #93432C",
"-. c #9A4B2E",
";. c #97492B",
":. c #824A3D",
">. c #8C4435",
",. c #964430",
"<. c #994633",
"1. c #9C4A34",
"2. c #914E3A",
"3. c #9E5039",
"4. c #A04F37",
"5. c #A25333",
"6. c #AB5D36",
"7. c #A5533A",
"8. c #AB5B3A",
"9. c #B15F3F",
"0. c #AF653C",
"q. c #805345",
"w. c #9F5942",
"e. c #8D7144",
"r. c #947848",
"t. c #806A5D",
"y. c #976D52",
"u. c #81755B",
"i. c #8A765C",
"p. c #B56541",
"a. c #B96843",
"s. c #AD724E",
"d. c #BA7345",
"f. c #A87351",
"g. c #8B7E62",
"h. c #C27345",
"j. c #C87B45",
"k. c #C57648",
"l. c #CB7C4A",
"z. c #9C834B",
"x. c #88815B",
"c. c #A38D4E",
"v. c #A79050",
"b. c #B19C55",
"n. c #B1A054",
"m. c #8E8364",
"M. c #918568",
"N. c #948A67",
"B. c #9A9267",
"V. c #A59D76",
"C. c #A99F79",
"Z. c #A09572",
"A. c #AAA278",
"S. c #CE804B",
"D. c #C1804C",
"F. c #D2844C",
"G. c #C48050",
"H. c #DA8C50",
"J. c #DE9152",
"K. c #E29454",
"L. c #E79A56",
"P. c #C7B95E",
"I. c #4A7D82",
"U. c #4D8387",
"Y. c #4E8688",
"T. c #4E8B8B",
"R. c #498885",
"E. c #538182",
"W. c #508E8E",
"Q. c #529492",
"!. c #539A96",
"~. c #549D99",
"^. c #56A59E",
"/. c #57A9A1",
"(. c #57A9A1",
"). c #909B9B",
"_. c #B3AB82",
"`. c #BFB88B",
"'. c #BDB688",
"]. c #BBB893",
"[. c #8EA1A2",
"{. c #C3BE8A",
"}. c #C6C190",
"|. c #D8D698",
" X c #F8DD8A",
".X c #D5D3AA",
"XX c #E0DEB2",
"oX c #D4DBD4",
/* pixels */
"                                                                                                                                ",
"                                                                                                                                ",
"                                                                                                                                ",
"                                                                                                                                ",
"                                                                                                                                ",
"                                                  = = = = = = = = = = = = =                                                     ",
"                                                  #.@.; ; ; - - - - - - ; ;                                                     ",
"                                              = = K.S.7.7.7.*.*.*.*.*.*.7.1.= = = = =                                           ",
"                                            = =.6.a.y.X.X.X. ._ T T Y L >.<.=.5.6.h.5.=                                         ",
"                                            = 1.h.w.t.Y.Y.U.U.{ ` ` F V a >.7.p.k.J.6.=                                         ",
"                                            = %.7.E.Q.(.W.U.U.U.U.` ` ` V P *.1.7.*.w = = =                                     ",
"                                          - $.q...Q.~.(.!.Q.U.U.U.` ` ` V P E :.1.1.5.6.- =                                     ",
"                                        = - 7...U.(.(.(.(.^.U.U.U.` ` ` V N N p *.7.h.L.> =                                     ",
"                                        O $ E.Q.^.(.(.(.W.Y.U.{ ` ` F V N m k $ O O & & D.h.=                                   ",
"                                        o j U.!.(.~.~.~.Y.U.I.' ` G D N n x j x b Z c o d.h.=.+.                                ",
"                                        o j U.!.(.Y.U.U.U.I.` ` ` N N N # o o G Y.(.J o 2.p.L.;.=                               ",
"                                        o j U.Y.W.U.I.[ [ ' ` F S N m x G ` ` { U.m K r 3.4.#.: =                               ",
"                                        o j U.I.} { [ ( ( ( ( S N P M v { U.U.U.U.o 7 *.7.<.= = =                               ",
"                                        o j U.Z o k x N N N N N N *.! U.' ` ` { U.o 7 *.7.<.= = =                               ",
"                                      o B S B o.N.V S F V N N m n *.! { F G { G B # 9 *.<.%.= =   =                             ",
"                                      o ' { o B. X] ` ` S N N n k *.W ` V D U.m o k 9 *.*.+.=     = =                           ",
"                                      o R.~.( ] ] U.U.U.' G N E %.*.E V G D # j k o 7 *.*.,.7.w =                               ",
"                                    x B T.Q.` ' [ U.U.{ _ R R :.<.*.a L V m # h l o , +.%.=.1.; =                               ",
"                                  o B (.T.U.` { U.U.{ ` a ,.7.7.7.*.*.*.@ o k # o     = $.*.*.: =                               ",
"                                  o # b S D S [.oX[ ' ` U K K :.7.4.1.*.@ o # o o     = $.$.- O.+.=                             ",
"                                  o o o x m m ).oX( ( ` S M K q.8.7.1.=.6 O h h #     = +.+.= O.$.= =                           ",
"                                        o o o o o k m ` S Y k.k.k.7.7.7.- q ` ` ( o o   = =   = = = =                           ",
"                                        o # ' G D V S D ^ y.H.l.k.a.p.7.=.&.9 ) { m x o       = = = =                           ",
"                                        o c (.Q.U.` F N f.l.L.F.k.k.a.7.7.1.= T U.` m o       = = = =                           ",
"                                      = 8.s.` i.k.V Q k.J.K.k.p.7.= = = = e U.!.^.U.D o           = =                           ",
"                                      = 0.G...f.F.Q y.F.S.k.5.-.%.8 8 , 8 L U.Q.!.U.G x           =                             ",
"                                      = j.K.k.H.L.k.F.L.p.1.= = = ` F N ( ' U.U.U.U.{ ` # o                                     ",
"                                      = j.L.K.6.@.H.d.@.; e I I I I.[ ( x x ' I.U.' ' ` # o                                     ",
"                                      = j.K.F.-.= S.8.q q 8 ' ' ' I.[ ( j j F [ I.` ( ( j #                                     ",
"                                      = j.F.=     = , N G ' U.U.U.` F N x j o Z ` ` F N N n o                                   ",
"                                        ;.-.      . z F [ I.U.{ [ D S N x j h k x ` ( F V n o                                   ",
"                                        = =       o x ` I.U.U.[ ` N N N x k k # o ` ` ` V n o                                   ",
"                                                      o j k k n N N n k k k k # o o v ` V n o                                   ",
"                                                    * o k v v n n n x k k k h # o o v ` V n o                                   ",
"                                                  3 % o n N N n k k k k k j o     o v ` V n o                                   ",
"                                                3 u.u...u 2 2 2 2 2 2 2 2 X o o o { } I.` V o                                   ",
"                                              u u m.g.u.d i i i i y 5 5 5 3 O o o T.Y.U.[ F o                                   ",
"                                            3 ~ M.M.~ 1 n.P.b.b.b.z.e.g g f 1 . # (.!.U.U.' o                                   ",
"                                          u / m.Z._.i.1 c.n.r.z.c.p i y y 5 X O + C | !.C n                                     ",
"                                        t u M.Z.A.`.N.1 z.v.f e.r.1 1 1 1 <       o H ^.k o                                     ",
"                                      3 M.C.C.{.|.t 3 1 e.e.1 . o N N N N n o +     + o                                         ",
"                                    s ~ V._.'.A.B.0 X . d d % $ # x n N S Z o +     + +                                         ",
"                                  3 ~ C.'.}.|.x.3   + o < 2 k k k o j N ( D o +                                                 ",
"                                3 N.V.`.XX.Xs u     + o A M N x k o x ( ` D o +                                                 ",
"                              3 3 m.B.V.].].4 %   + k b S D S x j o x ` ' ( b k +                                               ",
"                            3 3 3 3 3 3 3 3       o C (.T.I.` x o o x ` I.T.(.C o                                               ",
"                                  % % % % %       + x B m b x l + + l x b m B x +                                               ",
"                                                    + o o o o +     + o o o o +                                                 ",
"                                                                                                                                ",
"                                                                                                                                ",
"                                                                                                                                ",
"                                                                                                                                ",
"                                                                                                                                ",
"                                                                                                                                ",
"                                                                                                                                ",
"                                                                                                                                ",
"                                                                                                                                ",
"                                                                                                                                ",
"                                                                                                                                "
};
