/* XPM */
static char *output_05[] = {
/* columns rows colors chars-per-pixel */
"64 64 186 2 ",
"   c None",
".  c #2F292F",
"X  c #362E2C",
"o  c #212C36",
"O  c #232C39",
"+  c #292D32",
"@  c #2D3237",
"#  c #25323C",
"$  c #3A3836",
"%  c #353A3C",
"&  c #383839",
"*  c #383638",
"=  c #6A1C13",
"-  c #5A201B",
";  c #7B2B1E",
":  c #432F27",
">  c #4C2321",
",  c #542D2C",
"<  c #4A3121",
"1  c #45352A",
"2  c #45382E",
"3  c #4A3F2C",
"4  c #453327",
"5  c #573A29",
"6  c #493D32",
"7  c #47383B",
"8  c #553130",
"9  c #703028",
"0  c #5D432B",
"q  c #5F4A2E",
"w  c #484337",
"e  c #554432",
"r  c #564B35",
"t  c #594E39",
"y  c #5E533C",
"u  c #4D422E",
"i  c #62482E",
"p  c #634B31",
"a  c #6A4E34",
"s  c #73433C",
"d  c #6C5135",
"f  c #6D5B33",
"g  c #655439",
"h  c #745639",
"j  c #7C5E3D",
"k  c #735B38",
"l  c #74613C",
"z  c #7D633C",
"x  c #796639",
"c  c #273640",
"v  c #2A3B46",
"b  c #2B3E48",
"n  c #273742",
"m  c #2E424D",
"M  c #2F484F",
"N  c #3D4244",
"B  c #39454B",
"V  c #2F4550",
"C  c #2F4B51",
"Z  c #304752",
"A  c #324B55",
"S  c #364F5B",
"D  c #3D4D52",
"F  c #325257",
"G  c #35545B",
"H  c #3A555E",
"J  c #35595D",
"K  c #395561",
"L  c #375E61",
"P  c #3B5A65",
"I  c #3D5E69",
"U  c #3B6367",
"Y  c #3E626B",
"T  c #3F7272",
"R  c #464743",
"E  c #474C52",
"W  c #4D4B50",
"Q  c #4D5358",
"!  c #4E5047",
"~  c #6E4A44",
"^  c #6B4440",
"/  c #744B45",
"(  c #6A5449",
")  c #655C59",
"_  c #6D6349",
"`  c #6B6147",
"'  c #7A6C4A",
"]  c #69635D",
"[  c #776D51",
"{  c #7E7357",
"}  c #525E63",
"|  c #4A5B61",
" . c #40646E",
".. c #4F6062",
"X. c #576263",
"o. c #426771",
"O. c #436C74",
"+. c #437275",
"@. c #467379",
"#. c #48777D",
"$. c #467B7D",
"%. c #49797F",
"&. c #567979",
"*. c #6E726B",
"=. c #68726C",
"-. c #833223",
";. c #903D2D",
":. c #9D4A35",
">. c #964331",
",. c #884C3E",
"<. c #A6543B",
"1. c #AC5A3D",
"2. c #A65539",
"3. c #84733E",
"4. c #AE6138",
"5. c #875A4C",
"6. c #A15941",
"7. c #8A6E43",
"8. c #866742",
"9. c #8F7345",
"0. c #80704C",
"q. c #917547",
"w. c #956751",
"e. c #946D55",
"r. c #85785A",
"t. c #9C6149",
"y. c #B86742",
"u. c #BF7141",
"i. c #8B7E65",
"p. c #957D63",
"a. c #C67648",
"s. c #C07046",
"d. c #64837C",
"f. c #758476",
"g. c #9D814C",
"h. c #978547",
"j. c #A2884E",
"k. c #AB8755",
"l. c #AA9352",
"z. c #B19C55",
"x. c #BAA959",
"c. c #948968",
"v. c #9A936C",
"b. c #8F9075",
"n. c #9E9471",
"m. c #9F9872",
"M. c #8B8161",
"N. c #A49C76",
"B. c #A19774",
"V. c #ACA37C",
"C. c #B3AE7E",
"Z. c #D98B50",
"A. c #D78A4E",
"S. c #E79A56",
"D. c #E49755",
"F. c #C2B45C",
"G. c #CCC060",
"H. c #4B7E83",
"J. c #4C8386",
"K. c #4E8689",
"L. c #4E8B8B",
"P. c #508E8E",
"I. c #598684",
"U. c #519492",
"Y. c #529B96",
"T. c #549D99",
"R. c #589C95",
"E. c #4D918D",
"W. c #689B8E",
"Q. c #6B9E90",
"!. c #55A29B",
"~. c #57A9A1",
"^. c #B3AA89",
"/. c #BEBB96",
"(. c #B5AC8C",
"). c #C3BD8F",
"_. c #C5BF90",
"`. c #CDC993",
"'. c #D8D698",
"]. c #CAC4AD",
"[. c #DEDCAF",
"{. c #D9D7B8",
"}. c #DBD6C4",
"|. c #E0DCCC",
" X c #EFEEE0",
".X c #FBFAEF",
/* pixels */
"                                                                                                                                ",
"                                                                                                                                ",
"                                                                                                                                ",
"                                                                                                                                ",
"                                                = =                                                                             ",
"                                              = 4.A.= =                                                                         ",
"                                              -.u.S.-.-.                                                                        ",
"                                        o - ; a.Z.S.a.2.= . o                                                                   ",
"                                    o b H ..] a.Z.S.a.e.X.K S o                                                                 ",
"                                    # Z O.J.d.a.A.D.a.p.K.O.I #                                                                 ",
"                                o o  .@.J.!.Q.a.a.a.a.c.~.L.H.o.m o                                                             ",
"                                m A @.J.U.f.i.a.a.a.a.k.b.I.J.#.P Z                                                             ",
"                              o A o.J.U.~.w.1.a.a.a.a.a.a.d.J.J.@. .o o                                                         ",
"                  o o o o     o A o.J.U.~.w.1.a.a.a.1.y.a.Q.T.J.@. .o o   o o o o o                                             ",
"                o o F A M     o A o.J.U.~.w.1.a.s.y.5.t.y.Q.!.J.@. .o o   M Z F n o                                             ",
"                o o !.T.J.m o o A o.J.U.~.w.1.a.y.<.o.) <.W.!.J.@. .o o o @.L.~.J o                                             ",
"                    A L O.O.U o A o.J.=.e.6.1.1.1.<./ ( X.R.!.J.@. .o M O.O. .A m                                               ",
"                    o b I #.@.# S o.J.*.<.<.<.<.<.<.;./ o.Y.T.J.@. .# G J. .G o                                                 ",
"                        o P  .S I o.J.*.<.>.>.<.<.<.;./ o.H.J.J.@.o.S P o.# o                                                   ",
"                        o P  .I  .o.@.] <.~ ~ <.<.<.:.,.( &.J.#.O.o.I P P # o                                                   ",
"                        o P o.o.o.o.o.] <.Q Q <.<.<.<.:.;.&.H.o.o.o.o.I S # o                                                   ",
"                          O # # S o.o.) ;.} } ;.:.<.<.:.;...O.o.o. .# O O                                                       ",
"                            o o A I o.} / | Q ;.:.<.:.>.;.} o.o.Y I o o o                                                       ",
"                              o m S o.o.o.K E ;.:.<.;.;.;.} o.o.P S o o                                                         ",
"          f f f           o o o n m K K K G E ;.:.<.;.s W / ~ K A m o o o                                                       ",
"          f k 0.0.        + + O n v A S S S E ;.:.<.;.^ S s s S m v # # #                                                       ",
"          f ' .X^.f < < < < 4 b # o b M S S E ;.;.;.;.^ S S A b # O o.I S # o o                                                 ",
"            ' ^.(.(.p a j d p $ @ n # n v v % ; -.;.; 8 v v v # m S #.O.I P U T A o                                             ",
"              f (. Xl z g.8.h < * b o o o o . = -.;.= > o o o o G O.J.#.o.J.L.~.J o                                             ",
"              < q l F.F.z.j.9.< N S S Z b b % = -.;.= , b b m S S G O.o.o.O.O.K.Y.T.o o                                         ",
"              x 3.h.x.x.l.7.l ! D S P G m m B , 9 -., 7 M M A P H S I P G  .O.#.L.U.m b                                         ",
"        f f x G.G.G.z.l.g.0 6 J. .S o.I S S S S 8 = S S S S K o.P S S m o I o.o.#.J.o.A o                                       ",
"    f c.}.{.].3.h.x.j.7.0 d d w D S o. . .Y I S B & S K Y Y  .o.P S # #   n b Z U O.H.#.+.n o                                   ",
"    f c.|.}.].x h.l.9.j 6 d d < N A Y  .o. .I S Z m S K  .o.o. .K A o o   o # V I O.L.L.L.A m                                   ",
"        f f l z.l.g.< w o.6 < < $ b S P o.K S S S S S S S  .Y S m b o o   o v o.#.K.~.~.~.~.J.o                                 ",
"          w w k f d R B M $     @ # M A P G S S A Z S S S K K Z v #         n M $.U.L L L !.J.o                                 ",
"          o + < < < A m o       o o b M S S S S V b S S S S A b # o           o $.!.o o o Y.J.o                                 ",
"          o n J.O.S O o         o o b b b A S S S S S S S m b b # o             o + < i z @ o                                   ",
"          J U J.U m O             o & & & V A S A Z S S Z % & & @ o               + < 0 a ! !                                   ",
"        o J.!.J.G o                 < < < % m S Z b S Z b 4 < <                         < r.{ 3                                 ",
"        o J.~.!.L.@.# o             < 5 h 3 1 2 1 4 2 1 4 d a <                         3 V.V.r.y 3                             ",
"        o +.E.~.L.+.# o             2 e h 0 5 0 0 i 0 5 5 d a 2 $                       3 m.N.n._ t                             ",
"          o v ~.U o             o o S N < h 8.g.l.z.g.9.z 5 2 S v o                       3 _ ).B.i.3 3 3                       ",
"              J C               o o I H N e p 7.9.9.7.j 0 R D I b o                         g [ n.V.r.{ [ e                     ",
"              o                 O o  .I G 2 5 j j j j a < D K o.m o                           3 v./.V.n.c.r u                   ",
"                                O o  .o.o.n + < < < < X o I o.o.m o                             3 r '.`.).V.M.3                 ",
"                                O o @.O.o.n + : : : : X o I O.@.V o                               r v.C.`.^.N.{ (               ",
"                                O o J.#.o.n o         O o I O.J.A o                                 3 c.'.`.).)._ 3 3           ",
"                                O o J.J.H.b o         O o +.J.J.A o                                   y g [.[.).^.V.v.[ 3       ",
"                              O m C L.L.J.b o         O o @.K.L.U C O                                   3 /./.N.N.N.c.` 3       ",
"                              o T ~.~.Y.J.b o         O o @.L.~.~.!.o O                                   3 3 3 3 3 3 3 3 3 3   ",
"                              O C J J F Z c O           O M A J J G O                                                           ",
"                                O o o o o                 o o o o o                                                             ",
"                                                                                                                                ",
"                                                                                                                                ",
"                                                                                                                                ",
"                                                                                                                                ",
"                                                                                                                                ",
"                                                                                                                                ",
"                                                                                                                                ",
"                                                                                                                                ",
"                                                                                                                                ",
"                                                                                                                                ",
"                                                                                                                                "
};
