/* XPM */
static char *output_08[] = {
/* columns rows colors chars-per-pixel */
"64 64 195 2 ",
"   c None",
".  c #322E2D",
"X  c #212C36",
"o  c #232C39",
"O  c #2E2E35",
"+  c #362F34",
"@  c #25323C",
"#  c #2E373D",
"$  c #3C3633",
"%  c #3F3832",
"&  c #323A3F",
"*  c #3D3B3A",
"=  c #6A1C13",
"-  c #53211E",
";  c #702117",
":  c #732519",
">  c #76281B",
",  c #7A2B1D",
"<  c #7E301F",
"1  c #5B2B27",
"2  c #443025",
"3  c #4A3121",
"4  c #4A3E2C",
"5  c #463D2E",
"6  c #413E3A",
"7  c #4C3C3E",
"8  c #523332",
"9  c #563C3B",
"0  c #452C2E",
"q  c #632A25",
"w  c #612C28",
"e  c #7F2F21",
"r  c #6E3830",
"t  c #64332C",
"y  c #4E432F",
"u  c #49483E",
"i  c #594E39",
"p  c #594335",
"a  c #6A4D33",
"s  c #604338",
"d  c #7F4435",
"f  c #7E493C",
"g  c #76433B",
"h  c #64543C",
"j  c #69543C",
"k  c #7B5D3C",
"l  c #7E623D",
"z  c #273741",
"x  c #283742",
"c  c #293B45",
"v  c #2B3D48",
"b  c #393E42",
"n  c #2D424C",
"m  c #37454B",
"M  c #2F4A51",
"N  c #304651",
"B  c #334B56",
"V  c #364F5B",
"C  c #3A4D56",
"Z  c #325156",
"A  c #35535B",
"S  c #38535E",
"D  c #355A5E",
"F  c #395560",
"G  c #3B5B65",
"H  c #3E5E68",
"J  c #375F61",
"K  c #3E636B",
"L  c #3E686C",
"P  c #3F7272",
"I  c #42444B",
"U  c #474942",
"Y  c #564849",
"T  c #484D53",
"R  c #465359",
"E  c #525355",
"W  c #575D5C",
"Q  c #5C534A",
"!  c #6D4540",
"~  c #6A4844",
"^  c #734B44",
"/  c #665C43",
"(  c #70504A",
")  c #6C5E54",
"_  c #755A52",
"`  c #786B4E",
"'  c #756A50",
"]  c #4F5E61",
"[  c #40646E",
"{  c #42696D",
"}  c #426771",
"|  c #436C74",
" . c #486C75",
".. c #46737A",
"X. c #48767C",
"o. c #49797E",
"O. c #447778",
"+. c #586D6E",
"@. c #796B60",
"#. c #7A7F6F",
"$. c #6A7C74",
"%. c #843325",
"&. c #8C3A2A",
"*. c #8A3B26",
"=. c #903D2D",
"-. c #873F31",
";. c #8D4026",
":. c #904227",
">. c #92412E",
",. c #9B4D2E",
"<. c #954C2E",
"1. c #894234",
"2. c #854133",
"3. c #964531",
"4. c #9C4B33",
"5. c #994C37",
"6. c #98513C",
"7. c #A04F37",
"8. c #A5533A",
"9. c #A75737",
"0. c #B05F3F",
"q. c #AF603B",
"w. c #B4673B",
"e. c #865846",
"r. c #995941",
"t. c #A15E41",
"y. c #8C7243",
"u. c #8F7E46",
"i. c #957A48",
"p. c #896857",
"a. c #88795B",
"s. c #A46A4A",
"d. c #B46341",
"f. c #BB6B43",
"g. c #B86742",
"h. c #BA774B",
"j. c #A9754E",
"k. c #857F65",
"l. c #C87B45",
"z. c #C67648",
"x. c #CB7D4B",
"c. c #C47645",
"v. c #728473",
"b. c #9C834B",
"n. c #988647",
"m. c #AC9553",
"M. c #B09B55",
"N. c #AFA052",
"B. c #918766",
"V. c #918568",
"C. c #948C65",
"Z. c #9B936B",
"A. c #9E9674",
"S. c #8F8366",
"D. c #A99F79",
"F. c #A09872",
"G. c #A3986B",
"H. c #ABA27C",
"J. c #CE804A",
"K. c #D2844C",
"L. c #D78A4E",
"P. c #C88752",
"I. c #DB8E50",
"U. c #D78D53",
"Y. c #DD9052",
"T. c #E19453",
"R. c #E79A56",
"E. c #C6B85E",
"W. c #4A7D82",
"Q. c #4D8386",
"!. c #4D8688",
"~. c #4F8B8C",
"^. c #4A8A86",
"/. c #548183",
"(. c #508F8F",
"). c #4F908F",
"_. c #50908F",
"`. c #4F9590",
"'. c #519492",
"]. c #529996",
"[. c #549F9A",
"{. c #689697",
"}. c #56A49E",
"|. c #57A9A1",
" X c #808687",
".X c #B5AD83",
"XX c #BBB584",
"oX c #A5AFAE",
"OX c #C3BD8F",
"+X c #CAC694",
"@X c #D7D598",
"#X c #EBD285",
"$X c #C8C6A0",
"%X c #EBEBBE",
"&X c #FBFAEF",
/* pixels */
"                                                                                                                                ",
"                                                                                                                                ",
"                                                                                                                                ",
"                                                                                                                                ",
"                                                                                                                                ",
"                                                      =                                                                         ",
"                                                    , %.                                                                        ",
"                                                  = *.z.< = = = = = = = = =                                                     ",
"                                                = f.f.0.4.>.%.%.%.%.%.%.=.&.= = = =                                             ",
"                                              : : Y.x.r.r.r.1.1.1.1.1.-.4.3.; : : > >                                           ",
"                                            = 4.z.8.p.Q.Q.Q.Q...} } H V d 3.8.f.z.R.q.= = =                                     ",
"                                            = >.d.@.$.].!.Q.Q.W.X.} [ G Y ! 4.0.d.f.<.= =                                       ",
"                                            = &.8./.'.|.~.Q.Q.Q.Q.} } } S T =.4.8.=.e =     =                                   ",
"                                        = : 7.@.W.}.|.|.}.[.Q.Q.Q.} } } S V C g >.8.f.I., =                                     ",
"                                        - 1 p.$.(.|.|.|.}.].Q.W.W.} [ K A V B 9 r f r.j.<.;.                                    ",
"                                        X c Q.].|.|.|.|.~.Q.Q...} } H V V B v @ X X X X P.l.=                                   ",
"                                        X c Q.].|.(.(.(.!.Q.| } } F S V c @ @ A | ^.J X t.f.c.:.=                               ",
"                                        X c Q.].}.Q.Q.Q.Q.W.} [ [ V V V c z z L !.].{ O 6.d.L.:.=                               ",
"                                        X c Q.Q.Q.Q.o.} } } } G V V N v ..Q.Q.Q.Q.X 8 =.8.3.= = =                               ",
"                                        X c Q.{ A G G G G G G S V ~ E K ......W.Q.X 8 =.8.3.= =   =                             ",
"                                        X c Q.A X v n V V V V V V =._ Q.| } } o.Q.X 8 =.8.3.=     = =                           ",
"                                      X } ..@ C.#X{ [ } S V V N v =.( } F H Q.Z @ v 9 =.=.%.=                                   ",
"                                      X O.Q.n v.XX......H F V I 7 =.^ H G G L n @ z 9 =.=.&.e >                                 ",
"                                      X ^.[.} } } Q.Q.Q.| [ V ! =.=.! V [ G X z v X 8 =.=.3.8.e =                               ",
"                                  X Z ^.~.!.} ..W.Q.W.| ( f e.6.7.=.-.g b c c @ @   1 : &.=.3., =                               ",
"                                  X Z `.Q.o.[ /.{.Q.X.} ^ 2.6.6.8.>.=.=.+ o c @ X     = %.&.&., ;                               ",
"                                  X X X N V V oX&X .} } F B v ^ 8.8.4.=.+ X X X X       = = = %.&.= =                           ",
"                                        c c c +. XS G } F R e.s.g.8.8.4.1 0 B B B X     = =   , , = =                           ",
"                                        X X X X X v V } F E z.z.z.8.8.8.> w } } [ X X   = =   = = = =                           ",
"                                        X v }.'.Q.} H A s.x.R.K.z.z.f.8.8.3.= W Q.[ B X           = =                           ",
"                                        s Q ).v.#.] ] ) h.K.I.z.f.9.4.=.=.2.p +.'...G n           =                             ",
"                                      = 0.j.} p.z.S ) z.T.T.z.d.8.= = = = t Q.].|.Q.X.} @ X                                     ",
"                                      = c.U.j.P.T.s.h.T.f.9.< , > R T I I R Q.!.~.Q.X.} @ X                                     ",
"                                      = l.T.x.J.K.x.x.K.8.3.q q q | K S B A W.Q.Q.W...} c @                                     ",
"                                      = l.R.R.7.= T.w.= = q } } } Q.o.} z c } o.Q.} } } S N X                                   ",
"                                      = l.I.,.*.  ,.d 7 Y E o.o.o...} G v c n K ..} K G A N X                                   ",
"                                      = l.K.=     = 8 V K | Q.Q.Q.} H V n c X A } } H V V N X                                   ",
"                                        = =       X n } W.Q.Q...} V V V n v v @ o } } } S N X                                   ",
"                                          =       X v A K L L K H V V N v v v @ o } } } S N X                                   ",
"                                                      X c v v N V V N v v v v @ o } } } S N X                                   ",
"                                                  4 $ X N B B N n n v v v c o G ..W...} c @                                     ",
"                                                  i u b m m m m & & & & & # X L ~.Q.o.| z X                                     ",
"                                              4 4 S.V.V.p 3 3 3 3 3 3 3 3 2 X O.|.Q.Q.Q.c X                                     ",
"                                            4 / ' A.a.h u.n.y.y.y.l k a a p X Z L Q.Q.Q.c X                                     ",
"                                            y ' V.H.a.3 N.E.M.M.M.i.y.k k j X z v !.Q.Q.c X                                     ",
"                                        5 i D.D.D.@XG.3 b.m.l y.b.3 3 3 3 2   o @ |.P X                                         ",
"                                      % / ` .XXXXXZ.` 3 i.b.a j / 6 6 6 6 * o o o P D o                                         ",
"                                      4 B.H.OX+X@Xy 4 3 y.y.3 . X V V V V N X o   X o                                           ",
"                                  4 / Z..X+X%XA.h   O O 4 y C n c @ N [ [ F X o                                                 ",
"                                  4 / B.F.H.$Xk.5 o v M u U F n c X n } | [ M v o                                               ",
"                              4 4 4 4 4 4 4 4 %   X D |.~.W.} n X X n } W.~.|.D X                                               ",
"                                  $ $ $ $ $ $     o n A B M n x o o x n M B A n o                                               ",
"                                                    o X X X X o     o X X X X o                                                 ",
"                                                                                                                                ",
"                                                                                                                                ",
"                                                                                                                                ",
"                                                                                                                                ",
"                                                                                                                                ",
"                                                                                                                                ",
"                                                                                                                                ",
"                                                                                                                                ",
"                                                                                                                                ",
"                                                                                                                                ",
"                                                                                                                                "
};
