/* XPM */
static char *output_15[] = {
/* columns rows colors chars-per-pixel */
"64 64 202 2 ",
"   c None",
".  c #3B2F2A",
"X  c #322E2D",
"o  c #212C36",
"O  c #2B2D33",
"+  c #232C39",
"@  c #372E33",
"#  c #2F3334",
"$  c #24323C",
"%  c #29333B",
"&  c #3C3633",
"*  c #3E3832",
"=  c #343638",
"-  c #6A1C13",
";  c #651F15",
":  c #53211E",
">  c #622117",
",  c #732419",
"<  c #77291B",
"1  c #7E301F",
"2  c #5B2B27",
"3  c #4A3121",
"4  c #4A3E2C",
"5  c #443429",
"6  c #483C36",
"7  c #523332",
"8  c #563C3B",
"9  c #462624",
"0  c #632A25",
"q  c #7F2F21",
"w  c #69352E",
"e  c #3F433D",
"r  c #4D422E",
"t  c #5B442C",
"y  c #484538",
"u  c #5A4E39",
"i  c #5C513A",
"p  c #664B35",
"a  c #7B4539",
"s  c #6B5532",
"d  c #6D5B33",
"f  c #62563C",
"g  c #765936",
"h  c #7C643A",
"j  c #78663B",
"k  c #273741",
"l  c #283742",
"z  c #293B45",
"x  c #2B3D48",
"c  c #323D42",
"v  c #383C42",
"b  c #2D424C",
"n  c #3D4342",
"m  c #37454B",
"M  c #2F4850",
"N  c #304651",
"B  c #324A55",
"V  c #364F5B",
"C  c #3B4D56",
"Z  c #325156",
"A  c #36535B",
"S  c #38535E",
"D  c #365A5E",
"F  c #3F5357",
"G  c #395560",
"H  c #3B5B65",
"J  c #3E5E68",
"K  c #375F61",
"L  c #3E646B",
"P  c #386264",
"I  c #45494B",
"U  c #564849",
"Y  c #4B5047",
"T  c #595447",
"R  c #484D53",
"E  c #475458",
"W  c #525355",
"Q  c #6D4540",
"!  c #6A4844",
"~  c #734B44",
"^  c #6C5E54",
"/  c #705749",
"(  c #776C51",
")  c #7E7557",
"_  c #67624E",
"`  c #4F5E61",
"'  c #40646E",
"]  c #42696D",
"[  c #436166",
"{  c #426771",
"}  c #436C74",
"|  c #486C75",
" . c #46737A",
".. c #48757B",
"X. c #49787E",
"o. c #457679",
"O. c #5B656B",
"+. c #796B60",
"@. c #6A7C74",
"#. c #7A7F6F",
"$. c #843324",
"%. c #8A3C25",
"&. c #8A3B2A",
"*. c #903D2D",
"=. c #873F31",
"-. c #8B412A",
";. c #92412D",
":. c #9B4D2E",
">. c #954C2E",
",. c #894234",
"<. c #854735",
"1. c #954431",
"2. c #9C4B34",
"3. c #984B35",
"4. c #98513C",
"5. c #825D36",
"6. c #A04F37",
"7. c #A5533A",
"8. c #A75737",
"9. c #B05F3F",
"0. c #83713E",
"q. c #80613F",
"w. c #B4653C",
"e. c #AF603B",
"r. c #865846",
"t. c #995941",
"y. c #8C7B42",
"u. c #8B7143",
"i. c #896857",
"p. c #847857",
"a. c #907545",
"s. c #A66948",
"d. c #B56441",
"f. c #BB6B43",
"g. c #B86742",
"h. c #B9764A",
"j. c #A9754E",
"k. c #C27444",
"l. c #C87B45",
"z. c #C67648",
"x. c #CB7D4B",
"c. c #C77848",
"v. c #728473",
"b. c #9C834B",
"n. c #A1894E",
"m. c #A99351",
"M. c #AC9E51",
"N. c #B19D55",
"B. c #A68D50",
"V. c #B5A557",
"C. c #8D8361",
"Z. c #928669",
"A. c #938966",
"S. c #9A926B",
"D. c #9E9274",
"F. c #A69E77",
"G. c #A8A276",
"H. c #B2AC7D",
"J. c #D2844C",
"K. c #D78A4E",
"L. c #C88752",
"P. c #DB8E50",
"I. c #D78D53",
"U. c #D6884E",
"Y. c #E19453",
"T. c #E79A56",
"R. c #C6B95E",
"E. c #CCC060",
"W. c #4A7D82",
"Q. c #4D8386",
"!. c #4D8688",
"~. c #4F8B8C",
"^. c #4A8A86",
"/. c #548183",
"(. c #508F8F",
"). c #50908F",
"_. c #529593",
"`. c #529996",
"'. c #549F9A",
"]. c #4F9390",
"[. c #689697",
"{. c #56A59E",
"}. c #57A9A1",
"|. c #808687",
" X c #A89E84",
".X c #ADA388",
"XX c #B1AA80",
"oX c #B2AC8E",
"OX c #BDB787",
"+X c #B5AC91",
"@X c #A5AFAE",
"#X c #C3BD8F",
"$X c #CAC794",
"%X c #D8D698",
"&X c #D5D297",
"*X c #C7C38C",
"=X c #EBD285",
"-X c #D1CDB2",
";X c #E6E5B6",
":X c #DAD6C4",
">X c #E0DCCC",
",X c #FBFAEF",
/* pixels */
"                                                                                                                                ",
"                                                                                                                                ",
"                                                                                                                                ",
"                                                                                                                                ",
"                                                                                                                                ",
"                                                                            -                                                   ",
"                                                                            $.1                                                 ",
"                                                        - - - - - - - - - 1 c.%.-                                               ",
"                                        - - - - - - - - &.*.$.$.$.$.$.$.;.2.9.f.f.-                                             ",
"                                        - - - , < , , , 1.2.=.,.,.,.,.,.t.t.t.x.P., ,                                           ",
"                                      -     - e.T.c.f.7.1.a V J { {  .Q.Q.Q.Q.i.7.c.2.-                                         ",
"                                            - >.f.d.9.2.Q U H L { ..W.Q.Q.~._.@.+.d.;.-                                         ",
"                                            - q *.7.2.*.R S { { { Q.Q.Q.Q.~.}._./.7.&.-                                         ",
"                                        - 1 P.f.7.;.a C V S { { { Q.Q.Q.'.{.}.{.{./.+.6., -                                     ",
"                                        -.>.j.t.a w 8 B V S J ' { W.W.Q.`.{.}.}.}.).@.i.2 :                                     ",
"                                  - - - l.L.o o o o $ x B V V J { {  .Q.Q.~.}.}.}.}.`.Q.l o                                     ",
"                                - - %.k.x.h.o K ^.} A $ $ z V S G { } } Q.!.(.(.(.}.`.Q.l o                                     ",
"                              - - - ;.K.c.s.O ] `.Q.L k k z V V V ' ' { W.Q.Q.Q.!.{._.Q.l o                                     ",
"                              - -     - 1.7.*.7 o Q.Q.Q.Q...x N V V H { { { { X.Q.Q.Q.Q.l o                                     ",
"                                      - 1.7.*.7 o Q.W..... .L W ! V S H H H H H H A ] Q.l o                                     ",
"                                      - 1.7.*.7 o Q.X.{ { } Q./ *.V V V V V V b x o A Q.l o                                     ",
"                                  - q 7.1.*.*.8 x $ Z Q.H G { ~ *.x N V V G { ' ] =XA.$  .] o                                   ",
"                                  %.;.2.;.*.*.8 k $ b L H H J ~ *.8 I V G J  . ...OXv.b Q...o                                   ",
"                              - - k.w.*.*.*.*.7 o x k o H ' V Q *.*.Q V ' } Q.Q.Q.{ { { '.^.o                                   ",
"                              - - 5.g g -.&.< 2   $ $ l z v a =.*.6.4.r.a / } W.Q.W. .{ !.~.^.Z o                               ",
"                              - - s j p.<.&.> >   O % z + @ *.*.;.7.4.4.<.~ { ..Q.[./.' X.Q.].Z o                               ",
"                              - - s D.,XC.s 3 3 3 3 . o o @ *.2.7.7.~ x V G { { | ,X@XV V N o o o                               ",
"                              - -   C..X+X Xt s g p t . 9 2 2.7.7.g.s.r.E G { G S |.O.z z z                                     ",
"                              - -     d -X:Xd u.b.q.p 3 > < 7.7.7.c.c.c.W G { B x o o o o o                                     ",
"                                      3 s j R.V.N.b.h 3 3.7.7.g.c.c.J.T.x.s.A J { Q.).{.x o                                     ",
"                                    j h y.b.R.V.m.h / Y <.*.*.2.8.f.c.P.J.h.^ ` J #.v.).T p                                     ",
"                              d d d y.E.E.R.N.B.b.3 Y Q.w - - - - 7.d.c.Y.Y.c.^ S c.i.{ j.e.-                                   ",
"                            d .X:X-X+X0.m.N.n.h t g p y E E I R E < < 1 8.f.Y.h.j.Y.L.j.I.k.-                                   ",
"                            d oX>X:X+Xh n.m.u.f 4 g p 3 F H S L } 0 0 0 1.7.J.x.x.J.J.x.Y.l.-                                   ",
"                              d d d 0.N.n.a.3 R { 3 3 3 O k { X.Q.{ { { 0 - - w.Y.- 6.T.T.l.-                                   ",
"                                    d g s p n E { R n X % x H {  .X.X.X.W U 6 a :.  %.:.P.l.-                                   ",
"                                      3 3 5 V H { { A o z b V J { Q.Q.Q.} ' V 7 -     - J.l.-                                   ",
"                                      o N S { A x o $ x x b V V V {  .Q.Q.W.{ b o       - -                                     ",
"                                      o N S { B k o $ x x x N V V J L L L L V x o       -                                       ",
"                                      o N S { N o o $ x x x x N V V N x x z o                                                   ",
"                                      o S { W.X. .+ # 6 c x x b b b N B B N o                                                   ",
"                                      o H  .Q.~.~.+ = u n c c c c = m m m m o                                                   ",
"                                      o } Q.Q.`.}.$ Y Z.u 4 r 4 4 3 3 3 3 5                                                     ",
"                                        N D `.o.D * _ XXG.S.( ( ( 4 4 4 y.y.5 @                                                 ",
"                                        o x {.P o 4 ( OX$X*XZ.Z.Z.r r r V.M.3 .                                                 ",
"                                            o +     * 4 4 f #X$X%XZ.S.F.i 4 4 *                                                 ",
"                                            + +     # & e Y C.A.S.H.XXOXC.) ) T * * &                                           ",
"                                                    + o N C 4 4 4 %X%X%X*X#X#X( 4 4 6                                           ",
"                                                    + o G ' [ m O f f f -X;X&XOXXXXXp.4                                         ",
"                                                  + x M ' } { b o 5 y y oX$XH.G.F.F.) 4                                         ",
"                                                  o D }.~.W.{ b o o b { y 4 4 4 4 4 4 4                                         ",
"                                                  + b A B M b l + + l b # # # = & & & &                                         ",
"                                                    + o o o o +     + o o o o +                                                 ",
"                                                                                                                                ",
"                                                                                                                                ",
"                                                                                                                                ",
"                                                                                                                                ",
"                                                                                                                                ",
"                                                                                                                                ",
"                                                                                                                                ",
"                                                                                                                                ",
"                                                                                                                                ",
"                                                                                                                                ",
"                                                                                                                                "
};
