/* XPM */
static char *output_02[] = {
/* columns rows colors chars-per-pixel */
"64 64 204 2 ",
"   c None",
".  c #322E2E",
"X  c #3A292A",
"o  c #212C36",
"O  c #232B39",
"+  c #2D2E34",
"@  c #25333D",
"#  c #2C3237",
"$  c #383839",
"%  c #372C2B",
"&  c #6A1C13",
"*  c #5B241A",
"=  c #4F2E1F",
"-  c #7A2D1D",
";  c #7E301E",
":  c #642016",
">  c #432F27",
",  c #4D2F2D",
"<  c #4A3121",
"1  c #45352A",
"2  c #4A3F2C",
"3  c #44342A",
"4  c #583E29",
"5  c #483B36",
"6  c #563534",
"7  c #572F2E",
"8  c #622822",
"9  c #64312B",
"0  c #70382B",
"q  c #5D432B",
"w  c #5F4A2E",
"e  c #574737",
"r  c #5D533C",
"t  c #4A4437",
"y  c #63472D",
"u  c #6A4F34",
"i  c #674936",
"p  c #7C4735",
"a  c #6D5134",
"s  c #6D5B33",
"d  c #62553D",
"f  c #6A5134",
"g  c #745639",
"h  c #755C3C",
"j  c #745C37",
"k  c #7B653B",
"l  c #77653A",
"z  c #273741",
"x  c #293B44",
"c  c #2B3E48",
"v  c #273841",
"b  c #353E47",
"n  c #2D434C",
"m  c #2F484F",
"M  c #3D4345",
"N  c #354047",
"B  c #2F4550",
"V  c #2F4A51",
"C  c #314651",
"Z  c #324B55",
"A  c #364F5B",
"S  c #394E5A",
"D  c #3E4850",
"F  c #325257",
"G  c #36545C",
"H  c #3A545D",
"J  c #395661",
"K  c #3B5B64",
"L  c #3E5E69",
"P  c #375C61",
"I  c #3E636B",
"U  c #3D6D6E",
"Y  c #3B6167",
"T  c #3F7272",
"R  c #41444C",
"E  c #444747",
"W  c #5D4747",
"Q  c #464E54",
"!  c #475357",
"~  c #5B5A59",
"^  c #545758",
"/  c #505247",
"(  c #6A4A46",
")  c #645A43",
"_  c #685B54",
"`  c #7B5C52",
"'  c #77584F",
"]  c #6D6347",
"[  c #796D4B",
"{  c #6B635B",
"}  c #776C58",
"|  c #7D7455",
" . c #475A61",
".. c #555C60",
"X. c #41656E",
"o. c #4D6569",
"O. c #586565",
"+. c #426771",
"@. c #436C74",
"#. c #437176",
"$. c #467379",
"%. c #48767C",
"&. c #48797E",
"*. c #447C7B",
"=. c #5A797A",
"-. c #797562",
";. c #833522",
":. c #903D2D",
">. c #8B3E30",
",. c #96482B",
"<. c #9E4E32",
"1. c #974633",
"2. c #894A31",
"3. c #A15331",
"4. c #A5543B",
"5. c #A85B3A",
"6. c #B05F3F",
"7. c #84733E",
"8. c #856E3F",
"9. c #B1623C",
"0. c #B7693D",
"q. c #AE6138",
"w. c #815B4F",
"e. c #995844",
"r. c #824C41",
"t. c #886846",
"y. c #8E7444",
"u. c #80704C",
"i. c #82685A",
"p. c #856652",
"a. c #83795D",
"s. c #847858",
"d. c #957D47",
"f. c #A46347",
"g. c #B46341",
"h. c #B86843",
"j. c #BA7142",
"k. c #A97450",
"l. c #8A7E62",
"z. c #C37346",
"x. c #C67648",
"c. c #CC7D4A",
"v. c #C67947",
"b. c #948245",
"n. c #9C824B",
"m. c #9E8C4B",
"M. c #A2884E",
"N. c #AA9352",
"B. c #AE9853",
"V. c #B19C55",
"C. c #A68E50",
"Z. c #BAA959",
"A. c #8B8160",
"S. c #968B6A",
"D. c #918865",
"F. c #9B946B",
"G. c #9E9471",
"H. c #86937A",
"J. c #A49A76",
"K. c #AAA17A",
"L. c #CE804A",
"P. c #D1834B",
"I. c #D78A4E",
"U. c #DA8C50",
"Y. c #DD9051",
"T. c #E19453",
"R. c #E79A56",
"E. c #C2B45C",
"W. c #D0BC7A",
"Q. c #CCC060",
"!. c #4A7D82",
"~. c #5F7C83",
"^. c #4D8487",
"/. c #4E8689",
"(. c #4E8C8B",
"). c #518E8E",
"_. c #558383",
"`. c #4D928D",
"'. c #519392",
"]. c #529A96",
"[. c #549D99",
"{. c #509491",
"}. c #7B9295",
"|. c #55A49D",
" X c #57A9A1",
".X c #56A7A0",
"XX c #838D8C",
"oX c #B2A989",
"OX c #BCB685",
"+X c #B1A78D",
"@X c #C2BC8F",
"#X c #B8C1BD",
"$X c #CAC695",
"%X c #D8D698",
"&X c #CCC488",
"*X c #F8DD8A",
"=X c #CAC4AD",
"-X c #D5D1B0",
";X c #B4C5C1",
":X c #DBD6C4",
">X c #D4DBD4",
",X c #E0DCCC",
"<X c #EFEFC1",
"1X c #F5F4E8",
/* pixels */
"                                                                                                                                ",
"                                                                                                                                ",
"                                                                                                                                ",
"                                                                                                                                ",
"                                                                          & &                                                   ",
"                                                                        & q.I.& &                                               ",
"                                                                        ;.j.R.;.;.                                              ",
"                                                                  o * - x.U.R.x.3.& . o                                         ",
"                                                              o c H o.{ 6.z.P.6.p.O.H A o                                       ",
"                                                              @ C +.!.=.e.h.z.e.} ^.@.L @                                       ",
"                                                          o o X.$.^.^.^.^.i.4.^.^.^.^.!.+.n o                                   ",
"                                                          n Z $.!.^.'.'.^.i.4.^.(.'./.^.%.J Z                                   ",
"                                                        o Z +.^.^.^.|.|.^.i.4.^.'. X(.^.^.$.X.o o                               ",
"                                            o o o o     o Z +.^.'.|. X X|.)._.|..X X|.[.^.$.X.o o   o o o o o                   ",
"                                          o o F Z m     o Z +.^.).[.|. X X[.). X X X[.[.^.$.X.o o   n Z F v o                   ",
"                                          o o |.[.^.n o o Z +.^.^.^.|. X X X X X X X(.^.^.$.X.o o o $.). XG o                   ",
"                                              Z P @.@.Y o n J @.%.^.(.(.&./.).&.^.)./.^.@.L J o m @.@.X.Z n                     ",
"                                              o c I &.$.+ N A I +.&.!.!.X.%.^.X.#.^.&.$.I J A + H ^.X.H o                       ",
"                                                  o J o.:.W A c z o K X.A @.^.A K +.z @ c Z S :.( +.@ o                         ",
"                                                  o A ! :.W A G O.D.! A +.^.[.+.K Z a.-.G G S :.( K @ o                         ",
"                                                  o C Q :.W A +.H.*X/ c ^.[. X^.Y o W.&X+.J S :.( A @ o                         ",
"                                                    O $ 4.1.>.X.%._.@.#..X X X.X(.X._._.+.( >.4.i O                             ",
"                                                    X , g.4.1.~ O.^.+.I *.{. X*.#.L !.&.~ r.1.9.p X                             ",
"                                                    & - x.g.4.:.' ^.K Z o #. Xo x A &.=.:.<.4.v.<.&                             ",
"                                                  & 0.v.x.p.^ ..XX>X~.L C V V C G I ;X#X..^ ^ x.v.v.; &           s s s         ",
"                                                  8 j.P.c.p.Q +.}.>X=.K Z v o Z G L #X#X+. .! c.L.P.- :         u.u.j s         ",
"                                              o Z ^.9 ; R.z.4.X.G o o o o o o o o o o v +.w.4.R.9.& = < < < < s +X1X[ s         ",
"                                            o T *.^.^ ( 3.6.h.` _ Z J Y T T T T U K G Q ` f.h.3.2.* y a h f u +X+XoX[           ",
"                                          o o |.[.^.@. .& <.x.4.w.+.!.(. X X X X[.^.@.O.4.h.z.& * < h t.n.k l 1X+Xs             ",
"                                    o o o U |./.!.+.J D & q.R.x.h.4.O.X.G p.x.G K +.e.5.x.U.T.& * < y.M.V.E.E.l w <             ",
"                                    V Z Z $.[.!.#.L Z b 7 2.0.P.x.g.i.} _ k.P._ { -.f.h.P.z.0.e e t h y.N.Z.Z.b.7.k             ",
"                                  o +.^.^.^.^.+.L A @ @ A 6 & T.U.x.x.x.x.U.R.x.x.x.x.c.R.,.& ^.%.+.2 q n.N.V.Q.Q.Q.k s s       ",
"                              o F (.[.|.|.'.^.Z n @     @ b R ;.5.T.,.,.T.T.R.T.0.; L.c.;.e R Z M 5 a a q y.M.Z.m.7.=X-X:XS.s   ",
"                              o F  X].`.`.(.(.Z n o     o n H 9 2.P.0 0 P.Y.R.P.5.8 j.j.9 E G x $ < a u 1 h y.B.b.k =X:X,XS.s   ",
"                              o F  XZ o o U  X/.I o     o Z +.^.~ & R R & 0.R.& 7 A 8 9 ^.$.+.o . < < 1 A 5 < n.C.V.l s s       ",
"                                n P / e o U  XG Z         c n $.o.~ +.X.5 p <.5 Q @.~ ~ $.H n         $ x N E a s j             ",
"                                  o d h o U  X@ o         o o X.$.^.^.&.A 7 & A I ^.^.!.+.n o           o n Z < < <             ",
"                              2 d D.e < < . o             o o c n A A A c c c c B A A Z c @ o             o @ ^.^.^.z o         ",
"                              ) | J.d < < . o               o $ $ M C C C n c B C Z M M $ # o             Z G ^.(.'.v o         ",
"                        2 2 2 l.J.@X] 2                       < < < $ n A C c A Z c 3 < <               o I ^.^.'. Xv o         ",
"                    2 e a.a.a.oXG.d                           < 4 g 2 1 1 1 1 1 1 3 a u <                 x n |.|. Xx o         ",
"                    r ) G.G.J.K.D.2                           1 e g q 4 q q y q q q k h < X               o @ (.(.(.v o         ",
"              2 2 2 A.K.@X$X%Xe 2                         o o A M < g t.n.N.V.n.n.n.n.y.< . o                 o o o             ",
"            2 s.A.S.OXOX[ | |                             o o L H M e a N.B.V.N.y.u n.d.< . o                                   ",
"            t G.oX@X$X&X2 2 2                             O o X.L A 1 q B.V.V.B.8.< n.n.< . o                                   ",
"    2 2 2 [ J.OX$X%X[ 2                                   O o X.+.+.v + < b.Q.< % o > 5 +.n o                                   ",
"    ] [ | F.OX%X$XF.] 2                                   O o $.@.+.v o > k b.> . o $ E $.B o                                   ",
"  2 a.K.@X$X%X<X$X2                                       O o ^.&.+.v o   > <   O o Z K ^.Z o                                   ",
"2 2 e r r r d ) )                                         O o ^.^.^.c o         O o @.!.^.Z o                                   ",
"2 2 2 2 2 2 2 2 2                                       O n V (.(.^.c o         O o $./.).Y V O                                 ",
"                                                        o T  X X[.^.c o         O o $.(. X X|.o O                               ",
"                                                        O V G G F Z z O           O n Z G G G O                                 ",
"                                                          O o o o o                 o o o o o                                   ",
"                                                                                                                                ",
"                                                                                                                                ",
"                                                                                                                                ",
"                                                                                                                                ",
"                                                                                                                                ",
"                                                                                                                                ",
"                                                                                                                                ",
"                                                                                                                                ",
"                                                                                                                                ",
"                                                                                                                                ",
"                                                                                                                                "
};
