/* XPM */
static char *output_07[] = {
/* columns rows colors chars-per-pixel */
"64 64 193 2 ",
"   c None",
".  c #2F292F",
"X  c #3A2F2A",
"o  c #322E2D",
"O  c #212C36",
"+  c #2B2C33",
"@  c #232B39",
"#  c #312F35",
"$  c #25323D",
"%  c #2D3338",
"&  c #36383A",
"*  c #3C332E",
"=  c #6A1C13",
"-  c #5C211C",
";  c #76271A",
":  c #67261E",
">  c #4E2423",
",  c #542926",
"<  c #443126",
"1  c #4A3221",
"2  c #43342A",
"3  c #4A3F2C",
"4  c #46382D",
"5  c #543A26",
"6  c #563C28",
"7  c #5E302D",
"8  c #4E3436",
"9  c #793526",
"0  c #4D422E",
"q  c #5C432B",
"w  c #53412E",
"e  c #48423B",
"r  c #544431",
"t  c #564B35",
"y  c #594E39",
"u  c #5E533C",
"i  c #61452E",
"p  c #604B2C",
"a  c #694C32",
"s  c #7E4136",
"d  c #6D5B33",
"f  c #685539",
"g  c #735639",
"h  c #7C5F3D",
"j  c #745937",
"k  c #7F613E",
"l  c #736238",
"z  c #273640",
"x  c #2A3B45",
"c  c #2B3D48",
"v  c #283542",
"b  c #323D43",
"n  c #2E424D",
"m  c #3D4446",
"M  c #3B484E",
"N  c #364147",
"B  c #2F4450",
"V  c #2E4B51",
"C  c #304651",
"Z  c #334B55",
"A  c #364F5B",
"S  c #3B4850",
"D  c #35535B",
"F  c #38535E",
"G  c #34565A",
"H  c #395560",
"J  c #3B5A64",
"K  c #3D5E69",
"L  c #3A6566",
"P  c #3E626A",
"I  c #3B686A",
"U  c #3F7272",
"Y  c #43474B",
"T  c #55484A",
"R  c #474C52",
"E  c #514F52",
"W  c #495559",
"Q  c #58575A",
"!  c #4F554C",
"~  c #6B4440",
"^  c #704E49",
"/  c #685D5A",
"(  c #635940",
")  c #50665F",
"_  c #4E615B",
"`  c #6D6349",
"'  c #6B6147",
"]  c #7A6852",
"[  c #7E7557",
"{  c #6D6555",
"}  c #525E63",
"|  c #41646E",
" . c #4B6269",
".. c #4D6762",
"X. c #5E6262",
"o. c #42706E",
"O. c #426771",
"+. c #436B73",
"@. c #566F70",
"#. c #417273",
"$. c #46737A",
"%. c #48767C",
"&. c #447B7A",
"*. c #4A777A",
"=. c #597777",
"-. c #6E726B",
";. c #813023",
":. c #8A3D24",
">. c #903D2D",
",. c #8A3E30",
"<. c #94432D",
"1. c #874033",
"2. c #954230",
"3. c #9D4B36",
"4. c #9A4733",
"5. c #A6543B",
"6. c #AD5B3E",
"7. c #A65837",
"8. c #856D3F",
"9. c #B4673B",
"0. c #9A5642",
"q. c #876B42",
"w. c #897346",
"e. c #927647",
"r. c #956751",
"t. c #877855",
"y. c #857859",
"u. c #936853",
"i. c #B66542",
"p. c #B16E4B",
"a. c #907D62",
"s. c #C67648",
"d. c #C17348",
"f. c #45807E",
"g. c #63827C",
"h. c #9C814C",
"j. c #978448",
"k. c #9F914B",
"l. c #998855",
"z. c #A38A4F",
"x. c #A0904B",
"c. c #A68E50",
"v. c #AE9B55",
"b. c #AC9553",
"n. c #B29D55",
"m. c #B5A456",
"M. c #B9AB58",
"N. c #8B8161",
"B. c #938565",
"V. c #948968",
"C. c #9A936C",
"Z. c #9D9573",
"A. c #9F9872",
"S. c #A49C76",
"D. c #A59A7E",
"F. c #A19777",
"G. c #A69A6F",
"H. c #ACA37C",
"J. c #B3AE7E",
"K. c #CE804A",
"L. c #D3844E",
"P. c #DA8B50",
"I. c #E79A56",
"U. c #C7B95E",
"Y. c #CCC060",
"T. c #4B7D82",
"R. c #4C8486",
"E. c #4F8B8C",
"W. c #4D8688",
"Q. c #518E8E",
"!. c #4E918E",
"~. c #519392",
"^. c #529A96",
"/. c #539C98",
"(. c #66978C",
"). c #6C9F90",
"_. c #619E94",
"`. c #668B82",
"'. c #55A39C",
"]. c #57A9A1",
"[. c #A79D81",
"{. c #B6AF84",
"}. c #BEB999",
"|. c #BAB290",
" X c #C3BD8F",
".X c #C5BF90",
"XX c #CDC993",
"oX c #D8D698",
"OX c #DEDCAF",
"+X c #D8D5B6",
"@X c #EBE9DA",
"#X c #EFEEE0",
"$X c #F7F6EA",
/* pixels */
"                                                                                                                                ",
"                                                                                                                                ",
"                                                                                                                                ",
"                                                                                                                                ",
"                                                                                                                                ",
"                                                = =                                                                             ",
"                                                :.:.                                                                            ",
"                                              = 9.I.= =                                                                         ",
"                                        O - ; 7.K.I.7.<.= + O                                                                   ",
"                                        $ , 9 s.P.I.s.7.: # $                                                                   ",
"                                    O n O.T.g.s.P.I.s.a.R.+.J O                                                                 ",
"                                    Z J %.Q.`.s.K.P.s.B.~.T.+.Z x                                                               ",
"                                O O | $.R.'.).s.s.s.s.V.].E.T.O.n O                                                             ",
"                              O Z P R.Q.'.u.0.s.s.s.s.s.p.g.R.R.+.P O O                                                         ",
"                              O Z O.R.~.].r.6.s.s.s.i.d.s.`.Q.R.$.| O O                                                         ",
"                O O O O O     O Z O.R.~.].r.6.s.s.s.5.i.s.).'.R.$.| O O   O O O O O                                             ",
"                O O f.&.O.n O O Z O.R.~.].r.6.s.i.6.X.] 6.(.'.R.$.| O O O P #.R.V O                                             ",
"                  O !.!.R.Z $ O Z O.R.Q._.r.6.d.i.5. ./ 0.(.'.R.$.| O $ z %.W.^.G O                                             ",
"                    O n O.T.%.O Z O.R.-.5.5.5.5.5.5.>.^ O./.'.R.$.| O D R.+.J O                                                 ",
"                      x Z O.+.c H O.R.-.5.3.3.5.5.5.>.^ O.E.~.R.$.O.c H %.Z n                                                   ",
"                        O J | Z K O.R.-.5.2.2.5.5.5.>.^ O.T.R.R.$.O.Z J O.$ O                                                   ",
"                        O J O.O.O.O.O./ 5.E E 5.5.5.5.3.1.=.T.O.O.O.O.J D $ O                                                   ",
"                        O Z D D K O.O./ 3.W W 3.5.5.5.3.>.@.%.O.O.O.D Z n $                                                     ",
"                          O O O Z O.O.Q >.} } >.3.5.5.3.>.} O.O.O.| O O O                                                       ",
"                              O n H O. .} W W >.3.5.2.2.>.} O.O.J F O O                                                         ",
"                              O c Z | | | H R >.3.5.>.,.1.Q  .| H Z O O                                                         ",
"        d d d             O O O z c Z Z Z Z R >.3.5.>.~ Z s s Z n c O O O                                                       ",
"        d D.|.d q 1 1 1 1 b c z z $ C Z Z Z R >.2.4.>.~ Z T T C x $ Z C n $ O O                                                 ",
"        d +X@Xd q 1 1 1 1 M Z c $ O c B Z Z R >.>.>.>.~ Z Z Z c $ O O.K Z $ O O                                                 ",
"          l w.@X[.d e.e.h 6 4 Z C c O O O O + = ;.>.= > O O O O D O.R.%.O.T.W.'.G O                                             ",
"          p f }.G.j.z.h.q.q 4 J Z n x z $ $ # = ;.>.= > $ $ $ x D K %.$.O.%.R./.#.G                                             ",
"          1 1 d x.Y.n.b.h.q 4 O.J Z Z Z c c & = ;.>.= , c c n A Z D O.O.O.O.+.R./.'.O O                                         ",
"    d d d x.m.M.m.m.z.q.q ) *.T.P Z P J Z Z Z Y 7 ; Y S Z Z D P H Z H Z z P O.+.R.W.J C O                                       ",
"    t.t.t.v.M.U.M.b.e.h 5 ..*.%.P Z O.P H F F Z 8 - Z D F F J O.J Z Z c O H J K %.T.+.F x                                       ",
"  d @X$X#XB.l n.c.h.1 q k 6 < c C Z O.O.O.O.| A C c Z J O.O.O.O.J Z O O   O $ c J O.R.R.R.z O                                   ",
"    D.D.F.l.j.c.q.a _ ! i 1 < $ c C J K O.K H A Z Z Z F J | | J Z n O O   O z H +.T./././.&.I O                                 ",
"    d d d k.v.h.j 1 T...1 1 < O z c Z J O.H Z Z Z Z A A A | | A B c O O   O x O.%.W.].].].].R.O                                 ",
"          1 1 1 R O.D n O       O O c B D Z Z Z C c Z Z Z Z Z c $ O           O &.'.O O O /.R.O                                 ",
"          X * ! W K n x O       O O c n Z Z Z Z Z C A A A Z C c $ O           O L #.o * e o.L #                                 ",
"          O z R.O.Z O O         O O c c c Z Z Z A A Z A A n c c $ O             O O 1 i k % % 3                                 ",
"        O &.!.R.J $                 2 2 2 b n Z C n Z Z n 2 2 2                       w r Z.Z.y.u 3                             ",
"        O R.'.E.P c                 1 1 6 & b M N b M N b 3 5 1                         3 A.S.Z.` y                             ",
"        O R.].].~.R.$ O             1 q k 6 1 1 1 1 1 1 1 g g 1 X                         3 `  XF.a.3 3 3                       ",
"          G L ].&.Z             @ O m e q a g k 8.w.k j a i r m % @                         f ] Z.H.y.[ ] r                     ",
"          O x '.L O             O O Z m 1 g q.h.b.n.h.e.h 5 4 D x O                           3 C.|.H.Z.V.t 0                   ",
"              O                 @ O | K Z 4 5 k k k k a 1 S H O.n O                             3 t oXXX XH.N.3                 ",
"              O                 @ O | P J & 2 a a a a 6 X F J O.n O                               t C.J.XX{.S.[ (               ",
"                                @ O | O.O.z + 1 1 1 1 X O J O.O.n O                                 3 V.oX.X X X` 3 3           ",
"                                @ O T.%.O.z O         + O J +.R.Z O                                   u f OXOX X{.H.C.] 3       ",
"                              @ n V E.R.+.x O         @ O P %.E.L V @                                   3 }.}.S.S.S.B.' 3       ",
"                              O U ].]./.R.c O         @ O %.E.].].'.O @                                   3 3 3 3 3 3 3 3 3 3   ",
"                              @ V G G D Z z @           @ n Z G G G @                                                           ",
"                                @ O O O O                 O O O O O                                                             ",
"                                                                                                                                ",
"                                                                                                                                ",
"                                                                                                                                ",
"                                                                                                                                ",
"                                                                                                                                ",
"                                                                                                                                ",
"                                                                                                                                ",
"                                                                                                                                ",
"                                                                                                                                ",
"                                                                                                                                ",
"                                                                                                                                "
};
