/* XPM */
static char *output_14[] = {
/* columns rows colors chars-per-pixel */
"64 64 210 2 ",
"   c None",
".  c #3D2E2C",
"X  c #3F2628",
"o  c #3A312D",
"O  c #212C36",
"+  c #242B39",
"@  c #2A2C34",
"#  c #362F34",
"$  c #2D3134",
"%  c #25333C",
"&  c #2E363D",
"*  c #3D3634",
"=  c #313539",
"-  c #363532",
";  c #6A1C13",
":  c #502D1E",
">  c #74251A",
",  c #7B2C1D",
"<  c #762819",
"1  c #68321E",
"2  c #70281A",
"3  c #562F2D",
"4  c #423227",
"5  c #4A3222",
"6  c #45352A",
"7  c #4A3F2C",
"8  c #463A2B",
"9  c #563C28",
"0  c #523926",
"q  c #433A30",
"w  c #5B3836",
"e  c #553635",
"r  c #402E30",
"t  c #612722",
"y  c #7F2F21",
"u  c #6A322A",
"i  c #7B3C27",
"p  c #713830",
"a  c #4D422E",
"s  c #5C422A",
"d  c #464539",
"f  c #594A34",
"g  c #624B2D",
"h  c #6C4E2C",
"j  c #6C4B37",
"k  c #7A433A",
"l  c #6D5A33",
"z  c #60573D",
"x  c #6B5637",
"c  c #7B5D3C",
"v  c #6A4F2E",
"b  c #7E623D",
"n  c #7C6B3A",
"m  c #273640",
"M  c #293A44",
"N  c #2B3D48",
"B  c #283643",
"V  c #3E3A40",
"C  c #2D424C",
"Z  c #2C444B",
"A  c #3E4345",
"S  c #2F4550",
"D  c #2F4950",
"F  c #314652",
"G  c #324A55",
"H  c #364F5B",
"J  c #394C55",
"K  c #345357",
"L  c #35545B",
"P  c #3A545E",
"I  c #355B5E",
"U  c #395560",
"Y  c #3B5A64",
"T  c #3D5E68",
"R  c #3E626A",
"E  c #3F7272",
"W  c #494648",
"Q  c #554946",
"!  c #4E5148",
"~  c #444C54",
"^  c #49565A",
"/  c #595657",
"(  c #674542",
")  c #655C44",
"_  c #695E53",
"`  c #73544D",
"'  c #4F695D",
"]  c #766749",
"[  c #776C51",
"{  c #766255",
"}  c #7F7657",
"|  c #7D775D",
" . c #6C6248",
".. c #445B60",
"X. c #41646E",
"o. c #4C6561",
"O. c #5B6162",
"+. c #426771",
"@. c #446C74",
"#. c #4B6D72",
"$. c #46747A",
"%. c #48757C",
"&. c #497A7F",
"*. c #437175",
"=. c #766D63",
"-. c #68756F",
";. c #6A7360",
":. c #626E6B",
">. c #8B3C26",
",. c #8C3B2B",
"<. c #853523",
"1. c #903D2D",
"2. c #93432C",
"3. c #9A4B2E",
"4. c #97492B",
"5. c #824A3D",
"6. c #8C4435",
"7. c #954430",
"8. c #994633",
"9. c #9C4A34",
"0. c #924D38",
"q. c #9A5236",
"w. c #87452F",
"e. c #A04F37",
"r. c #A25333",
"t. c #AB5D36",
"y. c #A5533A",
"u. c #AB5B3A",
"i. c #B15F3F",
"p. c #80673E",
"a. c #AF653C",
"s. c #805345",
"d. c #9F5942",
"f. c #8C7244",
"g. c #8D7D42",
"h. c #917547",
"j. c #967C48",
"k. c #976D52",
"l. c #8A785A",
"z. c #81694F",
"x. c #B56541",
"c. c #BB6A43",
"v. c #B86742",
"b. c #BA7345",
"n. c #A97350",
"m. c #C27345",
"M. c #C87B45",
"N. c #C57648",
"B. c #CB7C4A",
"V. c #9D824C",
"C. c #9E884B",
"Z. c #928255",
"A. c #A28C4E",
"S. c #A6954E",
"D. c #AA9252",
"F. c #B19C55",
"G. c #A68E50",
"H. c #B8A857",
"J. c #8D8563",
"K. c #928669",
"L. c #958867",
"P. c #9A9368",
"I. c #9F9373",
"U. c #A59D75",
"Y. c #A69B79",
"T. c #A19567",
"R. c #AFA97B",
"E. c #CE804B",
"W. c #C1804C",
"Q. c #D2844C",
"!. c #DA8C50",
"~. c #DE9152",
"^. c #C48050",
"/. c #E29454",
"(. c #E79A56",
"). c #C7BA5E",
"_. c #CCC060",
"`. c #4A7D82",
"'. c #4D8386",
"]. c #4E8688",
"[. c #4E8B8B",
"{. c #498986",
"}. c #508E8E",
"|. c #538182",
" X c #529492",
".X c #539996",
"XX c #549D99",
"oX c #4F9590",
"OX c #55A39D",
"+X c #57A9A1",
"@X c #57A9A1",
"#X c #909B9B",
"$X c #B0A980",
"%X c #BBB585",
"&X c #BBB588",
"*X c #B8AF97",
"=X c #8EA1A2",
"-X c #C3BD8F",
";X c #C0BD92",
":X c #C2BBA5",
">X c #D8D698",
",X c #D4D196",
"<X c #CBC78F",
"1X c #F8DD8A",
"2X c #CBC8AB",
"3X c #E6E6B6",
"4X c #D9D5C2",
"5X c #D4DBD4",
"6X c #E5E1D2",
"7X c #F5F4E8",
/* pixels */
"                                                                                                                                ",
"                                                                                                                                ",
"                                                                                                                                ",
"                                                                                                                                ",
"                                                                            ;                                                   ",
"                                                        ; ; ; ; ; ; ; ; ; , v.>.;                                               ",
"                                                        , , > > > > > > , >.c.q.>.                                              ",
"                                              ; ; ; ; ; 8.y.1.1.1.1.1.1.y.y.y.E./.; ;                                           ",
"                                        ; ; ; r.m.t.r.2.7.6.Q / / / O.:.-.-.-.k.v.t.2.;                                         ",
"                                        ; ; ; t.~.N.v.y.6.k P T +.+.$.'.'.].[.z.d.m.9.;                                         ",
"                                      ;     ; y 1.y.9.1.~ P +.+.+.'.'.'.'.[.+X X'.y.,.;                                         ",
"                                          , t.r.9.9.5.( ~ P +.+.+.'.'.'. X.X+XXX X=.s.>.>                                       ",
"                                        ; , (.m.y.1.j H H U +.+.+.'.'.'.OX+X+X+X+X'.=.y.> ;                                     ",
"                                      ; m.W.= = $ @ & N G H P T +.+.$.'.].}.+X+X+XOX X|.& @                                     ",
"                                    <.2.m.b.O Z K D C B C F H Y R +.@.`.'.[.XXXXXX+X.X'.B O                                     ",
"                                  ; 4.(.v.0.O E +X].R O O % H H H +.+.+.`.'.'.'.].+X.X'.B O                                     ",
"                                  ; < >.9.q.p W G '.&.+.+.R C G H U T +.@.@.@.`.].}.[.'.B O                                     ",
"                                  ; ; ; 8.y.1.e O '.'.'.'.$.S J ~ H U X.X.X.X.$.&.&.`.'.B O                                     ",
"                              ; ;     ; 8.y.1.e O '.&.+.+.@.'.` 1.H H H H H H C N O K '.B O                                     ",
"                                      ; ,.8.1.e % L R %.R T $.` 1.F G H H P T U P L.;.L U L O                                   ",
"                                      ; <.1.1.w N O G '.Y P +.` 1.N F H H U +.+.#.1XP.O $.@.O                                   ",
"                                  ; y y.7.1.1.e O N B % Y R P ( 1.,.( H R @.'.'.'.#.#.X.XX{.O                                   ",
"                                  1 i q.7.,.<.3 O B m % G P Q k 1.8.k / / O.`.'.'.$.@.+. X[.L C                                 ",
"                                  l l l w.,.;     O % N % # 1.1.1.y.y.y.7.k +.&.'.'.%.+.`.[.+XL O                               ",
"                                ; l J.4Xl.h : : 5 4 o % O # 1.8.e.y.5.W W ^ +.@.$.5X=XU Y U D % O                               ",
"                              ; ; h L.6XP.] 0 0 9 0 6 @ @ . 2.9.y.u.s.W J U +.R X.5X#XG G C O O O                               ",
"                              ; ; ; 1 l 2X4Xl f.V.p.j 5 ; > y.y.y.N.N.N./ U +.G N O O O O O                                     ",
"                              ; ;   1 s K.Y.S.S.D.h.c 5 i 2.y.i.v.N.B.!.k.{ Y U P Y R *.% O                                     ",
"                              ; ;     5 v n _.H.F.V.b 5 0.y.y.v.N.N.Q.(.B.n.H T +.'. X+XZ O                                     ",
"                              l l l g.).).).F.G.V.5 ! '.u ; ; ; ; y.x.N./.~.N._ P N.l.+.n.u.;                                   ",
"                              L.Y.I.T.S.H.H.D.h.b s Q o.Q w w w w ,.3.r.N.Q.Q.k._ Q.n.=.^.a.;                                   ",
"                            l *X7X7X:Xl A.F.V.x 5 c j 5 ..+.+.+.+.; ; ; 9.x.(.Q.N.(.!.N./.M.;                                   ",
"                              l.l.l.Z.A.A.j.s ! ^ 9 0 5 = C +.$.`.^ ^ ^ u , <.b.!.<.t./.(.M.;                                   ",
"                                l l p.C.h.f.6 ~ +.4 4 6 $ B X.$.`.@.@.@.w t t u.E.; 3.Q./.M.;                                   ",
"                                      5 5 6 K T +.O % N N C H T +.'.'.'.@.R H 3 ;     ; Q.M.;                                   ",
"                                  O & A A A K G C O % N N C H U Y $.&.'.`.$.T V X       3.4.                                    ",
"                                  O B H H H H N O O % N N C H H H +.$.'.'.`.+.C O       ; ;                                     ",
"                                  O B H R T O     O % N N N N F H H F N N N O                                                   ",
"                                  O N Y @.@.K Z   O % m N N N C G G F F S N O                                                   ",
"                                  O C +.`.'.'.K O     O N N N N N N F H H F O                                                   ",
"                                  O D `.'.[.OX' q     O o 6 6 6 6 6 6 6 6 6                                                     ",
"                                  O D *.'.[.[.' f   - $ 4 5 9 s s g g g g g                                                     ",
"                                      O {.oXO _ K.a 7 7 7 a b h.V.F.F.F.).H.5 .                                                 ",
"                                        L K * | $XU.L.[ [ ] f x x A.V.h.H.A.5 .                                                 ",
"                                        O @ 7 J.&X,X%XK.K.l.a a a j.f.c G.V.5 .                                                 ",
"                                              q 7 7 [ -X,X<XK.I.Y.7 7 7 f.f.5 .                                                 ",
"                                              * q q ) J.P.P.R.%X&X} } } ] x 5 o                                                 ",
"                                                    * 7 7 ) >X>X>X-X-X-Xz 7 7 *                                                 ",
"                                                    + @ P ^ z z z 3X3X,X%XR.$X] 7                                               ",
"                                                  + N D X.X.d d q 2X;XR.U.U.U. .7                                               ",
"                                                  O I +X[.`.+.C O 7 7 7 7 7 7 7 7                                               ",
"                                                  + C L G F C B + * - $ $ $ $ - *                                               ",
"                                                    + O O O O +     + O O O O +                                                 ",
"                                                                                                                                ",
"                                                                                                                                ",
"                                                                                                                                ",
"                                                                                                                                ",
"                                                                                                                                ",
"                                                                                                                                ",
"                                                                                                                                ",
"                                                                                                                                ",
"                                                                                                                                ",
"                                                                                                                                ",
"                                                                                                                                "
};
