/* XPM */
static char *output_13[] = {
/* columns rows colors chars-per-pixel */
"64 64 198 2 ",
"   c None",
".  c #3E2C2B",
"X  c #212C36",
"o  c #292D34",
"O  c #242B39",
"+  c #342F33",
"@  c #2E3234",
"#  c #24323C",
"$  c #2D363E",
"%  c #3C3533",
"&  c #373535",
"*  c #6A1C13",
"=  c #5D281C",
"-  c #74251A",
";  c #7A2B1E",
":  c #762819",
">  c #6B331F",
",  c #70291A",
"<  c #562F2D",
"1  c #413026",
"2  c #4B3222",
"3  c #44342A",
"4  c #4A3F2C",
"5  c #483929",
"6  c #5B3926",
"7  c #563C28",
"8  c #563C27",
"9  c #453B32",
"0  c #563635",
"q  c #612722",
"w  c #7F2F21",
"e  c #723328",
"r  c #3D413D",
"t  c #4D422E",
"y  c #5C432B",
"u  c #474539",
"i  c #5A4E39",
"p  c #5D5237",
"a  c #624B2D",
"s  c #6C4B2B",
"d  c #7A433A",
"f  c #6D5B33",
"g  c #62563C",
"h  c #685435",
"j  c #734B33",
"k  c #71623B",
"l  c #7D623C",
"z  c #273640",
"x  c #283642",
"c  c #293A44",
"v  c #2B3D48",
"b  c #3A3C40",
"n  c #2D434C",
"m  c #294047",
"M  c #394447",
"N  c #2F4550",
"B  c #2F4A50",
"V  c #314652",
"C  c #324A55",
"Z  c #3A4D55",
"A  c #364F5B",
"S  c #35545C",
"D  c #39535E",
"F  c #34565B",
"G  c #395560",
"H  c #3B5A64",
"J  c #3D5E68",
"K  c #3E626A",
"L  c #396365",
"P  c #3F7272",
"I  c #484848",
"U  c #54494C",
"Y  c #59584A",
"T  c #444C54",
"R  c #4B575C",
"E  c #485154",
"W  c #585757",
"Q  c #674542",
"!  c #6D5E54",
"~  c #73544D",
"^  c #776C51",
"/  c #766255",
"(  c #7E7557",
")  c #41646E",
"_  c #456063",
"`  c #5B6162",
"'  c #426771",
"]  c #446C74",
"[  c #4B6D72",
"{  c #46747A",
"}  c #48757C",
"|  c #497A7F",
" . c #4D706E",
".. c #766D63",
"X. c #68756F",
"o. c #6A7360",
"O. c #626E6B",
"+. c #843424",
"@. c #863822",
"#. c #8B3D26",
"$. c #8C3C2C",
"%. c #883628",
"&. c #903D2D",
"*. c #82432D",
"=. c #93442C",
"-. c #9A4B2E",
";. c #97492B",
":. c #824A3D",
">. c #8A4634",
",. c #964430",
"<. c #994633",
"1. c #9C4A34",
"2. c #914E3A",
"3. c #985339",
"4. c #A04F37",
"5. c #A25333",
"6. c #AB5D36",
"7. c #A5533A",
"8. c #AB5B3A",
"9. c #B15F3F",
"0. c #AF653C",
"q. c #805345",
"w. c #9F5942",
"e. c #887449",
"r. c #947748",
"t. c #976D52",
"y. c #89795A",
"u. c #806A5D",
"i. c #B56541",
"p. c #B96843",
"a. c #BA7345",
"s. c #A97350",
"d. c #C27345",
"f. c #C87B45",
"g. c #C57648",
"h. c #CB7C4A",
"j. c #9C824B",
"k. c #9C894D",
"l. c #9A8653",
"z. c #8E805E",
"x. c #A28C4D",
"c. c #A2944C",
"v. c #A99151",
"b. c #AA9B54",
"n. c #B19C55",
"m. c #A68D50",
"M. c #B2A254",
"N. c #BCAB59",
"B. c #8C8462",
"V. c #928669",
"C. c #948B66",
"Z. c #9A926B",
"A. c #9A9065",
"S. c #9E9174",
"D. c #A59C7A",
"F. c #A49762",
"G. c #A8A276",
"H. c #B2AC7D",
"J. c #CE804B",
"K. c #C1804C",
"L. c #D2844C",
"P. c #DA8C50",
"I. c #DE9152",
"U. c #C48050",
"Y. c #E29454",
"T. c #E79A56",
"R. c #C6B95E",
"E. c #CCC060",
"W. c #4B7D82",
"Q. c #4D8387",
"!. c #4E8688",
"~. c #4E8C8B",
"^. c #498885",
"/. c #508E8E",
"(. c #538182",
"). c #529492",
"_. c #539996",
"`. c #549D99",
"'. c #55A39D",
"]. c #57A9A1",
"[. c #909B9B",
"{. c #B1AA80",
"}. c #B0AF8E",
"|. c #BEB889",
" X c #BDB49D",
".X c #8EA1A2",
"XX c #C3BD8F",
"oX c #C7BDA9",
"OX c #CAC794",
"+X c #D8D698",
"@X c #D5D297",
"#X c #C7C38C",
"$X c #F8DD8A",
"%X c #D0CBB1",
"&X c #E6E5B6",
"*X c #D4DBD4",
"=X c #EFEEE0",
"-X c #F5F3E7",
/* pixels */
"                                                                                                                                ",
"                                                                                                                                ",
"                                                                                                                                ",
"                                                                                                                                ",
"                                                                                                                                ",
"                                                        * * * * * * * * * * * * *                                               ",
"                                                        ; ; - - - - - - ; ; ; @.#.                                              ",
"                                              * * * * * <.7.&.&.&.&.&.&.7.7.7.J.Y.* *                                           ",
"                                            * 5.d.6.5.=.,.>.U W W W ` O.X.X.X.t.p.6.=.*                                         ",
"                                            * 6.I.g.i.7.>.d D J ' ' { Q.Q.!.~.u.w.d.1.*                                         ",
"                                        * * * w &.7.1.&.T D ' ' ' Q.Q.Q.Q./.].).Q.7.$.*                                         ",
"                                        * - 6.5.1.1.:.Q T D ' ' ' Q.Q.Q.)._.].`.)...q.%.-                                       ",
"                                        * ; T.d.7.&.d A A D ' ' ' Q.Q.Q.'.].].].].Q...7.- *                                     ",
"                                      * d.K.& @ @ o $ v C A D J ' ' { Q.!./.].].].'.).(.$ o                                     ",
"                                    +.=.d.a.X m F B n x n V A H K ' ] W.Q.~.`.`.`.]._.Q.x X                                     ",
"                                  * ;.T.i.2.X P ].!.K X X # A A A ' ' ' W.Q.Q.Q.!.]._.Q.x X                                     ",
"                                  * : #.1.3.e I C Q.| ' ' K n C A G J ' ] ] ] W.!./.~.Q.x X                                     ",
"                                  * * * <.7.&.0 X Q.Q.Q.Q.{ N Z T A G ) ) ) ) { | | W.Q.x X                                     ",
"                                  * * * <.7.&.0 X Q.| ' ' ] Q.~ &.A A A A A A n v X S Q.x X                                     ",
"                                *   * * $.<.&.0 # S K } K J { ~ &.V C A A D J G D C.o.S H S X                                   ",
"                              * *     * %.&.&.0 v X C Q.H D ' ~ &.v V A A G ' ' [ $XA.X { ] X                                   ",
"                                  * w 7.,.&.&.0 X c x # H K D Q &.$.Q A K ] Q.Q.Q.[ [ ) `.^.X                                   ",
"                                  * ; 3.>.*.+.< X x z # C D U d &.<.d Y W ` W.Q.Q.{ ] ' ).~.F n                                 ",
"                                  * > f f s *     X # v O + &.&.&.7.7.7.,.d ' | Q.Q.} ' W.~.].F X                               ",
"                                * +.d f  XoXs 6 2 1 1 3 o + &.<.4.7.:.I I E ' ] { *X.XG H H B # X                               ",
"                              * * %.*.f %X%Xe.h 2 7 7 8 + % =.1.7.8.q.I Z G ' ) ) *X[.C C n X X X                               ",
"                              * * * *   f e.=XD.f j.r.l 7 6 7.7.7.g.g.g.W G ' A v X X X X X                                     ",
"                              * * * *   y h D.F.c.v.j.r.7 6 7.9.p.g.h.P.t./ H G D J K ] # X                                     ",
"                              * * * *   2 8 f c.E.n.v.j.y 6 7.p.g.g.L.T.h.s.A J ' Q.).].m X                                     ",
"                              * * f f f M.R.R.N.n.j.q.2 * * * * * 7.i.g.Y.I.g.! D g.y.' s.8.*                                   ",
"                              > > S.D.S.b.b.R.M.v.q.f y = = < 0 0 $.-.5.g.J.L.t.! L.s...U.0.*                                   ",
"                              f f =X-X=Xz.l n.m.j.2 y l 7 3 A J ' * * * 1.i.T.L.g.T.P.g.Y.f.*                                   ",
"                                  y.y.y.k.x.x.l y  .W 8 2 4 K { W.R R R e ; @.a.P.@.6.Y.T.f.*                                   ",
"                                  f h p r.j.e.h 9 W._ 1 3 9 ) { W.] ] ] 0 q q 8.J.* -.L.Y.f.*                                   ",
"                                      X 1 2 2 E ' ' S X c n A J ' Q.Q.Q.] K A < *     * L.f.*                                   ",
"                                      X b M E Z A n v z c n A G H { W.Q.W.{ J b .       -.;.                                    ",
"                                      X V D ' S v X # v v n A A A ' { Q.Q.W.' n X       * *                                     ",
"                                      X V D ' N X X # v v v v V A A V v v c X                                                   ",
"                                      X A J { J A X # z v v v n V V V N V v X                                                   ",
"                                      X H ] Q.Q.Q.O X X c v v v v v N A A V X                                                   ",
"                                      X ' W.Q.).'.# @ 9 3 3 3 3 3 3 3 3 3 3                                                     ",
"                                      X K { ~.~.~.r u i 5 2 2 2 2 a a a a a                                                     ",
"                                        X m ].L X r.l.V.i 4 4 4 4 n.n.n.R.M.2 .                                                 ",
"                                          x F n O h y.{.G.Z.^ ^ ^ k k k b.x.2 .                                                 ",
"                                            X O   4 ^ |.OX#XV.V.V.t t t k.j.2 .                                                 ",
"                                                    % 4 4 g XXOX+XV.Z.D.p 4 4 %                                                 ",
"                                                    @ % I Y B.C.Z.H.{.|.B.( ( Y % % &                                           ",
"                                                    O X H _ 4 4 4 +X+X+X#XXXXX^ 4 4 9                                           ",
"                                                    O X H ) _ M o g g g %X&X@X|.{.{.y.4                                         ",
"                                                  O v B ) ] ' n X 9 u u }.OXH.G.D.D.( 4                                         ",
"                                                  X F ].~.W.' n X X n ' u 4 4 4 4 4 4 4                                         ",
"                                                  O n S C B n x O O x n @ @ @ & % % % %                                         ",
"                                                    O X X X X O     O X X X X O                                                 ",
"                                                                                                                                ",
"                                                                                                                                ",
"                                                                                                                                ",
"                                                                                                                                ",
"                                                                                                                                ",
"                                                                                                                                ",
"                                                                                                                                ",
"                                                                                                                                ",
"                                                                                                                                ",
"                                                                                                                                ",
"                                                                                                                                "
};
