/* XPM */
static char *output_00[] = {
/* columns rows colors chars-per-pixel */
"64 64 204 2 ",
"   c None",
".  c #322E2E",
"X  c #3A2F2A",
"o  c #212C36",
"O  c #232B39",
"+  c #292C34",
"@  c #24323C",
"#  c #2E3539",
"$  c #37373A",
"%  c #302C33",
"&  c #6A1C13",
"*  c #59201B",
"=  c #56291C",
"-  c #4F2E1F",
";  c #6A251A",
":  c #7B2D1D",
">  c #7E301D",
",  c #572926",
"<  c #4A3121",
"1  c #45352A",
"2  c #4A3F2C",
"3  c #453529",
"4  c #533926",
"5  c #563B28",
"6  c #483838",
"7  c #5A3734",
"8  c #402F2A",
"9  c #622822",
"0  c #773A27",
"q  c #663830",
"w  c #5E442B",
"e  c #54412D",
"r  c #48433B",
"t  c #564B36",
"y  c #544A36",
"u  c #604C2D",
"i  c #61462E",
"p  c #6A4638",
"a  c #7D473B",
"s  c #6D5B33",
"d  c #675438",
"f  c #76583A",
"g  c #74623B",
"h  c #7E623D",
"j  c #273741",
"k  c #293B44",
"l  c #2B3E48",
"z  c #283642",
"x  c #333E43",
"c  c #4A3C40",
"v  c #2D424C",
"b  c #3A444A",
"n  c #2E4B51",
"m  c #2F4550",
"M  c #324B55",
"N  c #364F5B",
"B  c #354B56",
"V  c #35545B",
"C  c #3A535D",
"Z  c #34585C",
"A  c #395661",
"S  c #3B5A64",
"D  c #3D5E68",
"F  c #3E636B",
"G  c #3D6C6E",
"H  c #3A6265",
"J  c #3F7272",
"K  c #42454C",
"L  c #474944",
"P  c #5A4849",
"I  c #4C5249",
"U  c #434E56",
"Y  c #4A5858",
"T  c #555A55",
"R  c #6B4A46",
"E  c #724A43",
"W  c #675B44",
"Q  c #755449",
"!  c #665C59",
"~  c #7E5B50",
"^  c #6D6349",
"/  c #75694A",
"(  c #776754",
")  c #7D765D",
"_  c #68605D",
"`  c #485C62",
"'  c #41656E",
"]  c #49686C",
"[  c #566668",
"{  c #426771",
"}  c #436D74",
"|  c #4A6B70",
" . c #427174",
".. c #467379",
"X. c #49797F",
"o. c #47797A",
"O. c #587678",
"+. c #42706E",
"@. c #7A6C61",
"#. c #6B726F",
"$. c #853923",
"%. c #883A23",
"&. c #903D2D",
"*. c #9C4E2E",
"=. c #95462C",
"-. c #8A4935",
";. c #964834",
":. c #9E5234",
">. c #874D32",
",. c #A14F38",
"<. c #A5543B",
"1. c #A85937",
"2. c #846C3F",
"3. c #81663E",
"4. c #B3653B",
"5. c #955542",
"6. c #815B4F",
"7. c #846943",
"8. c #9A644D",
"9. c #8D7343",
"0. c #887546",
"q. c #957B48",
"w. c #856656",
"e. c #857959",
"r. c #A66A4A",
"t. c #BB6B44",
"y. c #B46341",
"u. c #AB714E",
"i. c #A97251",
"p. c #8A7E62",
"a. c #C27346",
"s. c #C67648",
"d. c #CC7D4A",
"f. c #C97C46",
"g. c #45807E",
"h. c #70887A",
"j. c #948346",
"k. c #9D824C",
"l. c #9E884B",
"z. c #9B8759",
"x. c #87805A",
"c. c #A1894E",
"v. c #A38D57",
"b. c #AA9553",
"n. c #B19C55",
"m. c #A6924F",
"M. c #B8A857",
"N. c #8D8263",
"B. c #918568",
"V. c #958B69",
"C. c #9B916D",
"Z. c #9D9371",
"A. c #808D77",
"S. c #A99F79",
"D. c #A39879",
"F. c #A7A57C",
"G. c #B0A77F",
"H. c #B5B07D",
"J. c #CE804A",
"K. c #D2844C",
"L. c #D7884F",
"P. c #DB8C51",
"I. c #C98350",
"U. c #E29454",
"Y. c #E79A56",
"T. c #C6B85E",
"R. c #C5B477",
"E. c #CCC060",
"W. c #4A7E82",
"Q. c #737F82",
"!. c #4C8486",
"~. c #4E8B8C",
"^. c #4B8686",
"/. c #508E8E",
"(. c #5A8586",
"). c #4E928E",
"_. c #50908F",
"`. c #519392",
"'. c #529B96",
"]. c #549E99",
"[. c #4F9590",
"{. c #6C8687",
"}. c #69938D",
"|. c #55A49D",
" X c #57A9A1",
".X c #818E83",
"XX c #A9A583",
"oX c #B3AC82",
"OX c #BEBA89",
"+X c #BBB29A",
"@X c #B8AF97",
"#X c #879EA0",
"$X c #BFB8A1",
"%X c #C1BB8C",
"&X c #C5BA80",
"*X c #C5BF93",
"=X c #D2CE97",
"-X c #EBD285",
";X c #D3CDBA",
":X c #E3E2B7",
">X c #D5DCD5",
",X c #E3E1D0",
"<X c #FBFAEE",
"1X c #EFEEE0",
/* pixels */
"                                                                                                                                ",
"                                                                                                                                ",
"                                                                                                                                ",
"                                                                                                                                ",
"                                                                                                                                ",
"                                                                          & &                                                   ",
"                                                                          %.&.                                                  ",
"                                                                        & 4.Y.& &                                               ",
"                                                                  o * : 1.J.Y.1.=.& % o                                         ",
"                                                                  @ , 0 a.L.U.a.:.; % @                                         ",
"                                                              o v { W.O.<.t.s.<.w.!.} S o                                       ",
"                                                              M A X.!.(.@.8.y.@.#.!.X.} M l                                     ",
"                                                          o o ' ..!.!.!.!.w.<.!.!.!.!.W.{ v o                                   ",
"                                                        o M F !.!.!.].].!.w.<.!.`.|.~.!.!.} F o o                               ",
"                                                        o B { !.^._.|.|._.#.w._.'. X`.~.!...' o o                               ",
"                                          o o o o o     o B { !.`. X X X X`.!. X X X X|.!...' o o   o o o o o                   ",
"                                          o o g.o.{ v o o B { !.^./.|. X X|.]. X X X`.~.!...' o o o F  .^.n o                   ",
"                                            o ).).!.M @ o M ' W.!.!.].|.|.|.|.|.|.|.^.!.!.} ' o @ j o.^.'.V o                   ",
"                                              o v { W.o.o v N { ..!.!.W.{ X.!.{ ..!.!.W.{ A N o V !.} A o                       ",
"                                                k M { | 7 K N V V V }  .D ..!.D ' o.A V V V N 7 T o.N v                         ",
"                                                  o A [ &.P N l j o S ' N } !.N S { j @ l M N &.R { @ o                         ",
"                                                  o m U &.P N ' A.-XI l !.'. X!.H @ R.&X' A N &.R V @ o                         ",
"                                                  o l b ;.E P { h.OXY B `.]. X`. .v F.XX{ Y P ;.p v @                           ",
"                                                    o $ <.;.&.' ..!.} .. X X X X~.{ W.W.{ E &.<.p o                             ",
"                                                    * 9 t.1.,.a ! !.D V n !. Xn N A W.O.a ;.,.t.;.*                             ",
"                                                    > %.s.y.5.-.( }.' N @ G [.@ l A (.{.-.-.5.s.1.>                             ",
"                                                  & f.U.s.( N { #X<X{.F N k o N S { >X>X{ A C s.K.Y.> &       s s s             ",
"                                              o $ 6 -.1.P.r.Q { O..XU v k @ o k v m #.Q.{ ! Q P.a.,.; = < u g +XV.s             ",
"                                              o z N , > Y.a.<.{ V o o o o o o o o o o z { 6.<.Y.4.& - < < u g <X@Xs             ",
"                                          o o F ' { C K ; :.s.<.~ ' X.^.|.|.|.|.'.!.{ [ <.t.a.; 0 f q.9.s $X,Xg g               ",
"                                          B Z ..} { D U & 1.K.y.8._ O.W.^.}..X^.!.X._ ( y.s.J.& 0 9.c.c.j.XX@Xu u               ",
"                                        o G  X^.X.{ { ` & 4.Y.s.t.<.[ ' N w.s.N S { 5.1.s.P.U.& >.k.b.M.E.q.s < <               ",
"                                    o k ~.~.~. .} { v k K q $.P.K.t.u.i.r.I.U.r.u.i.t.s.U.1.$.| T w q.m.M.M.M.M.j.s s s         ",
"                                    o k |.~.W.F D D k @ M 6 9 d.J.d.t.t.d.P.Y.d.a.4.s.d.K.>.9 ..T 4 2.q.b.M.T.M.v.e.e.e.        ",
"                                    o j !.o.{ v z o     o v N & *.Y.$.$.Y.Y.Y.Y.4.& K.d.& c N < i h 4 w k.m.b.s XX1X<X;Xs       ",
"                                  o F o.'.`.~.{ V o     o M D T Q *.7 7 *.f.Y.*.a 6 -.-.T ` D < 4 i T T d q.c.j.z.D.D.Z.        ",
"                                  o ^. X X X X^.F o     o B { !.T & K K & 4.Y.& 7 N 9 q !...' < < < ..| < 3.k.n.q.s s s         ",
"                                  o ^.'.o o o |.o.o       o o ' ..!.!.X.N 7 & N F !.!.W.{ v o     o M A { r < < <               ",
"                                  o H +.r $ .  .H o       o o C D } } { M 6 , M A } } { A l o     o l M D Y I X X               ",
"                                  o o # h i < o o         o o l v N V N l l l l m N N B l @ o       o @ N ..W.o o               ",
"                              2 d ) 0./ 4 4                   3 1 1 x v N v l B m v 6 1 3               @ G !.).H o             ",
"                              t ^ B.z.z.<                     < < 4 $ x b b $ b b $ 2 4 <               l  ./. XG o             ",
"                            2 p.B.B.oXoX2                     < w h 5 < < < < < < < f f < X         o v !.]. X XG o             ",
"                        2 W ( N.Z.oXe./                   O O b r w p d h 2.9.h h h 9.3.< . o         l B ^.|.Z B               ",
"                        e ^ B.B.D.OX^ 2                   O o N b < f 7.k.m.n.k.k.q.k.9.< . o           o o.].o o               ",
"                    2 y B.Z.S.%XZ.2                       O o ' D N 1 w n.n.n.n.9.< l.k.< . o             o o                   ",
"                    ^ ( C.F.OXV.e.2                       O o ' ' D $ 1 2.m.M.2.d X g / L # o               o                   ",
"                  2 N.S.S.%X=Xt 2                         O o ' { { z + < j.E.< X o 8 6 { v o                                   ",
"              2 W C.oX%X=XC.d                             O o W.X.{ z o   e w   + o m C !.M o                                   ",
"              d ( G.*X=XH.x.2                           O v n ~.!.} k o   8 <   O o V ' /.H n O                                 ",
"            2 C.G.%X:X:X2                               o J  X X'.!.v o         O o o.~. X X|.o O                               ",
"        2 2 2 W ^ / ) e.                                O n Z Z V M z O           O v B Z Z Z O                                 ",
"        2 2 2 2 2 2 2 2                                   O o o o o                 o o o o o                                   ",
"                                                                                                                                ",
"                                                                                                                                ",
"                                                                                                                                ",
"                                                                                                                                ",
"                                                                                                                                ",
"                                                                                                                                ",
"                                                                                                                                ",
"                                                                                                                                ",
"                                                                                                                                ",
"                                                                                                                                ",
"                                                                                                                                "
};
