/* XPM */
static char *output_06[] = {
/* columns rows colors chars-per-pixel */
"64 64 188 2 ",
"   c None",
".  c #2F292F",
"X  c #362E2C",
"o  c #212C36",
"O  c #232C39",
"+  c #292D32",
"@  c #25323D",
"#  c #2C353B",
"$  c #353A3C",
"%  c #383939",
"&  c #393639",
"*  c #6A1C13",
"=  c #5A201B",
"-  c #7B2B1E",
";  c #432F27",
":  c #4C2321",
">  c #542D2C",
",  c #4A3121",
"<  c #45352A",
"1  c #45382E",
"2  c #4A3F2C",
"3  c #443125",
"4  c #533926",
"5  c #573C28",
"6  c #5A382C",
"7  c #463B3A",
"8  c #553130",
"9  c #703028",
"0  c #4C412E",
"q  c #5C432B",
"w  c #5E492B",
"e  c #4E473D",
"r  c #554332",
"t  c #594D39",
"y  c #544A3A",
"u  c #5D523B",
"i  c #62482D",
"p  c #694D34",
"a  c #664A31",
"s  c #73433C",
"d  c #6C5135",
"f  c #6D5B33",
"g  c #60563E",
"h  c #61583F",
"j  c #735A36",
"k  c #745639",
"l  c #7C5E3D",
"z  c #745A37",
"x  c #7E623D",
"c  c #776539",
"v  c #273640",
"b  c #2A3B45",
"n  c #2B3E48",
"m  c #273742",
"M  c #2E424D",
"N  c #2F484F",
"B  c #3E4344",
"V  c #38434B",
"C  c #2F4550",
"Z  c #2F4A51",
"A  c #304652",
"S  c #324B55",
"D  c #364F5B",
"F  c #3A4A51",
"G  c #325157",
"H  c #35545C",
"J  c #3A555E",
"K  c #385A5C",
"L  c #395561",
"P  c #3B5A65",
"I  c #3D5E69",
"U  c #375A60",
"Y  c #3F626B",
"T  c #3C6569",
"R  c #3F7272",
"E  c #454845",
"W  c #474C52",
"Q  c #4D4B50",
"!  c #49555A",
"~  c #6E4A44",
"^  c #6B4440",
"/  c #744B45",
"(  c #665C44",
")  c #6C564B",
"_  c #655C59",
"`  c #796D4B",
"'  c #69635D",
"]  c #786F52",
"[  c #7D7356",
"{  c #7F775C",
"}  c #6A6046",
"|  c #525E63",
" . c #4A5B61",
".. c #40646E",
"X. c #4F6062",
"o. c #576263",
"O. c #426771",
"+. c #436C74",
"@. c #427476",
"#. c #467379",
"$. c #48777D",
"%. c #49797F",
"&. c #447E7C",
"*. c #567979",
"=. c #6E726B",
"-. c #68726C",
";. c #833223",
":. c #903D2D",
">. c #9D4A35",
",. c #964331",
"<. c #884C3E",
"1. c #A6543B",
"2. c #AC5A3D",
"3. c #A65539",
"4. c #80693D",
"5. c #AE6138",
"6. c #875A4C",
"7. c #A15941",
"8. c #886A43",
"9. c #8C7443",
"0. c #947848",
"q. c #956751",
"w. c #946D55",
"e. c #85795D",
"r. c #857757",
"t. c #9C6149",
"y. c #B86742",
"u. c #BF7141",
"i. c #917D65",
"p. c #C67648",
"a. c #C07046",
"s. c #64837C",
"d. c #758476",
"f. c #9D824C",
"g. c #978548",
"h. c #94855F",
"j. c #A0914D",
"k. c #AF805A",
"l. c #AB9452",
"z. c #AD9A52",
"x. c #B19C55",
"c. c #A1874E",
"v. c #B7A757",
"b. c #928B64",
"n. c #968A69",
"m. c #9D946E",
"M. c #8F9075",
"N. c #9C9171",
"B. c #A59B77",
"V. c #ABA479",
"C. c #B0A77F",
"Z. c #D98B50",
"A. c #D78A4E",
"S. c #E79A56",
"D. c #E49755",
"F. c #C5B85D",
"G. c #CCC060",
"H. c #4B7F83",
"J. c #4C8386",
"K. c #4E8688",
"L. c #4D8C8B",
"P. c #508E8E",
"I. c #598684",
"U. c #4D918D",
"Y. c #519391",
"T. c #529B96",
"R. c #549D99",
"E. c #589C95",
"W. c #689B8E",
"Q. c #6B9E90",
"!. c #55A29C",
"~. c #57A9A1",
"^. c #ABA186",
"/. c #B5AE83",
"(. c #BBB388",
"). c #B6AE94",
"_. c #C3BD8F",
"`. c #C5BF90",
"'. c #C9C58D",
"]. c #C5C090",
"[. c #D5D396",
"{. c #D1CE95",
"}. c #DBD9A6",
"|. c #D3CEBA",
" X c #D7D2C0",
".X c #DBD7C5",
"XX c #EEEDCF",
"oX c #EFEEE0",
/* pixels */
"                                                                                                                                ",
"                                                                                                                                ",
"                                                                                                                                ",
"                                                                                                                                ",
"                                                * *                                                                             ",
"                                              * 5.A.* *                                                                         ",
"                                              ;.u.S.;.;.                                                                        ",
"                                        o = - p.Z.S.p.3.* . o                                                                   ",
"                                    o n J X.' p.Z.S.p.w.o.J D o                                                                 ",
"                                    @ A +.J.s.p.A.D.p.i.K.+.I @                                                                 ",
"                                o o ..#.J.!.Q.p.p.p.p.n.~.L.H.O.M o                                                             ",
"                                M S #.J.Y.d.i.p.p.p.p.k.M.I.J.$.P A                                                             ",
"                              o S O.J.Y.~.q.2.p.p.p.p.p.p.s.J.J.#...o o                                                         ",
"                  o o o o     o S O.J.Y.~.q.2.p.p.p.2.y.p.Q.R.J.#...o o   o o o o o                                             ",
"                o o G S N     o S O.J.Y.~.q.2.p.a.y.6.t.y.Q.!.J.#...o o   M A G m o                                             ",
"                o o !.R.J.M o o S O.J.Y.~.q.2.p.y.1.O._ 1.W.!.J.#...o o o #.L.~.H o                                             ",
"                    S U +.+.T o S O.J.-.w.7.2.2.2.1./ ) o.E.!.J.#...o M +.+...S M                                               ",
"                    o n I $.#.@ D O.J.=.1.1.1.1.1.1.:./ O.T.R.J.#...@ H J...H o                                                 ",
"                        o P ..D I O.J.=.1.,.,.1.1.1.:./ O.H.J.J.#.O.D P O.@ o                                                   ",
"                        o P ..I ..O.#.' 1.~ ~ 1.1.1.>.<.) *.J.$.+.O.I P P @ o                                                   ",
"                        o P O.O.O.O.O.' 1.Q W 1.1.1.1.>.:.*.H.O.O.O.O.I D @ o                                                   ",
"                          @ @ @ D O.O._ :.| | :.>.1.1.>.:.X.+.O.O...@ O O                                                       ",
"                            o o S I O.| /  .! :.>.1.>.,.:.| O.O.Y I o o o                                                       ",
"                              o M D O.O.O.L W :.>.1.:.:.:.| O.O.P D o o                                                         ",
"        f f f             o o o m M L L L H W :.>.1.:.s Q / ~ L S M o o o o o                                                   ",
"        f ` r.            @ @ O v b S D D D W :.>.1.:.^ D s s D M b @ @ @ m m                                                   ",
"        f |.XXf q , , , , ! Y n @ o n M D D W :.:.:.:.^ D D S n @ O O.O.O.H.+.o                                                 ",
"          B.^.).e.w z z a e E A n v @ m b b $ - ;.:.- 8 b b b @ M D $.#.O.H.H.R S o                                             ",
"          f ` oX^.f 0.0.x 5 < D A n o o o o . * ;.:.* : o o o o H O.J.$.O.J.P.~.H o                                             ",
"          , , j j.F.x.l.f.q 1 O.P D D A n n $ * ;.:.* > n n M D D H +.I H ..#.K.T.R.o o o                                       ",
"          c c g.z.F.l.f.x y E #.I D P H M M n > 9 ;.> 7 M M S P J D I H M P ..$.U.Y.S S S                                       ",
"    f f f v.G.G.v.x.f.4., ! +.J...D O.I D D D D 8 * D D D D L O.P D D M o S L O.$.J.J.J.J.v o                                   ",
"  f |. X|.b.9.v.l.c.i a k r 7 S D D O...Y Y I D V & D L Y Y ..O.P D @ @   @ m A +.K.!.!.!.U.@.o                                 ",
"  f  X.X Xh.4.z.f.9.1 r k 4 3 b M S Y ..O...I D A M D L ..O.O...J S o o   o @ S #.L.U.U.U.!.J.o                                 ",
"    f f f f.z.f.j , S B , , 3 o v n D P O.L D D D D D D D ..Y D M n o o   o M J.R.!.o o o T.J.o                                 ",
"          j z d y B b $         @ @ M S P H D D S A D D D L L A b @         n G L.!.o % t K K                                   ",
"          , , , B D O o         o o n M D D D D A n D D D D S n @ o           o &.!.o e x # o                                   ",
"        o +.J.J.H o             o o n n n S D D D D D D D M n n @ o             o o , , , e.[ 2                                 ",
"        o #.Y.J.T G               o % % % C S D S A D D A $ % % # o               o , , , N.n.( t                               ",
"        o J.!.J.J.J.@ o             , , , $ M D A n D A n < , ,                         2 /./.b.g 2 2                           ",
"        o J.~.!.R n                 , 5 k 2 < 1 < < 1 < < d p ,                           g [ (.n.e.e.( 2                       ",
"        o @.L.L.T o                 1 r k q 5 q q i q q 4 d p 1 &                         2 } V.B.B.N.[ u                       ",
"          o o o                 o o D B , k 8.f.l.x.f.0.x 4 1 D b o                           2 V.[._./.B.r 2 2                 ",
"                                o o I J B r a 8.9.0.8.l q E F I n o                             ] [ ] m.'.m.b.e.g 2             ",
"                                O o ..I H 1 4 l l l l a , F L O.M o                             2 2 2 b.[.].(.V.( 0             ",
"                                O o ..O.O.m + , , , , X o I O.O.M o                                     2 '.{._.C.m.2 2 2       ",
"                                O o #.+.O.m + ; ; ; ; X o I +.#.C o                                     2 b.C.}.`./.[ ] `       ",
"                                O o J.$.O.m o         O o I +.J.S o                                       2 { XX}.[._./.B.r 2   ",
"                                O o J.J.J.n o         O o @.J.J.S o                                           ( h g u u t 0 2 2 ",
"                              O M Z L.L.J.n o         O o #.K.P.T Z O                                         2 2 2 2 2 2 2 2 2 ",
"                              o R ~.~.T.J.n o         O o #.L.~.~.!.o O                                                         ",
"                              O Z H H G A m O           O M S H H H O                                                           ",
"                                O o o o o                 o o o o o                                                             ",
"                                                                                                                                ",
"                                                                                                                                ",
"                                                                                                                                ",
"                                                                                                                                ",
"                                                                                                                                ",
"                                                                                                                                ",
"                                                                                                                                ",
"                                                                                                                                ",
"                                                                                                                                ",
"                                                                                                                                ",
"                                                                                                                                "
};
