/* XPM */
static char *output_11[] = {
/* columns rows colors chars-per-pixel */
"64 64 189 2 ",
"   c None",
".  c #3C2E2B",
"X  c #322E2D",
"o  c #212C36",
"O  c #2D2D34",
"+  c #232C39",
"@  c #352F34",
"#  c #25333D",
"$  c #2E373D",
"%  c #3C3634",
"&  c #323A3F",
"*  c #383834",
"=  c #6A1C13",
"-  c #53211E",
";  c #732419",
":  c #76281B",
">  c #7C2D1D",
",  c #702217",
"<  c #7E301F",
"1  c #5B2B27",
"2  c #443025",
"3  c #4A3121",
"4  c #4A3E2C",
"5  c #46392C",
"6  c #413E3A",
"7  c #493938",
"8  c #523332",
"9  c #563C3B",
"0  c #632A25",
"q  c #7F2F21",
"w  c #64332C",
"e  c #6E3830",
"r  c #4E432F",
"t  c #564938",
"y  c #45473F",
"u  c #6A4D33",
"i  c #604535",
"p  c #7F4435",
"a  c #7E493C",
"s  c #76433B",
"d  c #63543C",
"f  c #795B3B",
"g  c #7E623D",
"h  c #273741",
"j  c #283742",
"k  c #293B45",
"l  c #2B3D48",
"z  c #363D42",
"x  c #2D424C",
"c  c #3B494E",
"v  c #334048",
"b  c #2F4650",
"n  c #2F4A51",
"m  c #314651",
"M  c #324B55",
"N  c #364F5B",
"B  c #3A4D56",
"V  c #325156",
"C  c #35535B",
"Z  c #38535E",
"A  c #365A5E",
"S  c #395560",
"D  c #3B5B65",
"F  c #3E5E68",
"G  c #375F61",
"H  c #3E646C",
"J  c #386264",
"K  c #444748",
"L  c #564849",
"P  c #5E574C",
"I  c #484D53",
"U  c #48545A",
"Y  c #525355",
"T  c #6D4540",
"R  c #6A4844",
"E  c #734B44",
"W  c #70504A",
"Q  c #6C5E54",
"!  c #6E5B4A",
"~  c #74674D",
"^  c #74705D",
"/  c #71654C",
"(  c #4F5E61",
")  c #40646E",
"_  c #42696D",
"`  c #426771",
"'  c #436C74",
"]  c #486C75",
"[  c #46737A",
"{  c #48767C",
"}  c #49787E",
"|  c #457679",
" . c #5B716F",
".. c #796B60",
"X. c #7A7F6F",
"o. c #6A7C74",
"O. c #802F22",
"+. c #843325",
"@. c #8A3C25",
"#. c #883628",
"$. c #8D3C2A",
"%. c #903D2D",
"&. c #873F31",
"*. c #8D4026",
"=. c #92412D",
"-. c #9B4D2E",
";. c #954C2E",
":. c #894234",
">. c #854133",
",. c #964531",
"<. c #9C4B34",
"1. c #9C4B35",
"2. c #98513C",
"3. c #A04F37",
"4. c #A5533A",
"5. c #A75737",
"6. c #B05F3F",
"7. c #AF603B",
"8. c #B4653C",
"9. c #865846",
"0. c #995941",
"q. c #8C7243",
"w. c #957A48",
"e. c #896857",
"r. c #82765C",
"t. c #A66948",
"y. c #B56441",
"u. c #BB6B43",
"i. c #B86742",
"p. c #B9764A",
"a. c #A9754E",
"s. c #C27444",
"d. c #C87B45",
"f. c #C67648",
"g. c #C77848",
"h. c #CB7D4B",
"j. c #728473",
"k. c #9C834B",
"l. c #968448",
"z. c #88815B",
"x. c #AC9553",
"c. c #B09B55",
"v. c #AFA052",
"b. c #8E8364",
"n. c #918568",
"m. c #958B68",
"M. c #9A9469",
"N. c #A59C76",
"B. c #A99F79",
"V. c #A09572",
"C. c #AAA278",
"Z. c #CE804A",
"A. c #D2844C",
"S. c #D78A4E",
"D. c #C88752",
"F. c #DB8E50",
"G. c #D78D53",
"H. c #DD9052",
"J. c #E19453",
"K. c #E79A56",
"L. c #C6B85E",
"P. c #4A7D82",
"I. c #4D8486",
"U. c #4D8688",
"Y. c #4F8B8C",
"T. c #4A8A86",
"R. c #548183",
"E. c #508F8F",
"W. c #4F908F",
"Q. c #50908F",
"!. c #4F9590",
"~. c #529593",
"^. c #529996",
"/. c #549F9A",
"(. c #689697",
"). c #56A59E",
"_. c #57A9A1",
"`. c #808687",
"'. c #B3AB82",
"]. c #BDB788",
"[. c #BBB893",
"{. c #A5AFAE",
"}. c #C3BD8D",
"|. c #D8D698",
" X c #C6C190",
".X c #EBD285",
"XX c #D5D3AA",
"oX c #E0DEB2",
"OX c #FBFAEF",
/* pixels */
"                                                                                                                                ",
"                                                                                                                                ",
"                                                                                                                                ",
"                                                                                                                                ",
"                                                                                                                                ",
"                                                      =                                                                         ",
"                                                    > +.                                                                        ",
"                                                  = @.f.< = = = = = = = = =                                                     ",
"                                                = u.u.6.<.=.+.+.+.+.+.+.%.$.= = = = = = = =                                     ",
"                                              ; ; H.h.0.0.0.:.:.:.:.:.&.1.,., ; ; : , = = =                                     ",
"                                            = <.f.4.e.I.I.I.I.[ ` ` F N p ,.4.u.f.K.7.=     =                                   ",
"                                            = =.y...o.~.U.I.I.P.{ ` ) D L T <.6.y.u.;.=                                         ",
"                                            = $.4.R.~._.Y.I.I.I.I.` ` ` Z I %.1.4.%.q =                                         ",
"                                        = ; 3...P.)._._.)./.I.I.I.` ` ` Z N B s =.4.u.F.> =                                     ",
"                                        - 1 e.o.E._._._.).^.I.P.P.` ) H Z N m 9 e a 0.a.;.*.                                    ",
"                                        o k I.^._._._._.Y.I.I.[ ` ` F N N M l # o o o o D.d.= = =                               ",
"                                        o k I.^._.E.E.E.U.I.' ` ` S Z N k # # C ' T.G o p.h.s.@.= =                             ",
"                                        o k I.~.).I.I.I.I.P.` ) ) N N N k h h H U.^._ O t.g.S.=.= = =                           ",
"                                        o k I.I.I.I.} ` ` ` ` D N N m l [ I.I.I.I.o 8 %.4.,.=     = =                           ",
"                                        o k I._ C D D D D D D Z N R Y H [ [ [ P.I.o 8 %.4.,.=                                   ",
"                                        o k I.C o l x N N N N N N %.Q I.' ` ` } I.o 8 %.4.,.=                                   ",
"                                      o ` [ # m..X_ ) ` Z N N m l %.W ` S D I.M # l 9 %.%.,.4.q =                               ",
"                                      o | I.x j.].[ [ [ F S N K 7 %.E F D D H x # h 9 %.%.=.1.=.@.                              ",
"                                      o T./.` ` ` I.I.I.' ) N T %.%.T N ) D o j l o 8 %.%.%.%.8.s.= =                           ",
"                                  o V T.Y.U.` [ P.I.P.' W a 9.2.3.%.&.s z k k # #   1 ; $.#.; $.<.= =                           ",
"                                  o V !.I.} ) R.(.I.{ ` E >.2.2.4.=.%.%.@ o k j #     = +.+.= O.#.= =                           ",
"                                  o o o m N N {.OX] ` ` S M l E 4.4.1.%.@ o o C ) o o   = =   = = = =                           ",
"                                        k k k  .`.C S ` S U 9.t.i.4.4.1.1 5 D ' { M x o           = =                           ",
"                                        o o o o o l N ` S Y f.f.f.4.4.4.; w I.I.I.` M o           = =                           ",
"                                        o l ).~.I.` F C t.h.K.A.f.f.u.4.4.,.=  .).I.D o                                         ",
"                                        i P W.j.X.( ( Q p.A.F.f.u.5.<.%.%.>.t  .^.I.H x                                         ",
"                                      = 6.a.` e.f.C Q f.J.J.f.y.4.= = = = w I.I.I.I.} ` # o                                     ",
"                                      = s.G.a.D.J.a.p.J.u.5.< > : U I K @ & ' P.I.' ' ` # o                                     ",
"                                      = d.J.h.Z.A.h.h.A.4.,.0 0 0 ' H Z k l F [ P.` ) ) k #                                     ",
"                                      = d.K.K.3.= J.8.= = 0 ` ` ` I.} ` Z m o C ` ` F N N m o                                   ",
"                                      = d.F.-.@.  -.p 7 L Y } } } [ ` D m x h l x ` ) F C m o                                   ",
"                                      = d.A.=     = 8 N H ' I.I.I.` F N x l l # o ` ` ` Z m o                                   ",
"                                        = =       o x ` P.I.I.[ ` N N N x l l # o o b ` Z m o                                   ",
"                                          =       @ z N H H H H F N N m l l l # o o b ` Z m o                                   ",
"                                                  4 % o k l l m N N m l l l l # o o b ` Z m o                                   ",
"                                                4 r.P o m M M m x x l l l k o o o [ } P.` Z o                                   ",
"                                              t t b.^ K c c c v & & & z & $ o o o Y.U.I.[ F o                                   ",
"                                            4 / n.n.N.}.d 3 3 3 3 3 3 3 3 2 o o # _.^.I.I.' o                                   ",
"                                          t ~ b.V.'.M.~ l.l.q.q.q.g f u u i . O + A | ^.A m                                     ",
"                                        r t n.V.C.].n.3 v.L.c.c.c.w.q.f f f 3 .   o J ).l o                                     ",
"                                      4 n.B.B.}.|.r 5 3 k.x.g q.k.3 3 3 3 2         + o                                         ",
"                                    d ~ N.'.].C.M.4 5 3 w.k.u d ! 6 6 6 6 % +       + +                                         ",
"                                  4 ! B.]. X|.z.4   . 3 q.q.3 X o N N N N m o +                                                 ",
"                                4 m.B.].oXXXd t     + O 4 r c v k # b ) ) S o +                                                 ",
"                              4 4 b.m.N.[.[.5 %   + l n y K S x k o x ` ' ) n l +                                               ",
"                            4 4 4 4 4 4 4 4       o A _.Y.P.` x o o x ` P.Y._.A o                                               ",
"                                  % % % % %       + x C M m x j + + j x n M C x +                                               ",
"                                                    + o o o o +     + o o o o +                                                 ",
"                                                                                                                                ",
"                                                                                                                                ",
"                                                                                                                                ",
"                                                                                                                                ",
"                                                                                                                                ",
"                                                                                                                                ",
"                                                                                                                                ",
"                                                                                                                                ",
"                                                                                                                                ",
"                                                                                                                                ",
"                                                                                                                                "
};
