/* XPM */
static char *output_01[] = {
/* columns rows colors chars-per-pixel */
"64 64 204 2 ",
"   c None",
".  c #332E2D",
"X  c #3A292A",
"o  c #212C36",
"O  c #232B39",
"+  c #2D2E34",
"@  c #25333D",
"#  c #2C3237",
"$  c #37393A",
"%  c #372C2B",
"&  c #5F1F18",
"*  c #6A1C13",
"=  c #59201B",
"-  c #4F2E1F",
";  c #7A2D1D",
":  c #7E301E",
">  c #642016",
",  c #432F27",
"<  c #4D2F2D",
"1  c #4A3121",
"2  c #45352A",
"3  c #4A3F2C",
"4  c #44342A",
"5  c #583E29",
"6  c #473C38",
"7  c #563534",
"8  c #572F2E",
"9  c #602621",
"0  c #64312B",
"q  c #763928",
"w  c #5D432B",
"e  c #5E492B",
"r  c #4E4233",
"t  c #4C483C",
"y  c #544431",
"u  c #5B4B37",
"i  c #4D422E",
"p  c #60492D",
"a  c #684B35",
"s  c #7C4735",
"d  c #6C5234",
"f  c #6D5B33",
"g  c #64533D",
"h  c #745639",
"j  c #765A38",
"k  c #76422C",
"l  c #7C643C",
"z  c #77643B",
"x  c #293B44",
"c  c #2B3E48",
"v  c #273741",
"b  c #353D45",
"n  c #2D434C",
"m  c #2F484F",
"M  c #3D4344",
"N  c #32424B",
"B  c #2F4550",
"V  c #2F4A51",
"C  c #314751",
"Z  c #324B55",
"A  c #364F5B",
"S  c #394E5A",
"D  c #3B4C54",
"F  c #325357",
"G  c #36545C",
"H  c #3B545D",
"J  c #355B5E",
"K  c #395661",
"L  c #375E61",
"P  c #3B5B64",
"I  c #3E5F69",
"U  c #3B6166",
"Y  c #3E626B",
"T  c #3D6D6E",
"R  c #3F7272",
"E  c #41444C",
"W  c #48494B",
"Q  c #5D4747",
"!  c #464E54",
"~  c #475458",
"^  c #5B5A59",
"/  c #545758",
"(  c #4F5149",
")  c #6A4A46",
"_  c #675C43",
"`  c #685B54",
"'  c #7B5C52",
"]  c #77584F",
"[  c #4C605A",
"{  c #6C6148",
"}  c #756847",
"|  c #6B635B",
" . c #786B5B",
".. c #7D7355",
"X. c #7C7358",
"o. c #465B62",
"O. c #555C60",
"+. c #41656E",
"@. c #4D6569",
"#. c #586565",
"$. c #426771",
"%. c #436C74",
"&. c #437275",
"*. c #467379",
"=. c #48767C",
"-. c #48797E",
";. c #457E7D",
":. c #5A797A",
">. c #797562",
",. c #833522",
"<. c #903D2D",
"1. c #8B3E30",
"2. c #874A2D",
"3. c #96482B",
"4. c #9E4E32",
"5. c #974633",
"6. c #8D5036",
"7. c #A15331",
"8. c #A5543B",
"9. c #A85B3A",
"0. c #B05F3F",
"q. c #836A3E",
"w. c #82713D",
"e. c #B1623C",
"r. c #B76A3D",
"t. c #AE6138",
"y. c #815B4F",
"u. c #995844",
"i. c #824C41",
"p. c #87634A",
"a. c #8E7644",
"s. c #927B46",
"d. c #947848",
"f. c #82685A",
"g. c #856652",
"h. c #837959",
"j. c #A46347",
"k. c #B46341",
"l. c #B86843",
"z. c #BB7142",
"x. c #A97450",
"c. c #C37346",
"v. c #C67648",
"b. c #CC7D4A",
"n. c #C67947",
"m. c #9C824B",
"M. c #958445",
"N. c #978848",
"B. c #A2894E",
"V. c #AA9352",
"C. c #AE9853",
"Z. c #B19C55",
"A. c #A2924C",
"S. c #B5A256",
"D. c #8D8564",
"F. c #948968",
"G. c #9A926C",
"H. c #949174",
"J. c #A59C77",
"K. c #AAA17A",
"L. c #CE804A",
"P. c #D1834B",
"I. c #D78A4E",
"U. c #DA8C50",
"Y. c #DD9051",
"T. c #E19453",
"R. c #E79A56",
"E. c #C5B65D",
"W. c #D0BC7A",
"Q. c #CCC060",
"!. c #4A7D82",
"~. c #5F7C83",
"^. c #4D8487",
"/. c #4D8789",
"(. c #4E8B8C",
"). c #518E8E",
"_. c #558383",
"`. c #519492",
"'. c #539A96",
"]. c #549D99",
"[. c #509491",
"{. c #7B9295",
"}. c #55A49D",
"|. c #57A9A1",
" X c #56A7A0",
".X c #838D8C",
"XX c #ADA584",
"oX c #B3AB82",
"OX c #BDB68A",
"+X c #B7AE95",
"@X c #C3BD8E",
"#X c #C5BF90",
"$X c #C3BCA5",
"%X c #B8C1BD",
"&X c #C9C58E",
"*X c #D2CC94",
"=X c #F8DD8A",
"-X c #CDCAAD",
";X c #EBEBBE",
":X c #B4C5C1",
">X c #DBD6C5",
",X c #D4DBD4",
"<X c #E7E5D5",
"1X c #FBFAEF",
/* pixels */
"                                                                                                                                ",
"                                                                                                                                ",
"                                                                                                                                ",
"                                                                                                                                ",
"                                                                          * *                                                   ",
"                                                                        * t.I.* *                                               ",
"                                                                        ,.z.R.,.,.                                              ",
"                                                                  o = ; v.U.R.v.7.* + o                                         ",
"                                                              o c G @.| 0.c.P.0.p.#.H A o                                       ",
"                                                              @ C $.!.:.u.l.c.u. .^.%.I @                                       ",
"                                                          o o +.*.^.^.^.^.f.8.^.^.^.^.!.$.n o                                   ",
"                                                          n Z *.!.^.`.`.^.f.8.^.(.`./.^.=.K Z                                   ",
"                                                        o Z $.^.^.^.}.}.^.f.8.^.`.|.(.^.^.*.+.o o                               ",
"                                            o o o o     o Z $.^.`.}.|.|.}.).~.}. X|.}.].^.*.+.o o   o o o o o                   ",
"                                          o o F Z m     o Z $.^.(.].}.|.|.'.).|.|.|.}.'.^.*.+.o o   n Z F v o                   ",
"                                          o o }.].^.n o o Z $.^.^.^.}.|.|.|.|.|.|.|.(./.^.*.+.o o o *.(.|.G o                   ",
"                                              Z L %.%.U o n K %.=.^.(.(.-.^.).-.^.)./.^.%.I K o m %.%.+.Z n                     ",
"                                              o c Y -.*.+ N A Y $.-.!.!.+.=.^.+.&.^.-.*.Y K A + H ^.+.G o                       ",
"                                                  o K @.<.Q A c v o P +.A %.^.A P $.v @ c Z S <.) $.@ o                         ",
"                                                  o A ~ <.Q A G #.F.~ A %.^.'.$.P Z h.>.G G S <.) P @ o                         ",
"                                                  o C ! <.Q A $.H.=X( c ^.'.|.^.U o W.&X$.K S <.) A @ o                         ",
"                                                    O $ 8.5.1.+.=._.%.&.}.|.|.}.(.+._._.$.) 1.8.a O                             ",
"                                                    X < k.8.5.^ #.^.$.Y ;.`.|.;.&.I !.-.^ i.5.e.s X                             ",
"                                                    * ; v.k.8.<.] ^.P Z o &.|.o x A -.:.<.4.8.n.4.*                             ",
"                                                  * r.n.v.p./ O..X,X~.I C V V C G Y :X%XO./ / v.n.n.: *       f f f             ",
"                                                  & r.P.b.g.! $.{.,X:.P Z x o Z G I %X%X$.o.~ b.L.P.; >       h.} f             ",
"                                              o o o = : R.c.8.+.G o o o o o o o o o o x $.y.8.R.e.* - 1 1 p z 1X+Xf             ",
"                                            o R T P W ) 7.0.l.' ` Z K U R R R R T P G ! ' j.l.7.2.k j h e H.+XXXG.              ",
"                                          o o }.].^.%.o.* 4.v.8.y.$.!.(.|.|.|.|.'.^.%.#.8.l.c.* q l d.d.f $X<Xf f               ",
"                                        o T }./.!.$.$.o.* t.R.v.l.8.#.+.G g.v.G P $.u.9.v.U.T.* 2.m.C.S.E.s.f 1 1               ",
"                                        n &.'.!.*.$.K D 8 6.r.P.v.k.f. .` x.P.` |  .j.l.P.c.r.u g l B.Z.E.A.s.z z               ",
"                                    o @ $.=.^.$.$.$.x @ A 7 * T.U.v.v.v.v.U.R.v.v.v.v.b.R.3.* ^.[ 1 a.B.Z.E.Q.Q.A.f f f         ",
"                                  o U &.!.*.%.Z n x     @ b E ,.9.T.3.3.T.T.R.T.r.: L.b.,.u E r u h p d B.C.S.w.J.-X>X$Xf       ",
"                                  n *.(.(.!.%.Z c o     o n H 0 6.P.q q P.Y.R.P.9.9 z.z.0 W H 1 w h r u a.B.V.z J.>X>X$Xf       ",
"                              o F |.|.|.|.`.^.$.G o     o Z $.^.^ * E E * r.R.* 8 A 9 0 ^.*.+.1 1 1 o.~ 1 q.m.Z.s.f f f         ",
"                              o F |.&.L L ;.'.Z c         c n *.@.^ $.+.6 s 4.6 ! %./ / *.G n       N N M u d j u 6             ",
"                              o F |.Z o o T |.@ o         o o +.*.^.^.-.A 8 * A Y ^.^.!.$.n o       o @ A 6 1 1 . o             ",
"                                  o g j 1 . o             o o c n A A A c c c c C A A Z c @ o           o n G ^.K o             ",
"                                t ( g a 1 . o               o $ $ M C C C n c B C Z M M $ # o           o c B ^.&.L             ",
"                              3 g F.u 1                       1 1 1 $ n A B c A Z c 4 1 1                 o @ ^.`.|.x o         ",
"                            3 X.F.OX_ 3                       1 5 h 3 2 2 2 4 2 2 4 d d 1               o P *.}.}.|.x o         ",
"                          u u F.J.K.{ 3                       2 y h w 5 w e p w w w l j 1 X             o P *.|.'.(.x o         ",
"                    3 3 3 { F.OXG.3                       o o A M 1 h p.m.V.Z.m.m.m.m.a.1 . o             o @ |.T o             ",
"                  3 {  .h.G.oX..}                         o o I H M y d V.C.Z.V.a.d m.s.1 . o                 J Z               ",
"                  i X.F.K.oXOXu 3                         O o +.I G 2 e C.Z.Z.C.w.1 m.M.1 . o                 o o               ",
"              3 _ J.OX&X*XF.3                             O o +.$.$.x + 1 N.Q.1 % o , 6 $.n o                                   ",
"              ..D.oX&X&XG...3                             O o *.%.$.x o , z M., . o $ W *.B o                                   ",
"        3 3 3 oX@X@X*X&Xi                                 O o ^.-.$.x o   , 1   O o Z P ^.Z o                                   ",
"    3 y G.J.K.@X*X;XD.g                                   O o ^.^.!.c o         O o %.!.^.Z o                                   ",
"    3 r F.G.J.J.oX-XX.3                                 O n V (.(.^.c o         O o *./.).U V O                                 ",
"  3 3 3 3 3 3 3 3 3                                     o R |.|.'.^.c o         O o *.(.|.|.}.o O                               ",
"                                                        O V G G F Z v O           O n Z G G G O                                 ",
"                                                          O o o o o                 o o o o o                                   ",
"                                                                                                                                ",
"                                                                                                                                ",
"                                                                                                                                ",
"                                                                                                                                ",
"                                                                                                                                ",
"                                                                                                                                ",
"                                                                                                                                ",
"                                                                                                                                ",
"                                                                                                                                ",
"                                                                                                                                ",
"                                                                                                                                "
};
