/* XPM */
static char *wall[] = {
/* columns rows colors chars-per-pixel */
"64 64 15 1 ",
"  c #A6B04F",
". c #0F2D28",
"X c #368C47",
"o c #277345",
"O c #40A23D",
"+ c #1B473E",
"@ c #246544",
"# c #4AB734",
"$ c #4B2925",
"% c #9CA54A",
"& c #5C3434",
"* c #3D1D1A",
"= c #6D423A",
"- c #97593E",
"; c #B2854C",
/* pixels */
"                                                                ",
"                                                                ",
"                              .   .                             ",
"                           . .X. .X. .                          ",
"                         ..X.ooO.Xo+.X.                         ",
"                        .@.oXooOOo@@Xo+..                       ",
"                       .O@XoX#XXOXoooX+@X...                    ",
"                   ..  .OOooX##XX#oXXXXX.+@.                    ",
"                   .X..oXX#oXX#O##X###Xoo@++..                  ",
"                   .@XXXoX###XOO#O###XooXXX@.                   ",
"                 .. .ooooXX###X##OOXXX#Xo@..                    ",
"                .oo.OOXXXXXO##########XXOOOO...                 ",
"                .@oooXX###OOO########XXXXOO@ooo.                ",
"               .X@@oo@XXOOO########OOOOOXX@@@#+.                ",
"             ..++XXXX##OOO###########OO######ooX.               ",
"             .ooooXXooOO#####O########OOO##XXXX.                ",
"             .+oo@@ooX#####OO#####OO###OXXooXX@@..              ",
"            .@+OOOOOOXXXXOOOO######OOOX##XOOo@@ooo..            ",
"             .@+oOOOXXXX#OOO####O###OOOXXXXOOO@@ooo@.           ",
"           ..ooooo@@@###OOXX##O##O##OO##XXXXXOOOO@@.            ",
"          .@@@oo@@@###oooXX##OO##OO##O###oooo@@@@@.             ",
"           .@@@++XXoooooX##OOO##OOOOO#O####oooo++.              ",
"           .++XXXXXXoooXXXOOOO##OOOOXOOO#####XXXXX...           ",
"          .XXXXXXXXoooOOXX#OOO##OOOOOXXOO######XXXXXX.          ",
"           .+XXXXo+@OOOOX##OXO#OOXO#OXXXXXX@@@oooXXX.           ",
"         ..@@@@+++oOOOOXo##XXOOOOXO##OoXXOOO@@@@@oo.            ",
"        .@@@@@++oOOOOXoo##XXXOOOXXXO##ooXXOOOO@@oooo..          ",
"         .@@@+oooo@@ooXooXOXXO#OXXXX##oo@@XOOOO@@ooooo.         ",
"          ...ooo@@++XXXoOOOXo##OXXXXX##oo@@@OOOOO@@+..          ",
"             .+++++XXXo@OOXOo##oXXXXOX#ooo@oo+OOOOOO.           ",
"            .+@@++XXXo@OOOXo###oXOXXOOX#oo@@ooo++@@@@..         ",
"          ..@@@++XXX++OOOOoo##OoXOOoXOOXoXo++ooo++@@@@@.        ",
"         .@@@@+.XXX++OOO@ooo##oooOOooOOOooXX+++ooo++...         ",
"          ..@+.X.+++O@@@@oXo##oooOOOooOOOoXXX++@@@@.            ",
"            .. .+@++ooo@XXXo#@oXoOOOoo@OOooXXX++@@@@..          ",
"             ..@@++ooo@+XXoo@@oXooOOoXo@OOooXXX+.+@@@@.         ",
"           ..@@@++ooo@+XXXo@@@XXXoOOoXX@@OO+@XXXX.....          ",
"          .@@@@+.ooo+++XXo+@@@XXXoOO@XX@o@@X@@@XXX.             ",
"           .@@+.o@@++@XXX++@o@@XXo+O@@XX@oo++@@@@@X.            ",
"            ... .@+@@@XX+++oo@+XXo+O@@XX+ooo++@@+..             ",
"                 .@@@XX++@+oo@+XXo+@@o+XX+ooo++@@.              ",
"                .@@@++.+@@+oo++XX++@ooo+X++oo++..@.             ",
"               .@@@+.. .@@ooo+++X+++ooo++X@++o.  .              ",
"                ....  .@@@oo@+@++.+@+oo+++@@+.                  ",
"                      .@@+oo++@+.$.@+ooo+.@@.                   ",
"                     .@@+.o.+@@@.$.@@+oo.%.@@.                  ",
"                    .@@..o.%.@@@.$$.@@+o.%%...                  ",
"                    %..%%.%%.@@@.$&.@@@.%%%%%                   ",
"                   %%%%%%%%*.@@.$&&$.@@.%%%%%%                  ",
"                   %%%%%%%*$$.@.$&=&$.@.%%%%%%                  ",
"                  %%%%%%%*==$.@.&====&.*%%%%%%%                 ",
"                  %%%%%%**=$-=.=--=$=*=&*%%%%%%                 ",
"                  %%%%%%%%*-=&=---;=*%***%%%%%%                 ",
"                   %%%%%%*-*&=;-*--;-*%%%%%%%%                  ",
"                   %%%%%%**%*--*%**--*%%%%%%%%                  ",
"                    %%%%%%%%%**%%%%**%%%%%%%%                   ",
"                     %%%%%%%%%%%%%%%%%%%%%%%                    ",
"                      %%%%%%%%%%%%%%%%%%%%%                     ",
"                        %%%%%%%%%%%%%%%%%                       ",
"                           %%%%%%%%%%%                          ",
"                                                                ",
"                                                                ",
"                                                                ",
"                                                                "
};
